<svg xmlns="http://www.w3.org/2000/svg" xmlns:xlink="http://www.w3.org/1999/xlink" fill="none" version="1.1" width="16" height="16" viewBox="0 0 16 16"><g><path d="M15.333323494140625,8.000081546875Q15.333324494140625,8.180105246875,15.324490494140624,8.359911446875Q15.315656494140624,8.539717646875001,15.298011494140624,8.718873946875Q15.280364494140626,8.898029346875,15.253950494140625,9.076104146875Q15.227535494140625,9.254179046875,15.192414494140625,9.430743246875Q15.157293494140625,9.607307446875,15.113551494140625,9.781934746875Q15.069808494140625,9.956563946875,15.017551494140625,10.128835646875Q14.965292494140625,10.301107446875,14.904644494140625,10.470605846875Q14.843996494140624,10.640106246875,14.775104494140624,10.806425046875Q14.706213494140625,10.972745046875,14.629242494140625,11.135485046875Q14.552272494140626,11.298223046875,14.467412494140625,11.456990046875Q14.382549494140624,11.615756046875,14.289998494140624,11.770166046875Q14.197447494140626,11.924578046875,14.097432494140625,12.074262046875Q13.997417494140626,12.223946046875,13.890176494140626,12.368542046875Q13.782938494140625,12.513138046875,13.668732494140626,12.652298046875Q13.554527494140626,12.791458046875,13.433630494140624,12.924846046875Q13.312734494140624,13.058234046875,13.185439494140626,13.185530046875Q13.058143494140625,13.312825046875,12.924755494140625,13.433721046875Q12.791366494140625,13.554619046875,12.652207494140624,13.668824046875Q12.513047494140626,13.783030046875,12.368451494140626,13.890269046875Q12.223854494140625,13.997509046875,12.074170494140626,14.097524046875Q11.924486494140625,14.197539046875,11.770075494140626,14.290090046875Q11.615665494140625,14.382640046875,11.456899494140625,14.467503046875Q11.298132494140624,14.552364046875,11.135393494140626,14.629334046875Q10.972654494140626,14.706305046875,10.806334494140625,14.775196046875Q10.640014694140625,14.844088046875,10.470515294140625,14.904736046875Q10.301015894140624,14.965384046875,10.128744094140625,15.017643046875Q9.956472394140626,15.069900046875,9.781845094140625,15.113643046875Q9.607215894140625,15.157385046875,9.430652594140625,15.192506046875Q9.254088394140625,15.227627046875,9.076013594140624,15.254042046875Q8.897938694140626,15.280456046875,8.718782394140625,15.298103046875Q8.539626094140626,15.315748046875,8.359819894140625,15.324582046875Q8.180013694140625,15.333415046875,7.999989994140625,15.333415046875Q7.819966794140625,15.333415046875,7.640160094140625,15.324581046875Q7.460353894140625,15.315748046875,7.281197594140625,15.298103046875Q7.102041294140625,15.280456046875,6.923966394140625,15.254042046875Q6.745891594140625,15.227627046875,6.569327394140625,15.192506046875Q6.392763094140625,15.157385046875,6.218135394140625,15.113643046875Q6.043506594140625,15.069900046875,5.871235894140625,15.017643046875Q5.698964094140625,14.965384046875,5.529463794140625,14.904736046875Q5.359963894140625,14.844088046875,5.193644094140625,14.775196046875Q5.027324194140625,14.706305046875,4.864585394140625,14.629334046875Q4.701846094140625,14.552364046875,4.543080094140625,14.467504046875Q4.384313594140625,14.382641046875,4.2299024941406245,14.290090046875Q4.0754913941406254,14.197539046875,3.925807694140625,14.097524046875Q3.776123994140625,13.997509046875,3.631528094140625,13.890268046875Q3.486932294140625,13.783030046875,3.347772394140625,13.668824046875Q3.208612394140625,13.554619046875,3.075224194140625,13.433722046875Q2.941835594140625,13.312826046875,2.814539894140625,13.185531046875Q2.687244394140625,13.058235046875,2.5663480941406247,12.924847046875Q2.445451994140625,12.791458046875,2.331246494140625,12.652299046875Q2.217040894140625,12.513139046875,2.109801094140625,12.368543046875Q2.002561294140625,12.223946046875,1.902545794140625,12.074262046875Q1.802530294140625,11.924578046875,1.709979894140625,11.770167046875Q1.6174294941406249,11.615757046875,1.532567084140625,11.456991046875Q1.447704674140625,11.298224046875,1.370734934140625,11.135485046875Q1.2937650641406249,10.972746046875,1.224873184140625,10.806426046875Q1.155981304140625,10.640106246875,1.095333304140625,10.470606846875Q1.034685314140625,10.301107446875,0.982427354140625,10.128835646875Q0.930169374140625,9.956563946875,0.886427294140625,9.781936646875Q0.842685224140625,9.607307446875,0.807564424140625,9.430744146875Q0.772443634140625,9.254179946875,0.746028744140625,9.076105146875Q0.719613857140625,8.898030246875,0.701968498140625,8.718873946875Q0.684323136140625,8.539717646875001,0.675489814940625,8.359911446875Q0.666656494140625,8.180105246875,0.666656494140625,8.000081546875Q0.666656494140625,7.820058346875,0.675489814940625,7.640251646875Q0.684323136140625,7.460445446875,0.701968498140625,7.281289146875Q0.719613857140625,7.102132846875,0.746028751140625,6.924057946875Q0.772443634140625,6.745983146875,0.807564424140625,6.569418946875Q0.842685224140625,6.392854646875,0.886427284140625,6.218226946875Q0.930169374140625,6.043598146875,0.982427354140625,5.871327446875Q1.034685314140625,5.699055646875,1.095333304140625,5.529555346875Q1.155981304140625,5.360055446875,1.224873184140625,5.193735646875Q1.2937650641406249,5.027415746875,1.370734934140625,4.864676946875Q1.447704734140625,4.701937646875,1.532567144140625,4.543171646875Q1.6174294941406249,4.384405146875,1.709979894140625,4.2299940468749995Q1.802530294140625,4.0755829468750004,1.902545894140625,3.925899246875Q2.002561494140625,3.776215546875,2.109801194140625,3.631619646875Q2.217040994140625,3.487023846875,2.331246594140625,3.347863946875Q2.445451994140625,3.208703946875,2.5663480941406247,3.075315746875Q2.687244394140625,2.941927146875,2.814539894140625,2.814631446875Q2.941835594140625,2.687335946875,3.075224194140625,2.5664396468749997Q3.208612394140625,2.445543546875,3.347772394140625,2.331338046875Q3.486932294140625,2.217132446875,3.631528394140625,2.109892646875Q3.776123994140625,2.002652846875,3.925807994140625,1.902637346875Q4.075491694140625,1.802621846875,4.229902794140624,1.710071446875Q4.384313794140625,1.6175210468749999,4.5430802941406245,1.532658636875Q4.701846594140625,1.447796226875,4.864585894140625,1.370826486875Q5.027324694140625,1.2938566168749999,5.193644494140625,1.224964736875Q5.359964394140625,1.156072856875,5.529464294140625,1.095424856875Q5.698964094140625,1.034776866875,5.871235894140625,0.982518906875Q6.043506594140625,0.930260926875,6.218134894140625,0.886518846875Q6.392763094140625,0.842776776875,6.569327394140625,0.807655976875Q6.745891594140625,0.772535186875,6.923966394140625,0.746120296875Q7.102041294140625,0.719705409875,7.281197594140625,0.702060050875Q7.460353894140625,0.684414688875,7.640160594140625,0.675581367675Q7.819966794140625,0.666748046875,7.999989994140625,0.666748046875Q8.180013694140625,0.666748046875,8.359819894140625,0.675581367675Q8.539626094140626,0.684414688875,8.718782394140625,0.702060050875Q8.897937794140624,0.719705409875,9.076012594140625,0.746120303875Q9.254087494140625,0.772535186875,9.430651694140625,0.807655976875Q9.607215894140625,0.842776776875,9.781843194140626,0.886518836875Q9.956472394140626,0.930260926875,10.128744094140625,0.982518906875Q10.301015894140624,1.034776866875,10.470514294140624,1.095424856875Q10.640014694140625,1.156072856875,10.806333494140626,1.224964736875Q10.972653494140625,1.2938566168749999,11.135393494140626,1.370826486875Q11.298131494140625,1.447796286875,11.456898494140624,1.532658696875Q11.615664494140624,1.6175210468749999,11.770074494140625,1.710071446875Q11.924486494140625,1.802621846875,12.074170494140626,1.902637446875Q12.223854494140625,2.002653046875,12.368450494140625,2.109892746875Q12.513046494140625,2.217132546875,12.652206494140625,2.331338146875Q12.791366494140625,2.445543546875,12.924754494140625,2.5664396468749997Q13.058142494140625,2.687335946875,13.185438494140625,2.814631446875Q13.312733494140625,2.941927146875,13.433629494140625,3.075315746875Q13.554527494140626,3.208703946875,13.668732494140626,3.347863946875Q13.782938494140625,3.487023846875,13.890177494140625,3.631619946875Q13.997417494140626,3.776215546875,14.097432494140625,3.925899546875Q14.197447494140626,4.075583246875,14.289998494140624,4.229994346874999Q14.382548494140625,4.384405346875,14.467411494140626,4.5431718468749995Q14.552272494140626,4.701938146875,14.629242494140625,4.864677446875Q14.706213494140625,5.027416246875,14.775104494140624,5.193736046875Q14.843996494140624,5.360055946875,14.904644494140625,5.529555846875Q14.965292494140625,5.699055646875,15.017551494140625,5.871327446875Q15.069808494140625,6.043598146875,15.113551494140625,6.218226446875Q15.157293494140625,6.392854646875,15.192414494140625,6.569418946875Q15.227535494140625,6.745983146875,15.253950494140625,6.924057946875Q15.280364494140626,7.102132846875,15.298011494140624,7.281289146875Q15.315656494140624,7.460445446875,15.324490494140624,7.640252146875Q15.333324494140625,7.820058346875,15.333323494140625,8.000081546875ZM14.333323494140625,8.000081546875Q14.333324494140625,8.155556246875001,14.325695494140625,8.310843446875001Q14.318065494140624,8.466131246875001,14.302826494140625,8.620857246875001Q14.287586494140625,8.775583246875,14.264773494140625,8.929374646875Q14.241960494140624,9.083166146875,14.211628494140625,9.235652946875Q14.181297494140624,9.388139746875,14.143521494140625,9.538955646875Q14.105743494140626,9.689770746875,14.060611494140625,9.838551546875Q14.015479494140624,9.987331346875,13.963100494140624,10.133717546875Q13.910722494140625,10.280103646875,13.851225494140625,10.423743246875Q13.791728494140624,10.567382846875,13.725255494140624,10.707931046875Q13.658781494140625,10.848478046875,13.585491494140625,10.985595046875Q13.512200494140625,11.122711046875,13.432270494140624,11.256065046875Q13.352339494140624,11.389420046875,13.265962494140625,11.518692046875Q13.179585494140625,11.647964046875,13.086969494140625,11.772843046875Q12.994354494140625,11.897722046875,12.895722494140625,12.017905046875Q12.797090494140624,12.138088046875,12.692680494140625,12.253288046875Q12.588270494140625,12.368486046875,12.478332494140625,12.478424046875Q12.368394494140626,12.588362046875,12.253195494140625,12.692772046875Q12.137997494140626,12.797182046875,12.017814494140625,12.895815046875Q11.897630494140625,12.994446046875,11.772751494140625,13.087062046875Q11.647872494140625,13.179677046875,11.518600494140625,13.266054046875Q11.389328494140624,13.352431046875,11.255973494140624,13.432362046875Q11.122619494140626,13.512292046875,10.985503494140625,13.585583046875Q10.848386494140625,13.658873046875,10.707839494140625,13.725347046875Q10.567291294140626,13.791820046875,10.423651694140625,13.851318046875Q10.280012094140625,13.910816046875,10.133625994140624,13.963194046875Q9.987239794140624,14.015572046875,9.838459994140624,14.060704046875Q9.689680094140625,14.105835046875,9.538864094140624,14.143613046875Q9.388049094140625,14.181390046875,9.235562294140625,14.211721046875Q9.083074594140625,14.242053046875,8.929283094140626,14.264866046875Q8.775491694140625,14.287680046875,8.620765694140626,14.302919046875Q8.466039694140626,14.318157046875,8.310751894140626,14.325787046875Q8.155464694140626,14.333415046875,7.999989994140625,14.333415046875Q7.844515794140625,14.333415046875,7.689228494140625,14.325786046875Q7.533941294140625,14.318157046875,7.379215194140625,14.302918046875Q7.224489194140625,14.287678046875,7.070696794140625,14.264865046875Q6.916904894140625,14.242052046875,6.764417694140625,14.211720046875Q6.611930394140625,14.181389046875,6.461115394140625,14.143613046875Q6.310299894140625,14.105835046875,6.161519994140625,14.060703046875Q6.012740094140625,14.015571046875,5.866353994140625,13.963192046875Q5.719967794140625,13.910814046875,5.576327794140625,13.851317046875Q5.432687794140625,13.791820046875,5.292140994140625,13.725347046875Q5.151593194140625,13.658873046875,5.014477294140625,13.585583046875Q4.877360794140625,13.512292046875,4.744005694140625,13.432362046875Q4.610650494140625,13.352431046875,4.481378094140625,13.266054046875Q4.352105594140625,13.179677046875,4.2272271941406245,13.087061046875Q4.102348994140625,12.994446046875,3.982165794140625,12.895814046875Q3.861982094140625,12.797182046875,3.746782794140625,12.692772046875Q3.631583694140625,12.588362046875,3.521646694140625,12.478424046875Q3.411709594140625,12.368486046875,3.307299094140625,12.253287046875Q3.202888994140625,12.138089046875,3.104256894140625,12.017906046875Q3.005624794140625,11.897722046875,2.913008494140625,11.772843046875Q2.820392394140625,11.647964046875,2.734015494140625,11.518692046875Q2.647638294140625,11.389420046875,2.567708494140625,11.256065046875Q2.487778394140625,11.122711046875,2.414488294140625,10.985595046875Q2.341197994140625,10.848478046875,2.274724094140625,10.707931046875Q2.2082500941406247,10.567382846875,2.1487525941406247,10.423743246875Q2.0892550941406247,10.280103646875,2.0368772941406252,10.133717546875Q1.984499494140625,9.987331346875,1.939367694140625,9.838551546875Q1.894235694140625,9.689771646875,1.856458394140625,9.538955646875Q1.818681194140625,9.388140646875,1.788349594140625,9.235653846875Q1.758017994140625,9.083166146875,1.735205194140625,8.929374646875Q1.712392294140625,8.775583246875,1.697153294140625,8.620857246875001Q1.681914094140625,8.466131246875001,1.674285294140625,8.310843446875001Q1.666656494140625,8.155556246875001,1.666656494140625,8.000081546875Q1.666656494140625,7.844607346875,1.674285294140625,7.689320046875Q1.681914094140625,7.534032846875,1.697153294140625,7.379306746875Q1.712392294140625,7.224580746875,1.735205194140625,7.070788346875Q1.758017994140625,6.916996446875,1.788349594140625,6.764509246875Q1.818681194140625,6.612021946875,1.856458394140625,6.461206946875Q1.894235694140625,6.310391446875,1.939367694140625,6.161611546875Q1.984499494140625,6.012831646875,2.036877194140625,5.866445546875Q2.089254894140625,5.720059346875,2.1487524941406253,5.576419346875Q2.2082500941406247,5.432779346875,2.2747239941406248,5.292232546875Q2.341197994140625,5.151684746875,2.414488294140625,5.014568846875Q2.487778394140625,4.877452346875,2.5677082941406253,4.744097246875Q2.647638094140625,4.610742046875,2.734015194140625,4.481469646875Q2.820392094140625,4.352197146875,2.913008494140625,4.2273187468749995Q3.005624494140625,4.102440546875,3.104256594140625,3.982257346875Q3.202888494140625,3.862073646875,3.307298894140625,3.746874346875Q3.411709294140625,3.631675246875,3.521646494140625,3.521738246875Q3.631583694140625,3.411801146875,3.746782794140625,3.307390646875Q3.861981894140625,3.202980546875,3.982165294140625,3.104348446875Q4.1023487941406245,3.005716346875,4.2272271941406245,2.913100046875Q4.352105394140625,2.820483946875,4.481377794140625,2.734107046875Q4.610650494140625,2.647729846875,4.744005694140625,2.567800046875Q4.877360294140625,2.487870146875,5.014476794140625,2.414579946875Q5.151593194140625,2.341289746875,5.292140494140625,2.2748158468749997Q5.432687794140625,2.2083418468750002,5.576327294140625,2.148844246875Q5.719966894140625,2.0893466468749997,5.866353494140625,2.036968946875Q6.012739694140625,1.984591246875,6.161519994140625,1.939459346875Q6.310299894140625,1.894327446875,6.461114394140625,1.856550146875Q6.611929894140625,1.818772746875,6.764417194140625,1.788441146875Q6.916904494140625,1.758109546875,7.070696794140625,1.735296746875Q7.224488694140625,1.712483846875,7.379214794140625,1.697244846875Q7.533940794140625,1.682005646875,7.689228094140625,1.674376846875Q7.844515794140625,1.666748046875,7.999989994140625,1.666748046875Q8.155464694140626,1.666748046875,8.310751894140626,1.674376846875Q8.466039694140626,1.682005646875,8.620765694140626,1.697244846875Q8.775491694140625,1.712483846875,8.929283094140626,1.735296746875Q9.083074594140625,1.758109546875,9.235561394140625,1.788441146875Q9.388048194140625,1.818772746875,9.538864094140624,1.856549946875Q9.689679194140625,1.894327246875,9.838459994140624,1.939459246875Q9.987239794140624,1.984591046875,10.133625994140624,2.0369688468750002Q10.280012094140625,2.0893466468749997,10.423651694140625,2.1488441468749997Q10.567291294140626,2.2083416468749997,10.707839494140625,2.274815646875Q10.848386494140625,2.341289546875,10.985503494140625,2.414579846875Q11.122619494140626,2.487869946875,11.255973494140624,2.5677998468750003Q11.389328494140624,2.647729646875,11.518600494140625,2.734106746875Q11.647872494140625,2.820483646875,11.772751494140625,2.913100046875Q11.897630494140625,3.005716046875,12.017813494140626,3.104348146875Q12.137996494140625,3.202980046875,12.253196494140624,3.307390446875Q12.368394494140626,3.411800846875,12.478332494140625,3.521738046875Q12.588270494140625,3.631675246875,12.692680494140625,3.746874346875Q12.797090494140624,3.862073446875,12.895723494140626,3.982256846875Q12.994354494140625,4.1024403468749995,13.086970494140624,4.2273187468749995Q13.179585494140625,4.352196946875,13.265962494140625,4.481469346875Q13.352339494140624,4.610742046875,13.432270494140624,4.744097246875Q13.512200494140625,4.877451846875,13.585491494140625,5.014568346875Q13.658781494140625,5.151684746875,13.725255494140624,5.292232046875Q13.791728494140624,5.432779346875,13.851226494140626,5.576418846875Q13.910724494140625,5.720058446875,13.963102494140625,5.866445046875Q14.015480494140625,6.012831246875,14.060612494140624,6.161611546875Q14.105743494140626,6.310391446875,14.143521494140625,6.461205946875Q14.181298494140625,6.612021446875,14.211629494140626,6.764508746875Q14.241961494140625,6.916996046875,14.264774494140624,7.070788346875Q14.287588494140625,7.224580246875,14.302827494140624,7.379306346875Q14.318066494140625,7.534032346875,14.325695494140625,7.689319646875Q14.333324494140625,7.844607346875,14.333323494140625,8.000081546875ZM8.833323494140625,4.833333446875Q8.833323494140625,4.915410046875,8.817311294140625,4.995908746875Q8.801298094140625,5.076408346875,8.769888894140625,5.152236446875Q8.738479594140625,5.228065046875,8.692880594140625,5.296308546875Q8.647281694140625,5.364552546875,8.589245294140625,5.422589346875Q8.531207994140626,5.480625646875,8.462964494140625,5.526224646875Q8.394720594140626,5.571823646875,8.318892494140625,5.603232846875Q8.243063894140626,5.634641646875,8.162564794140625,5.650654346875Q8.082065594140625,5.666666946875,7.999989994140625,5.666666946875Q7.917913394140625,5.666666946875,7.837414294140625,5.650654346875Q7.756915094140625,5.634641646875,7.681086494140625,5.603232846875Q7.605257994140625,5.571823646875,7.537013994140625,5.526224646875Q7.468769994140625,5.480625646875,7.410733694140625,5.422589346875Q7.352696894140625,5.364552546875,7.307097894140625,5.296308546875Q7.261498494140625,5.228064546875,7.230089694140625,5.152235946875Q7.198680394140625,5.076407946875,7.182668194140625,4.995908746875Q7.166656494140625,4.915410046875,7.166656494140625,4.833333446875Q7.166656494140625,4.751256946875,7.182668194140625,4.670758246875Q7.198680394140625,4.590258846875,7.230089694140625,4.5144302468749995Q7.261498494140625,4.438601746874999,7.307097394140625,4.370357946875Q7.352696894140625,4.302114046874999,7.410733694140625,4.2440776468750006Q7.468769994140625,4.1860408468750006,7.537013994140625,4.1404418468749995Q7.605257994140625,4.094842946875,7.681086494140625,4.063433646875Q7.756915094140625,4.032024346875,7.837414294140625,4.016012146875Q7.917913394140625,4.000000046875,7.999989994140625,4.000000046875Q8.082065594140625,4.000000046875,8.162564294140626,4.016012146875Q8.243062994140626,4.032024346875,8.318891494140626,4.063433646875Q8.394720094140624,4.094842946875,8.462963594140625,4.1404418468749995Q8.531207994140626,4.1860408468750006,8.589244794140626,4.244077446875Q8.647281694140625,4.302114046874999,8.692880594140625,4.3703577468749994Q8.738479594140625,4.438601746874999,8.769889794140624,4.5144302468749995Q8.801299094140624,4.590258846875,8.817311294140625,4.670758246875Q8.833323494140625,4.751256946875,8.833323494140625,4.833333446875ZM8.333343494140625,6.666748046875C8.517438394140626,6.666748046875,8.666676494140624,6.815986646875,8.666676494140624,7.000081546875L8.666676494140624,11.666748046875C8.666676494140624,11.850843046875,8.517438394140626,12.000082046875,8.333343494140625,12.000082046875L7.666676994140625,12.000082046875C7.482582094140625,12.000082046875,7.333343494140625,11.850843046875,7.333343494140625,11.666748046875L7.333343494140625,7.000081546875C7.333343494140625,6.815986646875,7.482582094140625,6.666748046875,7.666676994140625,6.666748046875L8.333343494140625,6.666748046875Z" fill-rule="evenodd" fill="#FFFFFF" fill-opacity="0.8999999761581421"/></g></svg>