<svg xmlns="http://www.w3.org/2000/svg" xmlns:xlink="http://www.w3.org/1999/xlink" fill="none" version="1.1" width="16" height="16" viewBox="0 0 16 16"><g><path d="M7.999616128808594,7.5000410234375Q8.163372528808594,7.5000410234375,8.326339728808595,7.4839902234375Q8.489307428808594,7.4679394234375,8.649916628808594,7.4359913234375Q8.810526328808594,7.4040446234375,8.967231228808593,7.3565087234375Q9.123935728808593,7.3089728234375,9.275226628808593,7.2463054234375Q9.426517528808594,7.1836385234375,9.570938128808594,7.1064448234375Q9.715357828808594,7.0292506234375,9.851515728808593,6.9382725234375Q9.987674728808594,6.8472948234375,10.114259728808594,6.7434091234375Q10.240844728808593,6.6395235234375,10.356637928808594,6.5237303234375Q10.472431228808594,6.4079375234375,10.576316828808594,6.2813520234375Q10.680202528808593,6.1547670234375,10.771180128808593,6.0186081234375Q10.862158728808593,5.8824501234375,10.939353028808593,5.7380295234375Q11.016547228808594,5.5936098234375,11.079213128808593,5.4423184234375Q11.141881028808594,5.2910280234375,11.189416928808594,5.1343226234375Q11.236953728808594,4.9776182234375,11.268899928808594,4.8170082234375Q11.300848028808593,4.6563990234374995,11.316899328808594,4.4934313234375Q11.332950628808593,4.330463923437501,11.332949628808594,4.1667075234375Q11.332950628808593,4.0029516234375,11.316898328808593,3.8399837234375Q11.300848028808593,3.6770160234375,11.268899928808594,3.5164060234375Q11.236953728808594,3.3557966234375,11.189416928808594,3.1990916234375Q11.141881028808594,3.0423870234375,11.079213128808593,2.8910959234375Q11.016547228808594,2.7398050234375,10.939353028808593,2.5953851234375Q10.862158728808593,2.4509649234374997,10.771180128808593,2.3148066234374998Q10.680202528808593,2.1786483234375,10.576316828808594,2.0520631234374997Q10.472431228808594,1.9254778234375,10.356637928808594,1.8096847534375Q10.240844728808593,1.6938917034375,10.114259728808594,1.5900058734375Q9.987674728808594,1.4861200434375,9.851515728808593,1.3951419634375Q9.715358728808594,1.3041639034374999,9.570938128808594,1.2269697534375Q9.426518428808594,1.1497756234375,9.275227028808594,1.0871088834375Q9.123936628808593,1.0244421234375,8.967231228808593,0.9769062134375Q8.810526828808595,0.9293703284375,8.649916628808594,0.8974230814375Q8.489307428808594,0.8654758444375,8.326340228808593,0.8494249344375Q8.163372528808594,0.8333740234375,7.999616128808594,0.8333740234375Q7.835860228808594,0.8333740234375,7.672892528808593,0.8494249344375Q7.509924928808593,0.8654758444375,7.349314728808594,0.8974230814375Q7.188705428808594,0.9293703284375,7.032000528808593,0.9769062234375Q6.875295628808594,1.0244421234375,6.724004228808594,1.0871088834375Q6.572713828808594,1.1497756234375,6.428293728808594,1.2269697834375Q6.283873528808594,1.3041639034374999,6.147715128808594,1.3951419634375Q6.011556628808593,1.4861200434375,5.884971628808594,1.5900058734375Q5.758386628808593,1.6938917034375,5.642593428808594,1.8096847534375Q5.526800628808594,1.9254778234375,5.422914528808594,2.0520631234374997Q5.319028628808594,2.1786482234375,5.228050228808594,2.3148064234375Q5.1370723288085935,2.4509649234374997,5.0598781288085934,2.5953848234375Q4.982684128808594,2.7398050234375,4.920017228808594,2.8910959234375Q4.857350628808594,3.0423870234375,4.809814728808593,3.1990916234375Q4.762278528808594,3.3557968234375,4.730331428808594,3.5164063234375Q4.698384328808594,3.6770162234375,4.682333428808594,3.8399837234375Q4.6662826288085935,4.0029516234375,4.6662826288085935,4.1667075234375Q4.6662826288085935,4.330463923437501,4.682333428808594,4.493431523437501Q4.698384328808594,4.6563992234375,4.730331428808594,4.8170085234375Q4.762278528808594,4.9776182234375,4.809814428808593,5.1343231234375Q4.857350628808594,5.2910280234375,4.920017228808594,5.4423189234375Q4.982684128808594,5.5936098234375,5.059878328808594,5.7380299234375Q5.1370723288085935,5.8824501234375,5.228050228808594,6.0186081234375Q5.319028628808594,6.1547670234375,5.422914528808594,6.2813520234375Q5.526800628808594,6.4079375234375,5.642593428808594,6.5237303234375Q5.758386628808593,6.6395235234375,5.884971628808594,6.7434091234375Q6.011556628808593,6.8472948234375,6.147715128808594,6.9382725234375Q6.283873528808594,7.0292511234375,6.428293228808593,7.1064453234375Q6.572713828808594,7.1836395234375,6.724004228808594,7.2463059234375Q6.875295628808594,7.3089733234375,7.032000528808593,7.3565092234375Q7.188705428808594,7.4040451234375,7.349314728808594,7.4359917234375Q7.509924928808593,7.4679394234375,7.672892528808593,7.4839902234375Q7.835860228808594,7.5000410234375,7.999616128808594,7.5000410234375ZM7.999616128808594,6.5000410234375Q8.114245928808593,6.5000410234375,8.228323028808592,6.4888057234375Q8.342400528808593,6.4775700234375,8.454826328808593,6.4552064234375Q8.567253128808595,6.4328432234375,8.676947128808592,6.3995685234375Q8.786640128808592,6.3662929234375,8.892543828808595,6.3224258234375Q8.998447428808593,6.2785597234375,9.099541628808595,6.2245235234375Q9.200635928808595,6.1704879234375,9.295946128808595,6.1068029234375Q9.391257328808594,6.0431185234375,9.479867028808593,5.9703989234375Q9.568476628808593,5.8976788234375,9.649531328808594,5.8166232234375Q9.730587028808594,5.7355680234375,9.803306628808594,5.6469583234375Q9.876026128808594,5.5583486234375,9.939710628808594,5.4630375234375Q10.003396028808593,5.3677268234375,10.057432128808594,5.2666330234375Q10.111467328808594,5.1655388234375,10.155333528808594,5.0596347234375Q10.199200628808594,4.9537315234375,10.232476228808594,4.8440380234375Q10.265750928808593,4.7343447234375,10.288114528808594,4.6219179234375005Q10.310478228808593,4.5094914234375,10.321714428808594,4.3954141234375Q10.332949628808594,4.2813368234375,10.332949628808594,4.1667075234375Q10.332949628808594,4.0520782234374995,10.321713428808593,3.9380009234375Q10.310478228808593,3.8239236234375,10.288114528808594,3.7114968234375Q10.265751828808593,3.5990700234375,10.232476228808594,3.4893765234375Q10.199201628808593,3.3796832234375,10.155334428808594,3.2737794234375Q10.111467328808594,3.1678757234375,10.057432128808594,3.0667817234375Q10.003397028808594,2.9656877234375,9.939711528808594,2.8703768234375Q9.876028028808594,2.7750661234375,9.803307528808594,2.6864565234375Q9.730587028808594,2.5978467234375,9.649532328808593,2.5167914234374997Q9.568477628808594,2.4357363234375002,9.479867028808593,2.3630161234375002Q9.391257328808594,2.2902961234375,9.295946128808595,2.2266115234374997Q9.200635928808595,2.1629269234375,9.099541628808595,2.1088910234375Q8.998447428808593,2.0548551234375,8.892543828808595,2.0109883234375Q8.786640128808592,1.9671217234375,8.676946628808594,1.9338466234375Q8.567253128808595,1.9005716234375,8.454826328808593,1.8782084234375Q8.342400528808593,1.8558454234375,8.228323028808592,1.8446097234375Q8.114245928808593,1.8333740234375,7.999616128808594,1.8333740234375Q7.884986828808594,1.8333740234375,7.770909828808594,1.8446097234375Q7.656832228808594,1.8558454234375,7.544405028808594,1.8782084234375Q7.431978728808594,1.9005716234375,7.322285128808594,1.9338466234375Q7.212591628808593,1.9671217234375,7.106687528808593,2.0109883234375Q7.000784428808593,2.0548551234375,6.899690628808594,2.1088910234375Q6.798596428808594,2.1629269234375,6.703285228808594,2.2266115234374997Q6.607974528808594,2.2902961234375,6.519364828808594,2.3630162234375Q6.430755628808594,2.4357363234375002,6.349699928808594,2.5167914234374997Q6.268645328808594,2.5978467234375,6.195924728808594,2.6864564234375Q6.123205228808594,2.7750661234375,6.059519728808594,2.8703768234375Q5.995835328808594,2.9656877234375,5.941799628808594,3.0667817234375Q5.887763928808594,3.1678757234375,5.843896828808594,3.2737794234375Q5.800030228808594,3.3796832234375,5.766755128808594,3.4893765234375Q5.733479928808594,3.5990700234375,5.711116828808594,3.7114966234375Q5.688754128808593,3.8239236234375,5.677518328808594,3.9380009234375Q5.6662826288085935,4.0520782234374995,5.6662826288085935,4.1667075234375Q5.6662826288085935,4.2813368234375,5.677518328808594,4.3954141234375Q5.688754128808593,4.5094914234375,5.711116828808594,4.6219182234375005Q5.733479928808594,4.7343449234375,5.766755128808594,4.8440380234375Q5.800030228808594,4.9537315234375,5.843896828808594,5.0596351234375Q5.887763928808594,5.1655388234375,5.941799628808594,5.2666325234375Q5.995835328808594,5.3677268234375,6.059519728808594,5.4630375234375Q6.123205228808594,5.5583486234375,6.195925228808593,5.6469583234375Q6.268645328808594,5.7355680234375,6.349699928808594,5.8166232234375Q6.430755628808594,5.8976788234375,6.519365328808593,5.9703989234375Q6.607974528808594,6.0431185234375,6.703285228808594,6.1068029234375Q6.798596428808594,6.1704883234375,6.899690628808594,6.2245240234375Q7.000784428808593,6.2785601234375,7.106687528808593,6.3224263234375Q7.212591628808593,6.3662929234375,7.322285128808594,6.3995681234375Q7.431978728808594,6.4328437234375,7.544405028808594,6.4552068234375Q7.656832228808594,6.4775705234375,7.770909828808594,6.4888057234375Q7.884986828808594,6.5000410234375,7.999616128808594,6.5000410234375ZM8.535382228808594,8.5000000234375L7.463490928808594,8.5000000234375C6.360091228808594,8.5000000234375,5.467380028808593,8.665727623437501,4.675836128808594,9.0165109234375C3.8848433288085937,9.3670501234375,3.228866528808594,9.8946037234375,2.716825028808594,10.5919990234375C2.2044262288085936,11.2898800234375,1.8510765988085938,12.1262660234375,1.6144064438085937,13.2039850234375L1.5836527568085939,13.3449840234375C1.5645657629085938,13.4420410234375,1.5549545288085938,13.5407240234375,1.5549545288085938,13.6396400234375C1.5549545288085938,14.4829940234375,2.238627848808594,15.1666670234375,3.0819815288085937,15.1666670234375L12.918405528808593,15.1666670234375C13.017149528808593,15.1666670234375,13.115660528808593,15.1570890234375,13.212554528808594,15.1380680234375C14.040114528808594,14.9756140234375,14.579288528808593,14.1730490234375,14.416652528808594,13.3445720234375L14.386106528808593,13.2049340234375C14.149066528808595,12.1259320234375,13.795813528808594,11.2897850234375,13.283274528808594,10.5917873234375C12.771223528808594,9.8944521234375,12.115261528808594,9.3669519234375,11.324298828808594,9.0164509234375C10.532583228808594,8.6656165234375,9.640114828808594,8.5000000234375,8.535382228808594,8.5000000234375ZM8.535382228808594,9.5000000234375L7.4634905288085935,9.5000000234375C6.492267128808594,9.5000000234375,5.736331928808593,9.6403360234375,5.080996028808594,9.9307565234375C4.449469828808594,10.2106256234375,3.9317016288085935,10.6270284234375,3.5228889288085936,11.1838260234375C3.0986632288085936,11.7616180234375,2.799451728808594,12.4698580234375,2.5911323288085937,13.4184770234375L2.5655967288085937,13.5341940234375L2.559363628808594,13.5716110234375C2.5564288288085937,13.5941560234375,2.5549545288085938,13.6168800234375,2.5549545288085938,13.6396400234375C2.5549545288085938,13.9307090234375,2.7909126288085937,14.1666670234375,3.0819815288085937,14.1666670234375L12.918405528808593,14.1666670234375C12.952485528808594,14.1666670234375,12.986484528808594,14.1633610234375,13.019926528808593,14.1567960234375C13.305543528808593,14.1007280234375,13.491630528808594,13.8237360234375,13.435562528808594,13.5381190234375L13.386690528808593,13.3186440234375C13.179187528808594,12.4191670234375,12.886436528808593,11.7409170234375,12.477241528808594,11.1836570234375C12.068420528808593,10.6269064234375,11.550663928808595,10.2105455234375,10.919162728808594,9.9307070234375C10.263669928808595,9.6402378234375,9.507961228808593,9.5000000234375,8.535382228808594,9.5000000234375Z" fill-rule="evenodd" fill="#FFFFFF" fill-opacity="1"/></g></svg>