<svg xmlns="http://www.w3.org/2000/svg" xmlns:xlink="http://www.w3.org/1999/xlink" fill="none" version="1.1" width="16" height="16" viewBox="0 0 16 16"><defs><clipPath id="master_svg0_119_41341"><rect x="0" y="0" width="16" height="16" rx="8"/></clipPath></defs><g clip-path="url(#master_svg0_119_41341)"><g><path d="M7.5000014,13.5C7.5000014,13.776142,7.7238584,14,8.000001000000001,14C8.276143600000001,14,8.500000499999999,13.776142,8.500000499999999,13.5C8.500000499999999,13.5,8.500000499999999,3.8029795,8.500000499999999,3.8029795C8.500000499999999,3.8029795,12.1283503,7.8344817,12.1283503,7.8344817C12.3130789,8.039736699999999,12.6292238,8.056376,12.8344784,7.8716464C13.039733,7.6869168,13.056373,7.3707719,12.8716431,7.1655169C12.8716431,7.1655169,8.3716469,2.16551781,8.3716469,2.16551781C8.276826400000001,2.060160637,8.1417437,2,8.000000499999999,2C7.8582573,2,7.7231746,2.060160637,7.6283536,2.16551781C7.6283536,2.16551781,3.12835734,7.1655173,3.12835734,7.1655173C2.943627909,7.3707724,2.96026665,7.6869173,3.16552201,7.8716469C3.37077641,8.056376499999999,3.68692106,8.039737200000001,3.87165052,7.8344822C3.87165052,7.8344822,7.5000014,3.8029785,7.5000014,3.8029785C7.5000014,3.8029785,7.5000014,13.5,7.5000014,13.5Z" fill="#FFFFFF" fill-opacity="1"/></g></g></svg>