<svg xmlns="http://www.w3.org/2000/svg" xmlns:xlink="http://www.w3.org/1999/xlink" fill="none" version="1.1" width="16" height="16" viewBox="0 0 16 16"><path d="M7.833728295141602,1.782853320512207L8.187281595141602,2.136406722512207C8.2849130951416,2.234037812512207,8.2849130951416,2.392329092512207,8.187281595141602,2.489960132512207L3.1770727951416013,7.499963712512207L14.416764395141602,7.500070612512207C14.5548343951416,7.500070612512207,14.666764395141602,7.611999512512207,14.666764395141602,7.750070612512207L14.666764395141602,8.250070612512207C14.666764395141602,8.388141612512207,14.5548343951416,8.500070612512207,14.416764395141602,8.500070612512207L3.237072795141602,8.499963712512207L8.187281595141602,13.450115012512207C8.2849130951416,13.547746012512206,8.2849130951416,13.706038012512208,8.187281595141602,13.803669012512207L7.833728295141602,14.157223012512206C7.736096895141602,14.254853012512207,7.577805995141602,14.254853012512207,7.480174495141601,14.157223012512206L2.1179481451416016,8.794995312512206C1.6718283851416016,8.348876012512207,1.6625342251416015,7.631347612512207,2.0900656551416015,7.173918712512207L2.1179481451416016,7.145079612512207L7.480174495141601,1.782853320512207C7.577805995141602,1.685222242512207,7.736096895141602,1.685222242512207,7.833728295141602,1.782853320512207Z" fill="#000000" fill-opacity="0.8999999761581421"/></svg>