<svg xmlns="http://www.w3.org/2000/svg" xmlns:xlink="http://www.w3.org/1999/xlink" fill="none" version="1.1" width="20" height="20" viewBox="0 0 20 20"><defs><clipPath id="master_svg0_210_67456"><rect x="0" y="0" width="20" height="20" rx="0"/></clipPath></defs><g clip-path="url(#master_svg0_210_67456)"><path d="M13.5,5C14.88075,5,16,6.1192917,16,7.5C16,7.5,16,8.333333,16,8.333333C16,8.333333,17.166666,8.3356028,17.166666,8.3356028C17.318416,8.3356028,17.460751000000002,8.3761859,17.583334,8.4471025C17.832417,8.5911858,18,8.8605192,18,9.1689358C18,9.1689358,18,10.8356028,18,10.8356028C18,11.1440196,17.832417,11.4133525,17.583334,11.557436C17.460751000000002,11.6283526,17.318416,11.6689358,17.166666,11.6689358C17.166666,11.6689358,16,11.666667,16,11.666667C16,11.666667,16,12.5,16,12.5C16,13.8807497,14.88075,15,13.5,15C13.5,15,4.5,15,4.5,15C3.1192917,15,2,13.8807497,2,12.5C2,12.5,2,7.5,2,7.5C2,6.1192917,3.1192917,5,4.5,5C4.5,5,13.5,5,13.5,5ZM13.75,5.94604301C13.75,5.94604301,4.5,5.94604301,4.5,5.94604301C3.850251,5.94604301,3.0948390999999997,6.4417808999999995,3.0082154,7.0756593C3.0082154,7.0756593,3,7.1960429999999995,3,7.1960429999999995C3,7.1960429999999995,3,12.6913433,3,12.6913433C3,13.3385305,3.4918725,13.8708754,4.1221943,13.9348898C4.1221943,13.9348898,4.25,13.9413433,4.25,13.9413433C4.25,13.9413433,13.75,13.9413433,13.75,13.9413433C14.397187,13.9413433,14.929532,13.4494495,14.993546,12.819145200000001C14.993546,12.819145200000001,15,12.6913433,15,12.6913433C15,12.6913433,15,7.1960429999999995,15,7.1960429999999995C15,6.5488321,14.508106,6.0165088,13.877802,5.95249653C13.877802,5.95249653,13.75,5.94604301,13.75,5.94604301Z" fill="#FFFFFF" fill-opacity="0.8999999761581421"/><path d="M3.99898099899292,7.784050941965332L3.99898099899292,12.110666301965331L4.00548982619292,12.215457001965332C4.05703759199292,12.627370401965333,4.40847754899292,12.946043001965332,4.83435773899292,12.946043001965332L13.16462279899292,12.946043001965332L13.26941059899292,12.939534201965332C13.68131209899292,12.887987601965332,13.99999999899292,12.536553901965332,13.99999999899292,12.110666301965331L13.99999999899292,7.784050941965332L13.99349169899292,7.679264071965332C13.94194359899292,7.267361641965332,13.59050319899292,6.948674201965332,13.16462279899292,6.948674201965332L4.83435773899292,6.948674201965332L4.72957038899292,6.955183029165332C4.31766795899292,7.006731748965332,3.99898099899292,7.358178611965332,3.99898099899292,7.784050941965332Z" fill="#15C252" fill-opacity="1"/><path d="M9.078092314440918,7.183206356638623C9.252974514440918,7.207420900338623,9.378039314440919,7.361097368338623,9.369795514440918,7.533976528338623L9.366940014440917,7.564661528338623L9.109639414440919,9.421031428338623L10.708142514440919,9.421031428338623C10.773690414440917,9.421031428338623,10.837816714440919,9.440041028338623,10.892753114440918,9.475776428338623C11.040221714440918,9.571662628338624,11.088205314440918,9.762903728338623,11.008327514440918,9.915606928338622L10.991845114440917,9.943754428338623L9.228803614440917,12.651215528338623C9.154438014440919,12.765406628338624,9.018789514440918,12.823872128338623,8.884630414440918,12.799552428338622C8.710915314440918,12.768038228338623,8.592406514440919,12.609249628338624,8.607904914440917,12.436865328338623L8.612047114440918,12.406326328338622L8.934201714440917,10.632741428338623L7.218531374440918,10.632741428338623C7.152831104440918,10.632741428338623,7.088552494440918,10.613630528338623,7.033531484440918,10.577743028338624C6.886190234240918,10.481649828338623,6.838469471440918,10.290351828338622,6.918546721440918,10.137755428338624L6.935065716440918,10.109629628338624L8.748186514440917,7.333403798338623C8.819793314440918,7.223744951338623,8.948299614440918,7.165245575338623,9.078092314440918,7.183206356638623Z" fill-rule="evenodd" fill="#FFFFFF" fill-opacity="0.8999999761581421"/></g></svg>