<svg xmlns="http://www.w3.org/2000/svg" xmlns:xlink="http://www.w3.org/1999/xlink" fill="none" version="1.1" width="20" height="20" viewBox="0 0 20 20"><defs><clipPath id="master_svg0_31_54259"><rect x="0" y="0" width="20" height="20" rx="0"/></clipPath></defs><g clip-path="url(#master_svg0_31_54259)"><g><path d="M13.5,5C14.8807,5,16,6.1192899999999995,16,7.5C16,7.5,16,8.33333,16,8.33333C16,8.33333,17.1667,8.3356,17.1667,8.3356C17.3184,8.3356,17.4608,8.37619,17.5833,8.447099999999999C17.8324,8.591190000000001,18,8.860520000000001,18,9.16894C18,9.16894,18,10.8356,18,10.8356C18,11.144020000000001,17.8324,11.413350000000001,17.5833,11.55744C17.4608,11.628350000000001,17.3184,11.66894,17.1667,11.66894C17.1667,11.66894,16,11.66667,16,11.66667C16,11.66667,16,12.5,16,12.5C16,13.88075,14.8807,15,13.5,15C13.5,15,4.5,15,4.5,15C3.11929,15,2,13.88075,2,12.5C2,12.5,2,7.5,2,7.5C2,6.1192899999999995,3.11929,5,4.5,5C4.5,5,13.5,5,13.5,5ZM13.75,5.9460429999999995C13.75,5.9460429999999995,4.5,5.9460429999999995,4.5,5.9460429999999995C3.85025,5.9460429999999995,3.09484,6.44178,3.0082199999999997,7.07566C3.0082199999999997,7.07566,3,7.19604,3,7.19604C3,7.19604,3,12.69134,3,12.69134C3,13.33853,3.49187,13.87088,4.12219,13.93489C4.12219,13.93489,4.25,13.94134,4.25,13.94134C4.25,13.94134,13.75,13.94134,13.75,13.94134C14.3972,13.94134,14.9295,13.44945,14.9935,12.81915C14.9935,12.81915,15,12.69134,15,12.69134C15,12.69134,15,7.19604,15,7.19604C15,6.54883,14.5081,6.01651,13.8778,5.952497C13.8778,5.952497,13.75,5.9460429999999995,13.75,5.9460429999999995ZM4.83436,6.94867C4.83436,6.94867,13.1646,6.94867,13.1646,6.94867C13.5905,6.94867,13.9419,7.26736,13.9935,7.67926C13.9935,7.67926,14,7.784050000000001,14,7.784050000000001C14,7.784050000000001,14,12.110669999999999,14,12.110669999999999C14,12.53655,13.6813,12.88799,13.2694,12.939530000000001C13.2694,12.939530000000001,13.1646,12.94604,13.1646,12.94604C13.1646,12.94604,4.83436,12.94604,4.83436,12.94604C4.40848,12.94604,4.057040000000001,12.627369999999999,4.00549,12.21546C4.00549,12.21546,3.99898,12.110669999999999,3.99898,12.110669999999999C3.99898,12.110669999999999,3.99898,7.784050000000001,3.99898,7.784050000000001C3.99898,7.35818,4.31767,7.00673,4.72957,6.95518C4.72957,6.95518,4.83436,6.94867,4.83436,6.94867Z" fill="#242424" fill-opacity="1"/></g></g></svg>