<svg xmlns="http://www.w3.org/2000/svg" xmlns:xlink="http://www.w3.org/1999/xlink" fill="none" version="1.1" width="20" height="20" viewBox="0 0 20 20"><defs><clipPath id="master_svg0_210_66950"><rect x="0" y="0" width="20" height="20" rx="0"/></clipPath></defs><g clip-path="url(#master_svg0_210_66950)"><path d="M13.5,5C14.88075,5,16,6.1192917,16,7.5C16,7.5,16,8.333333,16,8.333333C16,8.333333,17.166666,8.3356028,17.166666,8.3356028C17.318416,8.3356028,17.460751000000002,8.3761859,17.583334,8.4471025C17.832417,8.5911858,18,8.8605192,18,9.1689358C18,9.1689358,18,10.8356028,18,10.8356028C18,11.1440196,17.832417,11.4133525,17.583334,11.557436C17.460751000000002,11.6283526,17.318416,11.6689358,17.166666,11.6689358C17.166666,11.6689358,16,11.666667,16,11.666667C16,11.666667,16,12.5,16,12.5C16,13.8807497,14.88075,15,13.5,15C13.5,15,4.5,15,4.5,15C3.1192917,15,2,13.8807497,2,12.5C2,12.5,2,7.5,2,7.5C2,6.1192917,3.1192917,5,4.5,5C4.5,5,13.5,5,13.5,5ZM13.75,5.94604301C13.75,5.94604301,4.5,5.94604301,4.5,5.94604301C3.850251,5.94604301,3.0948390999999997,6.4417808999999995,3.0082154,7.0756593C3.0082154,7.0756593,3,7.1960429999999995,3,7.1960429999999995C3,7.1960429999999995,3,12.6913433,3,12.6913433C3,13.3385305,3.4918725,13.8708754,4.1221943,13.9348898C4.1221943,13.9348898,4.25,13.9413433,4.25,13.9413433C4.25,13.9413433,13.75,13.9413433,13.75,13.9413433C14.397187,13.9413433,14.929532,13.4494495,14.993546,12.819145200000001C14.993546,12.819145200000001,15,12.6913433,15,12.6913433C15,12.6913433,15,7.1960429999999995,15,7.1960429999999995C15,6.5488321,14.508106,6.0165088,13.877802,5.95249653C13.877802,5.95249653,13.75,5.94604301,13.75,5.94604301ZM4.8343577,6.9486742C4.8343577,6.9486742,8.164623299999999,6.9486742,8.164623299999999,6.9486742C8.5905032,6.9486742,8.9419436,7.2673616,8.993491200000001,7.6792641C8.993491200000001,7.6792641,9,7.7840509,9,7.7840509C9,7.7840509,9,12.1106663,9,12.1106663C9,12.536553900000001,8.6813126,12.887987599999999,8.2694101,12.9395342C8.2694101,12.9395342,8.164623299999999,12.946043,8.164623299999999,12.946043C8.164623299999999,12.946043,4.8343577,12.946043,4.8343577,12.946043C4.4084775,12.946043,4.0570376,12.6273704,4.005489799999999,12.215457C4.005489799999999,12.215457,3.9989809999999997,12.1106663,3.9989809999999997,12.1106663C3.9989809999999997,12.1106663,3.9989809999999997,7.7840509,3.9989809999999997,7.7840509C3.9989809999999997,7.3581786000000005,4.317667999999999,7.0067317,4.7295704,6.955183C4.7295704,6.955183,4.8343577,6.9486742,4.8343577,6.9486742Z" fill="#FFFFFF" fill-opacity="0.8999999761581421"/></g></svg>