<svg xmlns="http://www.w3.org/2000/svg" xmlns:xlink="http://www.w3.org/1999/xlink" fill="none" version="1.1" width="20" height="20" viewBox="0 0 20 20"><defs><clipPath id="master_svg0_31_54282"><rect x="0" y="0" width="20" height="20" rx="0"/></clipPath></defs><g clip-path="url(#master_svg0_31_54282)"><g><path d="M9.625,4.999999953860474C9.625,4.999999953860474,13.5,5.005281453860474,13.5,5.005281453860474C14.831437,5.005281453860474,15.91972,6.045502153860474,15.995756,7.357145553860474C15.995756,7.357145553860474,16,7.503960853860474,16,7.503960853860474C16,7.503960853860474,16,8.336854253860473,16,8.336854253860473C16,8.336854253860473,17.166666,8.336854253860473,17.166666,8.336854253860473C17.318416,8.336854253860473,17.460751000000002,8.377416853860474,17.583334,8.448295853860474C17.804741,8.576302253860474,17.961754,8.803219553860473,17.993912,9.068561753860473C17.993912,9.068561753860473,18,9.169747553860475,18,9.169747553860475C18,9.169747553860475,18,10.835534353860474,18,10.835534353860474C18,11.143788053860472,17.832417,11.412978453860473,17.583334,11.556986053860474C17.491397,11.610145853860473,17.388350000000003,11.646251953860475,17.278553000000002,11.660982353860474C17.278553000000002,11.660982353860474,17.166666,11.668427753860474,17.166666,11.668427753860474C17.166666,11.668427753860474,16,11.668427753860474,16,11.668427753860474C16,11.668427753860474,16,12.501321053860474,16,12.501321053860474C16,13.832055253860474,14.95927,14.919762253860474,13.646898,14.995758253860474C13.646898,14.995758253860474,13.5,15.000000253860474,13.5,15.000000253860474C13.5,15.000000253860474,7.1206069,14.994719253860474,7.1206069,14.994719253860474C6.804194,14.994719253860474,6.5426974,14.759714253860473,6.5013123,14.454812253860474C6.5013123,14.454812253860474,6.4956069,14.370049253860474,6.4956069,14.370049253860474C6.4956069,14.370049253860474,6.4956069,10.622029553860473,6.4956069,10.622029553860473C6.4956069,10.305783553860474,6.7307353,10.044425253860474,7.0357981,10.003061553860473C7.0357981,10.003061553860473,7.1206069,9.997359553860473,7.1206069,9.997359553860473C7.1206069,9.997359553860473,7.8521972,9.997359553860473,7.8521972,9.997359553860473C8.448822,9.997359553860473,8.939127,9.542390553860473,8.9947453,8.960645953860475C8.9947453,8.960645953860475,9,8.850162753860474,9,8.850162753860474C9,8.850162753860474,9,5.6246700538604735,9,5.6246700538604735C9,5.308423953860474,9.2351289,5.047065953860473,9.540191700000001,5.005702453860474C9.540191700000001,5.005702453860474,9.625,4.999999953860474,9.625,4.999999953860474ZM6.2909422,3.3390388488604734C6.2909422,3.3390388488604734,6.375751,3.3333332538604736,6.375751,3.3333332538604736C6.6921639,3.3333332538604736,6.9536605,3.568461443860474,6.9950457,3.8735244238604736C6.9950457,3.8735244238604736,7.000751,3.9583332538604736,7.000751,3.9583332538604736C7.000751,3.9583332538604736,7,4.999999953860474,7,4.999999953860474C7,4.999999953860474,7.375,5.005681553860473,7.375,5.005681553860473C7.7201781,5.005681553860473,8,5.285503553860473,8,5.630681553860473C8,5.630681553860473,8,7.542394853860474,8,7.542394853860474C8,8.347810053860474,7.3470817,9.000728853860473,6.5416665,9.000728853860473C6.5416665,9.000728853860473,5.6243525000000005,9.000025053860472,5.6243525000000005,9.000025053860472C5.6243525000000005,9.000025053860472,5.625,14.375000253860474,5.625,14.375000253860474C5.625,14.691413253860473,5.3898718,14.952909253860474,5.084808799999999,14.994294253860474C5.084808799999999,14.994294253860474,5,15.000000253860474,5,15.000000253860474C4.6835868000000005,15.000000253860474,4.422090799999999,14.764872253860474,4.3807054,14.459808253860473C4.3807054,14.459808253860473,4.375,14.375000253860474,4.375,14.375000253860474C4.375,14.375000253860474,4.3750024,9.000000253860474,4.3750024,9.000000253860474C4.3750024,9.000000253860474,3.4583333,9.000728853860473,3.4583333,9.000728853860473C2.65291798,9.000728853860473,2,8.347810053860474,2,7.542394853860474C2,7.542394853860474,2,5.630681553860473,2,5.630681553860473C2,5.285503553860473,2.27982202,5.005681553860473,2.625,5.005681553860473C2.625,5.005681553860473,2.99993229,5.005681553860473,2.99993229,5.005681553860473C2.99993229,5.005681553860473,3,3.9640147638604737,3,3.9640147638604737C3,3.6476016338604738,3.2351282,3.3861057128604735,3.5401911999999998,3.3447203638604734C3.5401911999999998,3.3447203638604734,3.625,3.3390147685604736,3.625,3.3390147685604736C3.9414132,3.3390147685604736,4.202909200000001,3.574142963860474,4.2442946,3.8792059438604736C4.2442946,3.8792059438604736,4.25,3.9640147638604737,4.25,3.9640147638604737C4.25,3.9640147638604737,4.2499323,5.005681553860473,4.2499323,5.005681553860473C4.2499323,5.005681553860473,5.75,4.999999953860474,5.75,4.999999953860474C5.75,4.999999953860474,5.750751,3.9583332538604736,5.750751,3.9583332538604736C5.750751,3.6419201238604737,5.985879199999999,3.3804241978604734,6.2909422,3.3390388488604734Z" fill="currentColor" fill-opacity="1"/></g></g></svg>