<svg xmlns="http://www.w3.org/2000/svg" xmlns:xlink="http://www.w3.org/1999/xlink" fill="none" version="1.1" width="20" height="20" viewBox="0 0 20 20"><g><path d="M10.504028346630859,2.834630537026367C10.062795146630858,2.534544067026367,9.45942404663086,2.6338931340263674,9.13881014663086,3.066518787026367L9.11039714663086,3.106905167026367C9.00095364663086,3.270928207026367,8.94223384663086,3.464008747026367,8.94223384663086,3.6619267270263673L8.942168746630859,8.692006127026367L5.58536502663086,6.214148527026367C5.543212596630859,6.183033427026367,5.49234983663086,6.165947627026368,5.43996113663086,6.165304627026368C5.30190035663086,6.1636104270263665,5.1886065436308595,6.274157527026367,5.1869123456308595,6.412218127026367L5.175888310630859,7.310571227026367C5.173914186660859,7.471443127026367,5.249470844630859,7.623437427026367,5.378910866630859,7.718983127026367L8.46933534663086,10.000173127026368L5.37645685663086,12.282817827026367C5.24673585563086,12.378556227026367,5.1711392095308595,12.530971527026367,5.173416570799859,12.692179327026366L5.1860827936308596,13.588789327026367C5.18682052463086,13.641011327026368,5.203894860630859,13.691690327026366,5.23490853563086,13.733712327026367C5.316898096630859,13.844803327026368,5.47342139663086,13.868396327026367,5.584513066630859,13.786407327026367L8.942168746630859,11.308340027026366L8.94223384663086,16.338251327026367L8.942923546630858,16.37574132702637C8.96263864663086,16.910656327026366,9.40250114663086,17.338251327026367,9.942234046630858,17.338251327026367C10.15657614663086,17.338251327026367,10.365247246630858,17.26938032702637,10.53748084663086,17.141794327026368L14.36795234663086,14.304268327026367L14.40057754663086,14.279061327026367C14.81613544663086,13.944322327026367,14.89677524663086,13.338167327026367,14.57624814663086,12.905477327026368L14.545743946630859,12.866364327026368C14.49333384663086,12.802497327026368,14.433168446630859,12.745320327026366,14.36659524663086,12.696178327026367L10.71450184663086,10.000339527026366L14.366542846630859,7.305280727026367L14.39921374663086,7.280133227026367C14.815372446630859,6.946141727026367,14.897100446630859,6.340132227026367,14.57735064663086,5.9068675270263675C14.51840684663086,5.826997727026367,14.44789984663086,5.756349527026368,14.36814784663086,5.697246527026367L10.537641546630859,2.8585030770263673L10.504028346630859,2.834630537026367ZM10.27541734663086,4.3237285270263675L10.27541734663086,8.667061827026366L13.21191784663086,6.499895327026367L10.27541734663086,4.3237285270263675ZM10.27541734663086,11.333494227026367L10.27541734663086,15.676327327026367L13.21191784663086,13.501160327026367L10.27541734663086,11.333494227026367Z" fill-rule="evenodd" fill="#FFFFFF" fill-opacity="0.8999999761581421"/></g></svg>