<svg xmlns="http://www.w3.org/2000/svg" xmlns:xlink="http://www.w3.org/1999/xlink" fill="none" version="1.1" width="20" height="20" viewBox="0 0 20 20"><g><path d="M10.503858811819459,2.8348289012841796L10.537472511819459,2.85870144128418L14.367977911819459,5.69744489128418C14.447729911819458,5.75654789128418,14.518236911819457,5.827196091284179,14.577181911819459,5.90706589128418C14.896930911819458,6.34033059128418,14.815202911819458,6.9463400912841795,14.399043911819458,7.280331591284179L14.366372911819457,7.305479091284179L11.279455411819457,9.583228591284179L8.941788911819458,7.8533954912841795L8.942064511819458,3.66212509128418C8.942064511819458,3.4642071112841797,9.000784611819459,3.2711265712841797,9.110227811819458,3.1071035312841797L9.138641111819458,3.0667171512841795C9.459255011819458,2.63409149828418,10.062626111819458,2.5347424312841795,10.503858811819459,2.8348289012841796ZM10.275285011819458,8.66701599128418L10.275285011819458,4.323682791284179L13.211785911819458,6.49984959128418L10.275285011819458,8.66701599128418ZM17.19178291181946,14.78720569128418L3.524090291819458,4.67365739128418C3.376237391819458,4.566014991284179,3.168970291819458,4.5976172912841795,3.059989781819458,4.74489589128418L2.663441255819458,5.28080059128418C2.553937405819458,5.42878649128418,2.585133318819458,5.6375231912841794,2.733119281819458,5.74702719128418L16.398685911819456,15.85901469128418C16.54667191181946,15.96851869128418,16.755409911819456,15.93732269128418,16.86491291181946,15.789336691284179L17.26146091181946,15.25343269128418C17.370964911819456,15.10544569128418,17.33976891181946,14.89670969128418,17.19178291181946,14.78720569128418ZM10.275326011819459,12.15695379128418L7.913826211819458,10.40962029128418L5.376324411819458,12.28257469128418C5.246603511819458,12.37831309128418,5.1710069118194575,12.530727391284179,5.173284311819458,12.69193669128418L5.185950511819458,13.58854569128418C5.186688211819458,13.64076769128418,5.203762511819458,13.69144769128418,5.234776211819458,13.73346869128418C5.316765811819458,13.84456069128418,5.473289011819459,13.86815269128418,5.5843809118194585,13.78616369128418L8.942036411819458,11.30809589128418L8.942101711819458,16.33800769128418L8.942791211819458,16.37549769128418C8.96250651181946,16.91041169128418,9.402368811819457,17.33800769128418,9.942101711819458,17.33800769128418C10.156443811819457,17.33800769128418,10.365114911819457,17.26913769128418,10.537348511819458,17.14155069128418L13.772492911819459,14.744787691284179L12.651825911819458,13.915620691284179L10.275369911819457,15.67609569128418L10.275326011819459,12.15695379128418Z" fill-rule="evenodd" fill="#FFFFFF" fill-opacity="0.8999999761581421"/></g></svg>