<svg xmlns="http://www.w3.org/2000/svg" xmlns:xlink="http://www.w3.org/1999/xlink" fill="none" version="1.1" width="16" height="16" viewBox="0 0 16 16"><g><g><g><path d="M12.404701184350586,3.2122976335615236L12.758254984350586,3.5658510355615234C12.855886484350586,3.6634821255615235,12.855886484350586,3.8217734055615233,12.758254984350586,3.9194044455615233L8.692256484350587,7.9852409255615235L12.758254984350586,12.051132225561524C12.855886484350586,12.148763625561523,12.855886484350586,12.307054525561524,12.758254984350586,12.404685925561523L12.404701184350586,12.758239725561523C12.307069784350587,12.855871225561524,12.148778884350586,12.855871225561524,12.051147484350587,12.758239725561523L7.985256184350586,8.692241225561524L3.919419704350586,12.758239725561523C3.821788664350586,12.855871225561524,3.663497384350586,12.855871225561524,3.565866294350586,12.758239725561523L3.212312892350586,12.404685925561523C3.114681814350586,12.307054525561524,3.114681814350586,12.148763625561523,3.212312892350586,12.051132225561524L7.278256384350586,7.9852409255615235L3.212312892350586,3.9194044455615233C3.114681814350586,3.8217734055615233,3.114681814350586,3.6634821255615235,3.212312892350586,3.5658510355615234L3.565866294350586,3.2122976335615236C3.663497384350586,3.1146665555615236,3.821788664350586,3.1146665555615236,3.919419704350586,3.2122976335615236L7.985256184350586,7.278241125561523L12.051147484350587,3.2122976335615236C12.148778884350586,3.1146665555615236,12.307069784350587,3.1146665555615236,12.404701184350586,3.2122976335615236Z" fill="#FFFFFF" fill-opacity="1"/></g></g></g></svg>