<svg xmlns="http://www.w3.org/2000/svg" xmlns:xlink="http://www.w3.org/1999/xlink" fill="none" version="1.1" width="11.111328125" height="11.109375" viewBox="0 0 11.111328125 11.109375"><g><rect x="0" y="0" width="11.111111640930176" height="11.111111640930176" rx="5.555555820465088" fill="#256FFF" fill-opacity="1"/><path d="M8.170116710232545,3.6144043081860353C8.379241210232543,3.8119104181860353,8.388658810232544,4.141549348186035,8.191153310232544,4.350673498186035C8.191153310232544,4.350673498186035,5.2397642102325435,7.475673628186035,5.2397642102325435,7.475673628186035C5.143147210232543,7.577973828186035,5.009248210232544,7.636827928186035,4.868549610232543,7.638837328186035C4.727850910232544,7.640846728186035,4.592325610232544,7.585841228186035,4.492826510232544,7.486341928186035C4.492826510232544,7.486341928186035,2.930326480232544,5.923841928186035,2.930326480232544,5.923841928186035C2.726928387232544,5.720443728186035,2.726928387232544,5.390670428186035,2.930326480232544,5.187272428186035C3.133724540232544,4.983874328186035,3.463498000232544,4.983874328186035,3.666896040232544,5.187272428186035C3.666896040232544,5.187272428186035,4.850438610232544,6.370814828186035,4.850438610232544,6.370814828186035C4.850438610232544,6.370814828186035,7.433847710232544,3.635440598186035,7.433847710232544,3.635440598186035C7.631354110232544,3.426316455186035,7.960992610232544,3.416898217186035,8.170116710232545,3.6144043081860353Z" fill="#FFFFFF" fill-opacity="1"/></g></svg>