<svg xmlns="http://www.w3.org/2000/svg" xmlns:xlink="http://www.w3.org/1999/xlink" fill="none" version="1.1" width="24" height="24" viewBox="0 0 24 24"><defs><mask id="master_svg0_4_7073/4_6457/4_5770" style="mask-type:luminance" maskUnits="userSpaceOnUse" x="7.150000095367432" y="7.150000095367432" width="9.692388534545898" height="9.692388534545898"><path d="M16.41561169536743,7.223223403367432L16.76916459536743,7.576776805367432C16.866795995367433,7.674407835367432,16.866795995367433,7.832699115367432,16.76916459536743,7.9303301553674315L12.703166995367432,11.996166695367432L16.76916459536743,16.062057995367432C16.866795995367433,16.15968939536743,16.866795995367433,16.317980295367434,16.76916459536743,16.41561169536743L16.41561169536743,16.76916459536743C16.317980295367434,16.866795995367433,16.15968939536743,16.866795995367433,16.062057995367432,16.76916459536743L11.996166695367432,12.703166995367432L7.9303301553674315,16.76916459536743C7.832699115367432,16.866795995367433,7.674407835367432,16.866795995367433,7.576776805367432,16.76916459536743L7.223223403367432,16.41561169536743C7.125592326367432,16.317980295367434,7.125592326367432,16.15968939536743,7.223223403367432,16.062057995367432L11.289166895367432,11.996166695367432L7.223223403367432,7.9303301553674315C7.125592326367432,7.832699115367432,7.125592326367432,7.674407835367432,7.223223403367432,7.576776805367432L7.576776805367432,7.223223403367432C7.674407835367432,7.125592326367432,7.832699115367432,7.125592326367432,7.9303301553674315,7.223223403367432L11.996166695367432,11.289166895367432L16.062057995367432,7.223223403367432C16.15968939536743,7.125592326367432,16.317980295367434,7.125592326367432,16.41561169536743,7.223223403367432Z" fill-rule="evenodd" fill="#FFFFFF" fill-opacity="1"/></mask></defs><rect x="0" y="0" width="24" height="24" rx="4" fill="#000000" fill-opacity="0"/><g mask="url(#master_svg0_4_7073/4_6457/4_5770)"><path d="M16.41561169536743,7.223223403367432L16.76916459536743,7.576776805367432C16.866795995367433,7.674407835367432,16.866795995367433,7.832699115367432,16.76916459536743,7.9303301553674315L12.703166995367432,11.996166695367432L16.76916459536743,16.062057995367432C16.866795995367433,16.15968939536743,16.866795995367433,16.317980295367434,16.76916459536743,16.41561169536743L16.41561169536743,16.76916459536743C16.317980295367434,16.866795995367433,16.15968939536743,16.866795995367433,16.062057995367432,16.76916459536743L11.996166695367432,12.703166995367432L7.9303301553674315,16.76916459536743C7.832699115367432,16.866795995367433,7.674407835367432,16.866795995367433,7.576776805367432,16.76916459536743L7.223223403367432,16.41561169536743C7.125592326367432,16.317980295367434,7.125592326367432,16.15968939536743,7.223223403367432,16.062057995367432L11.289166895367432,11.996166695367432L7.223223403367432,7.9303301553674315C7.125592326367432,7.832699115367432,7.125592326367432,7.674407835367432,7.223223403367432,7.576776805367432L7.576776805367432,7.223223403367432C7.674407835367432,7.125592326367432,7.832699115367432,7.125592326367432,7.9303301553674315,7.223223403367432L11.996166695367432,11.289166895367432L16.062057995367432,7.223223403367432C16.15968939536743,7.125592326367432,16.317980295367434,7.125592326367432,16.41561169536743,7.223223403367432Z" fill-rule="evenodd" fill="#000000" fill-opacity="0.6000000238418579"/></g><rect x="0" y="0" width="24" height="24" rx="4" fill="#000000" fill-opacity="0"/></svg>