<svg xmlns="http://www.w3.org/2000/svg" xmlns:xlink="http://www.w3.org/1999/xlink" fill="none" version="1.1" width="20.000106811523438" height="20" viewBox="0 0 20.000106811523438 20"><defs><clipPath id="master_svg0_210_65584"><rect x="0" y="0" width="20.000106811523438" height="20" rx="0"/></clipPath></defs><g clip-path="url(#master_svg0_210_65584)"><path d="M6.970024333242797,9.790100557220459C6.370048733242798,9.790100557220459,5.8300097332427985,9.66320085722046,5.350029233242798,9.40930035722046C4.8800585332427975,9.155399757220458,4.510063413242798,8.79990055722046,4.230034113242798,8.342899757220458C3.950004813242798,7.881599857220459,3.819999933242798,7.348400557220459,3.819999933242798,6.743199857220459C3.819999933242798,6.1339001572204594,3.950004813242798,5.600699857220459,4.230034113242798,5.143599957220459C4.510063413242798,4.682400227220459,4.8800585332427975,4.3248000172204595,5.350029233242798,4.070900437220459C5.8300097332427985,3.816999917220459,6.370048733242798,3.690000057220459,6.970024333242797,3.690000057220459L13.030082933242797,3.690000057220459C13.620048733242799,3.690000057220459,14.160087933242798,3.816999917220459,14.630058933242799,4.070900437220459C15.110038933242798,4.3248000172204595,15.490043933242799,4.682400227220459,15.760062933242798,5.143599957220459C16.040092933242796,5.600699857220459,16.180106933242797,6.1339001572204594,16.180106933242797,6.743199857220459C16.180106933242797,7.348400557220459,16.040092933242796,7.881599857220459,15.760062933242798,8.342899757220458C15.490043933242799,8.79990055722046,15.110038933242798,9.155399757220458,14.630058933242799,9.40930035722046C14.160087933242798,9.66320085722046,13.620048733242799,9.790100557220459,13.030082933242797,9.790100557220459L6.970024333242797,9.790100557220459ZM6.970024333242797,8.51419975722046L13.030082933242797,8.51419975722046C13.370048733242799,8.51419975722046,13.680107333242798,8.440200357220458,13.950004933242798,8.29210045722046C14.230033933242797,8.13970045722046,14.450004933242798,7.932400257220459,14.610038933242798,7.670000557220459C14.770072933242798,7.40339995722046,14.860038933242798,7.0945000572204595,14.860038933242798,6.743199857220459C14.860038933242798,6.387799757220459,14.770072933242798,6.078899857220459,14.610038933242798,5.816500157220458C14.450004933242798,5.549900557220459,14.230033933242797,5.342500257220459,13.950004933242798,5.194400357220459C13.680107333242798,5.046300457220459,13.370048733242799,4.972199957220459,13.030082933242797,4.972199957220459L6.970024333242797,4.972199957220459C6.620048733242798,4.972199957220459,6.310112233242798,5.046300457220459,6.030082933242798,5.194400357220459C5.760063433242798,5.342500257220459,5.540092733242798,5.549900557220459,5.3800585332427975,5.816500157220458C5.220024333242797,6.078899857220459,5.140068333242798,6.387799757220459,5.140068333242798,6.743199857220459C5.140068333242798,7.0945000572204595,5.220024333242797,7.40339995722046,5.3800585332427975,7.670000557220459C5.540092733242798,7.932400257220459,5.760063433242798,8.13970045722046,6.030082933242798,8.29210045722046C6.310112233242798,8.440200357220458,6.620048733242798,8.51419975722046,6.970024333242797,8.51419975722046ZM6.970024333242797,8.108000257220459C6.700004833242797,8.108000257220459,6.4600145332427985,8.050899957220459,6.240043833242797,7.936600257220459C6.030082933242798,7.822300457220459,5.860039033242797,7.663700557220459,5.730034133242798,7.460500257220459C5.610039033242797,7.253200057220459,5.550102433242798,7.012000557220459,5.550102433242798,6.736899857220459C5.550102433242798,6.461800057220459,5.610039033242797,6.222699657220459,5.730034133242798,6.019600357220459C5.860039033242797,5.812300157220459,6.030082933242798,5.651400057220459,6.240043833242797,5.537200457220459C6.4600145332427985,5.422899757220459,6.700004833242797,5.365800357220459,6.970024333242797,5.365800357220459L8.030082933242799,5.365800357220459C8.290092733242798,5.365800357220459,8.530082933242799,5.422899757220459,8.740043833242797,5.537200457220459C8.950004833242797,5.651400057220459,9.120048733242797,5.812300157220459,9.240043833242797,6.019600357220459C9.370048733242797,6.226999757220459,9.439995033242798,6.468200157220458,9.439995033242798,6.743199857220459C9.439995033242798,7.014100557220459,9.370048733242797,7.253200057220459,9.240043833242797,7.460500257220459C9.120048733242797,7.663700557220459,8.950004833242797,7.822300457220459,8.740043833242797,7.936600257220459C8.530082933242799,8.050899957220459,8.290092733242798,8.108000257220459,8.030082933242799,8.108000257220459L6.970024333242797,8.108000257220459ZM6.689995033242798,16.29650005722046C6.160087833242798,16.29650005722046,5.670097633242798,16.17800005722046,5.230034133242798,15.941000057220458C4.800102473242798,15.708300057220459,4.460014583242798,15.38450105722046,4.200004813242797,14.96979905722046C3.939995053242798,14.555100057220459,3.819999933242798,14.074801057220458,3.819999933242798,13.52890065722046C3.819999933242798,12.983000257220459,3.939995053242798,12.50269935722046,4.200004813242797,12.087999857220458C4.460014583242798,11.67330025722046,4.800102473242798,11.349499257220458,5.230034133242798,11.11680075722046C5.670097633242798,10.87979935722046,6.160087833242798,10.761299657220459,6.689995033242798,10.761299657220459L13.300102433242797,10.761299657220459C13.840019933242798,10.761299657220459,14.319999933242798,10.87979935722046,14.750053933242798,11.11680075722046C15.189994933242797,11.349499257220458,15.540092933242798,11.67330025722046,15.790092933242798,12.087999857220458C16.050102933242798,12.50269935722046,16.180106933242797,12.983000257220459,16.180106933242797,13.52890065722046C16.180106933242797,14.074801057220458,16.050102933242798,14.555100057220459,15.790092933242798,14.96979905722046C15.540092933242798,15.38450105722046,15.189994933242797,15.708300057220459,14.750053933242798,15.941000057220458C14.319999933242798,16.17800005722046,13.840019933242798,16.29650005722046,13.300102433242797,16.29650005722046L6.689995033242798,16.29650005722046ZM12.250053633242798,15.03330105722046L13.420097633242797,15.03330105722046C13.710014533242799,15.03330105722046,13.980033933242797,14.96979905722046,14.210014933242798,14.84290005722046C14.450004933242798,14.715901057220458,14.630058933242799,14.540301057220459,14.770072933242798,14.316000057220458C14.900077933242798,14.091700057220459,14.970023933242798,13.82930005722046,14.970023933242798,13.52890065722046C14.970023933242798,13.228399757220458,14.900077933242798,12.96609925722046,14.770072933242798,12.741800757220458C14.630058933242799,12.51330045722046,14.450004933242798,12.335499257220459,14.210014933242798,12.20859955722046C13.980033933242797,12.08160065722046,13.710014533242799,12.018099357220459,13.420097633242797,12.018099357220459L12.250053633242798,12.018099357220459C11.960014533242799,12.018099357220459,11.700004833242797,12.08160065722046,11.470024333242797,12.20859955722046C11.230034133242798,12.335499257220459,11.050102433242799,12.51109935722046,10.910087833242798,12.73539975722046C10.770073133242798,12.959700157220459,10.700004833242797,13.222099757220459,10.700004833242797,13.52249955722046C10.700004833242797,13.827200057220459,10.770073133242798,14.091700057220459,10.910087833242798,14.316000057220458C11.050102433242799,14.540301057220459,11.230034133242798,14.715901057220458,11.470024333242797,14.84290005722046C11.700004833242797,14.96979905722046,11.960014533242799,15.03330105722046,12.250053633242798,15.03330105722046Z" fill="#FFFFFF" fill-opacity="1"/></g></svg>