<svg xmlns="http://www.w3.org/2000/svg" xmlns:xlink="http://www.w3.org/1999/xlink" fill="none" version="1.1" width="16" height="16" viewBox="0 0 16 16"><g><path d="M10.9488850125,1.85034970625C10.788095012500001,1.21478044625,10.2326145125,0.75724335725,9.5776596125,0.72107509925C8.919331512500001,0.68473683525,8.3939953125,0.66650390625,7.9996748125,0.66650390625L7.9365558125,0.66665448461C7.5968723125,0.66824874315,7.1693935125,0.68250089325,6.653028512500001,0.70933478325L6.4417391125000005,0.72073918225C5.7914274125,0.75708612025,5.2388754125000006,1.20895552625,5.0740692124999995,1.83910440625L4.4453051125,4.25003430625C3.4523052025,5.19159410625,2.8330078125,6.52339360625,2.8330078125,7.99983740625C2.8330078125,9.47595020625,3.4520276825,10.80748390625,4.4446375125,11.74900690625L5.0744309125000004,14.16412590625C5.2392371125,14.79427590625,5.7917888125,15.24614490625,6.4421010125,15.28249290625C7.0882058125,15.31860590625,7.6068945125,15.33672690625,8.0000362125,15.33672690625L8.0633864125,15.33657690625C8.3855848125,15.33505990625,8.789504512499999,15.32218590625,9.2761207125,15.29801490625L9.578021512500001,15.28215590625C10.232976412500001,15.24598690625,10.7884569125,14.78845090625,10.9492473125,14.15288190625L11.5608806125,11.74314690625C11.7045584125,11.60641690625,11.8403740125,11.46149790625,11.9675779125,11.30914290625L11.9826412125,11.31785190625C12.1023283125,11.38668990625,12.2551575125,11.34546890625,12.3239956125,11.22578090625L12.8697618125,10.27685930625C12.9252168125,10.18044090625,12.9353178125,10.13971610625,12.9367928125,10.09362410625C12.9382668125,10.04753210625,12.9265878125,10.00394340625,12.9022648125,9.96476360625C12.8841838125,9.93563940625,12.8634578125,9.91146660625,12.8143768125,9.87797930625C13.0416208125,9.29585930625,13.1663418125,8.66241360625,13.1663418125,7.99983740625C13.1663418125,7.32020380625,13.0351168125,6.67121980625,12.7966032125,6.07677790625C12.8587008125,6.03702690625,12.8821238125,6.01072980625,12.9022648125,5.97828670625C12.9265878125,5.93910690625,12.9382668125,5.89551830625,12.9367928125,5.84942630625C12.9353178125,5.80333470625,12.9252168125,5.76261000625,12.8697618125,5.66619160625L12.3235807125,4.71655230625C12.2543468125,4.59709410625,12.1013813125,4.556378806250001,11.9819231125,4.62561270625L11.9355259125,4.65251250625C11.8171348125,4.51344180625,11.6915035125,4.38072440625,11.5592136125,4.25494340625L10.9488850125,1.85034970625ZM8.0598531125,1.66699330625L7.9400530125,1.66699220625L7.8063774125,1.66826200625C7.4601359125,1.67306980625,7.0235443125,1.69013170625,6.4976933125,1.71952350625C6.2808912125,1.73164090625,6.096639612500001,1.88231930625,6.0417716125,2.09211110625L5.7089844124999996,3.36786270625C6.3993626125,3.02579260625,7.1771383125,2.83351330625,7.9998231125,2.83351330625C8.8278618125,2.83351330625,9.6104050125,3.02830340625,10.3041291125,3.37456010625L9.9796615125,2.0962882062499997C9.926059712499999,1.88441340625,9.740961112499999,1.73195110625,9.522681712499999,1.71989710625L9.2287822125,1.70445260625C8.818676912499999,1.68406200625,8.4710884125,1.67198030625,8.186647412500001,1.66816650625L8.0598531125,1.66699330625ZM5.336792712499999,4.79531290625C6.0588393125,4.19470910625,6.9870744125,3.83349610625,7.9996748125,3.83349610625C10.3008613125,3.83349610625,12.1663418125,5.69897650625,12.1663418125,8.00016310625C12.1663418125,10.30134960625,10.3008613125,12.16682990625,7.9996748125,12.16682990625C5.6984882125,12.16682990625,3.8330078125,10.30134960625,3.8330078125,8.00016310625C3.8330078125,6.71212670625,4.4174521124999995,5.56059500625,5.336792712499999,4.79531290625ZM5.7089844124999996,12.63203490625C6.399528012499999,12.97431190625,7.1775389125,13.16671490625,8.0004883125,13.16671490625C8.829059112500001,13.16671490625,9.612075812499999,12.97167390625,10.306131412500001,12.62499990625L9.980688112500001,13.90749690625C9.9270868125,14.11937190625,9.7419877125,14.27183390625,9.5237083125,14.28388690625C8.983491412500001,14.31370590625,8.537756012500001,14.33092390625,8.1876745125,14.33561790625L8.000849712499999,14.33693790625L7.8754477125,14.33632090625C7.5858164125,14.33356990625,7.2282672125,14.32161790625,6.8035107125,14.30041690625L6.4987202125,14.28426090625C6.2819180125,14.27214290625,6.0976665125,14.12146490625,6.0427985125,13.91167390625L5.7089844124999996,12.63203490625Z" fill-rule="evenodd" fill="#FFFFFF" fill-opacity="0.8600000143051147"/></g></svg>