<svg xmlns="http://www.w3.org/2000/svg" xmlns:xlink="http://www.w3.org/1999/xlink" fill="none" version="1.1" width="16" height="16" viewBox="0 0 16 16"><g><path d="M14.333682075683594,7.97114130625C14.333682075683594,3.87666890625,11.814019075683595,1.16650390625,8.000340475683593,1.16650390625C4.181794175683594,1.16650390625,1.6670150756835938,3.87666890625,1.6670150756835938,7.97114130625C1.6670150756835938,9.85753060625,2.2139181456835937,11.92914890625,3.1319335756835938,13.53770290625C3.2637769756835935,13.76678890625,3.517693375683594,13.83016190625,3.756972275683594,13.69855690625C3.784860575683594,13.68315490625,3.8102249756835938,13.66595390625,3.833013575683594,13.64716290625L4.101222275683593,14.15480990625C4.430044675683593,14.77666290625,5.200719375683594,15.01420990625,5.822571775683594,14.68538890625L6.200142875683594,14.48353190625C6.532672875683594,14.30574290625,6.713905775683593,14.14225790625,6.844583975683594,13.94720690625C6.975262175683594,13.75215490625,7.0424279756835935,13.53246290625,7.043160475683594,13.29768390625C7.043893375683594,13.06290390625,6.9850616756835935,12.82602590625,6.808798275683594,12.49268490625L5.268809275683594,9.58033560625C4.939986975683594,8.95848230625,4.1693124756835935,8.72093390625,3.547459875683594,9.049756506249999L3.1698884756835937,9.25161270625C3.0175661756835934,9.33305260625,2.896990275683594,9.41149140625,2.798556775683594,9.49138260625C2.717261275683594,8.977093706249999,2.675200775683594,8.46356340625,2.675200775683594,7.96245910625C2.675200775683594,4.4936333062500005,4.808130975683594,2.1731055062499998,8.000340475683593,2.1731055062499998C11.187772775683595,2.1731055062499998,13.325499075683593,4.4936333062500005,13.325499075683593,7.96245910625C13.325499075683593,8.46329310625,13.283056075683593,8.97653910625,13.201373075683593,9.49065210625C13.103016075683593,9.41104320625,12.982696075683593,9.33281990625,12.830809075683593,9.25161270625L12.458391075683593,9.05249690625L12.414984075683593,9.03033070625C11.800113075683594,8.73079010625,11.053999875683594,8.97117330625,10.731887775683594,9.58033560625L9.191898375683593,12.49268490625C9.015635475683593,12.82602590625,8.956803775683593,13.06290390625,8.957536675683594,13.29768390625C8.958269075683594,13.53246290625,9.025435475683594,13.75215490625,9.156113575683595,13.94720690625C9.286790875683593,14.14225790625,9.468024275683593,14.30574290625,9.800554275683593,14.48353190625L10.172971675683593,14.68264790625L10.216379175683594,14.70481390625C10.831250175683595,15.00435490625,11.577362975683593,14.76397090625,11.899475075683593,14.15480990625L12.166700075683593,13.64926090625C12.188496075683593,13.66723490625,12.212565075683594,13.68372990625,12.238841075683593,13.69855690625C12.478121075683594,13.83016190625,12.732033075683594,13.76678890625,12.863872075683593,13.53770290625C13.781887075683594,11.92914890625,14.333682075683594,9.85753060625,14.333682075683594,7.97114130625ZM11.699243075683594,10.01206300625C11.648090375683594,10.04638670625,11.609134675683594,10.08669760625,11.539377175683594,10.21789170625L10.062715575683594,12.99509090625C9.992958075683594,13.12628490625,9.981322275683594,13.18112190625,9.981469175683594,13.24272390625C9.981619875683593,13.30432390625,9.999246575683594,13.36198090625,10.033570275683594,13.41313290625L10.050146075683594,13.43603190625C10.079512575683594,13.47327590625,10.120148675683593,13.50721790625,10.210698175683595,13.55742790625L10.514912575683594,13.71949190625C10.646106675683594,13.78924890625,10.700943975683593,13.80088390625,10.762545575683594,13.80073690625C10.824146275683594,13.80058690625,10.881802575683594,13.78295990625,10.932954775683594,13.74863590625C10.980173075683593,13.71695290625,11.016998275683594,13.68016790625,11.077250475683593,13.57150890625L12.569483075683594,10.76560880625L12.597721075683594,10.71017650625C12.642542075683593,10.61738200625,12.650853075683594,10.57010080625,12.650729075683595,10.51797680625C12.650579075683593,10.45637510625,12.632952075683594,10.39871980625,12.598628075683594,10.34756660625L12.582052075683594,10.32466700625C12.552687075683593,10.28742310625,12.512050075683593,10.25348190625,12.421500075683594,10.20327190625L12.117286075683595,10.04120830625C11.986092075683594,9.97145080625,11.931254075683594,9.95981500625,11.869653075683594,9.95996190625C11.808052075683594,9.96011260625,11.750396075683593,9.97773930625,11.699243075683594,10.01206300625ZM3.8987004756835937,10.07245640625L3.6231870756835938,10.21894930625L3.568780075683594,10.24911500625C3.479731275683594,10.30098150625,3.446401375683594,10.33553220625,3.417358175683594,10.37881560625C3.3830342756835936,10.42996790625,3.365407075683594,10.48762320625,3.365258675683594,10.54922480625C3.3651101756835935,10.61082650625,3.376745675683594,10.66566370625,3.4465027756835935,10.79685780625L4.923165275683594,13.57405590625L4.953330475683593,13.62846290625C5.005197475683594,13.71751190625,5.039747675683594,13.75084090625,5.083031175683594,13.77988390625C5.134183875683593,13.81420890625,5.191839475683594,13.83183590625,5.253440875683594,13.83198490625L5.281694375683594,13.83104690625C5.328992375683594,13.82752890625,5.379854875683593,13.81281990625,5.472115475683594,13.76582690625L5.776586575683594,13.60424690625C5.907780675683593,13.53448990625,5.948091475683594,13.49553490625,5.982415675683594,13.44438190625C6.0167398756835935,13.39322890625,6.034366575683594,13.33557290625,6.034515375683593,13.27397190625C6.034663675683594,13.21236990625,6.023028375683594,13.15753390625,5.953270875683594,13.02633890625L4.476608275683594,10.24914070625C4.406851275683594,10.11794660625,4.367895575683594,10.07763580625,4.316742875683594,10.04331210625C4.265589975683594,10.00898840625,4.207934375683594,9.99136070625,4.146333175683594,9.99121190625C4.0847317756835935,9.99106410625,4.029894575683594,10.00269980625,3.8987004756835937,10.07245640625Z" fill-rule="evenodd" fill="#FFFFFF" fill-opacity="0.8600000143051147"/></g></svg>