<svg xmlns="http://www.w3.org/2000/svg" xmlns:xlink="http://www.w3.org/1999/xlink" fill="none" version="1.1" width="24" height="24" viewBox="0 0 24 24"><g><path d="M2.567842938418579,3.603091406665039L20.42228923841858,21.45753620666504C20.56873523841858,21.60398520666504,20.80617323841858,21.60398520666504,20.95262023841858,21.45753620666504L21.48294823841858,20.92720820666504C21.62939623841858,20.780762206665038,21.62939623841858,20.54332320666504,21.48294823841858,20.39687720666504L3.6285030384185792,2.5424311566650393C3.482056638418579,2.395984552665039,3.244619638418579,2.395984552665039,3.098173138418579,2.5424311566650393L2.567842938418579,3.072761236665039C2.421396338418579,3.219207886665039,2.421396338418579,3.456644806665039,2.567842938418579,3.603091406665039ZM12.000394238418579,4.749979006665039C16.40744823841858,4.749979006665039,20.43573023841858,6.943926806665039,22.80119923841858,10.509702706665038C23.39976323841858,11.41198730666504,23.399862238418578,12.58543920666504,22.80159023841858,13.487810206665038C21.89757223841858,14.85154120666504,20.75046323841858,16.01466620666504,19.43199523841858,16.931277206665037L18.35203923841858,15.851291206665039C19.61087623841858,15.019755206665039,20.70260623841858,13.93936520666504,21.55137423841858,12.65897920666504C21.81652623841858,12.25905130666504,21.81648323841858,11.738751406665038,21.55123323841858,11.33891100666504C19.46177723841858,8.18920520666504,15.901186238418578,6.249979006665039,12.000394238418579,6.249979006665039C11.01019623841858,6.249979006665039,10.041828438418579,6.3749504066650395,9.113865138418578,6.612942206665039L7.905273638418579,5.404406306665039C9.202588338418579,4.977276806665039,10.58195523841858,4.749979006665039,12.000394238418579,4.749979006665039ZM4.59822913841858,7.047342306665039L5.678704938418579,8.12811180666504C4.406577138418579,8.96211340666504,3.303885438418579,10.049274906665039,2.448742938418579,11.33934210666504C2.183797938418579,11.739040406665039,2.183754038418579,12.259088506665039,2.448605638418579,12.658878206665038C4.53583433841858,15.809586206665038,8.09818763841858,17.75014120666504,12.000190238418579,17.75014120666504C13.00491323841858,17.75014120666504,13.987032238418578,17.62149420666504,14.927233238418578,17.376641206665038L16.13361723841858,18.58289120666504C14.825275238418579,19.018320206665038,13.43277123841858,19.250141206665038,12.000190238418579,19.250141206665038C7.5917246384185795,19.250141206665038,3.561347738418579,17.054636206665037,1.198113088418579,13.48729120666504C0.600518958418579,12.58523020666504,0.6006179284185791,11.412520406665038,1.198478278418579,10.51058580666504C2.108938838418579,9.137064906665039,3.266762738418579,7.966946606665039,4.59822913841858,7.047342306665039ZM11.99996923841858,7.749979006665039C14.34717923841858,7.749979006665039,16.24996923841858,9.652769106665039,16.24996923841858,11.99997900666504C16.24996923841858,12.52173420666504,16.15595023841858,13.02152920666504,15.98392823841858,13.483347206665039L12.71795223841858,10.21746160666504C12.738774238418578,10.14862630666504,12.74996923841858,10.07561020666504,12.74996923841858,9.99997900666504C12.74996923841858,9.58576540666504,12.414183238418579,9.24997900666504,11.99996923841858,9.24997900666504C11.919395238418579,9.24997900666504,11.839630238418579,9.253444206665039,11.760817238418579,9.26023390666504L10.516601838418579,8.01602080666504C10.97841923841858,7.843998906665039,11.478214238418579,7.749979006665039,11.99996923841858,7.749979006665039ZM9.26470013841858,11.71401600666504L8.03011873841858,10.479471206665039C7.849155638418579,10.95162010666504,7.750000238418579,11.46427630666504,7.750000238418579,12.000091506665038C7.750000238418579,14.347301206665039,9.65279033841858,16.25009120666504,12.000000238418579,16.25009120666504C12.535815238418579,16.25009120666504,13.048471238418578,16.150936206665037,13.520620238418578,15.96997220666504L10.25623343841858,12.705181206665038C10.17628403841858,12.73424120666504,10.089992738418578,12.750091206665038,10.000000238418579,12.750091206665038C9.585787038418578,12.750091206665038,9.250000238418579,12.414304706665039,9.250000238418579,12.000091506665038C9.250000238418579,11.903488206665038,9.25498123841858,11.80804920666504,9.26470013841858,11.71401600666504Z" fill-rule="evenodd" fill="#FFFFFF" fill-opacity="0.8600000143051147"/></g></svg>