<svg xmlns="http://www.w3.org/2000/svg" xmlns:xlink="http://www.w3.org/1999/xlink" fill="none" version="1.1" width="24" height="24" viewBox="0 0 24 24"><g><path d="M12.000190238418579,4.75C16.40724323841858,4.75,20.43552623841858,6.9439475999999996,22.80099523841858,10.5097237C23.39955923841858,11.4120083,23.399658238418578,12.585459700000001,22.80138623841858,13.4878311C20.436493238418578,17.055325,16.40804823841858,19.25,12.000190238418579,19.25C7.5917246384185795,19.25,3.561347738418579,17.054495,1.198113088418579,13.4871502C0.600518958418579,12.585088299999999,0.6006179284185791,11.4123793,1.198478278418579,10.5104442C3.561978138418579,6.944869300000001,7.592434638418579,4.75,12.000190238418579,4.75ZM12.00018923841858,6.25C8.09875373841858,6.25,4.536200738418579,8.190063,2.448742638418579,11.3392015C2.183797638418579,11.738898299999999,2.183753738418579,12.2589464,2.4486051384185794,12.658737200000001C4.535833838418579,15.809445,8.09818763841858,17.75,12.00018923841858,17.75C15.901634238418579,17.75,19.46223623841858,15.810203,21.55116823841858,12.659000899999999C21.81632223841858,12.2590723,21.81627823841858,11.7387724,21.55102923841858,11.3389316C19.46157323841858,8.1892262,15.90098223841858,6.25,12.00018923841858,6.25ZM16.25000023841858,12Q16.25000023841858,12.1043315,16.24488123841858,12.208537100000001Q16.23976123841858,12.3127432,16.22953623841858,12.4165726Q16.21930923841858,12.520402,16.20400023841858,12.6236038Q16.18869023841858,12.7268062,16.16833723841858,12.829133Q16.147982238418578,12.9314594,16.122631238418577,13.0326653Q16.09728123841858,13.1338711,16.06699723841858,13.2337103Q16.03671023841858,13.3335495,16.00156123841858,13.4317818Q15.966413238418578,13.530014,15.92648623841858,13.6264038Q15.886560238418578,13.7227936,15.841952238418578,13.8171082Q15.79734423841858,13.9114227,15.748163238418579,14.0034351Q15.698981238418579,14.0954475,15.645344238418579,14.1849346Q15.591707238418579,14.2744236,15.53374423841858,14.3611727Q15.47578023841858,14.4479218,15.413630238418579,14.5317211Q15.35148023841858,14.6155214,15.28529423841858,14.6961708Q15.21910623841858,14.77682,15.14904123841858,14.854125Q15.07897723841858,14.931429,15.005203238418579,15.005203Q14.931429238418579,15.078977,14.85412423841858,15.149042Q14.77682023841858,15.219107,14.69617223841858,15.285295Q14.615521238418578,15.351481,14.531721238418578,15.413631Q14.44792223841858,15.475781,14.36117323841858,15.533745Q14.274424238418579,15.591708,14.184935238418579,15.645346Q14.095448238418578,15.698982,14.003435238418579,15.748165Q13.911423238418578,15.797346,13.817108238418578,15.841953Q13.722793238418578,15.886561,13.626403238418579,15.926487Q13.53001323841858,15.966413,13.431780238418579,16.001562Q13.33354823841858,16.036711,13.233709238418578,16.066997Q13.13386923841858,16.097282,13.032665238418579,16.122632Q12.93145923841858,16.147983,12.82913323841858,16.168337Q12.72680723841858,16.188691,12.623605238418579,16.204Q12.520403238418579,16.219309000000003,12.41657423841858,16.229536Q12.31274423841858,16.239761,12.20853823841858,16.244882Q12.104332238418579,16.25,12.000000238418579,16.25Q11.895669238418579,16.25,11.79146323841858,16.244881Q11.68725723841858,16.239761,11.58342723841858,16.229536Q11.47959723841858,16.219309000000003,11.376394238418579,16.204Q11.273192238418579,16.188691,11.170865238418578,16.168337Q11.068539238418579,16.147984,10.967334238418578,16.122633Q10.86612923841858,16.097282,10.766290238418579,16.066997999999998Q10.666450738418579,16.036711,10.56821753841858,16.001563Q10.469984338418579,15.966413,10.37359453841858,15.926488Q10.277204738418579,15.886562,10.182890138418578,15.841955Q10.088575638418579,15.797347,9.996564138418579,15.748166Q9.90455173841858,15.698983,9.81506373841858,15.645346Q9.72557473841858,15.591708,9.638826638418578,15.533745Q9.55207843841858,15.475781,9.46827813841858,15.413631Q9.38447783841858,15.35148,9.303828438418579,15.285294Q9.22317913841858,15.219107,9.145874238418578,15.149041Q9.06856943841858,15.078977,8.994795038418578,15.005203Q8.92102173841858,14.931429,8.850957138418579,14.854125Q8.780891638418579,14.77682,8.71470523841858,14.6961708Q8.648517838418579,14.6155214,8.58636733841858,14.5317211Q8.52421693841858,14.4479218,8.466253538418579,14.3611727Q8.408290138418579,14.2744236,8.354652638418578,14.1849356Q8.30101563841858,14.0954475,8.25183413841858,14.0034351Q8.20265223841858,13.9114227,8.158045038418578,13.8171082Q8.113437438418579,13.7227936,8.07351133841858,13.6264038Q8.033585338418579,13.530014,7.998437138418579,13.4317818Q7.963289038418579,13.3335495,7.933003138418579,13.2337103Q7.902717338418579,13.1338711,7.877366338418579,13.0326653Q7.852015738418579,12.9314594,7.831661938418579,12.829133Q7.811308138418579,12.7268062,7.795999738418579,12.6236038Q7.780691338418579,12.520402,7.770465138418579,12.4165726Q7.760238838418579,12.3127432,7.755119538418579,12.208537100000001Q7.750000238418579,12.1043315,7.750000238418579,12Q7.750000238418579,11.895668,7.755119538418579,11.7914624Q7.760238838418579,11.6872568,7.770465138418579,11.5834274Q7.780691338418579,11.479598,7.795999738418579,11.376395200000001Q7.811308138418579,11.2731929,7.831662438418579,11.170866Q7.852016638418579,11.068539099999999,7.877367238418579,10.9673347Q7.902717838418579,10.8661299,7.933003638418579,10.766290699999999Q7.963289538418579,10.6664515,7.998437638418579,10.5682182Q8.033585338418579,10.469985000000001,8.07351133841858,10.3735952Q8.113437438418579,10.2772055,8.158045038418578,10.1828904Q8.202652738418578,10.088575800000001,8.251834638418579,9.9965639Q8.301016138418579,9.9045515,8.354653138418579,9.8150635Q8.408290138418579,9.725575,8.466253538418579,9.6388264Q8.52421693841858,9.5520782,8.58636733841858,9.4682779Q8.648517838418579,9.3844786,8.71470573841858,9.3038287Q8.78089263841858,9.2231793,8.850958138418578,9.1458745Q8.92102263841858,9.068570099999999,8.99479603841858,8.9947963Q9.06857033841858,8.9210224,9.14587523841858,8.850957900000001Q9.22317913841858,8.780893299999999,9.303828438418579,8.7147059Q9.38447783841858,8.6485183,9.46827813841858,8.5863678Q9.55207843841858,8.5242174,9.638826638418578,8.4662538Q9.72557473841858,8.4082901,9.81506373841858,8.3546529Q9.90455173841858,8.3010159,9.996564138418579,8.2518344Q10.088575638418579,8.2026527,10.182890138418578,8.1580453Q10.277204738418579,8.1134377,10.37359453841858,8.0735116Q10.469984338418579,8.033585500000001,10.56821843841858,7.9984374Q10.666450738418579,7.9632893,10.76629123841858,7.9330034000000005Q10.86612923841858,7.9027176,10.96733523841858,7.877367Q11.068539238418579,7.8520164,11.170865238418578,7.8316624Q11.273192238418579,7.8113084,11.37639523841858,7.795999500000001Q11.47959723841858,7.7806911,11.58342723841858,7.7704649Q11.68725723841858,7.7602386,11.79146323841858,7.7551193000000005Q11.895669238418579,7.75,12.000000238418579,7.75Q12.104332238418579,7.75,12.20853823841858,7.7551193000000005Q12.31274423841858,7.7602386,12.41657423841858,7.7704649Q12.520403238418579,7.7806911,12.623605238418579,7.795999800000001Q12.72680723841858,7.8113084,12.829134238418579,7.8316627Q12.931460238418579,7.8520167,13.032665238418579,7.877367Q13.13386923841858,7.9027176,13.233709238418578,7.9330034000000005Q13.33354823841858,7.9632893,13.43178123841858,7.9984374Q13.53001323841858,8.033585500000001,13.626403238418579,8.0735116Q13.722793238418578,8.1134377,13.817108238418578,8.158045099999999Q13.911423238418578,8.2026527,14.00343623841858,8.2518344Q14.095448238418578,8.3010159,14.184937238418579,8.3546531Q14.274424238418579,8.4082901,14.36117323841858,8.4662538Q14.44792223841858,8.5242174,14.531721238418578,8.586367599999999Q14.61552023841858,8.6485181,14.696171238418579,8.7147055Q14.776819238418579,8.7808928,14.85412423841858,8.8509574Q14.931429238418579,8.9210224,15.005203238418579,8.9947958Q15.07897723841858,9.068569199999999,15.14904123841858,9.145874Q15.21910623841858,9.2231789,15.28529423841858,9.3038282Q15.35148023841858,9.3844776,15.413630238418579,9.4682775Q15.47578023841858,9.5520773,15.533745238418579,9.6388259Q15.591707238418579,9.7255745,15.64534523841858,9.815063Q15.69898223841858,9.904551,15.748164238418578,9.9965634Q15.797346238418578,10.0885754,15.84195323841858,10.1828904Q15.886560238418578,10.277205,15.926487238418579,10.3735948Q15.966413238418578,10.469985000000001,16.00156223841858,10.5682182Q16.03671123841858,10.6664505,16.066998238418577,10.7662902Q16.09728223841858,10.8661294,16.12263323841858,10.9673347Q16.14798323841858,11.068539099999999,16.16833723841858,11.170866Q16.18869023841858,11.2731929,16.20399923841858,11.3763957Q16.21930923841858,11.479598,16.229535238418578,11.5834274Q16.23976123841858,11.6872568,16.24488123841858,11.7914619Q16.25000023841858,11.895668,16.25000023841858,12ZM12.000000238418579,9.25C10.481216638418578,9.25,9.250000238418579,10.4812169,9.250000238418579,12C9.250000238418579,12.414213700000001,9.585787038418578,12.75,10.000000238418579,12.75C10.39942003841858,12.75,10.72591523841858,12.4377699,10.74872703841858,12.0440683L10.750000238418579,12C10.750000238418579,11.309643699999999,11.30964423841858,10.75,12.000000238418579,10.75L12.044068238418578,10.7487268C12.43777023841858,10.725915,12.750000238418579,10.3994203,12.750000238418579,10C12.750000238418579,9.585786299999999,12.41421323841858,9.25,12.000000238418579,9.25Z" fill-rule="evenodd" fill="#FFFFFF" fill-opacity="0.8600000143051147"/></g></svg>