<svg xmlns="http://www.w3.org/2000/svg" fill="none" version="1.1" width="16" height="16" viewBox="0 0 16 16"><g><path d="M11.8333 2.00016C11.6344 2.00016 11.4436 2.07918 11.303 2.21983L4.1363 9.3865C4.0552 9.4676 3.99507 9.56707 3.96102 9.67665L3.34435 11.6767C3.28638 11.8642 3.33856 12.0683 3.47976 12.2044C3.62097 12.3405 3.82659 12.3854 4.01135 12.3207L5.84468 11.704C5.9399 11.6705 6.02577 11.6155 6.09485 11.5428L13.4198 3.80433C13.5517 3.66545 13.6246 3.47989 13.6246 3.28766C13.6246 3.09544 13.5517 2.90988 13.4198 2.771L12.3636 1.71983C12.223 1.57918 12.0322 1.50016 11.8333 1.50016C11.6344 1.50016 11.4436 1.57918 11.303 1.71983L11.8333 2.00016ZM11.8333 2.70727L12.6861 3.56005L6.29928 10.2989L5.03628 10.7329L5.45302 9.39195L11.8333 2.70727Z" fill="#FFFFFF" fill-opacity="0.9"/><path d="M2.5 13.5C2.22386 13.5 2 13.7239 2 14C2 14.2761 2.22386 14.5 2.5 14.5H13.5C13.7761 14.5 14 14.2761 14 14C14 13.7239 13.7761 13.5 13.5 13.5H2.5Z" fill="#FFFFFF" fill-opacity="0.9"/></g></svg>