<svg xmlns="http://www.w3.org/2000/svg" xmlns:xlink="http://www.w3.org/1999/xlink" fill="none" version="1.1" width="20" height="20" viewBox="0 0 20 20"><defs><clipPath id="master_svg0_210_70542"><rect x="0" y="0" width="20" height="20" rx="0"/></clipPath><clipPath id="master_svg1_210_70544"><rect x="0" y="0" width="20" height="20" rx="0"/></clipPath></defs><g clip-path="url(#master_svg0_210_70542)"><g clip-path="url(#master_svg1_210_70544)"><path d="M10.8333335,3.58317059625C10.8333335,3.07690954625,10.422927900000001,2.66650390625,9.916667,2.66650390625C9.4104056,2.66650390625,9,3.07690954625,9,3.58317059625L8.9999962,3.7804708062500003C7.048233,4.23338350625,5.59375,5.98321250625,5.59375,8.07275390625L5.59375,11.32729630625L5.5928586,11.39044470625C5.5762377,11.97883610625,5.3278666999999995,12.53793330625,4.90034735,12.94501290625L4.32304299,13.49471690625L4.28949559,13.52814790625C4.10414405,13.72144590625,4,13.97936090625,4,14.24838090625L4,14.83317090625L4.00091428938,14.85804790625C4.013639146,15.03052390625,4.15760636,15.16650390625,4.33333334,15.16650390625L15.666667,15.16650390625L15.691544,15.16558990625C15.86402,15.15286590625,16,15.00889790625,16,14.83317090625L16,14.24838090625L15.998923,14.20103290625C15.986751,13.93350490625,15.871783,13.68022890625,15.676958,13.49471690625L15.099653,12.94501290625L15.054535,12.90082190625C14.639879,12.48303980625,14.40625,11.91762350625,14.40625,11.32729630625L14.40625,8.07275390625L14.405762,8.00641970625C14.37449,5.88744590625,12.8474617,4.13078760625,10.8334484,3.7452179062499997L10.8333335,3.58317059625ZM11.333170899999999,16.16650390625L8.6665039,16.16650390625C8.6665039,16.90277790625,9.263434400000001,17.49983690625,9.999754,17.49983690625C10.736239900000001,17.49983690625,11.333170899999999,16.90277790625,11.333170899999999,16.16650390625Z" fill-rule="evenodd" fill="#FFFFFF" fill-opacity="0.8999999761581421"/></g><ellipse cx="16" cy="4" rx="2" ry="2" fill="#ED3D37" fill-opacity="1"/></g></svg>