<svg xmlns="http://www.w3.org/2000/svg" xmlns:xlink="http://www.w3.org/1999/xlink" fill="none" version="1.1" width="14" height="14" viewBox="0 0 14 14"><g><path d="M6.9996743125,13.41536425Q7.1571946125,13.41536325,7.3145246125,13.40763425Q7.4718556125,13.39990625,7.6286173125,13.38446725Q7.7853794125,13.36902725,7.9411945125,13.34591425Q8.097009612499999,13.32279925,8.251503012499999,13.29206925Q8.405996312500001,13.26133925,8.558795912499999,13.22306425Q8.7115955125,13.18478925,8.8623333125,13.13906525Q9.0130701125,13.09333825,9.1613827125,13.04027225Q9.3096943125,12.98720325,9.4552250125,12.92692425Q9.6007538125,12.86664425,9.7431507125,12.79929525Q9.8855476125,12.73194725,10.0244694125,12.65769325Q10.1633892125,12.58343725,10.2984991125,12.50245525Q10.4336090125,12.42147325,10.5645819125,12.33395925Q10.6955548125,12.24644625,10.8220768125,12.15261225Q10.9485988125,12.05877725,11.0703638125,11.95884825Q11.1921288125,11.85891825,11.3088438125,11.75313425Q11.4255578125,11.64735025,11.5369418125,11.53596625Q11.6483248125,11.42458325,11.7541108125,11.30786925Q11.8598938125,11.19115325,11.9598248125,11.06938825Q12.0597538125,10.94762425,12.1535878125,10.82110225Q12.2474228125,10.69458025,12.3349358125,10.56360625Q12.4224488125,10.43263245,12.5034318125,10.29752345Q12.5844138125,10.16241455,12.6586688125,10.02349375Q12.7329228125,9.88457295,12.8002718125,9.74217605Q12.8676198125,9.59977915,12.9279008125,9.45424935Q12.9881798125,9.30871965,13.0412488125,9.16040615Q13.0943148125,9.01209445,13.1400418125,8.86135765Q13.1857658125,8.71061995,13.2240408125,8.55781985Q13.2623148125,8.40502075,13.2930448125,8.250527349999999Q13.3237758125,8.09603355,13.3468898125,7.94021845Q13.3700028125,7.78440285,13.3854438125,7.62764125Q13.4008828125,7.47087955,13.4086108125,7.31354905Q13.4163408125,7.15621805,13.4163408125,6.99869775Q13.4163408125,6.84117695,13.4086108125,6.68384645Q13.4008828125,6.52651595,13.3854438125,6.36975435Q13.3700038125,6.21299265,13.3468908125,6.05717655Q13.3237758125,5.90136145,13.2930458125,5.74686765Q13.2623158125,5.59237385,13.2240408125,5.43957475Q13.1857658125,5.28677515,13.1400418125,5.13603785Q13.0943148125,4.98530005,13.0412488125,4.83698745Q12.9881798125,4.68867495,12.9279008125,4.54314515Q12.8676208125,4.39761545,12.8002718125,4.25521875Q12.7329238125,4.11282205,12.6586698125,3.97390175Q12.5844138125,3.83498125,12.5034318125,3.69987155Q12.4224498125,3.56476165,12.3349358125,3.43378825Q12.2474228125,3.30281495,12.1535888125,3.17629335Q12.0597538125,3.04977205,11.9598248125,2.92800735Q11.8598948125,2.80624245,11.7541108125,2.68952775Q11.6483268125,2.5728127499999998,11.5369428125,2.46142925Q11.4255598125,2.35004555,11.3088458125,2.24426155Q11.1921298125,2.13847735,11.0703648125,2.03854755Q10.9486008125,1.93861775,10.8220788125,1.84478285Q10.6955568125,1.75094805,10.5645828125,1.66343455Q10.4336090125,1.5759208199999999,10.2985000125,1.4949392700000002Q10.1633911125,1.41395766,10.0244703125,1.3397031400000001Q9.8855495125,1.26544857,9.7431526125,1.19809991Q9.6007557125,1.1307512499999999,9.4552259125,1.07047084Q9.3096962125,1.01019043,9.1613827125,0.95712343Q9.0130710125,0.90405643,8.8623342125,0.85833073Q8.7115965125,0.81260499,8.5587964125,0.77433068Q8.4059973125,0.73605636,8.251503912499999,0.70532568Q8.0970101125,0.674594991,7.9411950125,0.651481971Q7.7853794125,0.62836894,7.6286178125,0.612929251Q7.4718561125,0.59748956,7.3145256125,0.589760405Q7.1571946125,0.58203125,6.9996743125,0.58203125Q6.8421535125,0.58203125,6.6848230125,0.589760405Q6.5274925125,0.59748956,6.3707309125,0.612929251Q6.2139692125,0.62836894,6.0581531125,0.651481971Q5.9023380125,0.674594991,5.7478442125,0.70532568Q5.5933504125,0.73605636,5.4405513125,0.77433068Q5.2877517125,0.81260499,5.1370144125,0.85833073Q4.9862766125,0.90405643,4.8379640125,0.95712343Q4.6896515125,1.01019043,4.5441217125,1.07047084Q4.3985920125,1.1307512499999999,4.2561953125,1.19809985Q4.1137986125,1.2654485100000001,3.9748783125,1.33970308Q3.8359578125,1.4139576,3.7008481125,1.49493921Q3.5657382125,1.5759208199999999,3.4347648125,1.66343435Q3.3037915125,1.75094795,3.1772699125,1.84478285Q3.0507486125,1.93861775,2.9289839125,2.03854755Q2.8072190125,2.13847735,2.6905043125,2.24426135Q2.5737893124999998,2.35004555,2.4624058125,2.46142925Q2.3510221125,2.5728127499999998,2.2452381125,2.68952775Q2.1394539125,2.80624245,2.0395241125,2.92800765Q1.9395943125,3.04977225,1.8457594125,3.17629365Q1.7519246125,3.30281515,1.6644111125,3.43378855Q1.5768973824999999,3.56476185,1.4959158325000002,3.69987155Q1.4149342225,3.83498145,1.3406797025000001,3.97390195Q1.2664251325,4.112822550000001,1.1990764725,4.25521895Q1.1317278124999999,4.3976156500000005,1.0714474025,4.54314545Q1.0111669925,4.68867545,0.9580999925,4.83698745Q0.9050329925,4.98530005,0.8593072925,5.13603785Q0.8135815525,5.28677515,0.7753072425,5.43957475Q0.7370329225,5.59237435,0.7063022425,5.74686815Q0.6755715535,5.90136145,0.6524585335,6.05717705Q0.6293455025,6.21299265,0.6139058135,6.36975435Q0.5984661225,6.52651595,0.5907369675,6.68384645Q0.5830078125,6.84117695,0.5830078125,6.99869775Q0.5830078125,7.15621805,0.5907369675,7.31354805Q0.5984661225,7.47087905,0.6139058135,7.62764075Q0.6293455025,7.78440285,0.6524585335,7.94021795Q0.6755715535,8.096033049999999,0.7063022425,8.250526449999999Q0.7370329225,8.405019750000001,0.7753072425,8.557819349999999Q0.8135815525,8.71061895,0.8593072925,8.86135675Q0.9050329925,9.01209355,0.9580999925,9.16040615Q1.0111669925,9.30871775,1.0714474025,9.45424845Q1.1317278124999999,9.59977725,1.1990764125,9.74217415Q1.2664250725000001,9.88457105,1.3406796425,10.02349285Q1.4149341625,10.16241265,1.4959157725,10.29752255Q1.5768973824999999,10.43263245,1.6644109125,10.56360535Q1.7519245125,10.69457825,1.8457594125,10.82110025Q1.9395943125,10.94762225,2.0395241125,11.06938725Q2.1394539125,11.19115225,2.2452379125,11.30786725Q2.3510221125,11.42458125,2.4624058125,11.53596525Q2.5737893124999998,11.64734825,2.6905043125,11.75313425Q2.8072190125,11.85891725,2.9289842125,11.95884825Q3.0507488125,12.05877725,3.1772702125,12.15261125Q3.3037917125,12.24644625,3.4347651125,12.33395925Q3.5657384125,12.42147225,3.7008481125,12.50245525Q3.8359580125,12.58343725,3.9748785125,12.65769225Q4.113799112500001,12.73194625,4.2561955125,12.79929525Q4.3985922125000005,12.86664325,4.5441220125,12.92692425Q4.6896520125,12.98720325,4.8379640125,13.04027225Q4.9862766125,13.09333825,5.1370144125,13.13906525Q5.2877517125,13.18478925,5.4405513125,13.22306425Q5.5933509125,13.26133825,5.7478447125,13.29206825Q5.9023380125,13.32279925,6.0581536125,13.34591325Q6.2139692125,13.36902625,6.3707309125,13.38446725Q6.5274925125,13.39990625,6.6848230125,13.40763425Q6.8421535125,13.41536325,6.9996743125,13.41536425ZM6.9996743125,12.54036425Q7.1357145125,12.54036325,7.2715912125,12.53368825Q7.4074674125,12.52701425,7.5428524125,12.51367925Q7.6782374125,12.50034525,7.8128052125,12.48038425Q7.9473724125,12.46042225,8.0807991125,12.43388225Q8.2142248125,12.40734125,8.3461885125,12.37428625Q8.4781513125,12.34123025,8.6083336125,12.30174025Q8.7385158125,12.26225125,8.8666048125,12.21642025Q8.9946918125,12.17058925,9.1203766125,12.11852825Q9.2460613125,12.06646725,9.3690414125,12.00830225Q9.4920196125,11.95013825,9.6119966125,11.88601025Q9.7319736125,11.82188125,9.8486585125,11.75194225Q9.9653444125,11.68200325,10.0784578125,11.60642325Q10.1915712125,11.53084325,10.3008404125,11.44980425Q10.4101086125,11.36876725,10.5152702125,11.28246425Q10.6204298125,11.19616125,10.7212298125,11.10480225Q10.8220278125,11.01344325,10.9182238125,10.91724825Q11.0144178125,10.82105225,11.1057768125,10.72025325Q11.1971358125,10.61945325,11.2834398125,10.51429365Q11.3697418125,10.40913205,11.4507808125,10.29986385Q11.5318198125,10.19059465,11.6073988125,10.07748125Q11.6829798125,9.96436785,11.7529178125,9.84768295Q11.8228568125,9.73099705,11.8869858125,9.61102005Q11.9511148125,9.49104305,12.0092788125,9.36806395Q12.0674438125,9.24508475,12.1195048125,9.11940005Q12.1715658125,8.99371525,12.2173968125,8.86562825Q12.2632278125,8.73754025,12.3027178125,8.60735795Q12.3422078125,8.47717525,12.3752628125,8.34521195Q12.4083178125,8.21324825,12.4348588125,8.07982255Q12.4613988125,7.94639585,12.4813608125,7.81182865Q12.5013218125,7.67726135,12.5146558125,7.54187635Q12.5279908125,7.40649125,12.5346648125,7.27061465Q12.5413408125,7.13473795,12.5413408125,6.99869775Q12.5413408125,6.86265755,12.5346658125,6.72678085Q12.5279908125,6.59090475,12.5146558125,6.45551965Q12.5013218125,6.32013415,12.4813608125,6.18556645Q12.4613988125,6.05099825,12.4348588125,5.91757205Q12.4083178125,5.78414535,12.3752628125,5.65218255Q12.3422068125,5.52021885,12.3027168125,5.39003655Q12.2632278125,5.25985435,12.2173968125,5.13176635Q12.1715658125,5.00367835,12.1195048125,4.87799315Q12.0674438125,4.75230835,12.0092788125,4.62932965Q11.9511148125,4.5063505500000005,11.8869868125,4.386373949999999Q11.8228578125,4.26639695,11.7529188125,4.1497113500000005Q11.6829798125,4.03302575,11.6073998125,3.91991255Q11.5318198125,3.80679915,11.4507808125,3.69753075Q11.3697438125,3.58826205,11.2834408125,3.48310165Q11.1971378125,3.37794115,11.1057788125,3.27714205Q11.0144198125,3.17634275,10.9182248125,3.08014775Q10.8220288125,2.98395275,10.7212298125,2.89259365Q10.6204298125,2.80123475,10.5152702125,2.71493145Q10.4101086125,2.62862845,10.3008404125,2.54758935Q10.1915712125,2.4665501499999998,10.0784578125,2.39097025Q9.9653444125,2.31539035,9.8486595125,2.2454516499999997Q9.7319736125,2.17551305,9.6119966125,2.11138415Q9.4920196125,2.04725515,9.3690405125,1.98909045Q9.2460613125,1.93092565,9.1203766125,1.87886535Q8.9946918125,1.82680515,8.8666048125,1.78097455Q8.7385168125,1.73514385,8.6083345125,1.69565355Q8.4781518125,1.65616305,8.3461885125,1.62310805Q8.2142248125,1.59005295,8.0807991125,1.5635128Q7.9473724125,1.5369726400000001,7.8128052125,1.5170114Q7.6782379125,1.49705017,7.5428529125,1.48371589Q7.4074678125,1.47038162,7.2715912125,1.4637063700000001Q7.1357145125,1.45703125,6.9996743125,1.45703125Q6.8636341125,1.45703125,6.7277574125,1.4637063700000001Q6.5918813125,1.47038162,6.4564962125,1.48371589Q6.3211107125,1.49705017,6.1865430125,1.5170114Q6.0519748125,1.5369726400000001,5.9185486125,1.5635128Q5.7851219125,1.59005295,5.6531591125,1.62310805Q5.5211954125,1.65616305,5.3910131125,1.69565355Q5.2608309125,1.73514385,5.1327429125,1.78097455Q5.0046549125,1.82680515,4.8789697125,1.87886535Q4.7532849125,1.93092565,4.6303062125,1.98909045Q4.5073271125000005,2.04725515,4.387350512499999,2.11138415Q4.2673735125,2.17551305,4.1506879125000005,2.2454516499999997Q4.0340023125,2.31539035,3.9208891125,2.39097025Q3.8077757125,2.4665501499999998,3.6985073125,2.54758935Q3.5892386125,2.62862845,3.4840782125,2.71493145Q3.3789177125,2.80123475,3.2781186125,2.89259385Q3.1773193125,2.98395275,3.0811243125,3.08014775Q2.9849293125,3.17634275,2.8935702125,3.27714205Q2.8022113125,3.37794115,2.7159080125,3.48310185Q2.6296050125,3.58826205,2.5485659125,3.69753075Q2.4675267124999998,3.80679945,2.3919468125,3.91991285Q2.3163669125,4.03302595,2.2464282124999997,4.14971165Q2.1764896125,4.26639725,2.1123607125,4.386374249999999Q2.0482317125,4.50635075,1.9900670125,4.62932965Q1.9319022125,4.75230885,1.8798419125,4.87799355Q1.8277817125,5.00367835,1.7819511125,5.13176635Q1.7361204125,5.25985435,1.6966301125,5.39003655Q1.6571396125,5.52021885,1.6240846125,5.65218215Q1.5910294125,5.78414535,1.5644893025,5.91757205Q1.5379492025000001,6.05099825,1.5179879625,6.18556595Q1.4980267325,6.32013415,1.4846924525,6.45551965Q1.4713581825,6.59090475,1.4646829325000001,6.72678085Q1.4580078125,6.86265755,1.4580078125,6.99869775Q1.4580078125,7.13473795,1.4646829325000001,7.27061465Q1.4713581224999999,7.40649085,1.4846923925,7.54187585Q1.4980266125,7.67726085,1.5179878425,7.81182865Q1.5379490825,7.94639585,1.5644892425,8.07982255Q1.5910294125,8.21324825,1.6240845125,8.34521195Q1.6571395125,8.47717475,1.6966300125,8.60735705Q1.7361203125,8.73753925,1.7819509125,8.86562825Q1.8277814125,8.99371525,1.8798418125,9.11940005Q1.9319022125,9.24508475,1.9900669125,9.36806485Q2.0482317125,9.49104305,2.1123607125,9.61102005Q2.1764896125,9.73099705,2.2464282124999997,9.84768195Q2.3163669125,9.96436785,2.3919468125,10.07748125Q2.4675267124999998,10.19059465,2.5485659125,10.29986385Q2.6296050125,10.40913205,2.7159080125,10.51429365Q2.8022113125,10.61945325,2.8935704125,10.72025325Q2.9849293125,10.82105125,3.0811243125,10.91724725Q3.1773193125,11.01344125,3.2781186125,11.10480025Q3.3789177125,11.19615925,3.4840784125,11.28246325Q3.5892386125,11.36876525,3.6985073125,11.44980425Q3.8077760125,11.53084325,3.9208894125,11.60642225Q4.0340025125,11.68200325,4.1506882125,11.75194125Q4.2673738125,11.82188025,4.387350812499999,11.88600925Q4.5073273125,11.95013825,4.6303062125,12.00830225Q4.7532854125,12.06646725,4.8789701125,12.11852825Q5.0046549125,12.17058925,5.1327429125,12.21642025Q5.2608309125,12.26225125,5.3910131125,12.30174125Q5.5211954125,12.34123125,5.6531587125,12.37428625Q5.7851219125,12.40734125,5.9185486125,12.43388225Q6.0519748125,12.46042225,6.1865425125,12.48038425Q6.3211107125,12.50034525,6.4564962125,12.51367925Q6.5918813125,12.52701425,6.7277574125,12.53368825Q6.8636341125,12.54036325,6.9996743125,12.54036425ZM9.1466350125,5.16671705C8.9834728125,4.347001049999999,8.3179302125,3.69669175,7.4863243125,3.53896785C6.1712909125,3.28980545,4.9580078125,4.26667975,4.9580078125,5.57875155L4.9580078125,5.72458505C4.9580078125,5.88566785,5.0885916125,6.01625155,5.2496743125,6.01625155L5.6142578125,6.01625155C5.7350702125,6.01625155,5.8330078125,5.91831395,5.8330078125,5.79750155L5.8330078125,5.58094975L5.8335581125,5.54224155C5.8558874125,4.80293365,6.5543022125,4.25294305,7.3233557125,4.398657350000001C7.8067999125,4.49034835,8.1954250125,4.87007855,8.2884645125,5.33750155C8.400669112500001,5.90142635,8.1028890125,6.44988915,7.5645285125,6.68418595L7.5253105125,6.70171215C6.9792714125,6.95219235,6.5621743125,7.41713905,6.5621743125,8.05621335L6.5621743125,8.60416605C6.5621743125,8.76524925,6.6927581125,8.89583305,6.8538408125,8.89583305L7.1455078125,8.89583305C7.3065910125,8.89583305,7.4371743125,8.76524925,7.4371743125,8.60416605L7.4371743125,8.06104665L7.4381089125,8.028017049999999C7.4530077125,7.80344105,7.6446190125,7.60360525,7.9137020125,7.48649695L7.9581718125,7.46656035C8.8411512125,7.05898665,9.3371181125,6.12405105,9.1466350125,5.16671705ZM7.5836587125,10.06380175Q7.5836582125,10.12125495,7.5724497125,10.17760375Q7.5612407125,10.23395345,7.5392542125,10.28703305Q7.5172672125,10.34011365,7.4853487125,10.38788505Q7.4534292125,10.43565555,7.4128036125,10.47628115Q7.3721781125,10.51690675,7.3244071125,10.54882625Q7.2766361125,10.58074565,7.2235565125,10.60273125Q7.1704769125,10.62471725,7.1141271125,10.63592625Q7.0577783125,10.64713525,7.0003257125,10.64713525Q6.9428720125,10.64713525,6.8865223125,10.63592725Q6.8301725125,10.62471725,6.7770924125,10.60273125Q6.7240124125,10.58074565,6.6762419125,10.54882625Q6.6284714125,10.51690675,6.5878463125,10.47628115Q6.5472202125,10.43565555,6.5153012125,10.38788415Q6.4833817125,10.34011365,6.4613953125,10.28703305Q6.4394092125,10.23395345,6.4282007125,10.17760465Q6.4169922125,10.12125495,6.4169922125,10.06380175Q6.4169922125,10.00634765,6.4282007125,9.94999885Q6.4394092125,9.89365005,6.4613953125,9.84056945Q6.4833817125,9.78748985,6.5153007125,9.73971935Q6.5472202125,9.69194795,6.5878463125,9.65132235Q6.6284714125,9.61069675,6.6762423125,9.57877735Q6.7240124125,9.54685785,6.7770929125,9.52487185Q6.8301725125,9.50288585,6.8865223125,9.49167725Q6.9428720125,9.48046875,7.0003257125,9.48046875Q7.0577783125,9.48046875,7.1141276125,9.49167725Q7.1704769125,9.50288585,7.2235565125,9.52487185Q7.2766361125,9.54685785,7.3244076125,9.57877735Q7.3721781125,9.61069675,7.4128036125,9.65132235Q7.4534292125,9.69194795,7.4853482125,9.73971935Q7.5172672125,9.78748985,7.5392542125,9.84056945Q7.5612407125,9.89365005,7.5724497125,9.94999885Q7.5836582125,10.00634765,7.5836587125,10.06380175Z" fill-rule="evenodd" fill="#000000" fill-opacity="0.6000000238418579"/></g></svg>