<svg xmlns="http://www.w3.org/2000/svg" xmlns:xlink="http://www.w3.org/1999/xlink" fill="none" version="1.1" width="20" height="20" viewBox="0 0 20 20"><g><g><g><path d="M16.90939509375,2.948912159321289L16.97986009375,3.046907989321289C18.39740609375,5.055470929321289,19.17432809375,7.4577431293212895,19.17432809375,9.97502132932129C19.17432809375,12.37115282932129,18.47040509375,14.66177342932129,17.17952009375,16.60924242932129L17.11200709375,16.70855442932129L17.05546909375,16.78933542932129L16.95336909375,16.93236442932129C16.94087209375,16.94971442932129,16.92799009375,16.96755042932129,16.91472409375,16.985870429321288C16.780208093749998,17.17257842932129,16.51973409375,17.214456429321288,16.33325009375,17.079629429321287L16.32246909375,17.071591429321288L15.66362309375,16.56132942932129C15.48585409375,16.42452142932129,15.44884909375,16.171451429321287,15.57947909375,15.989095429321289L15.65626609375,15.881536429321288L15.75546609375,15.739206429321289L15.81094709375,15.65699342932129C15.81948509375,15.644135429321288,15.82766609375,15.63170142932129,15.83549209375,15.61968842932129C16.91852609375,13.957373429321288,17.50766009375,12.01189902932129,17.50766009375,9.97502132932129C17.50766009375,7.883234529321289,16.88632209375,5.88658282932129,15.74750309375,4.195518329321289L15.65869409375,4.065884029321289L15.58285209375,3.960203529321289C15.45001009375,3.778711799321289,15.48605609375,3.524672329321289,15.66362309375,3.386630119321289L16.32504309375,2.874375656321289C16.50693609375,2.733416792321289,16.76862409375,2.7668725293212892,16.90939509375,2.948912159321289ZM4.41307119375,6.77058812932129L7.82435229375,3.9392109293212894C8.16984799375,3.652428809321289,8.685194993749999,3.696711239321289,8.97541139375,4.038118629321289C9.09904959375,4.1835648293212895,9.16682909375,4.367432829321289,9.16682909375,4.557383529321289L9.16682909375,15.442714429321288C9.16682909375,15.888588429321288,8.80104919375,16.250040429321288,8.34983539375,16.250040429321288C8.15761039375,16.250040429321288,7.97153999375,16.18306242932129,7.82435229375,16.06088742932129L4.41290779375,13.22918742932129L2.52010859375,13.229072429321288C2.10587529375,13.225186429321289,1.86727809375,13.179716429321289,1.6282337337500001,13.060272429321289L1.59406244375,13.042701429321289C1.34886914375,12.913123429321288,1.1535090237499999,12.720074629321289,1.02237820375,12.477782229321289C0.88210157275,12.21859262932129,0.83349609375,11.969871529321289,0.83349609375,11.50302122932129L0.83377527873,8.43740222932129C0.83789594845,8.008579229321288,0.88820055875,7.770236529321289,1.02237820375,7.522315529321289C1.1535090237499999,7.280023529321289,1.34886914375,7.0869751293212895,1.59406244375,6.957396529321289C1.85635699375,6.818779929321289,2.1080567937500003,6.770749829321289,2.58049869375,6.770749829321289L4.41307119375,6.77058812932129ZM14.36840909375,5.129382629321289L14.44954609375,5.251210929321289L14.46952009375,5.282179829321289C15.35591609375,6.6697163293212895,15.83646209375,8.285532929321288,15.83646209375,9.97506902932129C15.83646209375,11.559071529321288,15.41407409375,13.078276429321289,14.63085209375,14.40531542932129L14.54630309375,14.545345429321289L14.48496009375,14.641099429321288L14.40600709375,14.760074429321289C14.39625509375,14.774584429321289,14.38617909375,14.78952442932129,14.37577509375,14.804894429321289C14.25322609375,14.985928429321289,14.01329809375,15.04000442932129,13.82623709375,14.93434842932129L13.79011709375,14.911431429321288L13.11327209375,14.410725429321289C12.93418309375,14.27893642932129,12.89052909375,14.02967742932129,13.01378809375,13.84461642932129L13.07795609375,13.74727542932129L13.13307809375,13.660998429321289L13.17915509375,13.585786429321288C13.82295509375,12.50622172932129,14.16979609375,11.26892852932129,14.16979609375,9.97506902932129C14.16979609375,8.64385172932129,13.80263809375,7.372514729321289,13.12264809375,6.271237129321289L13.08737709375,6.215631029321289L13.01457609375,6.105696229321289C12.89056609375,5.920862229321289,12.93392209375,5.671232229321289,13.11327209375,5.5394122293212895L13.78585809375,5.041911329321289C13.97082809375,4.905014729321289,14.23171009375,4.944265829321289,14.36840909375,5.129382629321289ZM12.03887409375,7.360383029321289L12.03118709375,7.348224629321289C11.90476609375,7.155942929321289,11.64640609375,7.1025529293212895,11.45418309375,7.229064929321289L10.75397209375,7.689836029321289C10.57310389375,7.809405829321289,10.51390839375,8.04763892932129,10.61833099375,8.237655629321289L10.64759539375,8.29224682932129L10.67008779375,8.33682152932129C10.91343509375,8.840779829321288,11.04258609375,9.39748092932129,11.04258609375,9.97490212932129C11.04258609375,10.571727729321289,10.90461009375,11.146416629321289,10.64516929375,11.663608529321289L10.61780639375,11.71617892932129C10.51580139375,11.905944829321289,10.57557579375,12.142105129321289,10.75533199375,12.260864229321289L11.45418309375,12.72074032932129L11.47689009375,12.734872829321288C11.67697309375,12.848544429321288,11.93132209375,12.77849392932129,12.04451609375,12.57813832932129C12.05150109375,12.56586262932129,12.05817809375,12.55404282932129,12.06454709375,12.54267882932129L12.09906409375,12.47997472932129L12.12618409375,12.42822072932129C12.50659109375,11.676625229321289,12.70925309375,10.840175629321289,12.70925309375,9.97490212932129C12.70925309375,9.10923862932129,12.50640809375,8.27242372932129,12.12566809375,7.520566029321289L12.08964509375,7.451781729321289L12.03887409375,7.360383029321289Z" fill-rule="evenodd" fill="#FFFFFF" fill-opacity="0.8600000143051147"/></g></g></g></svg>