<svg xmlns="http://www.w3.org/2000/svg" xmlns:xlink="http://www.w3.org/1999/xlink" fill="none" version="1.1" width="54" height="20" viewBox="0 0 54 20"><defs><clipPath id="master_svg0_210_65469"><rect x="0" y="0" width="54" height="20" rx="0"/></clipPath></defs><g clip-path="url(#master_svg0_210_65469)"><path d="M6.816310919073486,5.832744109265136L6.816310919073486,9.822287109265137L2.962478719073486,9.822287109265137L2.962478719073486,5.832744109265136L1.2300000190734863,5.832744109265136L1.2300000190734863,15.675540909265136L2.962478719073486,15.675540909265136L2.962478719073486,11.575859109265137L6.816310919073486,11.575859109265137L6.816310919073486,15.675540909265136L8.548790019073486,15.675540909265136L8.548790019073486,5.832744109265136L6.816310919073486,5.832744109265136ZM46.90873001907349,7.586315409265136L48.83753301907348,7.586315409265136C49.62897201907349,7.586315409265136,50.26985601907349,8.235127709265136,50.26985601907349,9.035441409265136C50.267254019073484,9.838883409265136,49.625885019073486,10.487974209265136,48.83753301907348,10.485047809265136L46.90873001907349,10.485047809265136L46.90873001907349,7.586315409265136ZM45.17718601907349,5.832744149265137L45.17718601907349,15.675540909265136L46.909195019073486,15.675540909265136L46.909195019073486,11.295461209265136L50.51525901907349,15.675540909265136L52.76640001907349,15.675540909265136L49.81065401907349,12.087598309265136C51.29443801907349,11.606640309265137,52.21186901907349,10.106052409265136,51.97448801907348,8.548230909265136C51.73710301907349,6.990410009265137,50.415207019073485,5.8385161492651365,48.85781901907349,5.832744549265136L45.17436301907349,5.832744549265136L45.17718601907349,5.832744149265137ZM28.792500019073486,5.803405749265137L28.792500019073486,11.945232909265137L24.587075019073485,5.803405879265137L23.203362019073488,5.803405879265137L23.203362019073488,15.645239809265137L24.936312019073487,15.645239809265137L24.936312019073487,9.475516509265137L29.162503019073487,15.645720509265137L30.522622019073488,15.645720509265137L30.522622019073488,5.803405689265137L28.792500019073486,5.803405749265137ZM12.619237019073486,10.747650109265138C12.620182019073486,8.927225309265136,14.078938019073487,7.452128509265137,15.877489019073487,7.4526095092651365C17.676510019073486,7.453571309265136,19.133851019073486,8.929630009265136,19.133378019073486,10.750054809265137C19.132903019073485,12.570479409265136,17.675093019073486,14.046057709265137,15.876070019073486,14.046057709265137C15.011955019073486,14.046057709265137,14.183710019073485,13.698806309265137,13.573021019073487,13.080774809265137C12.962337019073486,12.462744709265138,12.619237019073486,11.623953809265137,12.619237019073486,10.749573709265137L12.619237019073486,10.747650109265138ZM10.886760219073487,10.749573709265137C10.886760219073487,12.792680709265138,12.101995019073486,14.633786209265137,13.966618019073486,15.415824909265137C15.831238019073487,16.197380809265137,17.977135019073486,15.765960809265136,19.404269019073485,14.321646709265137C20.831406019073487,12.877329809265138,21.258509019073486,10.705326109265137,20.485947019073485,8.818048509265136C19.713860019073486,6.930770309265137,17.894074019073486,5.700480741655137,15.876070019073486,5.700480741655137C13.121853019073486,5.700961704075136,10.889120619073486,7.960019309265137,10.887702419073486,10.748131309265137L10.886760219073487,10.749573709265137ZM34.594014019073484,10.747650109265138C34.59496401907349,8.927225309265136,36.05371101907349,7.451647509265136,37.85273401907349,7.4526095092651365C39.65176101907348,7.453571309265136,41.108628019073485,8.930110909265137,41.107682019073486,10.750535509265138C41.10720901907349,12.570961009265137,39.64844901907349,14.046537409265136,37.849431019073485,14.045575109265137C36.98578301907349,14.045575109265137,36.15754001907349,13.698323709265136,35.54638001907349,13.080294609265136C34.93522301907348,12.462264109265137,34.592595019073485,11.623472209265136,34.592595019073485,10.749092609265137L34.594014019073484,10.747650109265138ZM32.86012101907349,10.749573709265137C32.85964601907349,12.792680709265138,34.07535601907349,14.633786209265137,35.939503019073484,15.415824909265137C37.80412701907348,16.197380809265137,39.950493019073484,15.765960809265136,41.377152019073485,14.321646709265137C42.803822019073486,12.877329809265138,43.231869019073486,10.705326109265137,42.45883601907349,8.818048509265136C41.68674901907349,6.930770309265137,39.86743601907349,5.700480741655137,37.84896501907349,5.700480741655137C35.094742019073486,5.700961704075136,32.86154001907349,7.960019309265137,32.86012101907349,10.748131309265137L32.86012101907349,10.749573709265137Z" fill="#FFFFFF" fill-opacity="0.8999999761581421" style="mix-blend-mode:passthrough"/></g></svg>