<svg xmlns="http://www.w3.org/2000/svg" xmlns:xlink="http://www.w3.org/1999/xlink" fill="none" version="1.1" width="16" height="16" viewBox="0 0 16 16"><g><path d="M13.357433561813355,2.5005483627319336L2.6412017618133543,2.5005483627319336C2.0677653618133545,2.5049767578319337,1.7626999618133545,2.5679003817319335,1.4456208918133546,2.7374761127319336C1.1412026918133544,2.9002807727319335,0.8993039718133544,3.1421794927319335,0.7364993118133545,3.4465976927319337C0.5669235808133545,3.763676762731934,0.5039999569133545,4.068742162731933,0.4995715618133545,4.642178562731933L0.4995715618133545,11.358410862731933C0.5039999569133545,11.931846662731934,0.5669235808133545,12.236911762731934,0.7364993118133545,12.553991362731933C0.8993039718133544,12.858409362731933,1.1412026918133544,13.100308362731933,1.4456208918133546,13.263113362731934C1.7626999618133545,13.432688362731934,2.0677653618133545,13.495612362731933,2.6412017618133543,13.500040362731934L13.290060561813355,13.500294362731934L13.357433561813355,13.500040362731934C13.930870561813354,13.495612362731933,14.235935561813355,13.432688362731934,14.553014561813354,13.263113362731934C14.857432561813354,13.100308362731933,15.099331561813354,12.858409362731933,15.262136561813355,12.553991362731933C15.438234561813355,12.224717162731933,15.499317561813355,11.908397662731934,15.499317561813355,11.291037562731933L15.499317561813355,4.709551062731934L15.499063561813355,4.642178562731933C15.494635561813354,4.068742162731933,15.431711561813355,3.763676762731934,15.262136561813355,3.4465976927319337C15.099331561813354,3.1421794927319335,14.857432561813354,2.9002807727319335,14.553014561813354,2.7374761127319336C14.235935561813355,2.5679003817319335,13.930870561813354,2.5049767578319337,13.357433561813355,2.5005483627319336ZM13.440012561813354,3.501198062731934L13.342789561813355,3.5000600827319337L2.6311023618133547,3.5002353827319337L2.5141694618133545,3.5022150627319335L2.4310192618133546,3.5051892627319337L2.356192161813355,3.5094766627319336C2.3325427618133547,3.511132562731934,2.310139461813354,3.5130193627319333,2.288840761813354,3.5151486627319333L2.2577036618133546,3.518526062731934L2.1999770618133545,3.5264081627319337L2.1476077618133544,3.5358531627319336C2.087640161813354,3.5481530627319335,2.0374141618133548,3.563982162731934,1.9903408618133545,3.5838944627319336L1.9555239618133544,3.599603162731934L1.9174739618133545,3.6189162627319336C1.7873241618133544,3.6885210627319336,1.6881714618133545,3.7876736627319336,1.6185666618133545,3.9178235627319333L1.6086612618133544,3.9368144627319337L1.5903344618133546,3.975107062731934C1.5718217618133545,4.016399662731933,1.5565842618133545,4.0596046627319335,1.5442323618133544,4.109349962731933L1.5355034618133545,4.1479574627319336L1.5260586618133545,4.200326662731934L1.5181764618133544,4.258053262731933C1.5150098618133545,4.285025562731933,1.5122852618133544,4.313836362731934,1.5099743618133545,4.3448202627319334L1.5068147618133545,4.392967962731934L1.5031928618133545,4.471850662731933L1.5008485618133545,4.5594801627319335L1.4997104618133545,4.656703662731934L1.4995715618133545,11.290664662731933L1.5001331618133544,11.393002462731934L1.5018653618133544,11.485323862731933L1.5048396618133546,11.568473862731933L1.5091271618133546,11.643300962731933C1.5107830618133544,11.666950262731934,1.5126696618133544,11.689353962731934,1.5147989618133544,11.710652362731933L1.5181764618133544,11.741789862731933L1.5260586618133545,11.799515762731934L1.5355034618133545,11.851885762731934C1.5478033618133544,11.911852862731934,1.5636324618133546,11.962079062731934,1.5835449618133546,12.009152362731934L1.5992535618133545,12.043969162731933L1.6185666618133545,12.082018862731934C1.6881714618133545,12.212168662731933,1.7873241618133544,12.311322162731933,1.9174739618133545,12.380926162731933L1.9364647618133546,12.390831962731934L1.9747574618133545,12.409158662731933C2.0160499618133545,12.427671462731933,2.0592551618133546,12.442908262731933,2.1090003618133544,12.455260262731933L2.1476077618133544,12.463989262731934L2.1999770618133545,12.473434462731934L2.2577036618133546,12.481316562731934C2.2846759618133543,12.484482762731934,2.3134866618133545,12.487208362731934,2.3444706618133546,12.489518162731933L2.3926181618133544,12.492678662731933L2.4715009618133545,12.496300662731933L2.5591304618133544,12.498644862731934L2.6563541618133546,12.499782562731934L13.290315561813355,12.499921762731933L13.392653561813354,12.499360062731933L13.484974561813354,12.497628162731933L13.568124561813354,12.494653662731933L13.642950561813354,12.490365962731934C13.666600561813354,12.488709462731933,13.689004561813354,12.486823062731933,13.710302561813354,12.484694462731934L13.741440561813354,12.481316562731934L13.799166561813355,12.473434462731934L13.851536561813354,12.463989262731934C13.911503561813355,12.451689762731933,13.961728561813354,12.435860662731933,14.008802561813354,12.415947962731934L14.043618561813355,12.400238962731933L14.081669561813355,12.380926162731933C14.211819561813355,12.311322162731933,14.310971561813355,12.212168662731933,14.380575561813355,12.082018862731934L14.390481561813354,12.063028362731934L14.408808561813354,12.024735462731934C14.427321561813354,11.983443262731933,14.442558561813355,11.940237962731933,14.454910561813355,11.890492462731933L14.463639561813354,11.851885762731934L14.473085561813354,11.799515762731934L14.480967561813355,11.741789862731933C14.484133561813355,11.714817062731933,14.486859561813354,11.686006562731933,14.489168561813354,11.655022662731934L14.492329561813355,11.606875462731933L14.495950561813354,11.527992262731933L14.498295561813354,11.440362962731934L14.499433561813355,11.343138662731933L14.499571561813354,4.709177962731934L14.499009561813354,4.606839662731934L14.497277561813355,4.514518962731934L14.494303561813355,4.431368862731934L14.490015561813355,4.356541762731934C14.488360561813355,4.332892462731934,14.486473561813355,4.310488962731934,14.484345561813354,4.289190262731934L14.480967561813355,4.258053262731933L14.473085561813354,4.200326662731934L14.463639561813354,4.1479574627319336C14.451340561813355,4.087989762731933,14.435510561813354,4.037763862731934,14.415598561813354,3.9906904627319335L14.399889561813355,3.9558735627319335L14.380575561813355,3.9178235627319333C14.310971561813355,3.7876736627319336,14.211819561813355,3.6885210627319336,14.081669561813355,3.6189162627319336L14.062678561813355,3.609010962731934L14.024386561813355,3.590684062731934C13.983093561813355,3.5721714627319336,13.939888561813355,3.5569337627319335,13.890143561813355,3.5445819627319333L13.851536561813354,3.5358531627319336L13.799166561813355,3.5264081627319337L13.741440561813354,3.518526062731934C13.714467561813354,3.5153595627319336,13.685656561813355,3.5126348627319333,13.654672561813355,3.510323962731934L13.606526561813354,3.5071643627319338L13.527642561813355,3.5035424627319336L13.440012561813354,3.501198062731934ZM3.6243798618133547,5.333842762731933L4.345427061813354,5.3335561627319334C4.456866961813354,5.3335561627319334,4.497277761813354,5.345159262731934,4.538018461813355,5.366947662731933C4.578758961813355,5.388736262731934,4.610732761813354,5.4207095627319335,4.632521361813354,5.461450562731933C4.654309461813354,5.502191262731934,4.6659128618133545,5.542602062731934,4.6659128618133545,5.654041762731934L4.6659128618133545,6.013070562731933C4.6659128618133545,6.124510262731933,4.654309461813354,6.164921262731934,4.632521361813354,6.205661762731934C4.610732761813354,6.246402762731933,4.578758961813355,6.278376062731933,4.538018461813355,6.300164662731934C4.497277761813354,6.321953062731934,4.456866961813354,6.3335561627319334,4.345427061813354,6.3335561627319334L3.6530649618133544,6.3335561627319334C3.5416252618133544,6.3335561627319334,3.5012144618133543,6.321953062731934,3.4604737618133545,6.300164662731934C3.4197327618133544,6.278376062731933,3.3877594618133546,6.246402762731933,3.3659708618133544,6.205661762731934C3.3461632618133543,6.168624862731933,3.3347732618133543,6.131860462731934,3.3328659618133547,6.0417556627319335L3.3325793618133543,5.654041762731934C3.3325793618133543,5.542602062731934,3.3441824618133547,5.502191262731934,3.3659708618133544,5.461450562731933C3.3877594618133546,5.4207095627319335,3.4197327618133544,5.388736262731934,3.4604737618133545,5.366947662731933C3.4975106618133545,5.347140062731933,3.5342750618133545,5.335750062731933,3.6243798618133547,5.333842762731933ZM6.291372061813354,5.333842762731933L7.012419461813354,5.3335561627319334C7.123859161813354,5.3335561627319334,7.164270161813355,5.345159262731934,7.205010661813355,5.366947662731933C7.245751161813354,5.388736262731934,7.277724961813354,5.4207095627319335,7.299513561813354,5.461450562731933C7.321301661813354,5.502191262731934,7.332905061813355,5.542602062731934,7.332905061813355,5.654041762731934L7.332905061813355,6.013070562731933C7.332905061813355,6.124510262731933,7.321301661813354,6.164921262731934,7.299513561813354,6.205661762731934C7.277724961813354,6.246402762731933,7.245751161813354,6.278376062731933,7.205010661813355,6.300164662731934C7.164270161813355,6.321953062731934,7.123859161813354,6.3335561627319334,7.012419461813354,6.3335561627319334L6.320057161813354,6.3335561627319334C6.208617461813354,6.3335561627319334,6.168206461813354,6.321953062731934,6.127465961813354,6.300164662731934C6.0867249618133545,6.278376062731933,6.054751661813355,6.246402762731933,6.032963061813354,6.205661762731934C6.013155661813355,6.168624862731933,6.0017654618133545,6.131860462731934,5.999858161813354,6.0417556627319335L5.9995715618133545,5.654041762731934C5.9995715618133545,5.542602062731934,6.011174961813355,5.502191262731934,6.032963061813354,5.461450562731933C6.054751661813355,5.4207095627319335,6.0867249618133545,5.388736262731934,6.127465961813354,5.366947662731933C6.164502861813355,5.347140062731933,6.201266961813355,5.335750062731933,6.291372061813354,5.333842762731933ZM8.958364261813355,5.333842762731933L9.679411661813354,5.3335561627319334C9.790851361813354,5.3335561627319334,9.831262361813355,5.345159262731934,9.872002361813355,5.366947662731933C9.912743361813355,5.388736262731934,9.944717161813355,5.4207095627319335,9.966505761813355,5.461450562731933C9.988293361813355,5.502191262731934,9.999896761813355,5.542602062731934,9.999896761813355,5.654041762731934L9.999896761813355,6.013070562731933C9.999896761813355,6.124510262731933,9.988293361813355,6.164921262731934,9.966505761813355,6.205661762731934C9.944717161813355,6.246402762731933,9.912743361813355,6.278376062731933,9.872002361813355,6.300164662731934C9.831262361813355,6.321953062731934,9.790851361813354,6.3335561627319334,9.679411661813354,6.3335561627319334L8.987049861813354,6.3335561627319334C8.875609161813355,6.3335561627319334,8.835199161813355,6.321953062731934,8.794458161813354,6.300164662731934C8.753717161813354,6.278376062731933,8.721743361813354,6.246402762731933,8.699955661813355,6.205661762731934C8.680147861813355,6.168624862731933,8.668757161813355,6.131860462731934,8.666850761813354,6.0417556627319335L8.666563761813354,5.654041762731934C8.666563761813354,5.542602062731934,8.678167061813355,5.502191262731934,8.699955661813355,5.461450562731933C8.721743361813354,5.4207095627319335,8.753717161813354,5.388736262731934,8.794458161813354,5.366947662731933C8.831495061813355,5.347140062731933,8.868259161813354,5.335750062731933,8.958364261813355,5.333842762731933ZM12.345427561813354,5.3335561627319334L11.624379561813354,5.333842762731933C11.534274561813355,5.335750062731933,11.497510561813355,5.347140062731933,11.460473561813355,5.366947662731933C11.419732561813355,5.388736262731934,11.387758561813355,5.4207095627319335,11.365971561813355,5.461450562731933C11.344182561813355,5.502191262731934,11.332579561813354,5.542602062731934,11.332579561813354,5.654041762731934L11.332866561813354,6.0417556627319335C11.334772561813354,6.131860462731934,11.346163561813354,6.168624862731933,11.365971561813355,6.205661762731934C11.387758561813355,6.246402762731933,11.419732561813355,6.278376062731933,11.460473561813355,6.300164662731934C11.501214561813354,6.321953062731934,11.541624561813354,6.3335561627319334,11.653065561813355,6.3335561627319334L12.345427561813354,6.3335561627319334C12.456866561813355,6.3335561627319334,12.497277561813355,6.321953062731934,12.538017561813355,6.300164662731934C12.578758561813354,6.278376062731933,12.610732561813354,6.246402762731933,12.632521561813354,6.205661762731934C12.654308561813355,6.164921262731934,12.665912561813354,6.124510262731933,12.665912561813354,6.013070562731933L12.665912561813354,5.654041762731934C12.665912561813354,5.542602062731934,12.654308561813355,5.502191262731934,12.632521561813354,5.461450562731933C12.610732561813354,5.4207095627319335,12.578758561813354,5.388736262731934,12.538017561813355,5.366947662731933C12.497277561813355,5.345159262731934,12.456866561813355,5.3335561627319334,12.345427561813354,5.3335561627319334ZM4.9583642618133545,7.500346662731934L5.679411661813354,7.500060062731934C5.790851361813354,7.500060062731934,5.831262361813354,7.511663462731933,5.872002861813354,7.533451562731933C5.912743361813354,7.555240162731933,5.9447171618133545,7.587213562731933,5.966505761813354,7.627954462731934C5.9882938618133545,7.668694962731934,5.999897261813355,7.709105962731933,5.999897261813355,7.820545662731933L5.999897261813355,8.179574462731933C5.999897261813355,8.291014162731933,5.9882938618133545,8.331425162731934,5.966505761813354,8.372165662731934C5.9447171618133545,8.412906662731935,5.912743361813354,8.444879962731934,5.872002861813354,8.466668562731932C5.831262361813354,8.488456762731934,5.790851361813354,8.500060062731933,5.679411661813354,8.500060062731933L4.987049361813354,8.500060062731933C4.875609661813354,8.500060062731933,4.8351986618133544,8.488456762731934,4.794458161813354,8.466668562731932C4.753717161813355,8.444879962731934,4.721743861813355,8.412906662731935,4.699955261813354,8.372165662731934C4.680147861813355,8.335128762731934,4.668757661813355,8.298364662731935,4.6668503618133546,8.208259562731934L4.666563761813355,7.820545662731933C4.666563761813355,7.709105962731933,4.678167061813355,7.668694962731934,4.699955261813354,7.627954462731934C4.721743861813355,7.587213562731933,4.753717161813355,7.555240162731933,4.794458161813354,7.533451562731933C4.831495061813355,7.513644262731933,4.868259161813355,7.502253962731934,4.9583642618133545,7.500346662731934ZM7.624379861813354,7.500346662731934L8.345427261813356,7.500060062731934C8.456866961813354,7.500060062731934,8.497277961813355,7.511663462731933,8.538017961813354,7.533451562731933C8.578758961813355,7.555240162731933,8.610732761813354,7.587213562731933,8.632521361813355,7.627954462731934C8.654309061813354,7.668694962731934,8.665912361813355,7.709105962731933,8.665912361813355,7.820545662731933L8.665912361813355,8.179574462731933C8.665912361813355,8.291014162731933,8.654309061813354,8.331425162731934,8.632521361813355,8.372165662731934C8.610732761813354,8.412906662731935,8.578758961813355,8.444879962731934,8.538017961813354,8.466668562731932C8.497277961813355,8.488456762731934,8.456866961813354,8.500060062731933,8.345427261813356,8.500060062731933L7.653064961813355,8.500060062731933C7.541625261813355,8.500060062731933,7.501214261813354,8.488456762731934,7.460473761813354,8.466668562731932C7.419732761813354,8.444879962731934,7.387759461813355,8.412906662731935,7.365970861813355,8.372165662731934C7.3461634618133544,8.335128762731934,7.334773261813354,8.298364662731935,7.332865961813354,8.208259562731934L7.332579361813354,7.820545662731933C7.332579361813354,7.709105962731933,7.344182761813355,7.668694962731934,7.365970861813355,7.627954462731934C7.387759461813355,7.587213562731933,7.419732761813354,7.555240162731933,7.460473761813354,7.533451562731933C7.4975106618133545,7.513644262731933,7.534274861813355,7.502253962731934,7.624379861813354,7.500346662731934ZM11.012419561813354,7.500060062731934L10.291372061813355,7.500346662731934C10.201266961813355,7.502253962731934,10.164502861813354,7.513644262731933,10.127465961813355,7.533451562731933C10.086724961813355,7.555240162731933,10.054751161813355,7.587213562731933,10.032963561813354,7.627954462731934C10.011174961813355,7.668694962731934,9.999571561813354,7.709105962731933,9.999571561813354,7.820545662731933L9.999858661813354,8.208259562731934C10.001765061813355,8.298364662731935,10.013155661813354,8.335128762731934,10.032963561813354,8.372165662731934C10.054751161813355,8.412906662731935,10.086724961813355,8.444879962731934,10.127465961813355,8.466668562731932C10.168206961813354,8.488456762731934,10.208616961813355,8.500060062731933,10.320057661813355,8.500060062731933L11.012419561813354,8.500060062731933C11.123859561813354,8.500060062731933,11.164270561813355,8.488456762731934,11.205010561813355,8.466668562731932C11.245751561813355,8.444879962731934,11.277724561813354,8.412906662731935,11.299513561813354,8.372165662731934C11.321301561813355,8.331425162731934,11.332904561813354,8.291014162731933,11.332904561813354,8.179574462731933L11.332904561813354,7.820545662731933C11.332904561813354,7.709105962731933,11.321301561813355,7.668694962731934,11.299513561813354,7.627954462731934C11.277724561813354,7.587213562731933,11.245751561813355,7.555240162731933,11.205010561813355,7.533451562731933C11.164270561813355,7.511663462731933,11.123859561813354,7.500060062731934,11.012419561813354,7.500060062731934ZM4.291372061813354,9.666850562731934L11.679086561813355,9.666563962731933C11.790526561813355,9.666563962731933,11.830937561813354,9.678167362731934,11.871678561813354,9.699955462731934C11.912418561813354,9.721744062731933,11.944391561813354,9.753717462731935,11.966180561813355,9.794458362731934C11.987969561813355,9.835198862731934,11.999571561813354,9.875609862731935,11.999571561813354,9.987049562731933L11.999571561813354,10.346078362731934C11.999571561813354,10.457518062731934,11.987969561813355,10.497929062731934,11.966180561813355,10.538669562731934C11.944391561813354,10.579410562731933,11.912418561813354,10.611384362731934,11.871678561813354,10.633172062731933C11.830937561813354,10.654960662731934,11.790526561813355,10.666563962731933,11.679086561813355,10.666563962731933L4.320057161813354,10.666563962731933C4.208617461813354,10.666563962731933,4.168206661813354,10.654960662731934,4.127465961813355,10.633172062731933C4.0867249618133545,10.611384362731934,4.054751661813354,10.579410562731933,4.032963061813355,10.538669562731934C4.013155461813355,10.501632662731934,4.0017654618133545,10.464868562731933,3.9998581618133544,10.374763462731934L3.9995715618133545,9.987049562731933C3.9995715618133545,9.875609862731935,4.011174661813355,9.835198862731934,4.032963061813355,9.794458362731934C4.054751661813354,9.753717462731935,4.0867249618133545,9.721744062731933,4.127465961813355,9.699955462731934C4.164502861813355,9.680148162731934,4.201267261813355,9.668757962731934,4.291372061813354,9.666850562731934Z" fill-rule="evenodd" fill="#3D7FFF" fill-opacity="1"/></g></svg>