<svg xmlns="http://www.w3.org/2000/svg" xmlns:xlink="http://www.w3.org/1999/xlink" fill="none" version="1.1" width="16" height="16" viewBox="0 0 16 16"><g><path d="M12.410543046875,1.08437859625L12.499979046875,0.66650390625L12.590898046875,1.0888294862499999C12.841051046875,2.25109360625,13.748989046875,3.15887690625,14.911179046875,3.40875050625L15.333293046875,3.49948600625L14.899038046875,3.59268090625C13.743602046875,3.84056350625,12.841012046875,4.74327130625,12.593122046875,5.89885900625L12.499979046875,6.33317090625L12.407537046875,5.90334890625C12.158556046875,4.74541850625,11.253975046875,3.84103200625,10.096078846875,3.59244680625L9.666625946875,3.50022770625L10.084367746875,3.41078070625C11.250227046875,3.16121940625,12.160976046875,2.2503518062500003,12.410543046875,1.08437859625ZM6.880798346875,3.60045220625L7.083323446875,2.66650390625L7.289209346875,3.61052730625C7.854078246875,6.20901150625,9.909641246875,8.23811100625,12.541943046875,8.79574680625L13.499960046875,8.99904630625L12.516474046875,9.20730780625C9.901068646875,9.76162530625,7.855805446875,11.78055790625,7.294297646875,14.36233090625L7.083323446875,15.33317090625L6.874014846875,14.37240590625C6.310749046875,11.78393690625,4.263759346875,9.76162530625,1.641663546875,9.20730780625L0.666625976565,9.00069050625L1.612740216875,8.80076880625C4.251857246875,8.24142840625,6.314172246875,6.20569370625,6.880798346875,3.60045220625Z" fill-rule="evenodd" fill="#FFFFFF" fill-opacity="1"/></g></svg>