<svg xmlns="http://www.w3.org/2000/svg" xmlns:xlink="http://www.w3.org/1999/xlink" fill="none" version="1.1" width="20" height="20" viewBox="0 0 20 20"><defs><clipPath id="master_svg0_4_56708"><rect x="0" y="0" width="20" height="20" rx="8"/></clipPath></defs><g clip-path="url(#master_svg0_4_56708)"><g><path d="M10,13C10.5522852,13,11,12.552285,11,12C11,11.4477148,10.5522852,11,10,11C9.4477148,11,9,11.4477148,9,12C9,12.552285,9.4477148,13,10,13ZM6,6C6,6,7,6,7,6C7,6,7,5,7,5C7,3.3431458000000003,8.343145400000001,2,10,2C11.6568546,2,13,3.3431458000000003,13,5C13,5,13,6,13,6C13,6,14,6,14,6C15.656854,6,17,7.3431458,17,9C17,9,17,15,17,15C17,16.656852999999998,15.656855,18,14,18C14,18,6,18,6,18C4.3431463,18,3,16.656855,3,15C3,15,3,9,3,9C3,7.3431463,4.3431458,6,6,6ZM10,3C8.895430600000001,3,8,3.8954306,8,5C8,5,8,6,8,6C8,6,12,6,12,6C12,6,12,5,12,5C12,3.8954306,11.1045694,3,10,3ZM16,9C16,7.8954306,15.104569,7,14,7C14,7,6,7,6,7C4.8954306,7,4,7.8954306,4,9C4,9,4,15,4,15C4,16.104568,4.8954306,17,6,17C6,17,14,17,14,17C15.104569,17,16,16.104568,16,15C16,15,16,9,16,9Z" fill="#FFFFFF" fill-opacity="1"/></g></g></svg>