<svg xmlns="http://www.w3.org/2000/svg" xmlns:xlink="http://www.w3.org/1999/xlink" fill="none" version="1.1" width="20" height="20" viewBox="0 0 20 20"><g><g><g><path d="M15.36419490625,7.3481846L15.37188190625,7.3603432L15.37188190625,7.3603432L15.42265290625,7.4517416999999995L15.42265290625,7.4517416999999995L15.45867590625,7.5205262L15.45867590625,7.5205262C15.83941590625,8.272383699999999,16.04226090625,9.1091986,16.04226090625,9.9748621C16.04226090625,10.840135100000001,15.83959890625,11.6765852,15.45919190625,12.4281807L15.41573690625,12.5099182L15.41573690625,12.5099182L15.37752390625,12.5780983L15.37752390625,12.5780983C15.26432990625,12.7784538,15.00998090625,12.8485041,14.80989790625,12.7348328L14.79838890625,12.7280159L14.79838890625,12.7280159L14.08833980625,12.2608242C13.90858360625,12.142065,13.84880920625,11.9059048,13.95081420625,11.7161393C13.96095080625,11.6972494,13.97007180625,11.679725600000001,13.97817710625,11.663568C14.23761790625,11.1463766,14.37559390625,10.5716877,14.37559390625,9.9748621C14.37559390625,9.3974409,14.24644290625,8.8407397,14.00309560625,8.3367815L13.98060320625,8.292206799999999L13.98060320625,8.292206799999999L13.95133880625,8.2376156L13.95133880625,8.2376156C13.84691620625,8.0475988,13.90611170625,7.8093657,14.08697990625,7.689795999999999L14.78719090625,7.2290246C14.97941390625,7.1025127999999995,15.23777390625,7.1559031,15.36419490625,7.3481846ZM11.15736010625,3.93917085L7.74607900625,6.7705481L5.91350650625,6.7707098000000006C5.44106460625,6.7707098000000006,5.1893648062499995,6.818739900000001,4.9270702562499995,6.9573564999999995C4.68187695625,7.0869353,4.48651683625,7.2799838,4.35538601625,7.5222754C4.22120837125,7.7701964,4.17090376095,8.008539200000001,4.16678309123,8.437362199999999L4.16650390625,11.5029812C4.16650390625,11.9698315,4.21510938525,12.2185526,4.35538601625,12.4777422C4.48651683625,12.7200346,4.68187695625,12.9130831,4.9270702562499995,13.0426617L4.96124154625,13.0602322C5.20028590625,13.1796761,5.43888310625,13.2251463,5.85311640625,13.2290325L7.74591560625,13.229147L11.15736010625,16.060847000000003C11.30454780625,16.183022,11.49061820625,16.25,11.68284320625,16.25C12.13405700625,16.25,12.49983690625,15.888549,12.49983690625,15.442675L12.49983690625,4.55734348C12.49983690625,4.36739272,12.43205740625,4.1835246999999995,12.30841920625,4.03807849C12.018202806249999,3.696671192,11.50285580625,3.652388744,11.15736010625,3.93917085Z" fill="#FFFFFF" fill-opacity="0.8600000143051147"/></g></g></g></svg>