<svg xmlns="http://www.w3.org/2000/svg" xmlns:xlink="http://www.w3.org/1999/xlink" fill="none" version="1.1" width="16" height="16" viewBox="0 0 16 16"><g><path d="M12.8581161875,2.66675802061L3.2092568875,2.66650390625C2.5918967875,2.66650390625,2.2755778875,2.72758789325,1.9463034875,2.90368577625C1.6418852775000001,3.06649041625,1.3999865075,3.30838918625,1.2371818975,3.61280739625C1.0676061475,3.92988650625,1.0046825075,4.23495180625,1.0002541274999999,4.80838820625L0.9999999975,9.790580706250001C0.9999999975,10.407940906250001,1.0610839675000001,10.72426030625,1.2371818975,11.05353350625C1.3999865075,11.35795210625,1.6418852775000001,11.59985160625,1.9463034875,11.76265530625C2.2755778875,11.93875310625,2.5918967875,11.99983790625,3.2092568875,11.99983790625L12.7907441875,11.99983790625C13.4081031875,11.99983790625,13.7244221875,11.93875310625,14.0536971875,11.76265530625C14.3581151875,11.59985160625,14.6000141875,11.35795210625,14.7628191875,11.05353350625C14.9389171875,10.72426030625,15.0000001875,10.407940906250001,15.0000001875,9.790580706250001L15.0000001875,4.87576080625C15.0000001875,4.25840070625,14.9389171875,3.94208180625,14.7628191875,3.61280739625C14.6000141875,3.30838918625,14.3581151875,3.06649041625,14.0536971875,2.90368577625C13.7366181875,2.73411004225,13.4315521875,2.67118641545,12.8581161875,2.66675802061ZM12.8430781875,3.6669922062499998L3.1566435875,3.6669922062499998L3.0144588875,3.66914710625L2.9313087875,3.67212140625L2.8564815875,3.67640880625C2.8210076875,3.67889270625,2.7883369875,3.6818957062499997,2.7579931875,3.68545820625L2.7002665875,3.69334030625L2.6478973875,3.7027852062499997C2.5729378875,3.71816010625,2.5131995875,3.73904930625,2.4558134875,3.7665353062499998L2.4177634875000003,3.78584840625C2.2876135875,3.8554531062499997,2.1884609875,3.95460580625,2.1188561875,4.08475570625C2.1154703875000003,4.09108630625,2.1121691875,4.09741070625,2.1089508875,4.10374650625L2.0906239875,4.14203920625C2.0674831874999997,4.19365490625,2.0494595875,4.24825880625,2.0357930875,4.31488950625L2.0263480874999997,4.36725880625L2.0184659875,4.42498540625C2.0137160874999998,4.46544380625,2.0099606875,4.5100387062500005,2.0071042875,4.55990000625L2.0034823875,4.63878270625L2.0011379875,4.726412306249999L1.9999999875,4.8236358062499995L2.0001477875,9.86969370625L2.0023036875,9.991045906250001L2.0055132875,10.07690760625L2.0101557875,10.153833406250001L2.0163118874999997,10.222782106250001C2.0290346875000003,10.34246160625,2.0497941875,10.426747806249999,2.0808239875,10.50220060625L2.0987811875,10.54263970625L2.1188561875,10.58228440625C2.1884609875,10.71243480625,2.2876135875,10.81158730625,2.4177634875000003,10.88119120625C2.4240940875000003,10.88457770625,2.4304184875,10.88787840625,2.4367543874999997,10.89109710625L2.4750469875,10.90942380625C2.5266626875,10.93256470625,2.5812666875000003,10.95058820625,2.6478973875,10.96425440625L2.7002665875,10.97369960625L2.7579931875,10.98158260625C2.7984516875,10.98633190625,2.8430466875,10.99008750625,2.8929078875,10.99294380625L2.9717905875,10.99656580625L3.0594200875,10.99890990625L3.1566435875,11.00004770625L12.7906051875,11.00018690625L12.8929431875,10.99962520625L12.9852641875,10.99789330625L13.0684151875,10.99491880625L13.1432411875,10.99063110625C13.1787151875,10.98814770625,13.2113861875,10.98514460625,13.2417291875,10.98158260625L13.2994551875,10.97369960625L13.3518251875,10.96425440625C13.4267841875,10.94888020625,13.4865221875,10.92799090625,13.5439091875,10.90050510625L13.5819591875,10.88119120625C13.7121081875,10.81158730625,13.8112621875,10.71243480625,13.8808661875,10.58228440625C13.8842521875,10.57595400625,13.8875531875,10.56962920625,13.8907721875,10.56329350625L13.9090981875,10.525001006250001C13.9322391875,10.47338490625,13.9502631875,10.41878130625,13.9639301875,10.35215090625L13.9733731875,10.29978130625L13.9812561875,10.24205490625C13.9860071875,10.20159630625,13.9897611875,10.157001006249999,13.9926171875,10.107140506250001L13.9962401875,10.028257406249999L13.9985851875,9.94062800625L13.9997231875,9.843404306250001L13.9998621875,4.87611010625L13.9993001875,4.77377180625L13.9975681875,4.68145110625L13.9945931875,4.5983009062499995L13.9903061875,4.5234739062500005C13.9878221875,4.48799980625,13.9848191875,4.45532920625,13.9812561875,4.42498540625L13.9733731875,4.36725880625L13.9639301875,4.31488950625C13.9485541875,4.23993000625,13.9276651875,4.18019170625,13.9001801875,4.12280570625L13.8808661875,4.08475570625C13.8112621875,3.95460580625,13.7121081875,3.8554531062499997,13.5819591875,3.78584840625C13.5756281875,3.78246260625,13.5693041875,3.77916130625,13.5629681875,3.77594300625L13.5246751875,3.75761620625C13.4730591875,3.73447540625,13.4184561875,3.7164518062500003,13.3518251875,3.7027852062499997L13.2994551875,3.69334030625L13.2417291875,3.68545820625C13.2012711875,3.6807083062499997,13.1566761875,3.67695280625,13.1068141875,3.6740965062499997L13.0279311875,3.6704745062499997L12.9403031875,3.66813020625L12.8430781875,3.6669922062499998ZM1.0524408775,12.66682490625L14.9154581875,12.66650390625C15.0531081875,12.66650390625,15.1088121875,12.68197490625,15.1631331875,12.71102590625C15.2174551875,12.74007690625,15.2600861875,12.78270790625,15.2891371875,12.83702990625C15.3181881875,12.89135090625,15.3336591875,12.94705390625,15.3336591875,13.08470390625L15.3336591875,13.24830390625C15.3336591875,13.38595390625,15.3181881875,13.44165690625,15.2891371875,13.49597790625C15.2600861875,13.55029890625,15.2174551875,13.59293090625,15.1631331875,13.62198190625C15.1088121875,13.65103290625,15.0531081875,13.66650390625,14.9154581875,13.66650390625L1.0851928575,13.66650390625C0.9475426675,13.66650390625,0.8918388975,13.65103290625,0.8375178974999999,13.62198190625C0.7831969175,13.59293090625,0.7405654935,13.55029890625,0.7115143054999999,13.49597790625C0.6848840545,13.44618390625,0.6696649841,13.39522790625,0.6673134045,13.28105590625L0.6669921875,13.08470390625C0.6669921875,12.94705390625,0.6824631235,12.89135090625,0.7115143054999999,12.83702990625C0.7405654935,12.78270790625,0.7831969175,12.74007690625,0.8375178974999999,12.71102590625C0.8873121475,12.68439590625,0.9382683075,12.66917690625,1.0524408775,12.66682490625Z" fill-rule="evenodd" fill="#FFFFFF" fill-opacity="0.8600000143051147"/></g></svg>