<svg xmlns="http://www.w3.org/2000/svg" xmlns:xlink="http://www.w3.org/1999/xlink" fill="none" version="1.1" width="24" height="24" viewBox="0 0 24 24"><rect x="0" y="0" width="24" height="24" rx="4" fill="#000000" fill-opacity="0"/><g><path d="M15.46345443718567,7.001978479285669L15.350891337185669,7.000220537185669L8.649108537185668,7.000220537185669L8.53654543718567,7.001978479285669L8.433669237185669,7.005480099485669C8.417288737185668,7.006208182785669,8.401280837185668,7.007008298785669,8.385629737185669,7.007880137785669L8.295879737185668,7.013969367185669C8.05301253718567,7.033646706185669,7.904245077185669,7.073872760185669,7.772911847185669,7.133124067185669L7.727158007185669,7.154823777185669L7.682102977185669,7.178088557185669C7.464819017185669,7.294293287185669,7.294293287185669,7.464819017185669,7.178088557185669,7.682102977185669L7.154823777185669,7.727158007185669L7.133124067185669,7.772911847185669C7.070387393185669,7.911970557185669,7.028980063185669,8.070574837185669,7.010710514185669,8.33973113718567L7.005480099485669,8.433669237185669L7.001978479285669,8.53654543718567L7.000220537185669,8.649108537185668L7.000220537185669,15.350891337185669L7.001978479285669,15.46345443718567L7.005480099485669,15.566331137185669C7.006208182785669,15.582711437185669,7.007008298785669,15.598718837185668,7.007880137785669,15.61437053718567L7.013969367185669,15.70412083718567C7.033646706185669,15.946987437185669,7.073872760185669,16.09575483718567,7.133124067185669,16.22708823718567L7.154823777185669,16.27284263718567L7.178088557185669,16.317897037185666C7.294293287185669,16.535181237185668,7.464819017185669,16.70570683718567,7.682102977185669,16.82191203718567L7.727158007185669,16.84517593718567L7.772911847185669,16.866875837185667C7.911970557185669,16.929612437185668,8.070574837185669,16.97101993718567,8.33973113718567,16.98928953718567L8.433669237185669,16.99452043718567L8.53654543718567,16.99802133718567C8.554477837185669,16.99846003718567,8.572813837185668,16.998826237185668,8.59156933718567,16.99912003718567L8.70925693718567,17.000000237185667L15.290743137185668,17.000000237185667C15.311237537185669,17.000000237185667,15.331281937185668,16.99992683718567,15.350891337185669,16.99977993718567L15.46345443718567,16.99802133718567L15.566331137185669,16.99452043718567C15.582711437185669,16.993791837185668,15.598718837185668,16.992991637185668,15.61437053718567,16.99212003718567L15.70412083718567,16.98603083718567C15.946987437185669,16.96635363718567,16.09575483718567,16.92612763718567,16.22708823718567,16.866875837185667L16.27284263718567,16.84517593718567L16.317897037185666,16.82191203718567C16.535181237185668,16.70570683718567,16.70570683718567,16.535181237185668,16.82191203718567,16.317897037185666L16.84517593718567,16.27284263718567L16.866875837185667,16.22708823718567C16.929612437185668,16.08803013718567,16.97101993718567,15.92942543718567,16.98928953718567,15.66026903718567L16.99452043718567,15.566331137185669L16.99802133718567,15.46345443718567C16.99846003718567,15.445522537185669,16.998826237185668,15.42718623718567,16.99912003718567,15.40843133718567L17.000000237185667,15.290743137185668L17.000000237185667,8.70925693718567C17.000000237185667,8.688762237185669,16.99992683718567,8.668717937185669,16.99977993718567,8.649108537185668L16.99802133718567,8.53654543718567L16.99452043718567,8.433669237185669C16.993791837185668,8.417288737185668,16.992991637185668,8.401280837185668,16.99212003718567,8.385629737185669L16.98603083718567,8.295879737185668C16.96635363718567,8.05301253718567,16.92612763718567,7.904245077185669,16.866875837185667,7.772911847185669L16.84517593718567,7.727158007185669L16.82191203718567,7.682102977185669C16.70570683718567,7.464819017185669,16.535181237185668,7.294293287185669,16.317897037185666,7.178088557185669L16.27284263718567,7.154823777185669L16.22708823718567,7.133124067185669C16.08803013718567,7.070387393185669,15.92942543718567,7.028980063185669,15.66026903718567,7.010710514185669L15.566331137185669,7.005480099485669L15.46345443718567,7.001978479285669ZM8.510563337185669,8.00191283718567L8.62294533718567,8.000232837185669L15.375838537185668,8.000220537185669C15.38911743718567,8.000317437185668,15.401975837185669,8.000439237185669,15.41442993718567,8.00058673718567L15.54562873718567,8.00362963718567L15.598797037185669,8.006156337185669L15.644802337185668,8.009397437185669L15.684485637185668,8.01338613718567L15.718691137185669,8.018155837185668L15.748259737185668,8.023739737185668C15.752847937185669,8.024739937185668,15.75727773718567,8.025775637185669,15.761567337185669,8.02684733718567L15.785760137185669,8.03371493718567L15.807420937185668,8.04147973718567L15.82739373718567,8.050175037185669L15.846518737185669,8.059834237185669C15.88953423718567,8.082839137185669,15.917313837185668,8.110618837185669,15.94031833718567,8.153634337185668L15.949978137185669,8.172759937185669L15.958672737185669,8.19273193718567L15.966438537185669,8.214393037185669C15.96765633718567,8.21819063718567,15.968837937185668,8.222093937185669,15.96998143718567,8.226120137185669L15.976413037185669,8.251893737185668L15.981997737185669,8.281461837185669L15.986767037185668,8.315666837185669L15.99075623718567,8.355350737185669L15.99399683718567,8.401356137185669L15.996524137185668,8.454525037185668L15.99836853718567,8.51569963718567L15.99993253718567,8.62431523718567L16.00022053718567,15.29067543718567L15.99956633718567,15.414142837185668L15.996524137185668,15.545340737185668L15.99399683718567,15.59850903718567L15.99075623718567,15.644514337185669L15.986767037185668,15.684198637185668L15.981997737185669,15.71840403718567L15.976413037185669,15.747971737185669C15.97541353718567,15.75255993718567,15.974377837185669,15.75698973718567,15.97330593718567,15.76127933718567L15.966438537185669,15.78547213718567L15.958672737185669,15.807132937185669L15.949978137185669,15.827105737185668L15.94031833718567,15.84623073718567C15.917313837185668,15.889246237185668,15.88953423718567,15.917025837185669,15.846518737185669,15.94003033718567L15.82739373718567,15.94969013718567L15.807420937185668,15.958385737185669L15.785760137185669,15.96615053718567C15.78196263718567,15.967368337185668,15.77805923718567,15.968549937185669,15.774032837185668,15.969694337185668L15.748259737185668,15.97612503718567L15.718691137185669,15.98170973718567L15.684485637185668,15.986479037185669L15.644802337185668,15.990468237185668L15.598797037185669,15.993708837185668L15.54562873718567,15.99623603718567L15.48445343718567,15.998080537185668L15.375838537185668,15.999644537185668L8.709477437185669,15.99993253718567L8.586010437185669,15.999278337185668L8.454812837185669,15.99623603718567L8.401644037185669,15.993708837185668L8.355638737185668,15.990468237185668L8.31595463718567,15.986479037185669L8.281749737185669,15.98170973718567L8.252181637185668,15.97612503718567C8.24759313718567,15.975125537185669,8.243162837185668,15.97408983718567,8.238873137185669,15.973017937185668L8.214680937185669,15.96615053718567L8.19301993718567,15.958385737185669L8.17304773718567,15.94969013718567L8.15392233718567,15.94003033718567C8.110906837185668,15.917025837185669,8.083127137185668,15.889246237185668,8.060122237185668,15.84623073718567C8.058359637185669,15.84293483718567,8.05664213718567,15.839638937185669,8.05496903718567,15.83632393718567L8.045455337185668,15.81602973718567L8.03696713718567,15.794302237185669L8.029466937185669,15.770190437185668C8.02829713718567,15.76591993718567,8.027166937185669,15.761510137185669,8.026075637185668,15.756942037185668L8.019986737185668,15.727468737185669C8.019047537185669,15.722186337185668,8.018145537185669,15.71670463718567,8.01727993718567,15.711005437185669L8.01251803718567,15.674026737185669C8.01179523718567,15.667374837185669,8.011107337185669,15.660463537185668,8.010453437185669,15.65327573718567L8.00693393718567,15.60665153718567L8.004195437185668,15.552407537185669L8.00220073718567,15.489589937185668L8.000520737185669,15.37720803718567L8.000220537185669,8.70918943718567L8.00087463718567,8.58572243718567L8.00391753718567,8.454525037185668L8.006444237185669,8.401356137185669L8.00968523718567,8.355350737185669L8.01367403718567,8.315666837185669L8.018443737185668,8.281461837185669L8.024027537185669,8.251893737185668C8.025028037185669,8.24730523718567,8.026063537185669,8.242874937185668,8.02713523718567,8.238585237185669L8.03400273718567,8.214393037185669L8.04176763718567,8.19273193718567L8.050462937185669,8.172759937185669L8.060122237185668,8.153634337185668C8.083127137185668,8.110618837185669,8.110906837185668,8.082839137185669,8.15392233718567,8.059834237185669C8.157217937185669,8.058071737185669,8.160513737185669,8.05635423718567,8.16382963718567,8.054681037185668L8.184124037185668,8.045167437185668L8.205851037185669,8.03667923718567L8.229962837185669,8.02917893718567C8.23423303718567,8.02800913718567,8.238642337185668,8.026879037185669,8.243210437185668,8.025787637185669L8.272684237185668,8.019698837185668C8.277967237185669,8.018759637185669,8.283448537185668,8.01785753718567,8.289148337185669,8.016991937185669L8.326126237185669,8.012230037185669C8.33277883718567,8.011507237185668,8.339689537185668,8.01081933718567,8.346877937185669,8.010165537185669L8.39350173718567,8.006645937185668L8.447746237185669,8.003907537185668L8.510563337185669,8.00191283718567Z" fill-rule="evenodd" fill="#000000" fill-opacity="0.6000000238418579"/></g></svg>