<svg xmlns="http://www.w3.org/2000/svg" xmlns:xlink="http://www.w3.org/1999/xlink" fill="none" version="1.1" width="16" height="16" viewBox="0 0 16 16"><g><path d="M13.3329451875,5.91164110625C13.2858471875,3.00680110625,10.9163894875,0.66650390625,8.0003256875,0.66650390625C5.0548069875,0.66650390625,2.6669921875,3.05431870625,2.6669921875,5.99983740625L2.6669921875,9.99983790625L2.66770670185,10.08803370625C2.7148042545,12.99287290625,5.0842620875,15.33317090625,8.0003256875,15.33317090625C10.9458446875,15.33317090625,13.3336591875,12.94535590625,13.3336591875,9.99983790625L13.3336591875,5.99983740625L13.3329451875,5.91164110625ZM3.7177733875000003,5.33350900625C4.0133972875,3.41882420625,5.5623960875,1.91791250625,7.5002312875,1.69531250625L7.5001496875,5.33345410625L3.7177733875000003,5.33350900625ZM8.4999999875,5.33343510625L8.5000857875,1.69531250625L8.565254687500001,1.70330110625C10.472491787500001,1.95175950625,11.9900827875,3.44037250625,12.2823762875,5.33348940625L8.4999999875,5.33343510625ZM12.3336591875,10.00016310625L12.3336591875,6.33349610625L3.6669921875,6.33349610625L3.6669921875,10.00016310625C3.6669921875,12.36946490625,5.5684837875,14.29464890625,7.9286660875,14.33291590625L8.0003256875,14.33349590625C10.3696269875,14.33349590625,12.2948112875,12.43200490625,12.3330783875,10.07182310625L12.3336591875,10.00016310625Z" fill-rule="evenodd" fill="#3D7FFF" fill-opacity="1"/></g></svg>