<svg xmlns="http://www.w3.org/2000/svg" xmlns:xlink="http://www.w3.org/1999/xlink" fill="none" version="1.1" width="20" height="20" viewBox="0 0 20 20"><path d="M10.0016679875,2.6666259765625C11.4796790875,2.6666259765625,12.8936441875,3.1055167365625,14.0929401875,3.9131446765625L14.2471641875,4.0199663765625L14.3540631875,4.0971139765625L14.4280921875,4.1520654765625L14.5027221875,4.2093857765625L14.6050871875,4.2910526765625L14.6560511875,4.3328039765625C14.7309601875,4.3946960765625,14.7415111875,4.5055949765625005,14.6796191875,4.5805031765625C14.6657561875,4.5972811765625,14.6489011875,4.6113414765625,14.6299081875,4.6219701765625L13.9842991875,4.9850048765625L13.7863121875,5.0957598765625C13.6750371875,5.1575636765625,13.5382821875,5.1506025765625,13.4338591875,5.0778200765624995L13.3948101875,5.0510730765625L13.2195921875,4.9362611765625L13.1312941875,4.8799578765625L13.0850011875,4.8518027765625L12.9586941875,4.7786571765625006L12.8873581875,4.7384514765625L12.8238541875,4.7036213765625L12.7386761875,4.6586971765625L12.6592616875,4.6187761765625L12.6060075875,4.5928405765625C11.8040923875,4.2057609765625,10.9187621875,3.9999593765625,10.0016679875,3.9999593765625C7.0350074875,3.9999593765625,4.5712253875,6.1530396765625,4.0876968875,8.9818262765625C4.0488609874999995,9.2090272765625,4.0195731875,9.440577976562501,4.0055001875,9.6757402765625C3.9955552875,9.8419208765625,3.9962434875,10.0476493765625,4.0075648875,10.2929258765625L4.0113151875,10.3676929765625C4.0177287875,10.4932155765625,3.9529926875,10.6116742765625,3.8438860875,10.6740665765625L3.6211420875,10.7998256765625L3.4823111875,10.8769836765625L3.3511697675,10.9487228765625L3.2724870475,10.9880885765625L3.1923366775,11.0297727765625C3.0296129875,11.1158656765625,2.8279075075,11.0537433765625,2.7418148815,10.8910197765625C2.7220472465,10.8536567765625,2.7095663625,10.8128757765625,2.7050375525,10.7708492765625C2.6749163279,10.4927043765625,2.6626746844999998,10.235742076562499,2.6683342499,9.9999594765625C2.6683342499,5.9498715765625,5.9515795874999995,2.6666259765625,10.0016679875,2.6666259765625ZM17.0000001875,6.7499999765625C17.0000001875,7.4403557765625,16.4403561875,7.9999999765625,15.7500001875,7.9999999765625C15.0596441875,7.9999999765625,14.5000001875,7.4403557765625,14.5000001875,6.7499999765625C14.5000001875,6.0596439765625,15.0596441875,5.4999999765625,15.7500001875,5.4999999765625C16.4403561875,5.4999999765625,17.0000001875,6.0596439765625,17.0000001875,6.7499999765625ZM8.8541035875,6.4226481765625L8.8541035875,13.7954869765625C8.8541035875,13.8883529765625,8.8444342875,13.9220299765625,8.8262776875,13.9559799765625C8.8081206875,13.9899309765625,8.7814759875,14.0165749765625,8.747525187499999,14.0347329765625C8.7135743875,14.0528899765625,8.6798991875,14.0625589765625,8.5870322875,14.0625589765625L8.079508287500001,14.0625589765625C7.9866418875,14.0625589765625,7.9529661875,14.0528899765625,7.9190153875,14.0347329765625C7.8850650875,14.0165749765625,7.8584203875,13.9899309765625,7.8402633875,13.9559799765625C7.8221063875,13.9220299765625,7.8124370875,13.8883529765625,7.8124370875,13.7954869765625L7.8124217875,8.541710876562501L6.7350258875,8.5417256765625C6.504907387499999,8.5417256765625,6.3183593875,8.3551778765625,6.3183593875,8.1250591765625C6.3183593875,8.014552076562499,6.3622579875,7.9085712765625,6.4403981875,7.8304314765625L8.1428093875,6.1280202765625C8.3055276875,5.9653017765625,8.569346387500001,5.9653017765625,8.7320651875,6.1280202765625C8.8102049875,6.2061605765625,8.8541035875,6.3121411765625,8.8541035875,6.4226481765625ZM11.1455077875,6.3086971765625C11.1455077875,6.2158307765625,11.1551770875,6.1821551765625,11.1733340875,6.148204576562501C11.1914910875,6.1142539765625,11.2181357875,6.0876092765625,11.2520866875,6.0694522765625C11.2834252875,6.0526919765625,11.3145303875,6.0431637765624995,11.3921718875,6.0417971765625005L11.9201030875,6.0416259765625C12.0129699875,6.0416259765625,12.0466451875,6.0512952765625005,12.0805959875,6.0694522765625C12.1145457875,6.0876092765625,12.1411914875,6.1142539765625,12.1593474875,6.148204576562501C12.1761083875,6.1795434765625,12.1856364875,6.2106482765625,12.1870030875,6.2882902765625L12.1871595875,11.5624446765625L13.2645851875,11.5624589765625C13.4947041875,11.5624589765625,13.6812511875,11.7490071765625,13.6812511875,11.9791259765625C13.6812511875,12.0896329765625,13.6373541875,12.1956138765625,13.5592131875,12.2737540765625L11.8568019875,13.9761639765625C11.6940841875,14.1388839765625,11.4302653875,14.1388839765625,11.2675466875,13.9761639765625C11.1894063875,13.8980239765625,11.1455077875,13.7920439765625,11.1455077875,13.6815379765625L11.1455077875,6.3086971765625ZM17.2905791875,9.2234549765625C17.2857121875,9.196808376562501,17.276476187500002,9.1710839765625,17.263183187499997,9.147340776562501C17.1966971875,9.0285792765625,17.0465261875,8.986201776562499,16.9277651875,9.052690076562499L16.164702187499998,9.4798731765625C16.0593411875,9.538366276562499,15.9940051875,9.6493200765625,15.9936861875,9.7698287765625L15.9936481875,9.9998912765625C15.9936481875,13.3136009765625,13.3144131875,15.9983529765625,10.0007042875,15.9983529765625C9.243913687500001,15.9983529765625,8.502097087500001,15.8545529765625,7.8251652875,15.5925879765625C7.4729365875,15.4562799765625,7.1454057875,15.2909549765625,6.8122443875,15.0824869765625L6.7603730875,15.0493849765625L6.6690568875,14.9888599765625C6.5646276875,14.9186079765625,6.4295367875,14.9130779765625,6.3198179875000005,14.9747429765625L5.8312241875,15.2487679765625L5.6734420875,15.3367969765625C5.6317851875,15.3595919765625,5.595698087500001,15.3912739765625,5.567438087499999,15.4294359765625C5.4578773875,15.5773789765625,5.4889931875,15.7861279765625,5.6368360875,15.8958239765625C5.6804427875000005,15.9280409765625,5.7223949874999995,15.9580129765625,5.7626924875,15.9857369765625L5.8448662875,16.0433599765625C7.0553307875,16.8798009765625,8.495464287499999,17.333363976562502,10.0002622875,17.333363976562502C14.0503501875,17.333363976562502,17.3323131875,14.0501179765625,17.3323131875,10.0000295765625L17.326548187500002,9.7809943765625L17.3216611875,9.6490502765625L17.3156411875,9.5264754765625L17.308237187499998,9.4116453765625L17.299192187499997,9.3029360765625L17.2939751875,9.2503690765625L17.2905791875,9.2234549765625ZM5.4999999875,13.2499999765625C5.4999999875,13.9403559765625,4.9403559875,14.4999999765625,4.2499999875,14.4999999765625C3.5596440475,14.4999999765625,2.9999999975,13.9403559765625,2.9999999975,13.2499999765625C2.9999999975,12.5596437765625,3.5596440475,11.9999999765625,4.2499999875,11.9999999765625C4.9403559875,11.9999999765625,5.4999999875,12.5596437765625,5.4999999875,13.2499999765625Z" fill-rule="evenodd" fill="#FFFFFF" fill-opacity="0.8999999761581421"/></svg>