<svg xmlns="http://www.w3.org/2000/svg" xmlns:xlink="http://www.w3.org/1999/xlink" fill="none" version="1.1" width="16" height="16" viewBox="0 0 16 16"><path d="M8.0016679875,0.6666259765625C9.4796790875,0.6666259765625,10.8936441875,1.1055167365625,12.0929401875,1.9131446765625L12.2471641875,2.0199663765625L12.3540631875,2.0971139765625L12.4280921875,2.1520654765625L12.5027221875,2.2093857765625L12.6050871875,2.2910526765625L12.6560511875,2.3328039765625C12.7309601875,2.3946960765625,12.7415111875,2.5055949765625,12.6796191875,2.5805031765625C12.6657561875,2.5972811765625,12.6489011875,2.6113414765625,12.6299081875,2.6219701765625L11.9842991875,2.9850048765625L11.7863121875,3.0957598765625C11.6750371875,3.1575636765625,11.5382821875,3.1506025765625,11.4338591875,3.0778200765625L11.3948101875,3.0510730765625L11.2195921875,2.9362611765625L11.1312941875,2.8799578765625L11.0850011875,2.8518027765625L10.9586941875,2.7786571765625L10.8873581875,2.7384514765625L10.8238541875,2.7036213765625L10.7386761875,2.6586971765625L10.6592616875,2.6187761765625L10.6060075875,2.5928405765624998C9.8040923875,2.2057609765625,8.9187621875,1.9999593765625,8.0016679875,1.9999593765625C5.0350074875,1.9999593765625,2.5712253875,4.1530396765625,2.0876968875,6.9818262765625C2.0488609875,7.2090272765625,2.0195731875,7.4405779765625,2.0055001875,7.6757402765625C1.9955552875,7.8419208765625,1.9962434875,8.0476493765625,2.0075648875,8.2929258765625L2.0113151875,8.3676929765625C2.0177287875000003,8.4932155765625,1.9529926875,8.6116742765625,1.8438860875,8.6740665765625L1.6211420875,8.7998256765625L1.4823111875000001,8.8769836765625L1.3511697675,8.9487228765625L1.2724870474999999,8.9880885765625L1.1923366775000002,9.0297727765625C1.0296129875,9.1158656765625,0.8279075075,9.0537433765625,0.7418148815,8.8910197765625C0.7220472465,8.8536567765625,0.7095663625,8.8128757765625,0.7050375525,8.7708492765625C0.6749163279,8.4927043765625,0.6626746845,8.235742076562499,0.6683342499,7.9999594765625C0.6683342499,3.9498715765625,3.9515795875,0.6666259765625,8.0016679875,0.6666259765625ZM15.0000001875,4.7499999765625C15.0000001875,5.4403557765625,14.4403561875,5.9999999765625,13.7500001875,5.9999999765625C13.0596441875,5.9999999765625,12.5000001875,5.4403557765625,12.5000001875,4.7499999765625C12.5000001875,4.0596439765625,13.0596441875,3.4999999765625,13.7500001875,3.4999999765625C14.4403561875,3.4999999765625,15.0000001875,4.0596439765625,15.0000001875,4.7499999765625ZM6.8541035875,4.4226481765625L6.8541035875,11.7954869765625C6.8541035875,11.8883529765625,6.8444342875,11.9220299765625,6.8262776875,11.9559799765625C6.8081206875,11.9899309765625,6.7814759875,12.0165749765625,6.7475251875,12.0347329765625C6.7135743875,12.0528899765625,6.6798991875,12.0625589765625,6.5870322875,12.0625589765625L6.0795082875,12.0625589765625C5.9866418875,12.0625589765625,5.9529661875,12.0528899765625,5.9190153875,12.0347329765625C5.8850650875,12.0165749765625,5.8584203875,11.9899309765625,5.8402633875,11.9559799765625C5.8221063875,11.9220299765625,5.8124370875,11.8883529765625,5.8124370875,11.7954869765625L5.8124217875,6.5417108765625L4.7350258875,6.5417256765625C4.504907387499999,6.5417256765625,4.3183593875,6.3551778765625,4.3183593875,6.1250591765625C4.3183593875,6.0145520765625,4.3622579875,5.9085712765625,4.4403981875,5.8304314765625L6.1428093875,4.1280202765625C6.3055276875,3.9653017765625,6.5693463875,3.9653017765625,6.7320651875,4.1280202765625C6.8102049875,4.2061605765625,6.8541035875,4.3121411765625,6.8541035875,4.4226481765625ZM9.1455077875,4.3086971765625C9.1455077875,4.2158307765625,9.1551770875,4.1821551765625,9.1733340875,4.148204576562501C9.1914910875,4.1142539765625,9.2181357875,4.0876092765625,9.2520866875,4.0694522765625C9.2834252875,4.0526919765625,9.3145303875,4.0431637765624995,9.3921718875,4.0417971765625005L9.9201030875,4.0416259765625C10.0129699875,4.0416259765625,10.0466451875,4.0512952765625005,10.0805959875,4.0694522765625C10.1145457875,4.0876092765625,10.1411914875,4.1142539765625,10.1593474875,4.148204576562501C10.1761083875,4.1795434765625,10.1856364875,4.2106482765625,10.1870030875,4.2882902765625L10.1871595875,9.5624446765625L11.2645851875,9.5624589765625C11.4947041875,9.5624589765625,11.6812511875,9.7490071765625,11.6812511875,9.9791259765625C11.6812511875,10.0896329765625,11.6373541875,10.1956138765625,11.5592131875,10.2737540765625L9.8568019875,11.9761639765625C9.6940841875,12.1388839765625,9.4302653875,12.1388839765625,9.2675466875,11.9761639765625C9.1894063875,11.8980239765625,9.1455077875,11.7920439765625,9.1455077875,11.6815379765625L9.1455077875,4.3086971765625ZM15.2905791875,7.2234549765625C15.2857121875,7.1968083765625,15.2764761875,7.1710839765625,15.2631831875,7.1473407765625C15.1966971875,7.0285792765625,15.0465261875,6.9862017765625,14.9277651875,7.0526900765625L14.1647021875,7.4798731765625C14.0593411875,7.5383662765625,13.9940051875,7.6493200765625,13.9936861875,7.7698287765625L13.9936481875,7.9998912765625C13.9936481875,11.3136009765625,11.3144131875,13.9983529765625,8.0007042875,13.9983529765625C7.2439136875,13.9983529765625,6.5020970875,13.8545529765625,5.8251652875,13.5925879765625C5.4729365875,13.4562799765625,5.1454057875,13.2909549765625,4.8122443875,13.0824869765625L4.7603730875,13.0493849765625L4.6690568875,12.9888599765625C4.5646276875,12.9186079765625,4.4295367875,12.9130779765625,4.3198179875000005,12.9747429765625L3.8312241875,13.2487679765625L3.6734420875,13.3367969765625C3.6317851875,13.3595919765625,3.5956980875,13.3912739765625,3.5674380875,13.4294359765625C3.4578773875,13.5773789765625,3.4889931875,13.7861279765625,3.6368360875,13.8958239765625C3.6804427875,13.9280409765625,3.7223949875,13.9580129765625,3.7626924875,13.9857369765625L3.8448662875,14.0433599765625C5.0553307875,14.8798009765625,6.4954642875,15.3333639765625,8.0002622875,15.3333639765625C12.0503501875,15.3333639765625,15.3323131875,12.0501179765625,15.3323131875,8.0000295765625L15.3265481875,7.7809943765625L15.3216611875,7.6490502765625L15.3156411875,7.5264754765625L15.3082371875,7.4116453765625L15.2991921875,7.3029360765625L15.2939751875,7.2503690765625L15.2905791875,7.2234549765625ZM3.4999999875,11.2499999765625C3.4999999875,11.9403559765625,2.9403559875,12.4999999765625,2.2499999875,12.4999999765625C1.5596440475,12.4999999765625,0.9999999975,11.9403559765625,0.9999999975,11.2499999765625C0.9999999975,10.5596437765625,1.5596440475,9.9999999765625,2.2499999875,9.9999999765625C2.9403559875,9.9999999765625,3.4999999875,10.5596437765625,3.4999999875,11.2499999765625Z" fill-rule="evenodd" fill="#FFFFFF" fill-opacity="0.8999999761581421"/></svg>