<svg xmlns="http://www.w3.org/2000/svg" xmlns:xlink="http://www.w3.org/1999/xlink" fill="none" version="1.1" width="16" height="16" viewBox="0 0 16 16"><g><g><g><path d="M8.8333335,1.583414736875C8.8333335,1.077153686875,8.422927900000001,0.666748046875,7.916667,0.666748046875C7.4104056,0.666748046875,7,1.077153686875,7,1.583414736875L6.9999962,1.780714946875C5.048233,2.233627646875,3.59375,3.983456646875,3.59375,6.072998046875L3.59375,9.327540446875L3.5928586,9.390688846875C3.5762377,9.979080246875,3.3278667,10.538177446875,2.90034735,10.945257046875L2.32304299,11.494961046875L2.28949559,11.528392046875C2.10414405,11.721690046875,2,11.979605046875,2,12.248625046875L2,12.833415046875L2.00091428938,12.858292046875C2.013639146,13.030768046875,2.15760636,13.166748046875,2.33333334,13.166748046875L13.666667,13.166748046875L13.691544,13.165834046875C13.86402,13.153110046875,14,13.009142046875,14,12.833415046875L14,12.248625046875L13.998923,12.201277046875C13.986751,11.933749046875,13.871783,11.680473046875,13.676958,11.494961046875L13.099653,10.945257046875L13.054535,10.901066046875C12.639879,10.483283946875,12.40625,9.917867646875,12.40625,9.327540446875L12.40625,6.072998046875L12.405762,6.006663846875C12.37449,3.887690046875,10.8474617,2.131031746875,8.8334484,1.745462046875L8.8333335,1.583414736875ZM9.333170899999999,14.166748046875L6.6665039,14.166748046875C6.6665039,14.903022046875,7.2634344,15.500081046875,7.999754,15.500081046875C8.736239900000001,15.500081046875,9.333170899999999,14.903022046875,9.333170899999999,14.166748046875Z" fill-rule="evenodd" fill="currentColor"/></g></g></g></svg>