<svg xmlns="http://www.w3.org/2000/svg" xmlns:xlink="http://www.w3.org/1999/xlink" fill="none" version="1.1" width="16" height="16" viewBox="0 0 16 16"><g><path d="M5.166634998394775,3.00016276375C5.166634998394775,2.90811530475,5.092015698394776,2.83349609375,4.999968498394775,2.83349609375L3.3333014983947753,2.83349609375C3.241254298394775,2.83349609375,3.1666349983947755,2.90811530475,3.1666349983947755,3.00016276375L2.975185898394775,3.00041687375C2.4017494983947754,3.00484526375,2.0966840983947757,3.06776890375,1.7796050283947755,3.23734462375C1.4751868283947753,3.4001492837500003,1.2332881083947753,3.64204806375,1.0704834483947754,3.94646619375C0.9009077173947754,4.26354529375,0.8379840934947754,4.56861069375,0.8335556983947754,5.14204689375L0.8335556983947754,10.85827919375C0.8379840934947754,11.43171499375,0.9009077173947754,11.73678019375,1.0704834483947754,12.05385969375C1.2332881083947753,12.35827829375,1.4751868283947753,12.60017679375,1.7796050283947755,12.76298139375C2.1088793983947753,12.93907909375,2.4251982983947755,13.00016309375,3.0425583983947755,13.00016309375L12.957378698394775,13.00016309375L13.024750698394776,12.99990809375C13.598187698394776,12.99548009375,13.903252698394775,12.93255709375,14.220331698394775,12.76298139375C14.524750698394776,12.60017679375,14.766648698394775,12.35827829375,14.929453698394775,12.05385969375C15.105551698394775,11.72458549375,15.166634698394775,11.40826609375,15.166634698394775,10.79090639375L15.166634698394775,5.20941969375L15.166380698394775,5.14204689375C15.161953698394775,4.56861069375,15.099029698394775,4.26354529375,14.929453698394775,3.94646619375C14.766648698394775,3.64204806375,14.524750698394776,3.4001492837500003,14.220331698394775,3.23734462375C13.903252698394775,3.06776890375,13.598187698394776,3.00484526375,13.024750698394776,3.00041687375L5.166634998394775,3.00016276375ZM2.9629327983947755,4.00018419375L13.008991698394775,3.99999999375L13.106214698394776,4.00113799375L13.193844698394775,4.00348229375L13.272726698394775,4.00710429375L13.336186698394775,4.01145399375L13.407640698394776,4.0184659937500005L13.465367698394775,4.02634809375L13.517736698394776,4.03579309375L13.556345698394775,4.04452189375C13.606090698394775,4.05687369375,13.649296698394775,4.07211139375,13.690587698394776,4.09062399375L13.728880698394775,4.10895089375L13.747871698394775,4.11885619375C13.878021698394775,4.18846099375,13.977174698394775,4.28761359375,14.046778698394775,4.41776349375L14.066091698394775,4.45581349375L14.081799698394775,4.49063039375C14.101712698394776,4.5377037937499995,14.117542698394775,4.5879296937500005,14.129842698394775,4.64789739375L14.139286698394775,4.70026659375L14.147168698394776,4.75799319375L14.150545698394776,4.78913019375C14.152675698394775,4.81042889375,14.154562698394775,4.83283229375,14.156217698394775,4.85648159375L14.160505698394775,4.93130879375L14.163480698394775,5.01445889375L14.165211698394776,5.10677959375L14.165773698394775,5.209117893749999L14.165635698394775,10.84307859375L14.164497698394776,10.94030289375L14.162152698394776,11.02793219375L14.158529698394775,11.10681529375L14.154180698394775,11.17027469375L14.147168698394776,11.24172969375L14.139286698394775,11.29945559375L14.129842698394775,11.35182569375L14.121113698394776,11.39043239375C14.108761698394776,11.44017789375,14.093523698394776,11.48338319375,14.075010698394776,11.52467539375L14.056683698394776,11.56296829375L14.046778698394775,11.58195879375C13.977174698394775,11.71210859375,13.878021698394775,11.81126209375,13.747871698394775,11.88086609375L13.709821698394775,11.90017889375L13.675004698394776,11.91588779375C13.627930698394776,11.93580059375,13.577705698394775,11.95162959375,13.517736698394776,11.96392919375L13.465367698394775,11.97337439375L13.407640698394776,11.98125649375L13.376504698394776,11.98463439375C13.355205698394775,11.98676299375,13.332803698394775,11.98864939375,13.309152698394776,11.99030589375L13.234326698394776,11.99459359375L13.151176698394776,11.99756809375L13.058855698394776,11.99929999375L12.956517698394775,11.99986169375L2.9892227983947754,11.99972249375L2.8919991983947755,11.99858479375L2.8043696983947752,11.99624059375L2.7254869983947754,11.99261859375L2.6620268983947755,11.98826889375L2.5905723983947757,11.98125649375L2.5328456983947754,11.97337439375L2.4804764983947756,11.96392919375L2.4418689983947752,11.95520019375C2.3921236983947756,11.94284819375,2.348918698394775,11.92761139375,2.3076260983947754,11.90909859375L2.2693334983947757,11.89077189375L2.2503425983947754,11.88086609375C2.1201927983947755,11.81126209375,2.021040098394775,11.71210859375,1.9514352983947754,11.58195879375L1.9313603983947754,11.54231449375L1.9134031983947755,11.50187489375L1.9022439983947754,11.47311399375C1.8773090983947753,11.40479759375,1.8600234983947754,11.32717609375,1.8488909983947754,11.22245689375L1.8427348983947753,11.15350819375L1.8380923983947755,11.07658199375L1.8348828983947754,10.99072079375L1.8327269583947754,10.86936859375L1.8325791383947754,5.15664359375L1.8337170983947755,5.05942009375L1.8360614983947754,4.971790593750001L1.8396833983947753,4.8929078937499995L1.8440330983947755,4.82944779375L1.8510450983947755,4.75799319375L1.8589272983947753,4.70026659375L1.8683721983947754,4.64789739375L1.8771010983947753,4.60928989375C1.8894527983947753,4.55954459375,1.9046904983947754,4.51633949375,1.9232030983947754,4.47504699375L1.9415299983947754,4.43675439375L1.9514352983947754,4.41776349375C2.021040098394775,4.28761359375,2.1201927983947755,4.18846099375,2.2503425983947754,4.11885619375L2.2899872983947756,4.09878119375L2.3304266983947755,4.08082399375L2.3591873983947753,4.06966479375C2.4275037983947754,4.04472999375,2.5051257983947757,4.02744439375,2.6098443983947757,4.01631189375L2.6787931983947755,4.01015579375L2.7557196983947754,4.00551329375L2.8415812983947752,4.00230369375L2.9629327983947755,4.00018419375Z" fill-rule="evenodd" fill="#FFFFFF" fill-opacity="0.8600000143051147"/></g></svg>