<svg xmlns="http://www.w3.org/2000/svg" xmlns:xlink="http://www.w3.org/1999/xlink" fill="none" version="1.1" width="16" height="16" viewBox="0 0 16 16"><g><path d="M10.3581161,0.33375020811L5.7092569,0.33349609375L5.6418843,0.33375020811C5.0684479,0.33817860295,4.7633826,0.40110222975,4.44630349,0.57067796375C4.14188528,0.73348260375,3.89998651,0.97538137375,3.73718187,1.27979958375C3.567606136,1.59687869375,3.5046825092,1.90194399375,3.50025411436,2.47538039375L3.5,13.45757309375L3.50025411436,13.52494609375C3.5046825092,14.09838109375,3.567606136,14.40344809375,3.73718187,14.72052709375C3.89998651,15.02494409375,4.14188528,15.26684409375,4.44630349,15.42964809375C4.7755779,15.60574609375,5.0918968,15.66683009375,5.7092569,15.66683009375L10.290743800000001,15.66683009375L10.3581161,15.66657509375C10.931552400000001,15.66214709375,11.236617599999999,15.59922309375,11.5536966,15.42964809375C11.8581152,15.26684409375,12.1000137,15.02494409375,12.2628183,14.72052709375C12.4389162,14.39125209375,12.5,14.07493209375,12.5,13.45757309375L12.5,6.16682959375C12.5920477,6.16682959375,12.666667,6.09221029375,12.666667,6.00016309375L12.666667,4.33349609375C12.666667,4.24144889375,12.5920477,4.16682959375,12.5,4.16682959375L12.5,2.54275299375L12.4997463,2.47538039375C12.4953175,1.90194399375,12.432394,1.59687869375,12.2628183,1.27979958375C12.1000137,0.97538137375,11.8581152,0.73348260375,11.5536966,0.57067796375C11.236617599999999,0.40110222975,10.931552400000001,0.33817860295,10.3581161,0.33375020811ZM10.3432178,1.33349609375L10.440441100000001,1.33463409375L10.5280704,1.33697839375L10.6069536,1.34060039375L10.6551013,1.34375999375C10.6860847,1.34607089375,10.7148962,1.34879549375,10.741868,1.35196209375L10.7995944,1.35984419375L10.851963999999999,1.36928919375L10.890571600000001,1.37801799375C10.9403167,1.39036979375,10.9835219,1.40560749375,11.0248141,1.42412009375L11.0631065,1.44244699375L11.082098,1.45235229375C11.212247399999999,1.52195699375,11.3114004,1.62110969375,11.3810053,1.75125959375L11.4003181,1.78930959375L11.4160266,1.82412649375C11.435939300000001,1.87119989375,11.451768399999999,1.92142579375,11.4640684,1.98139349375L11.4735126,2.03376269375L11.4813952,2.09148929375L11.4847727,2.12262629375C11.4869018,2.14392499375,11.4887886,2.1663283937499997,11.490444199999999,2.18997779375L11.4947319,2.2648047937499998L11.4977064,2.34795499375L11.4994388,2.44027569375L11.5,2.54261399375L11.4998617,13.50990909375L11.4987235,13.60713209375L11.4963789,13.69476109375L11.4927568,13.77364309375L11.4895973,13.82179209375C11.487286600000001,13.85277509375,11.4845619,13.88158709375,11.4813952,13.90855809375L11.4735126,13.96628509375L11.4640684,14.01865409375L11.4553394,14.05726209375C11.4429874,14.10700809375,11.4277496,14.15021309375,11.4092369,14.19150409375L11.3909106,14.22979709375L11.3810053,14.24878909375C11.3114004,14.37893909375,11.212247399999999,14.47809109375,11.082098,14.54769509375L11.044047800000001,14.56700909375L11.009231100000001,14.58271709375C10.962157699999999,14.60263009375,10.9119315,14.61846009375,10.851963999999999,14.63075909375L10.7995944,14.64020309375L10.741868,14.64808609375L10.710731,14.65146209375C10.689432100000001,14.65359309375,10.6670294,14.65547909375,10.6433792,14.65713509375L10.568553,14.66142309375L10.4854026,14.66439709375L10.3930817,14.66612909375L10.290743800000001,14.66669109375L5.6567826,14.66655209375L5.5595589,14.66541509375L5.4719294000000005,14.66307009375L5.3930466,14.65944709375L5.3448991,14.65628809375C5.3139151,14.65397609375,5.2851044,14.65125309375,5.2581321,14.64808609375L5.2004055000000005,14.64020309375L5.1480362,14.63075909375L5.1094288,14.62203009375C5.0596836,14.60967809375,5.0164784000000004,14.59444009375,4.9751859,14.57592809375L4.9368932,14.55760109375L4.9179024,14.54769509375C4.7877526,14.47809109375,4.6885999,14.37893909375,4.6189951,14.24878909375L4.599682,14.21073809375L4.5839734,14.17592109375C4.5640609,14.12884809375,4.5482318,14.07862309375,4.5359319,14.01865409375L4.5264871,13.96628509375L4.5186049,13.90855809375L4.5152274,13.87742109375C4.5130981,13.85612309375,4.5112115,13.83372009375,4.5095556000000006,13.81007009375L4.5052681,13.73524409375L4.5022938,13.65209409375L4.5005616,13.55977209375L4.5,13.45743509375L4.5001389,2.49013969375L4.501277,2.39291619375L4.5036213,2.3052866937500003L4.5072432,2.22640399375L4.5104028,2.17825629375C4.5127137,2.14727239375,4.5154383,2.11846159375,4.5186049,2.09148929375L4.5264871,2.03376269375L4.5359319,1.98139349375L4.5446608,1.94278599375C4.5570127,1.89304069375,4.5722502,1.84983559375,4.5907629,1.80854309375L4.6090897,1.77025039375L4.6189951,1.75125959375C4.6885999,1.62110969375,4.7877526,1.52195699375,4.9179024,1.45235229375L4.9559524,1.43303919375L4.9907693,1.41733049375C5.0378426,1.39741809375,5.0880686,1.38158909375,5.1480362,1.36928919375L5.2004055000000005,1.35984419375L5.2581321,1.35196209375L5.2892692,1.34858469375C5.3105679,1.34645529375,5.3329712,1.34456859375,5.3566206,1.34291269375L5.4314477,1.33862529375L5.5145979,1.33565099375L5.6315308,1.33363649375L10.3432178,1.33349609375Z" fill-rule="evenodd" fill="#FFFFFF" fill-opacity="0.8600000143051147"/></g></svg>