<svg xmlns="http://www.w3.org/2000/svg" xmlns:xlink="http://www.w3.org/1999/xlink" fill="none" version="1.1" width="20" height="20" viewBox="0 0 20 20"><defs><clipPath id="master_svg0_210_63143"><rect x="0" y="0" width="20" height="20" rx="0"/></clipPath></defs><g clip-path="url(#master_svg0_210_63143)"><g><path d="M7.4554815703125,11.3816404L7.4554815703125,14.95136Q7.4554815703125,15.695,7.1408407703125,16.038280999999998Q6.8288409703125,16.36836,6.1347627703125,16.425641Q5.5574815703125005,16.472360000000002,5.0504814703125,16.433359L4.8191220803125,15.219281Q5.2948407703125,15.284281,5.7214033703125,15.268641Q6.0254814703125,15.255641,6.1634032703125,15.117719Q6.3011221703124995,14.967,6.3011221703124995,14.621282L6.3011221703124995,11.8366404Q5.6874815703124995,12.0576401,4.7748408303125,12.4007187L4.4914814503125005,11.1736412Q5.4874033703125,10.8459997,6.3011221703124995,10.5782814L6.3011221703124995,8.0146403L4.7671220903125,8.0146403L4.7671220903125,6.9096403L6.3011221703124995,6.9096403L6.3011221703124995,4.5903586999999995L7.4554815703125,4.5903586999999995L7.4554815703125,6.9096403L8.5968408703125,6.9096403L8.5968408703125,8.0146403L7.4554815703125,8.0146403L7.4554815703125,10.172640300000001Q8.0067629703125,9.9593592,8.5344815703125,9.7513595L8.734762670312499,10.8407192Q8.1054816703125,11.1189995,7.4554815703125,11.3816404ZM14.6237630703125,11.8963594L14.6237630703125,16.506281L13.4094819703125,16.506281L13.4094819703125,11.8963594L11.4647626703125,11.8963594Q11.360763070312501,13.422641,10.8797626703125,14.47036Q10.3831219703125,15.539,9.2624816703125,16.641359L8.2537627703125,15.822359Q9.272840970312501,14.894281,9.7071223703125,14.059641Q10.1544031703125,13.198999,10.2504815703125,11.8963594L8.6594033703125,11.8963594L8.6594033703125,10.7732811L10.2921223703125,10.7732811Q10.2921223703125,10.651,10.2921223703125,10.5157185L10.2921223703125,8.019718600000001L9.1038408703125,8.019718600000001L9.1038408703125,6.9329996L12.9104032703125,6.9329996Q13.5291223703125,5.6927185,13.9764032703125,4.5279999L15.1021220703125,4.907640499999999Q14.5664820703125,6.1373596,14.1504810703125,6.9329996L16.1264820703125,6.9329996L16.1264820703125,8.019718600000001L14.6237630703125,8.019718600000001L14.6237630703125,10.7732811L16.4334040703125,10.7732811L16.4334040703125,11.8963594L14.6237630703125,11.8963594ZM13.4094819703125,10.7732811L13.4094819703125,8.019718600000001L11.5037627703125,8.019718600000001L11.5037627703125,10.5522814Q11.5037627703125,10.6639996,11.5037627703125,10.7732811L13.4094819703125,10.7732811ZM10.6301221703125,4.5852813999999995Q11.4154033703125,5.9346409,12.0394038703125,7.3412809L10.9344033703125,7.7467184Q10.3128409703125,6.295999500000001,9.519840670312501,4.9543591L10.6301221703125,4.5852813999999995Z" fill="#FFFFFF" fill-opacity="0.8999999761581421"/></g></g></svg>