<svg xmlns="http://www.w3.org/2000/svg" xmlns:xlink="http://www.w3.org/1999/xlink" fill="none" version="1.1" width="16" height="16" viewBox="0 0 16 16"><g><path d="M12.4990568125,2.7852654C12.4735698125,1.79496062,11.6627908125,1,10.6663418125,1L5.3330078125,1L5.2849398125,1.00061790081C4.2946353125000005,1.026105804,3.4996745125,1.8368830699999998,3.4996745125,2.8333334L3.4996745125,4.3333335L2.6663412125,4.3333335L2.6182732125,4.3339514999999995C1.6279684325,4.359439399999999,0.8330078125,5.1702166,0.8330078125,6.166667L0.8330078125,11.5L0.83362571331,11.548068C0.8591136165,12.538374,1.6698908824999998,13.333334,2.6663412125,13.333334L3.8330078125,13.333334L3.8336475125,13.377562C3.8570428125,14.185532,4.5193739125,14.833334,5.3330078125,14.833334L10.4996748125,14.833334L10.5439014125,14.832694C11.3518728125,14.809299,11.9996748125,14.146968,11.9996748125,13.333334L13.3330078125,13.333334L13.3810758125,13.332716C14.3713818125,13.307228,15.1663418125,12.49645,15.1663418125,11.5L15.1663418125,6.166667L15.1657238125,6.1185989C15.1402358125,5.128294,14.3294578125,4.3333335,13.3330078125,4.3333335L12.4996748125,4.3333335L12.4996748125,2.8333334L12.4990568125,2.7852654ZM10.6666670125,2L5.3333335125,2C4.8852076125,2,4.519696912500001,2.3537178,4.5007698125,2.7971851L4.5000000125,2.8333334L4.5000000125,4.3333335L11.4999998125,4.3333335L11.4999998125,2.8333334C11.4999998125,2.3852075,11.1462818125,2.019697,10.7028150125,2.00077L10.6666670125,2ZM13.3330078125,5.3334961L2.6663412125,5.3334961C2.2182153125,5.3334961,1.8527048125,5.6872139,1.8337778125,6.130681L1.8330078125,6.1668296L1.8330078125,11.500163C1.8330078125,11.948289,2.1867256125,12.313799,2.6301929125,12.332726L2.6663412125,12.333496L3.8330078125,12.333496L3.8330078125,11.000163C3.8330078125,10.1865292,4.4808102125,9.5241976,5.2887812125,9.500803L5.3330078125,9.5001631L10.4996748125,9.5001631C11.3133088125,9.5001631,11.9756398125,10.1479654,11.9990348125,10.9559364L11.9996748125,11.000163L11.9996748125,12.333496L13.3330078125,12.333496C13.7811338125,12.333496,14.1466448125,11.979778,14.1655718125,11.536311L14.1663418125,11.500163L14.1663418125,6.1668296C14.1663418125,5.7187037,13.8126238125,5.3531933,13.3691558125,5.3342662L13.3330078125,5.3334961ZM13.1666668125,7.1668296Q13.1666658125,7.2489052,13.1506538125,7.3294044Q13.1346418125,7.4099035,13.1032318125,7.4857321Q13.0718228125,7.5615602,13.0262238125,7.6298041Q12.9806248125,7.6980476,12.9225888125,7.7560849Q12.8645518125,7.8141212,12.7963078125,7.8597202Q12.7280638125,7.9053192,12.6522348125,7.936729Q12.5764068125,7.9681377,12.4959078125,7.9841509Q12.4154088125,8.0001631,12.3333328125,8.0001631Q12.2512568125,8.0001631,12.1707568125,7.9841504Q12.0902578125,7.9681377,12.0144288125,7.9367285Q11.9386008125,7.9053192,11.8703578125,7.8597202Q11.8021128125,7.8141212,11.7440768125,7.7560849Q11.6860398125,7.6980476,11.6404408125,7.6298041Q11.5948408125,7.5615602,11.5634328125,7.4857321Q11.5320238125,7.4099035,11.5160118125,7.3294039Q11.4999998125,7.2489052,11.4999998125,7.1668296Q11.4999998125,7.084753,11.5160108125,7.0042539Q11.5320238125,6.9237547,11.5634328125,6.8479261Q11.5948408125,6.7720976,11.6404398125,6.7038536Q11.6860398125,6.6356096,11.7440768125,6.5775733Q11.8021128125,6.5195365,11.8703568125,6.4739375Q11.9386008125,6.4283381,12.0144288125,6.3969293Q12.0902578125,6.3655205,12.1707568125,6.3495083Q12.2512568125,6.3334961,12.3333328125,6.3334961Q12.4154088125,6.3334961,12.4959078125,6.3495083Q12.5764068125,6.3655205,12.6522348125,6.3969293Q12.7280638125,6.4283385,12.7963078125,6.473938Q12.8645518125,6.519537,12.9225888125,6.5775738Q12.9806248125,6.6356101,13.0262238125,6.7038536Q13.0718228125,6.7720976,13.1032318125,6.8479261Q13.1346418125,6.9237547,13.1506538125,7.0042543Q13.1666658125,7.084753,13.1666668125,7.1668296ZM5.3330078125,10.5L10.4996748125,10.5C10.7758169125,10.5,10.9996748125,10.7238579,10.9996748125,11L10.9996748125,13.333334L10.9988258125,13.362713C10.9836178125,13.62518,10.7659550125,13.833334,10.4996748125,13.833334L5.3330078125,13.833334L5.3036289125,13.832485C5.0411610125,13.817277,4.8330078125,13.599613,4.8330078125,13.333334L4.8330078125,11L4.8338566125,10.9706211C4.8490643125,10.7081537,5.0667276125,10.5,5.3330078125,10.5Z" fill-rule="evenodd" fill="#FFFFFF" fill-opacity="0.8600000143051147"/></g></svg>