<svg xmlns="http://www.w3.org/2000/svg" xmlns:xlink="http://www.w3.org/1999/xlink" fill="none" version="1.1" width="16" height="16" viewBox="0 0 16 16"><path d="M0 4.5714287757873535C4.90527396329193e-16 2.046698377982344 2.046698377982345 0 4.5714287757873535 0L11.428571224212646 0C13.953301622017655 0 16 2.046698377982345 16 4.5714287757873535L16 11.428571224212646C16 13.953301622017655 13.953301622017655 16 11.428571224212646 16L4.5714287757873535 16C2.046698377982345 16 0 13.953301622017655 0 11.428571224212646Z" fill="#8C93B0" fill-opacity="1"/><g><path d="M10.13905953671875,5.19576618984375C10.11810113671875,4.03232675984375,9.16842553671875,3.09564208984375,7.99997953671875,3.09564208984375C6.81840613671875,3.09564208984375,5.86055083671875,4.05349689984375,5.86055083671875,5.23507118984375L5.86038963671875,6.071587089843749L5.77512183671875,6.07583328984375C5.50244823671875,6.09229038984375,5.34227645671875,6.13171648984375,5.20406830671875,6.19231148984375L5.16317426671875,6.21112398984375L5.12305468671875,6.2311946898437505L5.10311573671875,6.24169918984375C4.89005335671875,6.35564688984375,4.72284069671875,6.52285888984375,4.60889361671875,6.735922089843751C4.60563795671875,6.74200918984375,4.60242584671875,6.74809498984375,4.59925733671875,6.754188089843749L4.58077162671875,6.79090618984375L4.56334191671875,6.82821558984375C4.56052543671875,6.834506989843749,4.55775330671875,6.84084028984375,4.55502571671875,6.84722418984375L4.53919561671875,6.88620708984375C4.53409793271875,6.89945168984375,4.52917969271875,6.912969089843751,4.52444231471875,6.9268276898437495L4.51077409871875,6.96950388984375C4.48015397771875,7.07180208984375,4.45846315271875,7.19429728984375,4.44617625971875,7.36087178984375L4.44148758241875,7.43503088984375C4.44080255461875,7.44786308984375,4.44016585311875,7.46093798984375,4.43957764981875,7.47426368984375L4.43663178821875,7.55730108984375L4.43485818343875,7.64677998984375C4.43446328016875,7.67772678984375,4.43426513671875,7.70981648984375,4.43426513671875,7.74311968984375L4.43426513671875,10.57159278984375L4.43484549375875,10.66793248984375L4.43664460161875,10.757415789843751L4.43957540531875,10.84045078984375C4.44075181191875,10.86710168984375,4.44213292931875,10.89275268984375,4.44369594011875,10.91746518984375L4.44894817271875,10.98886818984375C4.46160264471875,11.13781168984375,4.48235226071875,11.25021838984375,4.51078523671875,11.34520908984375L4.52445264871875,11.38788698984375C4.53155870771875,11.40867808984375,4.53905527671875,11.42869568984375,4.54697049671875,11.44817728984375L4.56333654671875,11.48649498984375L4.58077627671875,11.52380748984375C4.58376949671875,11.52996248984375,4.58680690671875,11.53609468984375,4.58988791671875,11.54220958984375L4.60889459671875,11.57879738984375C4.72284164671875,11.79186058984375,4.89006435671875,11.95906828984375,5.10312670671875,12.07301238984375C5.10921424671875,12.07626818984375,5.11528563671875,12.07947828984375,5.12137907671875,12.08264538984375L5.15808659671875,12.10113908984375L5.19540351671875,12.11856558984375C5.2016944867187505,12.12137988984375,5.20802634671875,12.12415788984375,5.21441012671875,12.12688538984375L5.25341021671875,12.14271358984375C5.26665425671875,12.14781188984375,5.28017568671875,12.15272618984375,5.29403519671875,12.15746018984375L5.33669143671875,12.17113778984375C5.43899073671875,12.20175738984375,5.56148063671875,12.22344298984375,5.72805523671875,12.23573108984375L5.80222503671875,12.24041648984375C5.81505763671875,12.24110318984375,5.82813103671875,12.24174408984375,5.84145713671875,12.24233338984375L5.92450633671875,12.24527548984375L6.01396833671875,12.24704738984375L6.11030743671875,12.24764248984375L9.88965083671875,12.24764248984375L9.985991036718751,12.24704738984375L10.075452336718751,12.24527548984375L10.158502136718749,12.24233338984375C10.18515443671875,12.24115658984375,10.21080113671875,12.23978228984375,10.23551563671875,12.23821928984375L10.30692863671875,12.23295208984375C10.45587063671875,12.22029688984375,10.568276436718751,12.19957068984375,10.66326763671875,12.17113778984375L10.70592453671875,12.15746018984375C10.72671313671875,12.15035818984375,10.74674033671875,12.14284518984375,10.76622293671875,12.13492868984375L10.80455493671875,12.11856558984375L10.84187273671875,12.10113908984375C10.84802913671875,12.09814638984375,10.85415223671875,12.09510708984375,10.86026953671875,12.09202958984375L10.896832036718749,12.07301238984375C11.10989523671875,11.95906828984375,11.27711773671875,11.79186058984375,11.391063736718749,11.57879738984375C11.39431953671875,11.57270808984375,11.39752863671875,11.56662178984375,11.40069863671875,11.56052968984375L11.41918183671875,11.52380748984375L11.436621636718751,11.48649498984375C11.43943883671875,11.48020648984375,11.44219493671875,11.47387218984375,11.44492193671875,11.46748928984375L11.460765336718751,11.42850688984375C11.46586323671875,11.41526028984375,11.47076943671875,11.40174768984375,11.47550723671875,11.38788698984375L11.489172936718749,11.34520908984375C11.519793536718751,11.24291038984375,11.54150913671875,11.12041468984375,11.55379633671875,10.95383648984375L11.558468836718749,10.87968348984375C11.559153036718751,10.866849889843749,11.55979533671875,10.85377548984375,11.56038383671875,10.84045078984375L11.56331443671875,10.757415789843751L11.56511353671875,10.66793248984375C11.56550743671875,10.636986289843751,11.56569383671875,10.60489748984375,11.56569383671875,10.57159278984375L11.56569383671875,7.74311968984375L11.56510113671875,7.64677998984375L11.56332823671875,7.55730108984375L11.56038043671875,7.47426368984375C11.559203636718749,7.44761318984375,11.55783413671875,7.42196418984375,11.556272036718749,7.39725108984375L11.55100773671875,7.32584378984375C11.53835343671875,7.17690138984375,11.517618136718749,7.06449628984375,11.48918433671875,6.96950388984375L11.47551773671875,6.9268276898437495C11.468410036718751,6.906039489843749,11.46089883671875,6.88601998984375,11.45298333671875,6.86653758984375L11.43661593671875,6.82821558984375L11.41918613671875,6.79090618984375C11.41619393671875,6.7847482898437494,11.41315743671875,6.77861548984375,11.41007563671875,6.77249908984375L11.391065136718751,6.735922089843751C11.27711863671875,6.52285888984375,11.109905236718749,6.35564688984375,10.89684343671875,6.24169918984375C10.88355593671875,6.23459318984375,10.87027553671875,6.22769448984375,10.856911636718749,6.22100428984375L10.81647583671875,6.20156358984375C10.659819136718749,6.12945578984375,10.48010923671875,6.0852193898437505,10.13968753671875,6.07159208984375L10.13940813671875,5.23507118984375L10.13905953671875,5.19576618984375ZM6.811682436718749,5.204069889843749C6.82930043671875,4.56302258984375,7.35448573671875,4.04876708984375,7.99978943671875,4.04876708984375C8.65621943671875,4.04876708984375,9.18836073671875,4.58090878984375,9.18836073671875,5.23733858984375L9.18836073671875,6.06933858984375L6.81121823671875,6.06933858984375L6.81121823671875,5.23733858984375L6.811682436718749,5.204069889843749ZM7.99974203671875,8.26077608984375Q8.058273836718751,8.26077558984375,8.11568113671875,8.24935678984375Q8.17308833671875,8.23793748984375,8.22716473671875,8.21553798984375Q8.28124143671875,8.19313908984375,8.32990903671875,8.160620189843751Q8.378576736718749,8.12810138984375,8.41996503671875,8.08671328984375Q8.46135333671875,8.04532478984375,8.49387173671875,7.99665738984375Q8.52639053671875,7.94798948984375,8.54878993671875,7.89391328984375Q8.57118893671875,7.83983658984375,8.58260823671875,7.78242918984375Q8.59402753671875,7.72502178984375,8.59402753671875,7.66649008984375Q8.59402753671875,7.60795788984375,8.58260823671875,7.55055048984375Q8.57118893671875,7.49314308984375,8.54878993671875,7.43906638984375Q8.52639053671875,7.38498968984375,8.49387173671875,7.33632228984375Q8.46135333671875,7.28765488984375,8.41996503671875,7.24626638984375Q8.378576736718749,7.20487788984375,8.32990883671875,7.17235948984375Q8.28124143671875,7.13984058984375,8.22716473671875,7.11744168984375Q8.17308833671875,7.09504248984375,8.11568113671875,7.0836233898437495Q8.058273836718751,7.07220458984375,7.99974203671875,7.07220458984375Q7.94120983671875,7.07220458984375,7.883802136718749,7.0836236898437495Q7.82639453671875,7.09504248984375,7.77231813671875,7.11744168984375Q7.71824173671875,7.13984058984375,7.66957423671875,7.17235948984375Q7.62090663671875,7.20487788984375,7.57951833671875,7.24626638984375Q7.53812983671875,7.28765488984375,7.50561143671875,7.33632228984375Q7.473092536718751,7.38498968984375,7.45069333671875,7.43906638984375Q7.428294136718749,7.49314308984375,7.41687513671875,7.55055048984375Q7.40545633671875,7.60795788984375,7.40545653671875,7.66649008984375Q7.40545633671875,7.72502178984375,7.41687533671875,7.78242918984375Q7.428294136718749,7.83983658984375,7.45069333671875,7.89391328984375Q7.473092536718751,7.94798948984375,7.50561143671875,7.99665738984375Q7.53812983671875,8.04532478984375,7.57951833671875,8.08671328984375Q7.62090663671875,8.12810138984375,7.66957403671875,8.160620189843751Q7.71824173671875,8.19313908984375,7.77231833671875,8.21553798984375Q7.82639483671875,8.23793748984375,7.883802436718749,8.24935678984375Q7.94120983671875,8.26077558984375,7.99974203671875,8.26077608984375ZM8.34806343671875,8.73626708984375C8.46353193671875,8.73626708984375,8.55713753671875,8.81608818984375,8.55713753671875,8.914552689843749L8.55713753671875,10.93512438984375C8.55713753671875,11.033588889843749,8.46353193671875,11.11340998984375,8.34806343671875,11.11340998984375L7.6511514367187505,11.11340998984375C7.53568313671875,11.11340998984375,7.44207763671875,11.033588889843749,7.44207763671875,10.93512438984375L7.44207763671875,8.914552689843749C7.44207763671875,8.81608818984375,7.53568313671875,8.73626708984375,7.6511514367187505,8.73626708984375L8.34806343671875,8.73626708984375Z" fill-rule="evenodd" fill="#FFFFFF" fill-opacity="1"/></g></svg>