<svg xmlns="http://www.w3.org/2000/svg" xmlns:xlink="http://www.w3.org/1999/xlink" fill="none" version="1.1" width="16" height="16" viewBox="0 0 16 16"><path d="M0 4.5714287757873535C4.90527396329193e-16 2.046698377982344 2.046698377982345 0 4.5714287757873535 0L11.428571224212646 0C13.953301622017655 0 16 2.046698377982345 16 4.5714287757873535L16 11.428571224212646C16 13.953301622017655 13.953301622017655 16 11.428571224212646 16L4.5714287757873535 16C2.046698377982345 16 0 13.953301622017655 0 11.428571224212646Z" fill="#6A6B6E" fill-opacity="1"/><g><path d="M10.139120571875,5.19698689296875C10.118162171875,4.03354746296875,9.168486571875,3.09686279296875,8.000040571875001,3.09686279296875C6.818467171875,3.09686279296875,5.860611871875,4.05471760296875,5.860611871875,5.23629189296875L5.860450671875,6.072807792968749L5.775182871875,6.07705399296875C5.502509271875,6.09351109296875,5.342337491875,6.13293719296875,5.204129341875,6.19353219296875L5.163235301875,6.21234469296875L5.123115721875,6.2324153929687505L5.103176771875,6.24291989296875C4.890114391875,6.35686759296875,4.722901731875,6.52407959296875,4.608954651875,6.737142792968751C4.605698991875,6.74322989296875,4.602486881875,6.74931569296875,4.599318371875,6.755408792968749L4.580832661875,6.79212689296875L4.563402951875,6.82943629296875C4.560586471875,6.835727692968749,4.557814341875,6.84206099296875,4.555086751875,6.84844489296875L4.539256651875,6.88742779296875C4.534158967875,6.90067239296875,4.529240727875,6.914189792968751,4.524503349875,6.9280483929687495L4.510835133875,6.97072459296875C4.480215012875,7.07302279296875,4.458524187875,7.19551799296875,4.446237294875,7.36209249296875L4.441548617575,7.43625159296875C4.440863589775,7.44908379296875,4.440226888275,7.46215869296875,4.439638684975,7.47548439296875L4.436692823375,7.55852179296875L4.434919218595,7.64800069296875C4.434524315325,7.67894749296875,4.434326171875,7.71103719296875,4.434326171875,7.74434039296875L4.434326171875,10.57281349296875L4.434906528915,10.66915319296875L4.436705636775,10.758636492968751L4.439636440475,10.84167149296875C4.440812847075,10.86832239296875,4.442193964475,10.89397339296875,4.443756975275,10.91868589296875L4.449009207875,10.99008889296875C4.461663679875,11.13903239296875,4.482413295875,11.25143909296875,4.510846271875,11.34642979296875L4.524513683875,11.38910769296875C4.531619742875,11.40989879296875,4.539116311875,11.42991639296875,4.547031531875,11.44939799296875L4.563397581875,11.48771569296875L4.580837311875,11.52502819296875C4.583830531875,11.53118319296875,4.586867941875,11.53731539296875,4.589948951875,11.54343029296875L4.608955631875,11.58001809296875C4.722902681875,11.79308129296875,4.890125391875,11.96028899296875,5.103187741875,12.07423309296875C5.109275281875,12.07748889296875,5.115346671875,12.08069899296875,5.121440111875,12.08386609296875L5.158147631875,12.10235979296875L5.195464551875,12.11978629296875C5.2017555218750005,12.12260059296875,5.208087381875,12.12537859296875,5.214471161875,12.12810609296875L5.253471251875,12.14393429296875C5.266715291875,12.14903259296875,5.280236721875,12.15394689296875,5.294096231875,12.15868089296875L5.336752471875,12.17235849296875C5.439051771875,12.20297809296875,5.561541671875,12.22466369296875,5.728116271875,12.23695179296875L5.802286071875,12.24163719296875C5.815118671875,12.24232389296875,5.828192071875,12.24296479296875,5.841518171875,12.24355409296875L5.924567371875,12.24649619296875L6.014029371875,12.24826809296875L6.110368471875,12.24886319296875L9.889711871875,12.24886319296875L9.986052071875001,12.24826809296875L10.075513371875001,12.24649619296875L10.158563171874999,12.24355409296875C10.185215471875,12.24237729296875,10.210862171875,12.24100299296875,10.235576671875,12.23943999296875L10.306989671875,12.23417279296875C10.455931671875,12.22151759296875,10.568337471875001,12.20079139296875,10.663328671875,12.17235849296875L10.705985571875,12.15868089296875C10.726774171875,12.15157889296875,10.746801371875,12.14406589296875,10.766283971875,12.13614939296875L10.804615971875,12.11978629296875L10.841933771875,12.10235979296875C10.848090171875,12.09936709296875,10.854213271875,12.09632779296875,10.860330571875,12.09325029296875L10.896893071874999,12.07423309296875C11.109956271875,11.96028899296875,11.277178771875,11.79308129296875,11.391124771874999,11.58001809296875C11.394380571875,11.57392879296875,11.397589671875,11.56784249296875,11.400759671875,11.56175039296875L11.419242871875,11.52502819296875L11.436682671875001,11.48771569296875C11.439499871875,11.48142719296875,11.442255971875,11.47509289296875,11.444982971875,11.46870999296875L11.460826371875001,11.42972759296875C11.465924271875,11.41648099296875,11.470830471875,11.40296839296875,11.475568271875,11.38910769296875L11.489233971874999,11.34642979296875C11.519854571875001,11.24413109296875,11.541570171875,11.12163539296875,11.553857371875,10.95505719296875L11.558529871874999,10.88090419296875C11.559214071875001,10.868070592968749,11.559856371875,10.85499619296875,11.560444871875,10.84167149296875L11.563375471875,10.758636492968751L11.565174571875,10.66915319296875C11.565568471875,10.638206992968751,11.565754871875,10.60611819296875,11.565754871875,10.57281349296875L11.565754871875,7.74434039296875L11.565162171875,7.64800069296875L11.563389271875,7.55852179296875L11.560441471875,7.47548439296875C11.559264671874999,7.44883389296875,11.557895171875,7.42318489296875,11.556333071874999,7.39847179296875L11.551068771875,7.32706449296875C11.538414471875,7.17812209296875,11.517679171874999,7.06571699296875,11.489245371875,6.97072459296875L11.475578771875,6.9280483929687495C11.468471071875001,6.907260192968749,11.460959871875,6.88724069296875,11.453044371875,6.86775829296875L11.436676971875,6.82943629296875L11.419247171875,6.79212689296875C11.416254971875,6.7859689929687494,11.413218471875,6.77983619296875,11.410136671875,6.77371979296875L11.391126171875001,6.737142792968751C11.277179671875,6.52407959296875,11.109966271874999,6.35686759296875,10.896904471875,6.24291989296875C10.883616971875,6.23581389296875,10.870336571875,6.22891519296875,10.856972671874999,6.22222499296875L10.816536871875,6.20278429296875C10.659880171874999,6.13067649296875,10.480170271875,6.0864400929687505,10.139748571875,6.07281279296875L10.139469171875,5.23629189296875L10.139120571875,5.19698689296875ZM6.811743471874999,5.205290592968749C6.829361471875,4.56424329296875,7.354546771875,4.04998779296875,7.999850471875,4.04998779296875C8.656280471875,4.04998779296875,9.188421771875,4.58212949296875,9.188421771875,5.23855929296875L9.188421771875,6.07055929296875L6.811279271875,6.07055929296875L6.811279271875,5.23855929296875L6.811743471874999,5.205290592968749ZM7.999803071875,8.26199679296875Q8.058334871875001,8.26199629296875,8.115742171875,8.25057749296875Q8.173149371875,8.23915819296875,8.227225771875,8.21675869296875Q8.281302471875,8.19435979296875,8.329970071875,8.161840892968751Q8.378637771874999,8.12932209296875,8.420026071875,8.08793399296875Q8.461414371875,8.04654549296875,8.493932771875,7.99787809296875Q8.526451571875,7.94921019296875,8.548850971875,7.89513399296875Q8.571249971875,7.84105729296875,8.582669271875,7.78364989296875Q8.594088571875,7.72624249296875,8.594088571875,7.66771079296875Q8.594088571875,7.60917859296875,8.582669271875,7.55177119296875Q8.571249971875,7.49436379296875,8.548850971875,7.44028709296875Q8.526451571875,7.38621039296875,8.493932771875,7.33754299296875Q8.461414371875,7.28887559296875,8.420026071875,7.24748709296875Q8.378637771874999,7.20609859296875,8.329969871875,7.17358019296875Q8.281302471875,7.14106129296875,8.227225771875,7.11866239296875Q8.173149371875,7.09626319296875,8.115742171875,7.0848440929687495Q8.058334871875001,7.07342529296875,7.999803071875,7.07342529296875Q7.941270871875,7.07342529296875,7.883863171874999,7.0848443929687495Q7.826455571875,7.09626319296875,7.772379171875,7.11866239296875Q7.718302771875,7.14106129296875,7.669635271875,7.17358019296875Q7.620967671875,7.20609859296875,7.579579371875,7.24748709296875Q7.538190871875,7.28887559296875,7.505672471875,7.33754299296875Q7.473153571875001,7.38621039296875,7.450754371875,7.44028709296875Q7.428355171874999,7.49436379296875,7.416936171875,7.55177119296875Q7.405517371875,7.60917859296875,7.405517571875,7.66771079296875Q7.405517371875,7.72624249296875,7.416936371875,7.78364989296875Q7.428355171874999,7.84105729296875,7.450754371875,7.89513399296875Q7.473153571875001,7.94921019296875,7.505672471875,7.99787809296875Q7.538190871875,8.04654549296875,7.579579371875,8.08793399296875Q7.620967671875,8.12932209296875,7.669635071875,8.161840892968751Q7.718302771875,8.19435979296875,7.772379371875,8.21675869296875Q7.826455871875,8.23915819296875,7.883863471874999,8.25057749296875Q7.941270871875,8.26199629296875,7.999803071875,8.26199679296875ZM8.348124471875,8.73748779296875C8.463592971875,8.73748779296875,8.557198571875,8.81730889296875,8.557198571875,8.915773392968749L8.557198571875,10.93634509296875C8.557198571875,11.034809592968749,8.463592971875,11.11463069296875,8.348124471875,11.11463069296875L7.6512124718750005,11.11463069296875C7.535744171875,11.11463069296875,7.442138671875,11.034809592968749,7.442138671875,10.93634509296875L7.442138671875,8.915773392968749C7.442138671875,8.81730889296875,7.535744171875,8.73748779296875,7.6512124718750005,8.73748779296875L8.348124471875,8.73748779296875Z" fill-rule="evenodd" fill="#FFFFFF" fill-opacity="1"/></g></svg>