<svg xmlns="http://www.w3.org/2000/svg" xmlns:xlink="http://www.w3.org/1999/xlink" fill="none" version="1.1" width="16" height="16" viewBox="0 0 16 16"><path d="M0 4.5714287757873535C4.90527396329193e-16 2.046698377982344 2.046698377982345 0 4.5714287757873535 0L11.428571224212646 0C13.953301622017655 0 16 2.046698377982345 16 4.5714287757873535L16 11.428571224212646C16 13.953301622017655 13.953301622017655 16 11.428571224212646 16L4.5714287757873535 16C2.046698377982345 16 0 13.953301622017655 0 11.428571224212646Z" fill="#0A83F2" fill-opacity="1"/><path d="M8.00049995625,12.0393758C6.67722205625,12.0393758,5.60009765625,10.8905072,5.60009765625,9.4790897C5.60009765625,9.0672474,5.69421531225,8.657979000000001,5.87199306625,8.295042500000001L7.86937855625,4.441743456C7.89592505625,4.391121179,7.945798856250001,4.359375,8.00049995625,4.359375C8.05520085625,4.359375,8.105075156249999,4.391121179,8.13162085625,4.441743456L10.12659315625,8.291611C10.305980156250001,8.657979000000001,10.40009735625,9.0672474,10.40009735625,9.4790897C10.40090225625,10.8905072,9.32377795625,12.0393758,8.00049995625,12.0393758Z" fill="#FFFFFF" fill-opacity="1" style="mix-blend-mode:passthrough"/></svg>