<svg xmlns="http://www.w3.org/2000/svg" xmlns:xlink="http://www.w3.org/1999/xlink" fill="none" version="1.1" width="20" height="20" viewBox="0 0 20 20"><g><g><g><path d="M16.072644988281247,3.33332545543L4.01157088828125,3.3330078125C3.23987078828125,3.3330078125,2.84447238828125,3.4093627925,2.43287928828125,3.6294851325C2.0523564882812497,3.8329909425,1.74998312828125,4.1353643525,1.5464773182812501,4.5158871125C1.33450764828125,4.9122360125,1.25585314828125,5.2935676125,1.25031762828125,6.0103629125L1.24999999828125,12.2381039125C1.24999999828125,13.0098038125,1.32635497828125,13.4052018125,1.5464773182812501,13.8167948125C1.74998312828125,14.1973178125,2.0523564882812497,14.4996908125,2.43287928828125,14.7031968125C2.84447238828125,14.9233188125,3.23987078828125,14.9996738125,4.01157088828125,14.9996738125L15.98842898828125,14.9996738125C16.760127988281248,14.9996738125,17.15552898828125,14.9233188125,17.56712198828125,14.7031968125C17.94764298828125,14.4996908125,18.25001698828125,14.1973178125,18.45352398828125,13.8167948125C18.67364498828125,13.4052018125,18.74999998828125,13.0098038125,18.74999998828125,12.2381039125L18.74999998828125,6.094578712500001C18.74999998828125,5.3228786125,18.67364498828125,4.9274801125,18.45352398828125,4.5158871125C18.25001698828125,4.1353643525,17.94764298828125,3.8329909425,17.56712198828125,3.6294851325C17.17077298828125,3.4175154715,16.789438988281248,3.338860949,16.072644988281247,3.33332545543ZM16.054030988281248,4.5839844124999996L3.94598748828125,4.5839844124999996L3.76825668828125,4.5866780125L3.66431908828125,4.5903958125L3.57078508828125,4.5957551125C3.52644248828125,4.5988600125,3.48560428828125,4.6026139125,3.44767448828125,4.6070667125L3.37551618828125,4.6169196125L3.31005478828125,4.6287256125C3.21635528828125,4.6479442125,3.14168258828125,4.6740558125,3.06995008828125,4.7084132125L3.02238728828125,4.7325545125C2.85970018828125,4.8195606125,2.73575938828125,4.9435015125,2.6487532882812497,5.1061885125C2.6445211882812503,5.1141019125,2.64039458828125,5.1220075125,2.63637158828125,5.1299271125L2.61346308828125,5.1777930125000005C2.5845371882812502,5.2423127125,2.56200758828125,5.3105676125,2.54492438828125,5.393856012500001L2.53311838828125,5.4593174125L2.52326548828125,5.5314758125C2.51732828828125,5.5820489124999995,2.51263388828125,5.6377926125,2.50906348828125,5.7001190125L2.50453598828125,5.7987223125L2.50160558828125,5.9082594125L2.5001830882812497,6.0297887125L2.50036788828125,12.3373613125L2.5030626882812497,12.4890509125L2.50707468828125,12.5963783125L2.51287798828125,12.6925354125L2.52057298828125,12.7787218125C2.53647648828125,12.9283209125,2.56242588828125,13.0336780125,2.6012130882812503,13.1279945125L2.6236596882812497,13.1785431125L2.6487532882812497,13.2280989125C2.73575938828125,13.3907858125,2.85970018828125,13.5147278125,3.02238728828125,13.6017328125C3.03030058828125,13.6059658125,3.03820608828125,13.6100918125,3.04612588828125,13.6141148125L3.09399178828125,13.6370238125C3.15851138828125,13.6659498125,3.22676638828125,13.6884798125,3.31005478828125,13.7055618125L3.37551618828125,13.7173678125L3.44767448828125,13.7272218125C3.49824758828125,13.7331578125,3.55399128828125,13.7378518125,3.61631778828125,13.7414238125L3.71492098828125,13.7459508125L3.82445808828125,13.7488818125L3.94598748828125,13.7503028125L15.98843898828125,13.7504778125L16.11636198828125,13.7497748125L16.23176298828125,13.7476098125L16.33569998828125,13.7438928125L16.42923398828125,13.7385328125C16.473576988281252,13.7354278125,16.514413988281248,13.7316738125,16.55234298828125,13.7272218125L16.62450098828125,13.7173678125L16.689962988281252,13.7055618125C16.783663988281248,13.6863438125,16.85833698828125,13.6602328125,16.93006898828125,13.6258748125L16.97763098828125,13.6017328125C17.14031998828125,13.5147278125,17.26425898828125,13.3907858125,17.35126498828125,13.2280989125C17.35549698828125,13.2201862125,17.35962298828125,13.2122803125,17.36364698828125,13.2043609125L17.38655498828125,13.1564951125C17.41548198828125,13.0919752125,17.43801098828125,13.0237207125,17.45509298828125,12.9404325125L17.46689998828125,12.8749704125L17.47675298828125,12.8028126125C17.48269098828125,12.7522392125,17.48738498828125,12.6964950125,17.49095498828125,12.6341696125L17.49548298828125,12.5355663125L17.49841298828125,12.4260292125L17.49983598828125,12.3044987125L17.50000998828125,6.0953817125L17.49930598828125,5.9674587125L17.49714298828125,5.852057912499999L17.49342298828125,5.7481203125L17.48806398828125,5.6545863125C17.48496098828125,5.6102438125,17.48120498828125,5.5694055124999995,17.47675298828125,5.5314758125L17.46689998828125,5.4593174125L17.45509298828125,5.393856012500001C17.43587498828125,5.3001566125,17.40976298828125,5.2254839125,17.37540798828125,5.1537512125L17.35126498828125,5.1061885125C17.26425898828125,4.9435015125,17.14031998828125,4.8195606125,16.97763098828125,4.7325545125C16.96971698828125,4.7283225125,16.96181298828125,4.7241958125,16.95389198828125,4.7201729125L16.90602498828125,4.6972643125C16.84150698828125,4.6683384125,16.773251988281253,4.6458088125,16.689962988281252,4.6287256125L16.62450098828125,4.6169196125L16.55234298828125,4.6070667125C16.50177198828125,4.6011295125,16.44602798828125,4.5964352125,16.38369998828125,4.5928647125L16.28509698828125,4.5883373125L16.175560988281248,4.5854069125L16.054030988281248,4.5839844124999996ZM1.31512379828125,15.8334088125L18.64389398828125,15.8330078125C18.81595598828125,15.8330078125,18.88558598828125,15.8523468125,18.95348698828125,15.8886608125C19.02138898828125,15.9249748125,19.07467798828125,15.9782638125,19.11099098828125,16.046164812500002C19.14730598828125,16.1140658125,19.16664498828125,16.183695812499998,19.16664498828125,16.3557588125L19.16664498828125,16.5602568125C19.16664498828125,16.732319812500002,19.14730598828125,16.8019498125,19.11099098828125,16.8698498125C19.07467798828125,16.9377518125,19.02138898828125,16.9910408125,18.95348698828125,17.0273548125C18.88558598828125,17.063668812499998,18.81595598828125,17.0830078125,18.64389398828125,17.0830078125L1.35606372828125,17.0830078125C1.18400102828125,17.0830078125,1.11437132828125,17.063668812499998,1.04647010828125,17.0273548125C0.97856887828125,16.9910408125,0.92527960228125,16.9377518125,0.88896562928125,16.8698498125C0.85567781928125,16.807607812500002,0.83665398348125,16.7439128125,0.83371450950125,16.6011968125L0.83331298828125,16.3557588125C0.83331298828125,16.183695812499998,0.85265165528125,16.1140658125,0.88896562928125,16.046164812500002C0.92527960228125,15.9782638125,0.97856887828125,15.9249748125,1.04647010828125,15.8886608125C1.10871287828125,15.8553728125,1.17240807828125,15.8363488125,1.31512379828125,15.8334088125Z" fill-rule="evenodd" fill="#FFFFFF" fill-opacity="1"/></g></g></g></svg>