<svg xmlns="http://www.w3.org/2000/svg" xmlns:xlink="http://www.w3.org/1999/xlink" fill="none" version="1.1" width="20" height="20" viewBox="0 0 20 20"><defs><clipPath id="master_svg0_4_56690"><rect x="0" y="0" width="20" height="20" rx="8"/></clipPath></defs><g clip-path="url(#master_svg0_4_56690)"><g><path d="M16,10C16,6.686291499999999,13.313708,4,10,4C8.2233977,4,6.626833899999999,4.7719078,5.527725,6C5.527725,6,7.5,6,7.5,6C7.7761426,6,8,6.2238576000000005,8,6.5C8,6.7761423999999995,7.7761426,7,7.5,7C7.5,7,4.5,7,4.5,7C4.2238576000000005,7,4,6.7761423999999995,4,6.5C4,6.5,4,3.5,4,3.5C4,3.22385761,4.2238576000000005,3,4.5,3C4.7761423999999995,3,5,3.22385761,5,3.5C5,3.5,5,5.1010938,5,5.1010938C6.270124,3.8049922,8.0409427,3,10,3C13.865993,3,17,6.1340067000000005,17,10C17,13.865993,13.865993,17,10,17C6.1340065,17,3,13.865993,3,10C3,9.8190956,3.0068731308,9.6397014,3.020384789,9.462073799999999C3.041331291,9.186727000000001,3.2815237,8.980494499999999,3.55687046,9.001440500000001C3.83221722,9.0223866,4.0384502,9.2625794,4.0175047,9.537926200000001C4.0059099,9.6903405,4,9.844432399999999,4,10C4,13.313708,6.6862917,16,10,16C13.313708,16,16,13.313708,16,10Z" fill="#FFFFFF" fill-opacity="1"/></g></g></svg>