<svg xmlns="http://www.w3.org/2000/svg" xmlns:xlink="http://www.w3.org/1999/xlink" fill="none" version="1.1" width="28" height="28" viewBox="0 0 28 28"><path d="M0 8C4.90527396329193e-16 3.5817220013536524 3.5817220013536533 0 8 0L20 0C24.418277998646346 0 28 3.5817220013536533 28 8L28 20C28 24.418277998646346 24.418277998646346 28 20 28L8 28C3.5817220013536533 28 0 24.418277998646346 0 20Z" fill="#6A6B6E" fill-opacity="1"/><g><path d="M16.04922198590088,7.67475796C15.90137098590088,7.09587196,15.379110385900878,6.6875,14.77764938590088,6.6875L13.22233148590088,6.6875L13.17501738590088,6.68834408338L13.126801485900879,6.6909499103C12.550634885900879,6.732681312,12.064351985900878,7.14899737,11.939869385900879,7.7208093L11.723718685900879,8.7128749L10.480593885900879,9.4189999L9.47159718590088,9.0982866L9.424149485900879,9.0841742C8.853622685900879,8.9260292,8.244659185900879,9.1700344,7.9425384959008785,9.6839428L7.182451695900879,10.9768529L7.157606045900879,11.0210247L7.133995625900879,11.0670891C6.877556035900879,11.592567899999999,6.999501311500879,12.2307711,7.443229075900879,12.6241493L8.20284388590088,13.297437200000001L8.20284388590088,14.7023745L7.443248625900879,15.3758335L7.405973615900879,15.4101715C6.968177437900879,15.8292418,6.873101685900879,16.496925400000002,7.182489665900879,17.023161L7.942572235900879,18.315981999999998L7.968450665900879,18.358175L7.996503415900879,18.400253C8.322501085900878,18.869474,8.91964818590088,19.077007000000002,9.471506385900879,18.90164L10.480593885900879,18.580812L11.723718685900879,19.286938L11.939869385900879,20.27919L11.950758485900879,20.325243C12.09860948590088,20.904127000000003,12.620870585900878,21.3125,13.22233148590088,21.3125L14.77764938590088,21.3125L14.824963585900878,21.311656L14.87317938590088,21.30905C15.449345585900879,21.267319,15.93562798590088,20.851003,16.06011108590088,20.27919L16.27603148590088,19.287125L17.51971898590088,18.580626000000002L18.528480985900877,18.901651L18.575926985900878,18.91576C19.14641298590088,19.073836999999997,19.75529898590088,18.829839,20.05740498590088,18.315989000000002L20.81748798590088,17.023168L20.84233398590088,16.978996000000002L20.865946985900877,16.93293C21.12240698590088,16.407443999999998,21.00046298590088,15.7692184,20.556719985900877,15.3758335L19.796905985900878,14.7021875L19.796905985900878,13.297625499999999L20.55673998590088,12.6241498L20.59401398590088,12.5898118C21.03180698590088,12.170752499999999,21.12689298590088,11.503083199999999,20.81752498590088,10.9768462L20.057442985900877,9.6839428L20.03156198590088,9.641744599999999L20.00350898590088,9.5996625C19.67749098590088,9.130393699999999,19.08027598590088,8.9228575,18.52838298590088,9.0982866L17.51915598590088,9.4189999L16.27603148590088,8.7126875L16.06011108590088,7.7208093L16.04922198590088,7.67475796ZM17.00001618590088,14Q17.00001618590088,14.1473808,16.985570885900877,14.2940512Q16.97112468590088,14.440722000000001,16.942371385900877,14.5852699Q16.913619085900876,14.7298193,16.87083718590088,14.8708534Q16.828054385900877,15.0118885,16.771654085900877,15.1480494Q16.71525478590088,15.2842121,16.64577958590088,15.4141903Q16.57630438590088,15.5441685,16.49442388590088,15.6667099Q16.41254518590088,15.7892532,16.31904698590088,15.9031792Q16.225550685900878,16.017107,16.121335985900878,16.121319800000002Q16.01712228590088,16.2255344,15.90319538590088,16.3190317Q15.78926948590088,16.412529,15.666726085900878,16.4944077Q15.544184685900879,16.5762882,15.414206485900879,16.645762400000002Q15.284228285900879,16.715237000000002,15.148065585900879,16.771637Q15.011903785900879,16.828037000000002,14.870869685900878,16.870820000000002Q14.729835485900878,16.913603000000002,14.585286185900879,16.942355Q14.44073818590088,16.971108,14.29406738590088,16.985554Q14.147397085900879,17,14.00001618590088,17Q13.85263638590088,17,13.705965085900878,16.985554999999998Q13.559293785900879,16.971108,13.414744885900879,16.942355Q13.27019598590088,16.913603000000002,13.12916178590088,16.870820000000002Q12.98812718590088,16.828038,12.851964985900878,16.771638Q12.715803185900878,16.715239,12.58582548590088,16.6457634Q12.45584728590088,16.5762882,12.33330438590088,16.4944077Q12.21076248590088,16.412529,12.096836085900879,16.3190317Q11.98290918590088,16.2255344,11.878695485900879,16.121319800000002Q11.774481785900878,16.017107,11.68098448590088,15.9031792Q11.58748718590088,15.7892532,11.50560668590088,15.6667099Q11.423726985900878,15.5441685,11.354252385900878,15.4141903Q11.28477768590088,15.2842121,11.22837738590088,15.1480484Q11.17197708590088,15.0118876,11.12919518590088,14.8708534Q11.086412385900879,14.7298193,11.057660085900878,14.5852699Q11.028907785900879,14.440722000000001,11.014462485900879,14.2940512Q11.000016485900879,14.1473808,11.00001618590088,14Q11.000016485900879,13.8526196,11.014462485900879,13.7059488Q11.028907785900879,13.5592775,11.057660085900878,13.414728199999999Q11.086412385900879,13.2701797,11.12919518590088,13.129145600000001Q11.17197708590088,12.988111499999999,11.22837738590088,12.8519492Q11.28477768590088,12.7157874,11.35425188590088,12.5858092Q11.423726985900878,12.4558315,11.50560668590088,12.3332887Q11.58748718590088,12.210746799999999,11.68098448590088,12.0968204Q11.774481785900878,11.9828935,11.878695485900879,11.8786793Q11.98290918590088,11.7744656,12.096836085900879,11.680968799999999Q12.21076248590088,11.587471,12.33330438590088,11.505590399999999Q12.45584728590088,11.4237108,12.58582548590088,11.3542361Q12.715803185900878,11.2847614,12.851964985900878,11.2283611Q12.98812718590088,11.1719618,13.129161385900879,11.129179Q13.27019598590088,11.0863972,13.414744385900878,11.057644400000001Q13.559293785900879,11.0288916,13.705965085900878,11.0144463Q13.85263638590088,11,14.00001618590088,11Q14.147397085900879,11,14.29406738590088,11.0144458Q14.44073818590088,11.0288916,14.585286185900879,11.0576439Q14.729835485900878,11.0863967,14.870869685900878,11.129179Q15.011903785900879,11.1719618,15.148065585900879,11.2283611Q15.284228285900879,11.2847614,15.414206485900879,11.3542361Q15.544184685900879,11.4237108,15.666726085900878,11.5055909Q15.78926948590088,11.5874715,15.90319538590088,11.680968799999999Q16.01712228590088,11.7744656,16.121335985900878,11.8786793Q16.225550685900878,11.9828935,16.31904698590088,12.0968199Q16.41254518590088,12.210746799999999,16.49442388590088,12.3332887Q16.57630438590088,12.4558315,16.64577958590088,12.5858092Q16.71525478590088,12.715786900000001,16.771654085900877,12.851948700000001Q16.828054385900877,12.988111,16.87083628590088,13.129145600000001Q16.913619085900876,13.2701797,16.942371385900877,13.414728199999999Q16.97112468590088,13.5592775,16.985570885900877,13.7059484Q17.00001618590088,13.8526196,17.00001618590088,14ZM15.68751618590088,14.0014648Q15.68751618590088,14.0843668,15.67939088590088,14.1668692Q15.671265585900878,14.249371100000001,15.655091285900879,14.330678899999999Q15.638918885900878,14.4119883,15.614853885900878,14.4913197Q15.59078888590088,14.5706515,15.559062985900878,14.6472421Q15.52733898590088,14.7238331,15.48825928590088,14.7969456Q15.449179685900878,14.8700581,15.403120985900879,14.9389877Q15.35706428590088,15.0079193,15.30447098590088,15.0720034Q15.251879685900878,15.1360874,15.193258285900878,15.1947069Q15.13463878590088,15.2533283,15.07055568590088,15.3059206Q15.00647068590088,15.3585129,14.937540485900879,15.4045696Q14.868610885900878,15.4506283,14.795497885900879,15.489707Q14.722385385900878,15.5287857,14.64579388590088,15.5605106Q14.56920338590088,15.5922365,14.48987198590088,15.6163025Q14.410539585900878,15.6403675,14.32923078590088,15.6565399Q14.247922885900879,15.6727142,14.165420485900878,15.6808395Q14.08291818590088,15.6889648,14.00001618590088,15.6889648Q13.91711518590088,15.6889648,13.834612885900878,15.6808395Q13.752109485900878,15.6727142,13.670800685900879,15.6565399Q13.589492285900878,15.6403675,13.510160885900879,15.6163015Q13.430829085900879,15.5922365,13.35423758590088,15.5605106Q13.27764698590088,15.5287857,13.204534085900878,15.489707Q13.131421085900879,15.4506283,13.062490485900879,15.4045696Q12.993560785900879,15.3585129,12.929477185900879,15.3059206Q12.86539368590088,15.2533283,12.80677318590088,15.1947069Q12.748153185900879,15.1360874,12.695560885900878,15.0720034Q12.642968685900879,15.0079193,12.596910485900878,14.9389887Q12.55085368590088,14.8700581,12.511774085900878,14.7969465Q12.47269438590088,14.7238331,12.440968985900879,14.6472421Q12.409244585900879,14.5706515,12.385179485900878,14.4913197Q12.36111448590088,14.4119883,12.344941185900879,14.330678899999999Q12.328768285900878,14.249371100000001,12.32064248590088,14.1668687Q12.31251618590088,14.0843668,12.31251618590088,14.0014648Q12.31251618590088,13.918563800000001,12.32064248590088,13.8360605Q12.328768285900878,13.7535582,12.344941185900879,13.6722493Q12.36111498590088,13.5909405,12.38517998590088,13.511609100000001Q12.40924498590088,13.4322767,12.44096948590088,13.3556857Q12.472694885900879,13.2790952,12.511774085900878,13.2059827Q12.55085368590088,13.1328697,12.596910485900878,13.063939600000001Q12.642968685900879,12.9950099,12.695560885900878,12.9309263Q12.748153185900879,12.8668423,12.80677318590088,12.8082218Q12.86539368590088,12.7496018,12.929477685900878,12.697009600000001Q12.993561285900878,12.6444178,13.06249098590088,12.5983596Q13.131421085900879,12.5523024,13.20453358590088,12.513223199999999Q13.277646585900879,12.4741435,13.354237085900879,12.442418100000001Q13.43082808590088,12.4106936,13.51016048590088,12.3866282Q13.589491885900879,12.3625631,13.670800685900879,12.3463898Q13.752109485900878,12.330216400000001,13.83461238590088,12.3220911Q13.91711518590088,12.3139648,14.00001618590088,12.3139648Q14.08291818590088,12.3139648,14.165420485900878,12.3220906Q14.247922885900879,12.330216400000001,14.329231285900878,12.3463893Q14.410540585900879,12.3625631,14.489872485900879,12.3866282Q14.56920388590088,12.4106932,14.645794385900878,12.442417599999999Q14.722385385900878,12.474143,14.795498385900878,12.5132227Q14.86861128590088,12.5523024,14.937540985900878,12.5983591Q15.00647158590088,12.6444173,15.07055568590088,12.697009600000001Q15.134639785900879,12.7496018,15.19325928590088,12.8082218Q15.251879685900878,12.8668423,15.304471985900879,12.9309258Q15.35706428590088,12.9950099,15.403120985900879,13.063939600000001Q15.449179685900878,13.1328697,15.48825928590088,13.205982200000001Q15.52733898590088,13.2790952,15.559062985900878,13.3556857Q15.59078888590088,13.4322767,15.614853885900878,13.511609100000001Q15.638918885900878,13.5909405,15.655091285900879,13.6722493Q15.671265585900878,13.7535582,15.67939088590088,13.836061Q15.68751618590088,13.918563800000001,15.68751618590088,14.0014648Z" fill-rule="evenodd" fill="#FFFFFF" fill-opacity="1"/></g></svg>
