<svg xmlns="http://www.w3.org/2000/svg" xmlns:xlink="http://www.w3.org/1999/xlink" fill="none" version="1.1" width="20" height="20" viewBox="0 0 20 20"><g><path d="M14.833415046875,4C16.214127046875,4,17.333415046875,5.1192882,17.333415046875,6.5L17.333415046875,13.5C17.333415046875,14.880713,16.214127046875,16,14.833415046875,16L5.166748046875,16C3.7860362468749997,16,2.666748046875,14.880713,2.666748046875,13.5L2.666748046875,6.5C2.666748046875,5.1192882,3.7860362468749997,4,5.166748046875,4L14.833415046875,4ZM13.999919046875,6.8334961L5.999918746875,6.8334961C5.631728846875,6.8334961,5.333251946875,7.131973,5.333251946875,7.5001628C5.333251946875,7.8683527,5.631728846875,8.1668296,5.999918746875,8.1668296L13.999919046875,8.1668296C14.368109046875,8.1668296,14.666586046875,7.8683527,14.666586046875,7.5001628C14.666586046875,7.131973,14.368109046875,6.8334961,13.999919046875,6.8334961ZM11.999918946875,9.3334961L5.999918746875,9.3334961C5.631728846875,9.3334961,5.333251946875,9.6319728,5.333251946875,10.0001626C5.333251946875,10.3683529,5.631728846875,10.6668296,5.999918746875,10.6668296L11.999918946875,10.6668296C12.368108746875,10.6668296,12.666585946875,10.3683529,12.666585946875,10.0001626C12.666585946875,9.6319728,12.368108746875,9.3334961,11.999918946875,9.3334961ZM11.000000046875,12.8334961Q11.000000046875,12.9319878,10.980784446875,13.0285864Q10.961568846875,13.125185,10.923877746875,13.2161789Q10.886186646875,13.3071728,10.831468546875,13.3890657Q10.776749646875,13.4709587,10.707105646875,13.5406027Q10.637461646875,13.6102467,10.555568646874999,13.6649666Q10.473676246875,13.7196846,10.382682346875,13.7573757Q10.291687946875001,13.7950668,10.195089346875001,13.8142815Q10.098490746875001,13.8334961,10.000000046875,13.8334961Q9.901508346875,13.8334961,9.804909246874999,13.8142815Q9.708310146875,13.7950668,9.617315746875,13.7573757Q9.526321446875,13.7196846,9.444428946875,13.6649666Q9.362536446875,13.6102467,9.292892446875001,13.5406027Q9.223248446875001,13.4709587,9.168529546875,13.3890657Q9.113810546875001,13.3071728,9.076119946875,13.2161789Q9.038428746874999,13.125185,9.019214146875001,13.0285864Q9.000000046875,12.9319878,9.000000046875,12.8334961Q9.000000046875,12.7350044,9.019214146875001,12.6384048Q9.038428746874999,12.5418053,9.076119946875,12.4508114Q9.113810546875001,12.3598175,9.168529546875,12.2779255Q9.223248446875001,12.1960325,9.292892446875001,12.1263885Q9.362536446875,12.0567446,9.444428946875,12.0020256Q9.526321446875,11.947306600000001,9.617315746875,11.909616Q9.708310146875,11.8719254,9.804909246874999,11.8527107Q9.901508346875,11.8334961,10.000000046875,11.8334961Q10.098490746875001,11.8334961,10.195089346875001,11.8527107Q10.291688446875,11.8719254,10.382682846875,11.909616Q10.473676646874999,11.947306600000001,10.555569646875,12.0020256Q10.637462646875,12.0567446,10.707106546875,12.1263885Q10.776750546875,12.1960325,10.831468546875,12.2779255Q10.886186646875,12.3598175,10.923877746875,12.4508114Q10.961568846875,12.5418053,10.980784446875,12.6384048Q11.000000046875,12.7350044,11.000000046875,12.8334961Z" fill-rule="evenodd" fill="#FFFFFF" fill-opacity="0.8999999761581421"/></g></svg>