<svg xmlns="http://www.w3.org/2000/svg" xmlns:xlink="http://www.w3.org/1999/xlink" fill="none" version="1.1" width="20" height="20" viewBox="0 0 20 20"><path d="M1.1799925975,9.47232056875Q1.2811144575,9.24320936875,1.3555013275,9.09563636875C2.9893024375,5.85441136875,6.3240399375,3.76904296875,10.0091638375,3.76904296875C13.6435649375,3.76904296875,16.937155937500002,5.79739756875,18.5943969375,8.962452868749999Q18.6943719375,9.15338896875,18.8332209375,9.465703968749999C18.9831999375,9.80305716875,18.9831999375,10.19656516875,18.8332199375,10.53391886875Q18.6943719375,10.84623436875,18.5943969375,11.03716996875C16.937155937500002,14.20222696875,13.6435629375,16.230580968749997,10.0091638375,16.230580968749997C6.3240399375,16.230580968749997,2.9893026375,14.14521196875,1.3555013275,10.90398696875Q1.2811144575,10.75641436875,1.1799925975,10.527302768750001C1.0324411545,10.192994568749999,1.0324410905,9.806627768750001,1.1799925975,9.47232056875ZM14.8552749375,9.999812168750001C14.8552749375,12.67626956875,12.6855779375,14.84596596875,10.0091219375,14.84596596875C7.3326649375,14.84596596875,5.1629681375,12.67626956875,5.1629681375,9.999812168750001C5.1629681375,7.32335546875,7.3326649375,5.1536583687499995,10.0091219375,5.1536583687499995C12.6855779375,5.1536583687499995,14.8552749375,7.32335546875,14.8552749375,9.999812168750001ZM13.4619129375,9.999812168750001C13.4619129375,11.91156766875,11.9121299375,13.46135136875,10.0003748375,13.46135136875C8.0886197375,13.46135136875,6.5388369375,11.91156766875,6.5388369375,9.999812168750001C6.5388369375,8.08805706875,8.0886197375,6.53827376875,10.0003748375,6.53827376875C11.9121299375,6.53827376875,13.4619129375,8.08805706875,13.4619129375,9.999812168750001ZM10.0003748375,8.61519716875C10.0003748375,9.37989906875,9.3804617375,9.999812168750001,8.6157598375,9.999812168750001C7.8510575375,9.999812168750001,7.2311444375,9.37989906875,7.2311444375,8.61519716875C7.2311444375,7.85049486875,7.8510575375,7.23058156875,8.6157598375,7.23058156875C9.3804617375,7.23058156875,10.0003748375,7.85049486875,10.0003748375,8.61519716875Z" fill-rule="evenodd" fill="#FFFFFF" fill-opacity="0.8999999761581421"/></svg>