<svg xmlns="http://www.w3.org/2000/svg" xmlns:xlink="http://www.w3.org/1999/xlink" fill="none" version="1.1" width="20" height="20" viewBox="0 0 20 20"><g><path d="M14.148232046875,3.933820858376465L14.414042046875,4.134958478376465C16.239029046875,5.515922448376465,17.333412046875,7.6655745483764655,17.333412046875,9.995742748376465C17.333412046875,12.301059748376465,16.262016046875,14.430277648376466,14.472894046875,15.811094648376464L14.400137046875,15.866535648376464L14.134605046875,16.066359648376466C13.987510046875,16.177057648376465,13.778528046875,16.147549648376465,13.667831046875,16.000452648376466L13.266963046875,15.467772648376465C13.156266046875,15.320676648376464,13.185774046875,15.111695648376465,13.332869046875,15.000997648376465L13.599210046875,14.800562648376465C15.100340046875,13.670891748376464,16.000078046875,11.908286048376464,16.000078046875,9.995742748376465C16.000078046875,8.117317248376466,15.132366046875,6.384004348376465,13.678089046875,5.250871448376465L13.608552046875,5.1974864483764645L13.343682046875,4.997059548376464C13.196879046875,4.885974248376465,13.167925046875,4.676914868376465,13.279010046875,4.530112268376465L13.681285046875,3.9984929283764648C13.792371046875,3.8516902893764646,14.001430046875,3.822735622376465,14.148232046875,3.933820858376465ZM6.716079246875,4.529659328376464L6.313443946875,3.9983126783764646C6.202259046875,3.851585362376465,5.9931800468750005,3.822772357376465,5.846452746875,3.9339570403764648L5.581584446875,4.134664858376465L5.509249646875,4.190162778376465C3.730516146875,5.572272748376465,2.666748046875,7.694975648376465,2.666748046875,9.993288048376465C2.666748046875,12.328128848376465,3.764835546875,14.482334648376465,5.593852946875,15.860697648376465L5.860057846875,16.061311648376467C6.007078846875,16.172108648376465,6.216080646875,16.142742648376466,6.326877146875,15.995721648376465L6.728105546875,15.463312648376466C6.838901546875,15.316290648376464,6.809535946875,15.107289648376465,6.662514646875,14.996492648376465L6.3972554468750005,14.796590648376466L6.327590746875,14.743321648376465C4.870718046875,13.612599348376465,4.000081446875,11.875641848376464,4.000081446875,9.993288048376465C4.000081446875,8.086287548376465,4.893449746875,6.329006948376465,6.386049946875,5.197968048376465L6.651723346875,4.996650348376464C6.798450946875,4.885465648376465,6.827263846875,4.676386598376465,6.716079246875,4.529659328376464ZM12.328627546875,6.438181448376465L12.588604946875,6.646802448376465C13.576374046875,7.439445048376465,14.166657046875,8.670003848376464,14.166657046875,9.997596248376464C14.166657046875,11.302099248376464,13.596703046875,12.512918448376466,12.639232646875,13.308228448376465L12.582424146875,13.354562748376464L12.323453946875,13.562102348376465C12.179798146875,13.677227948376466,11.970013646875,13.654099448376465,11.854887946875,13.510444648376465L11.437979746875,12.990221048376466C11.322854046875,12.846566248376465,11.345981646875,12.636781648376465,11.489637346875,12.521655048376465L11.749749146875,12.313201948376465C12.425115546875,11.771961248376464,12.833323046875,10.922386148376464,12.833323046875,9.997596248376464C12.833323046875,9.096860848376465,12.446124046875,8.267700148376464,11.802845046875,7.726741348376464L11.752627346875,7.685514248376465L11.494143446875,7.4780919483764645C11.350561146875,7.362873748376465,11.327568046875,7.153074948376465,11.442787146875,7.0094933483764645L11.860029246875,6.489537948376465C11.975247346875,6.345956348376465,12.185046146875,6.322963248376465,12.328627546875,6.438181448376465ZM8.344404246875001,6.508516748376465L8.731041946875,7.051615248376464C8.837808646875,7.201587648376465,8.802783946875,7.409716148376464,8.652811546875,7.516483348376465L8.381262346875001,7.709801948376465C7.618852646875,8.252569648376465,7.166585446875,9.091358148376464,7.166585446875,9.997542348376465C7.166585446875,10.883466748376465,7.600742346875,11.706783248376464,8.335004346875,12.252749448376465L8.388100146875,12.291371348376465L8.658209346875001,12.483786548376465C8.808150246875,12.590598148376465,8.843112946875,12.798736548376464,8.736301946874999,12.948677048376465L8.349503046875,13.491661048376464C8.242691546875001,13.641601548376466,8.034552546875,13.676565148376465,7.884612046875,13.569753648376464L7.613120046875,13.376354248376465C6.503998246875,12.586262748376464,5.833251946875,11.345394148376464,5.833251946875,9.997542348376465C5.833251946875,8.675021648376465,6.477296346875001,7.456511448376465,7.548062346875,6.667022248376465L7.609117046875,6.622800548376465L7.879536146875,6.4302864483764655C8.029508546875,6.323519448376465,8.237637046875001,6.358544348376465,8.344404246875001,6.508516748376465ZM9.999918946874999,11.166897248376465Q10.057233846875,11.166897248376465,10.114272146874999,11.161279648376464Q10.171310946875,11.155661548376465,10.227523846875,11.144479748376465Q10.283737646875,11.133298848376466,10.338584446875,11.116661048376464Q10.393430746875,11.100023248376464,10.446382046875,11.078089248376465Q10.499334346875,11.056156148376465,10.549881446875,11.029137648376466Q10.600428546875001,11.002120048376465,10.648083646875001,10.970277348376465Q10.695739746875,10.938435548376464,10.740043646875,10.902075748376465Q10.784349446875,10.865715948376465,10.824876746875,10.825188148376466Q10.865404146875,10.784660848376465,10.901763946875,10.740355448376466Q10.938123746875,10.696051148376466,10.969965946875,10.648395548376465Q11.001808146875,10.600740448376465,11.028825746875,10.550193748376465Q11.055844346875,10.499646148376465,11.077777846875,10.446693848376466Q11.099712346875,10.393742548376466,11.116349246875,10.338895748376466Q11.132987046875,10.284049048376465,11.144167946875,10.227835648376466Q11.155349746875,10.171622748376464,11.160967846875,10.114583948376465Q11.166585946875,10.057545648376465,11.166585946875,10.000230748376465Q11.166585946875,9.942915948376465,11.160967846875,9.885877148376466Q11.155349746875,9.828838348376465,11.144167946875,9.772624448376465Q11.132987046875,9.716411548376465,11.116350146875,9.661564848376464Q11.099712346875,9.606718048376464,11.077777846875,9.553766248376466Q11.055844346875,9.500814448376465,11.028825746875,9.450267748376465Q11.001808146875,9.399720648376466,10.969965946875,9.352065048376465Q10.938123746875,9.304409948376465,10.901763946875,9.260105148376464Q10.865404146875,9.215800248376464,10.824876746875,9.175272448376464Q10.784349446875,9.134745148376464,10.740043646875,9.098384848376465Q10.695738746875,9.062025048376466,10.648083246875,9.030182348376464Q10.600428146875,8.998340648376466,10.549881446875,8.971322048376464Q10.499334346875,8.944304448376464,10.446382046875,8.922370448376466Q10.393430746875,8.900437348376464,10.338584446875,8.883800048376465Q10.283737646875,8.867162748376465,10.227523846875,8.855980848376465Q10.171310946875,8.844799548376464,10.114272546875,8.839181948376464Q10.057233846875,8.833563848376464,9.999918946874999,8.833563848376464Q9.942604546875,8.833563848376464,9.885565746874999,8.839181948376464Q9.828526946875,8.844799548376464,9.772313146875,8.855980848376465Q9.716099746874999,8.867162748376465,9.661252946874999,8.883800048376465Q9.606406246875,8.900437348376464,9.553453946874999,8.922370948376464Q9.500502546875001,8.944304448376464,9.449955446875,8.971322548376465Q9.399408346875,8.998340648376466,9.351752746875,9.030182848376466Q9.304097646875,9.062025048376466,9.259792846875001,9.098384848376465Q9.215488446875,9.134745148376464,9.174960646875,9.175272448376464Q9.134433246875,9.215800248376464,9.098073046875001,9.260104648376466Q9.061713246875,9.304409948376465,9.029870046875,9.352064648376466Q8.998027846875,9.399720148376465,8.971010246875,9.450267348376464Q8.943992146875,9.500814448376465,8.922058546875,9.553766248376466Q8.900125546875,9.606718048376464,8.883488146874999,9.661564848376464Q8.866850846875,9.716411548376465,8.855669046875,9.772624948376464Q8.844488146875001,9.828838348376465,8.838870046875,9.885877148376466Q8.833252446875,9.942915948376465,8.833251946875,10.000230748376465Q8.833252446875,10.057545648376465,8.838870046875,10.114584448376466Q8.844488146875001,10.171622748376464,8.855669046875,10.227835648376466Q8.866850846875,10.284049048376465,8.883488646875,10.338896248376464Q8.900125546875,10.393742548376466,8.922058546875,10.446694348376464Q8.943992146875,10.499647148376464,8.971010246875,10.550193748376465Q8.998027846875,10.600740948376465,9.029870046875,10.648395548376465Q9.061712746875,10.696051548376465,9.098073046875001,10.740356948376466Q9.134432746875,10.784661248376466,9.174960146875,10.825188648376464Q9.215487946875001,10.865716948376464,9.259792346874999,10.902076748376466Q9.304097146875,10.938436548376465,9.351752246875,10.970278248376465Q9.399408346875,11.002120948376465,9.449955946875,11.029139048376464Q9.500502546875001,11.056157148376464,9.553453946874999,11.078089748376465Q9.606406246875,11.100023748376465,9.661252946874999,11.116661048376464Q9.716099746874999,11.133298848376466,9.772313146875,11.144479748376465Q9.828526946875,11.155661548376465,9.885565746874999,11.161279648376464Q9.942604546875,11.166897248376465,9.999918946874999,11.166897248376465Z" fill-rule="evenodd" fill="#FFFFFF" fill-opacity="0.8999999761581421"/></g></svg>