<svg xmlns="http://www.w3.org/2000/svg" xmlns:xlink="http://www.w3.org/1999/xlink" fill="none" version="1.1" width="20" height="20" viewBox="0 0 20 20"><g style="opacity:0.8999999761581421;"><g><path d="M7.000091593359375,10Q7.000091593359375,10.1908445,7.013026693359375,10.381250399999999Q7.025961893359375,10.5716562,7.051772093359375,10.760747Q7.077582793359375,10.9498382,7.116150393359375,11.1367455Q7.154717493359375,11.3236523,7.205864393359375,11.507515399999999Q7.257011393359375,11.6913786,7.320502293359375,11.8713522Q7.383994093359375,12.0513268,7.459537493359375,12.2265835Q7.535080893359375,12.4018402,7.622328793359375,12.5715742Q7.709576593359375,12.7413073,7.808128393359375,12.9047365Q7.906680093359375,13.0681667,8.016082293359375,13.2245407Q8.125484493359375,13.3809147,8.245233493359375,13.5295143Q8.364982593359375,13.678113,8.494527793359374,13.8182545Q8.624072993359375,13.958395,8.762819293359374,14.0894346Q8.901565593359376,14.2204742,9.048874393359375,14.3418074Q9.196183193359374,14.463141,9.351376493359375,14.574212Q9.506570793359375,14.685283,9.668935793359374,14.785579Q9.831300693359376,14.885876,10.000089693359374,14.974936Q9.393252893359374,15.295134,8.727238693359375,15.460067Q8.061224893359375,15.625,7.375091593359375,15.625Q7.237005193359375,15.625,7.099086293359375,15.618225Q6.961166393359375,15.611448,6.823745293359375,15.597915Q6.686324093359375,15.584379,6.549732193359375,15.564118Q6.413140793359375,15.543856,6.277708093359375,15.516917Q6.142275293359375,15.489978,6.008327993359375,15.456426Q5.874380093359375,15.422874,5.742240193359375,15.38279Q5.610100293359375,15.342705,5.480086093359375,15.296185Q5.350071893359376,15.249664,5.222496993359375,15.196821Q5.094922093359375,15.143978,4.970094193359375,15.084938Q4.845265893359375,15.025899,4.7234847933593755,14.960806Q4.601703693359375,14.895713,4.483263493359376,14.824722Q4.364822893359375,14.753733,4.250008593359375,14.677015Q4.135194293359374,14.600299,4.024282693359375,14.518042Q3.913371093359375,14.435783,3.806629193359375,14.3481827Q3.699887293359375,14.260581,3.597572293359375,14.1678486Q3.495257393359375,14.0751152,3.3976157933593747,13.9774742Q3.299974193359375,13.8798332,3.207241393359375,13.7775173Q3.114508493359375,13.6752024,3.026907693359375,13.5684605Q2.939306893359375,13.4617186,2.8570490933593753,13.3508072Q2.774791393359375,13.2398949,2.698074873359375,13.1250811Q2.621358393359375,13.0102673,2.550368073359375,12.8918266Q2.479377683359375,12.773386,2.414284403359375,12.6516056Q2.349191133359375,12.5298252,2.290151713359375,12.4049969Q2.231112363359375,12.280168100000001,2.178269113359375,12.1525931Q2.1254259033593748,12.0250187,2.078906153359375,11.895004700000001Q2.032386363359375,11.7649908,1.9923021333593751,11.632850600000001Q1.952217873359375,11.5007105,1.918665733359375,11.3667622Q1.885113563359375,11.2328148,1.858174343359375,11.0973825Q1.831235095359375,10.9619493,1.810973677359375,10.825358399999999Q1.790712259359375,10.688767,1.777177464359375,10.551346299999999Q1.763642669359375,10.413925200000001,1.756867111159375,10.2760053Q1.750091552739375,10.138085799999999,1.750091552739375,10Q1.750091552739375,9.861913699999999,1.756867110759375,9.723994300000001Q1.763642668359375,9.586074799999999,1.777177462359375,9.448653700000001Q1.790712256359375,9.3112326,1.810973674359375,9.174640700000001Q1.831235095359375,9.0380497,1.858174333359375,8.9026165Q1.885113563359375,8.7671838,1.918665723359375,8.633235899999999Q1.952217873359375,8.4992886,1.992302153359375,8.3671484Q2.032386393359375,8.2350082,2.078906153359375,8.104994099999999Q2.1254259033593748,7.9749799,2.178269113359375,7.8474052Q2.231112363359375,7.7198305000000005,2.290151773359375,7.5950022Q2.349191193359375,7.4701740999999995,2.414284463359375,7.3483932Q2.479377743359375,7.2266121000000005,2.550368133359375,7.1081717Q2.621358513359375,6.9897316,2.6980749333593748,6.8749173Q2.774791493359375,6.760103,2.8570490933593753,6.649191399999999Q2.939306893359375,6.5382795,3.026907693359375,6.4315376Q3.114508493359375,6.3247957,3.207241293359375,6.2224807Q3.299974193359375,6.1201657,3.3976157933593747,6.0225242Q3.495257393359375,5.9248826999999995,3.597572293359375,5.8321499Q3.699887293359375,5.7394169999999995,3.806629193359375,5.6518161Q3.913371093359375,5.5642152,4.024282493359375,5.4819576Q4.135194293359374,5.3996998000000005,4.250008593359375,5.32298332Q4.364822893359375,5.24626684,4.483263493359376,5.17527652Q4.601703693359375,5.10428607,4.7234847933593755,5.03919286Q4.845265893359375,4.97409952,4.9700939933593755,4.91506016Q5.094922093359375,4.85602081,5.222496993359375,4.80317757Q5.350071893359376,4.75033435,5.480086093359375,4.7038146Q5.610100293359375,4.65729484,5.742240393359375,4.6172106Q5.874380593359375,4.57712634,6.008328393359375,4.54357418Q6.142275793359375,4.51002201,6.277708493359375,4.48308278Q6.413141293359375,4.456143543,6.549732693359375,4.435882121Q6.686324093359375,4.4156207,6.823745693359375,4.40208591Q6.961166393359375,4.388551116,7.099085793359375,4.381775558Q7.237005193359375,4.375,7.375091593359375,4.375Q8.061224893359375,4.375,8.727238693359375,4.53993396Q9.393252893359374,4.70486793,10.000089693359374,5.02506357Q9.831300693359376,5.11412448,9.668935793359374,5.2144207399999996Q9.506570793359375,5.3147170500000005,9.351376993359375,5.4257874Q9.196183193359374,5.5368578,9.048874393359375,5.6581914Q8.901565993359375,5.7795252,8.762819793359375,5.9105641Q8.624073993359374,6.0416031,8.494528293359375,6.1817446Q8.364982593359375,6.3218861,8.245233493359375,6.470485699999999Q8.125484493359375,6.6190853,8.016082293359375,6.7754593Q7.906680093359375,6.9318335,7.808128393359375,7.0952632Q7.709576593359375,7.2586927,7.622328293359375,7.4284263Q7.535079993359375,7.5981597999999995,7.459536593359375,7.7734163Q7.383993193359375,7.948672800000001,7.320502293359375,8.1286469Q7.257011393359375,8.3086205,7.205863993359375,8.4924836Q7.154717493359375,8.676346800000001,7.116150393359375,8.8632536Q7.077582793359375,9.0501609,7.051772093359375,9.2392521Q7.025961893359375,9.4283438,7.013026693359375,9.618749600000001Q7.000091593359375,9.8091555,7.000091593359375,10ZM10.000093493359374,14.974936Q10.777659393359375,14.564657,11.392949093359375,13.9366798Q11.994627693359375,14.125,12.625091693359375,14.125Q12.726354693359376,14.125,12.827495693359374,14.1200314Q12.928636693359374,14.1150627,13.029412693359374,14.1051369Q13.130187693359375,14.095211,13.230354693359375,14.0803528Q13.330520693359375,14.0654945,13.429837693359374,14.0457382Q13.529155693359375,14.0259838,13.627383693359375,14.001379Q13.725612693359375,13.9767742,13.822514693359375,13.9473782Q13.919417693359375,13.9179831,14.014760693359374,13.8838682Q14.110104693359375,13.8497534,14.203658693359374,13.8110018Q14.297214693359376,13.7722492,14.388753693359375,13.7289543Q14.480294693359374,13.6856594,14.569600693359375,13.6379242Q14.658906693359375,13.590189,14.745763693359375,13.5381298Q14.832619693359375,13.4860706,14.916816693359374,13.4298115Q15.001014693359375,13.3735523,15.082349693359374,13.3132305Q15.163684693359375,13.2529087,15.241963693359375,13.1886683Q15.320239693359374,13.1244278,15.395271693359375,13.0564232Q15.470302693359375,12.9884186,15.541906693359374,12.9168148Q15.613509693359376,12.845211,15.681514693359375,12.7701797Q15.749517693359374,12.6951494,15.813758693359375,12.6168718Q15.877998693359375,12.5385952,15.938320693359374,12.4572592Q15.998642693359375,12.3759241,16.054900693359375,12.2917266Q16.111160693359373,12.2075291,16.163219693359373,12.120673199999999Q16.215279693359374,12.033817299999999,16.263015693359375,11.9445114Q16.310750693359374,11.8552051,16.354045693359375,11.763664200000001Q16.397340693359375,11.6721234,16.436092693359377,11.5785685Q16.474843693359375,11.485014,16.508959693359373,11.3896704Q16.543073693359375,11.2943268,16.572469693359373,11.1974239Q16.601863693359377,11.1005211,16.626469693359375,11.0022931Q16.651073693359375,10.9040642,16.670829693359373,10.8047471Q16.690584693359376,10.70543,16.705443693359374,10.6052628Q16.720302693359375,10.5050964,16.730228693359376,10.4043207Q16.740153693359375,10.303545,16.745122693359377,10.202404Q16.750091693359373,10.101263,16.750091693359373,10Q16.750091693359373,9.898737,16.745121693359373,9.797596Q16.740153693359375,9.696455,16.730228693359376,9.5956798Q16.720302693359375,9.4949045,16.705443693359374,9.3947372Q16.690584693359376,9.29457,16.670829693359373,9.195252400000001Q16.651073693359375,9.0959349,16.626469693359375,8.9977064Q16.601863693359377,8.899478,16.572469693359373,8.8025756Q16.543073693359375,8.7056723,16.508959693359373,8.6103287Q16.474843693359375,8.5149851,16.436092693359377,8.4214306Q16.397340693359375,8.3278756,16.354045693359375,8.236335Q16.310749693359377,8.1447942,16.263014693359374,8.0554883Q16.215278693359373,7.9661822,16.163219693359373,7.8793258999999995Q16.111160693359373,7.7924695,16.054900693359375,7.7082725Q15.998642693359375,7.624075400000001,15.938319693359375,7.5427401Q15.877998693359375,7.4614048,15.813758693359375,7.3831277Q15.749517693359374,7.3048500999999995,15.681513693359374,7.2298193Q15.613509693359376,7.1547883,15.541906693359374,7.0831845Q15.470302693359375,7.0115807,15.395271693359375,6.9435766Q15.320239693359374,6.875572399999999,15.241963693359375,6.8113317Q15.163684693359375,6.7470913,15.082349693359374,6.686768799999999Q15.001014693359375,6.6264462,14.916816693359374,6.570187600000001Q14.832619693359375,6.5139289,14.745763693359375,6.461869200000001Q14.658906693359375,6.4098098,14.569601693359376,6.3620746Q14.480294693359374,6.3143395,14.388754693359376,6.271044Q14.297214693359376,6.2277484,14.203658693359374,6.1889968Q14.110104693359375,6.1502452000000005,14.014760693359374,6.1161306Q13.919417693359375,6.0820162,13.822514693359375,6.0526211Q13.725612693359375,6.023226,13.627383693359375,5.998621Q13.529155693359375,5.9740162,13.429837693359374,5.9542607Q13.330520693359375,5.9345052,13.230354693359375,5.9196466999999995Q13.130187693359375,5.9047885,13.029412693359374,5.894863Q12.928636693359374,5.8849374999999995,12.827495693359374,5.8799686Q12.726354693359376,5.875,12.625091693359375,5.875Q11.994628693359376,5.875,11.392948193359375,6.06332Q10.777658493359375,5.435342,10.000091593359375,5.0250628Q10.606929793359376,4.70486751,11.272943493359374,4.53993376Q11.938957693359376,4.375,12.625091693359375,4.375Q12.763176693359375,4.375,12.901096693359374,4.381775558Q13.039016693359375,4.388551116,13.176438693359374,4.40208591Q13.313859693359374,4.4156207,13.450450693359375,4.435882121Q13.587041693359375,4.456143543,13.722473693359374,4.48308278Q13.857906693359375,4.51002201,13.991854693359375,4.54357418Q14.125801693359374,4.57712634,14.257942693359375,4.6172106Q14.390081693359376,4.65729484,14.520094693359376,4.7038146Q14.650108693359375,4.75033435,14.777683693359375,4.80317757Q14.905257693359374,4.85602081,15.030086693359374,4.91506016Q15.154914693359375,4.97409958,15.276696693359375,5.03919291Q15.398477693359375,5.10428619,15.516916693359375,5.17527652Q15.635356693359375,5.2462669,15.750171693359375,5.32298338Q15.864986693359375,5.3996998000000005,15.975897693359375,5.4819576Q16.086808693359373,5.5642153,16.193551693359375,5.6518162Q16.300293693359375,5.7394171,16.402608693359376,5.8321499Q16.504924693359374,5.9248826999999995,16.602565693359374,6.0225242Q16.700206693359377,6.1201657,16.792939693359376,6.2224807Q16.885673693359376,6.3247957,16.973274693359375,6.4315376Q17.060874693359374,6.5382795,17.143132693359377,6.6491910999999995Q17.225390693359373,6.7601027,17.302106693359377,6.874917Q17.378823693359376,6.9897313,17.449813693359374,7.1081717Q17.520803693359376,7.2266121000000005,17.585897693359374,7.348393Q17.650991693359373,7.4701737999999995,17.710029693359374,7.5950022Q17.769069693359373,7.7198305000000005,17.821912693359376,7.8474052Q17.874755693359376,7.9749799,17.921275693359377,8.1049943Q17.967796693359375,8.2350082,18.007880693359375,8.3671484Q18.047963693359375,8.4992886,18.081516693359376,8.633235899999999Q18.115068693359376,8.7671838,18.142007693359375,8.9026165Q18.168948693359376,9.0380497,18.189208693359376,9.174641099999999Q18.209472693359373,9.3112326,18.223007693359374,9.448653700000001Q18.236541693359374,9.586074799999999,18.243316693359375,9.723994300000001Q18.250091693359376,9.861913699999999,18.250091693359376,10Q18.250091693359376,10.138085799999999,18.243316693359375,10.276005699999999Q18.236541693359374,10.413925200000001,18.223007693359374,10.551346299999999Q18.209472693359373,10.688767,18.189208693359376,10.825358399999999Q18.168948693359376,10.9619493,18.142007693359375,11.0973825Q18.115068693359376,11.2328148,18.081516693359376,11.366762600000001Q18.047963693359375,11.5007105,18.007880693359375,11.632850600000001Q17.967796693359375,11.7649908,17.921275693359377,11.8950043Q17.874755693359376,12.0250187,17.821912693359376,12.1525931Q17.769069693359373,12.280168100000001,17.710030693359375,12.4049969Q17.650991693359373,12.5298252,17.585898693359375,12.6516056Q17.520803693359376,12.773387,17.449812693359377,12.8918276Q17.378822693359375,13.0102673,17.302105693359373,13.125082Q17.225389693359375,13.2398958,17.143132693359377,13.3508072Q17.060874693359374,13.4617195,16.973274693359375,13.5684624Q16.885673693359376,13.6752033,16.792939693359376,13.7775183Q16.700206693359377,13.8798332,16.602565693359374,13.9774752Q16.504924693359374,14.0751171,16.402608693359376,14.1678486Q16.300293693359375,14.260582,16.193551693359375,14.3481827Q16.086808693359373,14.435783,15.975896693359376,14.518042Q15.864986693359375,14.6003,15.750171693359375,14.677015Q15.635356693359375,14.753733,15.516917693359375,14.824722Q15.398477693359375,14.895714,15.276696693359375,14.960807Q15.154914693359375,15.0259,15.030086693359374,15.084939Q14.905257693359374,15.143978,14.777684693359374,15.196821Q14.650110693359375,15.249664,14.520095693359375,15.296185Q14.390082693359375,15.342705,14.257942693359375,15.38279Q14.125802693359375,15.422873,13.991855693359375,15.456425Q13.857906693359375,15.489977,13.722473693359374,15.516916Q13.587041693359375,15.543856,13.450449693359374,15.564117Q13.313859693359374,15.584379,13.176438693359374,15.597915Q13.039016693359375,15.611448,12.901097693359375,15.618224Q12.763176693359375,15.625,12.625091693359375,15.625Q11.938958693359375,15.625,11.272944493359375,15.460067Q10.606931693359375,15.295134,10.000093493359374,14.974936ZM13.000091693359375,10Q13.000091693359375,10.2727423,12.973703693359376,10.5442047Q12.947316693359374,10.8156672,12.894789693359375,11.0833039Q12.842262693359375,11.350940699999999,12.764089693359375,11.6122403Q12.685915693359375,11.8735394,12.582829693359376,12.12605Q12.479741693359376,12.3785601,12.352708693359375,12.6199131Q12.225675693359374,12.8612652,12.075888693359374,13.0891953Q11.926101693359374,13.3171253,11.754964693359375,13.5294943Q11.583827993359375,13.7418633,11.392949093359375,13.9366798Q11.236942293359375,13.8878517,11.085288993359375,13.8268299Q10.933635693359374,13.76581,10.787286793359375,13.6929798Q10.640937793359376,13.6201487,10.500810593359375,13.535965Q10.360683393359375,13.4517822,10.227658293359376,13.3567743Q10.094633093359375,13.2617664,9.969543493359375,13.1565304Q9.844452893359374,13.0512934,9.728082693359376,12.9364872Q9.611712493359375,12.821682,9.504792193359375,12.6980267Q9.397871993359374,12.5743723,9.301072093359375,12.4426451Q9.204272293359374,12.310917400000001,9.118200793359375,12.171942699999999Q9.032128793359375,12.032968499999999,8.957324493359376,11.8876185Q8.882519693359374,11.7422686,8.819451793359374,11.591454500000001Q8.756383893359375,11.4406414,8.705448593359375,11.2853098Q8.654513393359375,11.1299782,8.616028793359375,10.9711032Q8.577545193359375,10.8122282,8.551753993359375,10.6508055Q8.525963293359375,10.489383700000001,8.513027193359374,10.3264265Q8.500091593359375,10.1634698,8.500091593359375,10Q8.500091593359375,9.8365307,8.513027193359374,9.6735735Q8.525963793359374,9.510616299999999,8.551754493359375,9.349194Q8.577545193359375,9.1877718,8.616028793359375,9.0288968Q8.654512393359376,8.8700218,8.705448193359375,8.7146902Q8.756383893359375,8.5593586,8.819451293359375,8.408545499999999Q8.882519693359374,8.2577317,8.957323993359374,8.112381899999999Q9.032128293359374,7.967032,9.118200293359376,7.8280573Q9.204272293359374,7.6890826,9.301072093359375,7.5573552Q9.397871993359374,7.4256277,9.504792193359375,7.3019733Q9.611712493359375,7.178319,9.728082693359376,7.0635133Q9.844452893359374,6.9487076000000005,9.969543493359375,6.8434711Q10.094633093359375,6.738234,10.227658293359376,6.6432261Q10.360683393359375,6.5482183,10.500810593359375,6.464035Q10.640937793359376,6.3798518,10.787286793359375,6.3070215Q10.933635693359374,6.2341909,11.085288993359375,6.1731701Q11.236942293359375,6.1121492,11.392949093359375,6.0633205Q11.583827993359375,6.2581364,11.754964693359375,6.4705057Q11.926101693359374,6.6828747,12.075888693359374,6.9108047Q12.225675693359374,7.1387348,12.352708693359375,7.3800874Q12.479741693359376,7.6214397,12.582828693359374,7.87395Q12.685914693359376,8.1264601,12.764088693359374,8.3877592Q12.842262693359375,8.6490583,12.894788693359375,8.9166951Q12.947315693359375,9.1843319,12.973703693359376,9.4557943Q13.000091693359375,9.7272577,13.000091693359375,10Z" fill-rule="evenodd" fill="#FFFFFF" fill-opacity="0.8999999761581421"/></g></g></svg>