<svg xmlns="http://www.w3.org/2000/svg" xmlns:xlink="http://www.w3.org/1999/xlink" fill="none" version="1.1" width="20" height="20" viewBox="0 0 20 20"><defs><clipPath id="master_svg0_210_66021/14_9758"><rect x="2" y="2" width="16" height="16" rx="0"/></clipPath></defs><g clip-path="url(#master_svg0_210_66021/14_9758)"><path d="M10.225678956622314,3.5380131618035886C10.859243356622315,2.633200578803589,12.106297056622314,2.413304741803589,13.011170856622314,3.0468596818035887C13.900843256622315,3.669853091803589,14.128334256622315,4.886107651803589,13.533280256622314,5.786798451803589L13.502297256622315,5.832318351803589L7.6886176566223146,14.13500955180359C7.4598317566223145,14.46170155180359,7.234573856622315,14.742937551803589,6.997926456622315,14.995083551803589C6.754413856622314,15.254501551803589,6.497032156622314,15.48497355180359,6.2123265566223145,15.698355551803589C5.966392056622315,15.882718551803588,5.698668256622314,16.05559355180359,5.396399256622314,16.22620955180359L5.281351756622314,16.29006455180359L4.303402756622314,16.82482855180359C3.8871992266223145,17.05239255180359,3.3652900766223146,16.899518551803588,3.1376907666223146,16.483300551803588C3.0548858216223143,16.33188455180359,3.0198084656223143,16.15937255180359,3.0363992778223143,15.98832055180359L3.0421903357223146,15.94170155180359L3.2102646066223146,14.839883551803588C3.2704034766223145,14.44555655180359,3.3475184466223142,14.093554551803589,3.4477947966223144,13.762645551803589C3.550982356622314,13.42206355180359,3.6795191166223145,13.101482551803588,3.8400354966223142,12.783881551803589C3.978682756622314,12.509554651803588,4.1419627566223145,12.235809051803589,4.337235556622314,11.948900951803589L4.411977456622314,11.84068275180359L10.225678956622314,3.5380131618035886ZM12.246443256622314,4.1395258518035885C11.954951756622314,3.9353804518035886,11.556769856622314,3.997067851803589,11.339752656622315,4.2738459518035885L11.318006956622314,4.303242351803589L5.5043117566223145,12.605846151803588C5.310362856622314,12.882863551803588,5.1558828566223145,13.136973551803589,5.030093656622315,13.38584555180359C4.904442856622314,13.634427551803588,4.8047846566223145,13.883155551803588,4.724006556622315,14.14977355180359C4.679431956622315,14.296827551803588,4.640028356622315,14.451156551803589,4.605155556622314,14.615955551803589L5.0153373566223145,14.903082551803589C5.1009302566223145,14.849701551803589,5.182428356622315,14.796173551803589,5.260442756622314,14.741919551803589L5.337264556622314,14.687446551803589L5.4127046566223145,14.63202855180359C5.635577456622315,14.464973551803588,5.835199356622315,14.28620855180359,6.025824756622315,14.083082551803589C6.195461056622314,13.902354551803588,6.361243056622314,13.69900955180359,6.532181056622314,13.461481551803589L6.596580956622315,13.37071855180359L12.410224456622315,5.068012951803588C12.621351756622314,4.766405851803588,12.548115256622314,4.350711351803589,12.246443256622314,4.1395258518035885ZM15.666588256622314,5.332551451803589L15.598225256622314,5.652107951803589C15.407389256622315,6.5437295518035885,14.710880256622314,7.240282251803589,13.819389256622314,7.4311192518035885L13.499897256622315,7.499518651803589L13.828334256622314,7.570041851803589C14.713788256622314,7.760136851803589,15.405498256622314,8.451721951803588,15.595897256622315,9.337198451803589L15.666588256622314,9.66588945180359L15.737861256622315,9.33376575180359C15.927388256622315,8.450085851803589,16.617570256622315,7.7597801518035885,17.501207256622315,7.570216851803589L17.833280256622317,7.498951151803589L17.510444256622314,7.429569451803589C16.621717256622315,7.238486051803589,15.927388256622315,6.544296951803589,15.736116256622314,5.655511351803589L15.666588256622314,5.332551451803589ZM13.264261256622314,9.11380215180359L13.141134256622314,9.68778775180359C12.796697156622315,11.288900151803588,11.543024556622315,12.540028351803588,9.938697356622313,12.88373755180359L9.363548756622315,13.006645551803588L9.956283556622314,13.133627551803588C11.550224756622315,13.474281551803589,12.794661056622314,14.717119551803588,13.137061256622314,16.307955551803587L13.264261256622314,16.89842855180359L13.392552256622315,16.30177355180359C13.733861256622314,14.715082551803588,14.977207256622314,13.474281551803589,16.567099256622313,13.133627551803588L17.164989256622313,13.00562855180359L16.582588256622316,12.88068255180359C14.982442256622315,12.53799125180359,13.732844256622315,11.290936251803588,13.389425256622314,9.693976651803588L13.264261256622314,9.11380215180359Z" fill-rule="evenodd" fill="#FFFFFF" fill-opacity="0.8999999761581421" style="mix-blend-mode:passthrough"/></g></svg>