<svg xmlns="http://www.w3.org/2000/svg" xmlns:xlink="http://www.w3.org/1999/xlink" fill="none" version="1.1" width="20" height="20" viewBox="0 0 20 20"><g><path d="M10.000081546875,2.6666259765625C5.949993146875,2.6666259765625,2.666748046875,5.8006329765625,2.666748046875,9.6666259765625L2.666748046875,15.0729329765625L2.667331615575,15.1248089765625C2.694904688875,16.3492119765625,3.696084046875,17.3332929765625,4.927108046875,17.3332929765625L5.073054746875,17.3332929765625L5.124931146874999,17.3327089765625C6.349332846875,17.3051369765625,7.333415046875,16.3039569765625,7.333415046875,15.0729329765625L7.333415046875,12.9269869765625L7.332831346875,12.8751099765625C7.305258246875,11.6507081765625,6.304078846875,10.6666259765625,5.073054746875,10.6666259765625L4.927108046875,10.6666259765625L4.857366046875001,10.6676816765625C4.417299946875,10.6810188765625,4.008867246875,10.8201398765625,3.666799946875,11.0503139765625L3.666748046875,9.4999594765625C3.770717146875,6.2994603765625,6.563292246875,3.6666259765625,10.000081546875,3.6666259765625C13.471586046875,3.6666259765625,16.285796046875,6.352917476562499,16.333415046875,9.6666259765625L16.333529046875,11.0504245765625C15.973426046875,10.8080682765625,15.539759046875,10.6666259765625,15.073055046875,10.6666259765625L14.927108046875,10.6666259765625L14.875232046875,10.6672095765625C13.650829046875,10.6947831765625,12.666748046875,11.6959619765625,12.666748046875,12.9269869765625L12.666748046875,15.0729329765625L12.667332046875,15.1248089765625C12.694905046875,16.3492119765625,13.696085046875,17.3332929765625,14.927108046875,17.3332929765625L15.073055046875,17.3332929765625L15.124931046875,17.3327089765625C16.349334046875,17.3051369765625,17.333415046875,16.3039569765625,17.333415046875,15.0729329765625L17.333415046875,12.9269869765625L17.332432046875,9.5508684765625C17.267673046875,5.7382659765625,14.009669046875,2.6666259765625,10.000081546875,2.6666259765625ZM10.500081546875,5.4167887765625C10.500081546875,5.1866700765625,10.313533346875001,5.0001220765625,10.083415046875,5.0001220765625C9.853296246875,5.0001220765625,9.666748046875,5.1866700765625,9.666748046875,5.4167887765625L9.666748046875,11.2501220765625C9.666748046875,11.4802407765625,9.853296246875,11.6667890765625,10.083415046875,11.6667890765625C10.313533346875001,11.6667890765625,10.500081546875,11.4802407765625,10.500081546875,11.2501220765625L10.500081546875,5.4167887765625ZM8.416666946875,6.3336181765625C8.646785246875,6.3336181765625,8.833333446874999,6.520166176562499,8.833333446874999,6.7502851765625L8.833333446874999,9.916951676562501C8.833333446874999,10.1470703765625,8.646785246875,10.3336181765625,8.416666946875,10.3336181765625C8.186548246874999,10.3336181765625,8.000000046875,10.1470703765625,8.000000046875,9.916951676562501L8.000000046875,6.7502851765625C8.000000046875,6.520166176562499,8.186548246874999,6.3336181765625,8.416666946875,6.3336181765625ZM12.166585946875,6.7502851765625C12.166585946875,6.520166176562499,11.980037646875,6.3336181765625,11.749917946875,6.3336181765625C11.519800146875,6.3336181765625,11.333251946875,6.520166176562499,11.333251946875,6.7502851765625L11.333251946875,9.916951676562501C11.333251946875,10.1470703765625,11.519800146875,10.3336181765625,11.749917946875,10.3336181765625C11.980037646875,10.3336181765625,12.166585946875,10.1470703765625,12.166585946875,9.916951676562501L12.166585946875,6.7502851765625ZM6.749918446875,7.6666259765625C6.980037246875,7.6666259765625,7.166585446875,7.8531741765625,7.166585446875,8.0832929765625L7.166585446875,8.9166259765625C7.166585446875,9.1467447765625,6.980037246875,9.3332929765625,6.749918446875,9.3332929765625C6.5197999468750005,9.3332929765625,6.333251946875,9.1467447765625,6.333251946875,8.9166259765625L6.333251946875,8.0832929765625C6.333251946875,7.8531741765625,6.5197999468750005,7.6666259765625,6.749918446875,7.6666259765625ZM13.833334046875,8.0832929765625C13.833334046875,7.8531741765625,13.646786046875,7.6666259765625,13.416666046875,7.6666259765625C13.186548046875,7.6666259765625,13.000000046875,7.8531741765625,13.000000046875,8.0832929765625L13.000000046875,8.9166259765625C13.000000046875,9.1467447765625,13.186548046875,9.3332929765625,13.416666046875,9.3332929765625C13.646786046875,9.3332929765625,13.833334046875,9.1467447765625,13.833334046875,8.9166259765625L13.833334046875,8.0832929765625Z" fill-rule="evenodd" fill="#FFFFFF" fill-opacity="0.8999999761581421"/></g></svg>