<svg xmlns="http://www.w3.org/2000/svg" xmlns:xlink="http://www.w3.org/1999/xlink" fill="none" version="1.1" width="20" height="20" viewBox="0 0 20 20"><g><path d="M13.556018,8.6771421765625C13.556018,5.9099106765625,11.3049011,3.6666259765625,8.5280089,3.6666259765625C5.7511163,3.6666259765625,3.5,5.9099106765625,3.5,8.6771421765625C3.5,11.4443740765625,5.7511163,13.6876579765625,8.5280089,13.6876579765625C9.6732116,13.6876579765625,10.7289915,13.3061265765625,11.5743332,12.6636581765625L15.278347,16.336968976562503C15.383947,16.4416979765625,15.433139,16.468772976562498,15.492266,16.4865899765625C15.551392,16.5044079765625,15.611832,16.5044159765625,15.670963,16.4866159765625C15.720997,16.4715559765625,15.763922,16.4498629765625,15.839938,16.3801159765625L15.884925,16.3370569765625L16.401184,15.8253549765625L16.421920999999998,15.8028579765625C16.532564,15.6713519765625,16.525564,15.4750429765625,16.401252,15.3517569765625L12.6148243,11.5965661765625C13.2072086,10.774522776562499,13.556018,9.7664255765625,13.556018,8.6771421765625ZM8.5,12.1666259765625Q8.6719446,12.1666259765625,8.8430605,12.1497735765625Q9.0141764,12.1329192765625,9.1828156,12.0993747765625Q9.351456200000001,12.0658302765625,9.515996000000001,12.0159167765625Q9.6805363,11.9660043765625,9.8393912,11.9002036765625Q9.9982471,11.8344039765625,10.1498885,11.7533502765625Q10.3015294,11.6722964765625,10.4444952,11.576769376562499Q10.5874615,11.4812426765625,10.7203765,11.3721623765625Q10.853290600000001,11.2630824765625,10.974873500000001,11.141499476562501Q11.0964565,11.019916576562501,11.2055368,10.8870024765625Q11.3146167,10.7540874765625,11.410143399999999,10.6111211765625Q11.5056705,10.4681553765625,11.5867243,10.3165139765625Q11.667778,10.1648730765625,11.7335777,10.0060171765625Q11.7993784,9.8471622765625,11.8492918,9.6826224765625Q11.8992043,9.518082176562501,11.9327488,9.3494415765625Q11.9662933,9.1808023765625,11.9831476,9.009685976562501Q12,8.8385705765625,12,8.6666259765625Q12,8.4946822765625,11.9831476,8.323565976562499Q11.9662933,8.1524495765625,11.9327488,7.9838094765625Q11.8992043,7.8151693765625,11.8492908,7.6506292765624995Q11.7993784,7.4860892765625,11.7335777,7.3272335765625005Q11.667778,7.1683780765625,11.5867243,7.016737176562501Q11.5056705,6.8650960765625,11.410143399999999,6.7221297765625Q11.3146167,6.5791640765625,11.2055364,6.4462494765625Q11.0964565,6.3133349765624995,10.974873500000001,6.1917521765625Q10.853290600000001,6.0701696765625,10.7203765,5.9610895765625Q10.5874615,5.8520095765625,10.4444952,5.7564823765625Q10.3015294,5.6609555765625,10.149888,5.5799015765625Q9.9982471,5.4988476765625,9.8393912,5.4330475765625Q9.6805363,5.3672475765625,9.5159965,5.3173347765625Q9.351456200000001,5.2674221765625,9.1828156,5.2338773765625Q9.0141764,5.2003328765625,8.843060000000001,5.1834794765625Q8.6719446,5.1666259765625,8.5,5.1666259765625Q8.3280563,5.1666259765625,8.156939999999999,5.1834794765625Q7.9858236,5.2003328765625,7.8171835,5.2338773765625Q7.6485434,5.2674220765625,7.4840032999999995,5.3173347765625Q7.3194633,5.3672473765625,7.1606076000000005,5.4330473765625005Q7.0017521,5.4988476765625,6.850111200000001,5.5799014765625Q6.6984701,5.6609554765625,6.5555038,5.7564820765625Q6.4125381,5.8520092765625,6.2796235,5.9610893765625Q6.1467089999999995,6.0701694765625,6.0251262,6.1917519765625Q5.9035437,6.3133349765624995,5.7944636,6.4462494765625Q5.6853836,6.5791640765625,5.5898564,6.7221297765625Q5.4943296,6.8650960765625,5.4132756,7.0167369765625Q5.3322217,7.1683780765625,5.2664216,7.3272335765625005Q5.2006215000000005,7.4860892765625,5.1507088,7.6506294765625Q5.1007961,7.8151693765625,5.0672514,7.9838094765625Q5.0337069,8.1524495765625,5.0168535,8.323565976562499Q5,8.4946822765625,5,8.6666259765625Q5,8.8385705765625,5.0168535,9.0096864765625Q5.0337069,9.1808023765625,5.0672514,9.3494415765625Q5.1007961,9.518082176562501,5.1507088,9.682621976562501Q5.2006214,9.8471622765625,5.2664214000000005,10.0060171765625Q5.3322217,10.1648730765625,5.4132755,10.3165144765625Q5.4943295,10.4681553765625,5.5898561,10.6111211765625Q5.6853833,10.7540874765625,5.7944634,10.8870024765625Q5.9035435,11.019916576562501,6.025126,11.141499476562501Q6.1467089999999995,11.2630824765625,6.2796235,11.3721627765625Q6.4125381,11.4812426765625,6.5555038,11.576769376562499Q6.6984701,11.6722964765625,6.850111,11.7533502765625Q7.0017521,11.8344039765625,7.1606076000000005,11.9002036765625Q7.3194633,11.9660043765625,7.4840035,12.0159177765625Q7.6485434,12.0658302765625,7.8171835,12.0993747765625Q7.9858236,12.1329192765625,8.156939999999999,12.1497735765625Q8.3280563,12.1666259765625,8.5,12.1666259765625Z" fill-rule="evenodd" fill="#FFFFFF" fill-opacity="0.8999999761581421"/></g></svg>