<svg xmlns="http://www.w3.org/2000/svg" xmlns:xlink="http://www.w3.org/1999/xlink" fill="none" version="1.1" width="20" height="20" viewBox="0 0 20 20"><g><path d="M14.499918953125,3C15.771169953125,3,16.804973953125,4.0166254,16.832681953125,5.2812259L16.833251953125,5.3333335L16.833251953125,10.5C16.833251953125,10.6840949,16.684012953125,10.8333335,16.499918953125,10.8333335L15.833251953125,10.8333335C15.649157953125,10.8333335,15.499918953125,10.6840949,15.499918953125,10.5L15.499918953125,5.3333335C15.499918953125,4.7936005999999995,15.072322953125,4.3537381,14.537408953125,4.3340232L14.499918953125,4.3333334L5.666585453125,4.3333334C5.1268525531249995,4.3333334,4.686990053125,4.7609291,4.667275153125,5.2958435999999995L4.666585353125,5.3333335L4.666585353125,10.5C4.666585353125,10.6840949,4.517346853125,10.8333335,4.333251953125,10.8333335L3.666585293125,10.8333335C3.482490373125,10.8333335,3.333251953125,10.6840949,3.333251953125,10.5L3.333251953125,5.3333335C3.333251953125,4.0620834,4.349877353125,3.028278854,5.614477853125,3.0005703409L5.666585453125,3L14.499918953125,3ZM13.536400953125,7.7527266L13.057332953125,7.2891121C12.925041153125,7.1610885,12.714015053125,7.1645479,12.585990953125,7.2968388L10.032085453125,9.9356542L7.478484153125,7.2968388L7.457603453125,7.2770219C7.328464953125,7.1645479,7.132470853125,7.1678267,7.007142553125,7.2891121L6.528074253125,7.7527266L6.508257353125,7.7736068C6.395783453125,7.9027452,6.399062153125,8.0987391,6.520347553125,8.224067699999999L9.104418753125,10.8943205L7.663808353125,12.3830891C7.278491953125,12.1403923,6.822268453125,11.9999876,6.333251953125,11.9999876C4.952540153125,11.9999876,3.833251953125,13.119276,3.833251953125,14.499988C3.833251953125,15.880699,4.952540153125,16.999988000000002,6.333251953125,16.999988000000002C7.713963953125,16.999988000000002,8.833251953125,15.880699,8.833251953125,14.499988C8.833251953125,14.093405,8.736193653125,13.709492,8.563982953124999,13.370153L10.032252353125,11.8529873L11.458370253125,13.326845C11.272126653125,13.676682,11.166585453125,14.07601,11.166585453125,14.499988C11.166585453125,15.880699,12.285873453125,16.999988000000002,13.666585953125,16.999988000000002C15.047297953125,16.999988000000002,16.166585953125,15.880699,16.166585953125,14.499988C16.166585953125,13.119276,15.047297953125,11.9999876,13.666585953125,11.9999876C13.194557153125,11.9999876,12.753082253125,12.1308069,12.376440953125,12.3581676L10.959918453124999,10.8943205L13.544127953125,8.224067699999999C13.672151953125,8.0917764,13.668691953125,7.8807497,13.536400953125,7.7527266ZM6.333414753125,15.66683Q6.390729653125,15.66683,6.447768453125001,15.661213Q6.504806953125,15.655594,6.561019853125,15.644411Q6.617233253125001,15.63323,6.672080053125001,15.616593Q6.726926853125001,15.599956,6.7798783531249995,15.578022Q6.832830453125,15.556089,6.883377553124999,15.52907Q6.9339246531250005,15.502052,6.981579753125001,15.470209Q7.029235353124999,15.438368,7.073540253125,15.402008Q7.117845253125,15.365648,7.158372653124999,15.32512Q7.1989006531249995,15.284594,7.235260453125,15.240288Q7.271620553125,15.195984,7.303462553125,15.148328Q7.335305253125,15.100673,7.362322853125,15.050126Q7.389340853125,14.999578,7.411273953125,14.946627Q7.433207553125,14.893676,7.449845353125,14.838829Q7.466483153125,14.783983,7.477663953125,14.727769Q7.488845853125,14.671556,7.494463453125,14.614518Q7.500081553125,14.557479,7.500081553125,14.500163Q7.500081553125,14.442848,7.494463953125,14.38581Q7.488845853125,14.328771,7.477663953125,14.272556Q7.466483153125,14.216343,7.449845353125,14.161497Q7.433207553125,14.106649,7.411273953125,14.053698Q7.389340853125,14.000746,7.362322853125,13.950199Q7.335305253125,13.899652,7.303462553125,13.851996Q7.271620553125,13.804342,7.235260453125,13.760037Q7.1989006531249995,13.715733,7.158372853125,13.675204Q7.117845553125,13.634678,7.073540453125,13.598318Q7.029235353124999,13.561958,6.981579753125001,13.530114Q6.9339246531250005,13.498273,6.883377553124999,13.471254Q6.832830453125,13.444237,6.7798786531249995,13.422302Q6.726926853125001,13.40037,6.672080253124999,13.383732Q6.617233253125001,13.367095,6.561019853125,13.355913Q6.504806953125,13.344732,6.447768253125,13.339114Q6.390729653125,13.333496,6.333414753125,13.333496Q6.276100153125,13.333496,6.219061653124999,13.339115Q6.162022853125,13.344732,6.105809253125,13.355913Q6.049595853125,13.367095,5.994749353125,13.383732Q5.9399023531249995,13.40037,5.886950453124999,13.422302Q5.8339986531250005,13.444237,5.783451753125,13.471254Q5.732904953125,13.498273,5.685249353125,13.530114Q5.637593953125,13.561958,5.593289353125,13.598318Q5.548984553125,13.634678,5.5084567531249995,13.675204Q5.467929353125,13.715733,5.431569353125,13.760037Q5.395209353125,13.804342,5.363366653125,13.851996Q5.331524453125,13.899652,5.304506553125,13.950199Q5.2774887531250005,14.000746,5.255555153125,14.053698Q5.233621853125,14.106649,5.2169843531249995,14.161496Q5.200346753125,14.216343,5.189165153125,14.272556Q5.177983753125,14.328771,5.172365953125,14.38581Q5.166748153125,14.442848,5.166748053125,14.500163Q5.166748153125,14.557479,5.172366053125,14.614517Q5.177983753125,14.671556,5.189165153125,14.727768Q5.200346753125,14.783982,5.2169843531249995,14.838829Q5.233621853125,14.893676,5.255555153125,14.946627Q5.2774887531250005,14.999578,5.304506553125,15.050126Q5.331524453125,15.100672,5.363366653125,15.148327Q5.395209353125,15.195983,5.431569053125,15.240288Q5.467929353125,15.284594,5.5084567531249995,15.32512Q5.548984553125,15.365648,5.593289153125,15.402008Q5.637593953125,15.438368,5.685249353125,15.47021Q5.732904953125,15.502052,5.783451753125,15.529071Q5.8339986531250005,15.556089,5.886950453124999,15.578022Q5.9399023531249995,15.599956,5.994749353125,15.616592Q6.049595853125,15.63323,6.105809253125,15.644411Q6.162022853125,15.655594,6.219061353124999,15.661213Q6.276100153125,15.66683,6.333414753125,15.66683ZM13.666666953125,15.66683Q13.723981953125,15.66683,13.781020953125,15.661213Q13.838058953125,15.655594,13.894271953125,15.644411Q13.950485953125,15.63323,14.005332953125,15.616593Q14.060179953125,15.599956,14.113130953125,15.578022Q14.166081953125,15.556089,14.216630953125,15.52907Q14.267177953125,15.502052,14.314832953125,15.470209Q14.362488953125,15.438368,14.406793953125,15.402008Q14.451097953125,15.365648,14.491624953125,15.32512Q14.532152953125,15.284594,14.568512953125,15.240288Q14.604872953125,15.195984,14.636713953125,15.148328Q14.668557953125,15.100673,14.695575953125,15.050126Q14.722592953125,14.999578,14.744525953125,14.946627Q14.766459953125,14.893676,14.783097953125,14.838829Q14.799735953125,14.783983,14.810916953125,14.727769Q14.822099953125,14.671556,14.827716953125,14.614518Q14.833334953125,14.557479,14.833333953125,14.500163Q14.833334953125,14.442848,14.827716953125,14.38581Q14.822098953125,14.328771,14.810915953125,14.272556Q14.799734953125,14.216343,14.783096953125,14.161497Q14.766459953125,14.106649,14.744525953125,14.053698Q14.722592953125,14.000746,14.695575953125,13.950199Q14.668557953125,13.899652,14.636714953125,13.851996Q14.604873953125,13.804342,14.568512953125,13.760037Q14.532152953125,13.715733,14.491624953125,13.675204Q14.451097953125,13.634678,14.406792953125,13.598318Q14.362487953125,13.561958,14.314831953125,13.530114Q14.267177953125,13.498273,14.216629953125,13.471254Q14.166081953125,13.444237,14.113130953125,13.422302Q14.060179953125,13.40037,14.005332953125,13.383732Q13.950485953125,13.367095,13.894271953125,13.355913Q13.838058953125,13.344732,13.781020953125,13.339114Q13.723981953125,13.333496,13.666666953125,13.333496Q13.609351953125,13.333496,13.552313953125,13.339115Q13.495275953125,13.344732,13.439060953125,13.355913Q13.382848953125,13.367095,13.328001053125,13.383732Q13.273154253125,13.40037,13.220201453125,13.422302Q13.167249653125,13.444237,13.116703053125,13.471254Q13.066156353125,13.498273,13.018500353125,13.530114Q12.970846153125,13.561958,12.926541353125,13.598318Q12.882236453125,13.634678,12.841708153125,13.675204Q12.801180853125,13.715733,12.764820053125,13.760037Q12.728460353125,13.804342,12.696617153125,13.851996Q12.664774853125,13.899652,12.637757253125,13.950199Q12.610738753125,14.000746,12.588806153125,14.053698Q12.566873553125,14.106649,12.550235753125,14.161496Q12.533597953125,14.216343,12.522417053125,14.272556Q12.511236153125,14.328771,12.505618053125,14.38581Q12.499999953125,14.442848,12.499999953125,14.500163Q12.499999953125,14.557479,12.505618053125,14.614517Q12.511235253125,14.671556,12.522416153125,14.727768Q12.533597953125,14.783982,12.550235753125,14.838829Q12.566873553125,14.893676,12.588806153125,14.946627Q12.610738753125,14.999578,12.637757253125,15.050126Q12.664774853125,15.100672,12.696617153125,15.148327Q12.728460353125,15.195983,12.764820053125,15.240288Q12.801180853125,15.284594,12.841708153125,15.32512Q12.882236453125,15.365648,12.926541353125,15.402008Q12.970846153125,15.438368,13.018501253125,15.47021Q13.066156353125,15.502052,13.116703953125,15.529071Q13.167249653125,15.556089,13.220201453125,15.578022Q13.273154253125,15.599956,13.328001053125,15.616592Q13.382848953125,15.63323,13.439060953125,15.644411Q13.495275953125,15.655594,13.552313953125,15.661213Q13.609351953125,15.66683,13.666666953125,15.66683Z" fill-rule="evenodd" fill="#FFFFFF" fill-opacity="0.8999999761581421"/></g></svg>