<svg xmlns="http://www.w3.org/2000/svg" xmlns:xlink="http://www.w3.org/1999/xlink" fill="none" version="1.1" width="20" height="20" viewBox="0 0 20 20"><g transform="matrix(0.7071067690849304,0.7071067690849304,-0.7071067690849304,0.7071067690849304,4.237357126061994,-9.052914031506731)"><g><path d="M18.392733103759767,0.9518911882019043C18.365435103759765,0.9231661882019042,18.336682803759764,0.8958412382019043,18.306585303759768,0.8700255782019043C17.817512503759765,0.4505353082019043,17.080977003759767,0.5069427342019043,16.661486903759766,0.9960150982019043L15.584178903759765,2.252019388201904L15.522476203759766,2.3249470882019043L15.460657103759765,2.4000646882019043C14.439562903759766,3.658349488201904,13.880364653759766,5.231122988201904,13.880364653759766,6.8554892882019045L13.880364653759766,10.886075688201904L13.471959023759766,11.376357688201905L13.435290693759766,11.421811688201904C13.184035743759766,11.743618688201904,13.047031402589766,12.140639688201905,13.047031402589766,12.550029688201905L13.047031402589766,14.231575688201904L13.047880184759766,14.260955688201904C13.063087919759766,14.523422688201904,13.280751223759765,14.731575688201904,13.547031343759766,14.731575688201904L21.547029503759767,14.731575688201904L21.576408403759764,14.730727688201904C21.838876703759766,14.715519688201905,22.047029503759767,14.497856688201905,22.047029503759767,14.231575688201904L22.047029503759767,12.550029688201905L22.046100603759765,12.491635688201905L22.043134703759765,12.430548688201904C22.017929103759766,12.044491688201905,21.871082303759763,11.675133688201905,21.622102703759765,11.376357688201905L21.213696503759763,10.886242688201904L21.213696503759763,6.8554892882019045L21.213051803759768,6.759962588201904C21.190713903759764,5.105277588201904,20.588571503759766,3.509633588201904,19.509882903759767,2.252019388201904L18.432574303759765,0.9960150982019043L18.392733103759767,0.9518911882019043ZM18.254195703759766,4.6910609882019045C17.863622203759768,4.300590088201904,17.230378103759765,4.300590088201904,16.839805403759765,4.6910609882019045C16.449399003759765,5.081699388201904,16.449399003759765,5.714882388201905,16.839805403759765,6.105353788201905C17.230378103759765,6.4958247882019045,17.863622203759768,6.4958247882019045,18.254195703759766,6.105353788201905C18.644601303759764,5.714882388201905,18.644601303759764,5.081699388201904,18.254195703759766,4.6910609882019045ZM18.880483603759764,15.398451688201904L18.880483603759764,16.142171688201906C18.880483603759764,16.622773688201903,18.673016103759764,17.079983688201903,18.311324603759765,17.396464688201906L17.547150103759765,18.065116688201904L16.782976403759765,17.396464688201906C16.421284703759767,17.079983688201903,16.213817403759766,16.622773688201903,16.213817403759766,16.142171688201906L16.213817403759766,15.398451688201904L18.880483603759764,15.398451688201904Z" fill-rule="evenodd" fill="#FFFFFF" fill-opacity="0.8999999761581421"/></g></g></svg>