<svg xmlns="http://www.w3.org/2000/svg" xmlns:xlink="http://www.w3.org/1999/xlink" fill="none" version="1.1" width="20" height="20" viewBox="0 0 20 20"><g><path d="M14.332716,6.9518913765625C14.307228,5.9615865965625,13.49645,5.1666259765625,12.5,5.1666259765625L4.3333334,5.1666259765625L4.2852654,5.1672438773725C3.29496062,5.1927317805625,2.5,6.0035090465625,2.5,6.9999593765625L2.5,12.9999594765625L2.50061790081,13.0480270765625C2.526105804,14.0383319765625,3.33688307,14.8332929765625,4.3333334,14.8332929765625L12.5,14.8332929765625L12.548068,14.8326749765625C13.538374,14.8071870765625,14.333334,13.9964103765625,14.333334,12.9999594765625L14.333334,6.9999593765625L14.332716,6.9518913765625ZM17.752384,6.8364557765625005C17.799017,6.9343846765625,17.826019000000002,7.0403375765625,17.832041,7.1483392765625L17.833334,7.1947335765625L17.833334,12.805546776562501C17.833334,13.2657832765625,17.460238,13.6388797765625,17,13.6388797765625C16.891534999999998,13.6388797765625,16.784266000000002,13.6177062765625,16.684165999999998,13.5767097765625L16.641722,13.5579299765625L15,12.776039076562501L15,7.2240395765625L16.641722,6.4423498765625C17.057252,6.2444784765625005,17.554512000000003,6.4209255765624995,17.752384,6.8364557765625005ZM10.5,10.0001220765625Q10.5,10.0983757765625,10.4903698,10.1961564765625Q10.480738599999999,10.2939367765625,10.4615698,10.3903026765625Q10.4424019,10.4866685765625,10.413880299999999,10.5806913765625Q10.385358799999999,10.6747140765625,10.347758299999999,10.7654885765625Q10.310158699999999,10.8562631765625,10.2638421,10.9429149765625Q10.2175255,11.0295672765625,10.1629386,11.1112618765625Q10.108352700000001,11.1929573765625,10.046021,11.2689089765625Q9.9836893,11.344860076562501,9.914213199999999,11.4143352765625Q9.844738,11.4838113765625,9.7687864,11.5461435765625Q9.692835299999999,11.608474776562499,9.6111398,11.6630611765625Q9.529445599999999,11.7176480765625,9.4427934,11.7639646765625Q9.3561416,11.8102807765625,9.2653666,11.8478803765625Q9.174592,11.8854808765625,9.0805693,11.9140023765625Q8.9865465,11.9425239765625,8.8901801,11.9616918765625Q8.7938147,11.9808606765625,8.6960344,11.990491876562501Q8.5982542,12.0001220765625,8.5,12.0001220765625Q8.4017463,12.0001220765625,8.3039656,11.990491876562501Q8.2061849,11.9808606765625,8.1098189,11.9616918765625Q8.0134535,11.9425239765625,7.9194307,11.9140023765625Q7.8254075,11.8854808765625,7.7346325,11.8478803765625Q7.643858,11.8102807765625,7.5572057,11.7639641765625Q7.4705539,11.7176475765625,7.3888588,11.6630606765625Q7.3071642,11.608474776562499,7.2312136,11.546143076562501Q7.155262,11.4838113765625,7.0857863,11.4143352765625Q7.0163107,11.344860076562501,6.953979,11.2689089765625Q6.8916473,11.192957876562499,6.8370605,11.111262276562499Q6.782474,11.0295676765625,6.7361574,10.9429154765625Q6.6898413,10.8562631765625,6.6522408,10.7654885765625Q6.6146412,10.6747140765625,6.5861192,10.5806913765625Q6.5575981,10.4866685765625,6.5384293,10.3903026765625Q6.5192614,10.2939367765625,6.5096307,10.1961564765625Q6.5,10.0983757765625,6.5,10.0001220765625Q6.5,9.9018683765625,6.5096307,9.8040876765625Q6.5192614,9.7063069765625,6.5384293,9.6099409765625Q6.5575981,9.5135755765625,6.5861192,9.419552776562501Q6.6146407,9.3255295765625,6.6522403,9.2347545765625Q6.6898403,9.1439804765625,6.7361569,9.0573284765625Q6.7824736,8.9706763765625,6.83706,8.8889813765625Q6.8916473,8.8072864765625,6.9539785,8.7313353765625Q7.0163102,8.6553842765625,7.0857859,8.5859083765625Q7.155262,8.5164327765625,7.2312131,8.4541010765625Q7.3071642,8.3917696765625,7.3888588,8.3371824765625Q7.4705539,8.2825960765625,7.5572062,8.2362794765625Q7.643858,8.189963076562499,7.7346325,8.1523627765625Q7.8254075,8.114763276562499,7.9194303,8.086241476562499Q8.0134535,8.0577201765625,8.1098189,8.0385513765625Q8.2061849,8.0193834765625,8.3039656,8.0097527765625Q8.4017463,8.0001220765625,8.5,8.0001220765625Q8.5982542,8.0001220765625,8.6960344,8.0097527765625Q8.7938147,8.0193834765625,8.8901801,8.0385513765625Q8.9865465,8.0577201765625,9.0805693,8.086241476562499Q9.174592,8.114763276562499,9.2653666,8.1523627765625Q9.3561416,8.189963076562499,9.4427938,8.2362794765625Q9.529445599999999,8.2825960765625,9.611140299999999,8.3371824765625Q9.692835800000001,8.3917696765625,9.7687869,8.4541012765625Q9.844738,8.5164327765625,9.914213199999999,8.5859083765625Q9.9836893,8.6553842765625,10.046021,8.7313353765625Q10.108352700000001,8.8072864765625,10.1629386,8.8889813765625Q10.2175255,8.9706763765625,10.2638421,9.0573281765625Q10.310158699999999,9.1439804765625,10.347758299999999,9.2347545765625Q10.385358799999999,9.3255295765625,10.413880299999999,9.4195522765625Q10.4424019,9.5135755765625,10.4615698,9.6099409765625Q10.480738599999999,9.7063069765625,10.490369300000001,9.8040876765625Q10.5,9.9018683765625,10.5,10.0001220765625Z" fill-rule="evenodd" fill="#FFFFFF" fill-opacity="0.8999999761581421"/></g></svg>