<svg xmlns="http://www.w3.org/2000/svg" xmlns:xlink="http://www.w3.org/1999/xlink" fill="none" version="1.1" width="20" height="20" viewBox="0 0 20 20"><g><path d="M9.905242399999999,5.4442491234374994C9.8737974,3.9972472234375003,8.6219716,2.8333740234375,7.0823188,2.8333740234375C5.5229263,2.8333740234375,4.2587890999999996,4.0272814234375005,4.2587890999999996,5.5000407234375L4.2587890999999996,10.1222629234375L4.2593946,10.178054823437499C4.2908399,11.6250572234375,5.5426655,12.7889299234375,7.0823188,12.7889299234375C8.6417108,12.7889299234375,9.905848500000001,11.5950222234375,9.905848500000001,10.1222629234375L9.905848500000001,5.5000407234375L9.905242399999999,5.4442491234374994ZM3.1294119,9.3222089234375C3.1294119,9.174932923437499,3.0029981,9.0555420234375,2.84705895,9.0555420234375L2.2823529799999998,9.0555420234375C2.12641373,9.0555420234375,2,9.174932923437499,2,9.3222089234375L2.0000092653308,10.1232891234375L2.00068089017,10.2015857234375C2.042479765,12.6363945234375,4.0038133,14.6305060234375,6.5177412,14.8929230234375L6.5176477,16.9666540234375C6.5176477,17.1139300234375,6.6440611,17.2333200234375,6.8000007,17.2333200234375L7.3647065,17.2333200234375C7.5206456,17.2333200234375,7.6470599,17.1139300234375,7.6470599,16.9666540234375L7.6471515,14.8929040234375C8.619105300000001,14.7914100234375,9.5084391,14.4310530234375,10.2360916,13.8864120234375C10.0497923,13.5525460234375,9.9089899,13.1925170234375,9.8217549,12.8137045234375C9.1112456,13.4588990234375,8.1458449,13.8555430234375,7.0823536,13.8555430234375C4.8992043,13.8555430234375,3.1294119,12.1840725234375,3.1294119,10.122208623437501L3.1294119,9.3222089234375ZM14.235409,15.4554720234375Q14.420357,15.4554720234375,14.604414,15.4383510234375Q14.788471,15.4212290234375,14.969866,15.3871520234375Q15.15126,15.3530750234375,15.328245,15.3023700234375Q15.50523,15.2516650234375,15.676098,15.1848200234375Q15.846969,15.1179760234375,16.010078,15.0356360234375Q16.173187,14.9532960234375,16.326965,14.8562520234375Q16.480745,14.7592090234375,16.623713000000002,14.6483970234375Q16.76668,14.5375860234375,16.897457,14.4140730234375Q17.028236,14.2905610234375,17.145564999999998,14.1555360234375Q17.262895999999998,14.0205120234375,17.365645,13.8752760234375Q17.468398,13.7300410234375,17.555582,13.5759930234375Q17.642765,13.4219460234375,17.713541,13.2605680234375Q17.784319,13.0991920234375,17.838006,12.9320390234375Q17.891695,12.7648868234375,17.927776,12.5935697234375Q17.96386,12.4222536234375,17.981987,12.2484216234375Q18.000114,12.0745888234375,18.000114,11.8999157234375Q18.000114,11.7252426234375,17.981987,11.5514107234375Q17.963859,11.3775787234375,17.927775,11.2062607234375Q17.891694,11.0349445234375,17.838006,10.8677921234375Q17.784318,10.7006397234375,17.713540000000002,10.5392623234375Q17.642765,10.3778858234375,17.555581,10.2238378234375Q17.468397,10.0697899234375,17.365644,9.924554323437501Q17.262895,9.7793188234375,17.145564999999998,9.6442947234375Q17.028235000000002,9.5092706234375,16.897456,9.385757923437499Q16.76668,9.2622456234375,16.623713000000002,9.1514344234375Q16.480745,9.040622723437501,16.326965,8.9435787234375Q16.173187,8.846535723437501,16.010078,8.7641954234375Q15.846968,8.6818552234375,15.676098,8.615010223437501Q15.50523,8.5481663234375,15.328245,8.4974618234375Q15.15126,8.4467563234375,14.969866,8.4126792234375Q14.788471,8.378603023437499,14.604414,8.3614816234375Q14.420357,8.344360823437501,14.235409,8.344360323437499Q14.050461,8.344360823437501,13.866404,8.3614821234375Q13.682346,8.378603023437499,13.500951,8.4126796234375Q13.319557,8.4467568234375,13.142572,8.4974618234375Q12.965588,8.5481663234375,12.794718,8.6150107234375Q12.623848,8.6818552234375,12.460738,8.7641959234375Q12.297628,8.846535723437501,12.143849,8.9435787234375Q11.9900723,9.0406222234375,11.847105,9.1514334234375Q11.7041378,9.2622452234375,11.5733595,9.3857574234375Q11.4425821,9.5092702234375,11.3252516,9.6442947234375Q11.207922,9.7793188234375,11.1051693,9.924553823437499Q11.0024185,10.0697899234375,10.9152346,10.2238378234375Q10.8280506,10.3778858234375,10.7572737,10.5392627234375Q10.6864977,10.7006407234375,10.6328106,10.8677921234375Q10.5791225,11.0349445234375,10.5430412,11.2062607234375Q10.5069599,11.3775787234375,10.4888315,11.5514107234375Q10.4707031,11.7252426234375,10.4707031,11.8999157234375Q10.4707031,12.0745888234375,10.4888315,12.2484216234375Q10.5069599,12.4222536234375,10.5430412,12.5935697234375Q10.5791225,12.7648868234375,10.6328106,12.9320390234375Q10.6864977,13.0991910234375,10.7572737,13.2605670234375Q10.8280506,13.4219450234375,10.9152346,13.5759930234375Q11.0024185,13.7300400234375,11.1051693,13.8752750234375Q11.207922,14.0205110234375,11.3252525,14.1555350234375Q11.4425821,14.2905600234375,11.5733595,14.4140720234375Q11.7041378,14.5375860234375,11.847105,14.6483970234375Q11.9900723,14.7592090234375,12.143849,14.8562510234375Q12.297628,14.9532950234375,12.460738,15.0356360234375Q12.623848,15.1179760234375,12.794718,15.1848200234375Q12.965588,15.2516650234375,13.142572,15.3023700234375Q13.319557,15.3530750234375,13.500951,15.3871520234375Q13.682346,15.4212290234375,13.866404,15.4383510234375Q14.050461,15.4554720234375,14.235409,15.4554720234375ZM16.026788,10.1219482234375L12.443978,10.1219482234375C12.289789,10.1219482234375,12.164795,10.246943023437499,12.164795,10.4011316234375L12.164795,10.5538759234375C12.164795,10.7080645234375,12.289789,10.8330593234375,12.443978,10.8330593234375L16.026788,10.8330593234375C16.180977,10.8330593234375,16.305971,10.7080645234375,16.305971,10.5538759234375L16.305971,10.4011316234375C16.305971,10.246943023437499,16.180977,10.1219482234375,16.026788,10.1219482234375ZM12.443978,11.5443115234375L16.026788,11.5443115234375C16.180977,11.5443115234375,16.305971,11.6693058234375,16.305971,11.8234949234375L16.305971,11.9762392234375C16.305971,12.1304283234375,16.180977,12.2554226234375,16.026788,12.2554226234375L12.443978,12.2554226234375C12.289789,12.2554226234375,12.164795,12.1304283234375,12.164795,11.9762392234375L12.164795,11.8234949234375C12.164795,11.6693058234375,12.289789,11.5443115234375,12.443978,11.5443115234375ZM14.186265,12.9666750234375L12.443978,12.9666750234375C12.289789,12.9666750234375,12.164795,13.0916690234375,12.164795,13.2458590234375L12.164795,13.3986020234375C12.164795,13.5527920234375,12.289789,13.6777860234375,12.443978,13.6777860234375L14.186265,13.6777860234375C14.340454,13.6777860234375,14.465448,13.5527920234375,14.465448,13.3986020234375L14.465448,13.2458590234375C14.465448,13.0916690234375,14.340454,12.9666750234375,14.186265,12.9666750234375Z" fill-rule="evenodd" fill="#FFFFFF" fill-opacity="0.8999999761581421"/></g></svg>