<svg xmlns="http://www.w3.org/2000/svg" xmlns:xlink="http://www.w3.org/1999/xlink" fill="none" version="1.1" width="16" height="16" viewBox="0 0 16 16"><g><g><g><path d="M12.4996748125,1C13.7709258125,1,14.8047298125,2.0166253999999997,14.8324378125,3.2812259L14.8330078125,3.3333335L14.8330078125,8.5C14.8330078125,8.6840949,14.6837688125,8.8333335,14.4996748125,8.8333335L13.8330078125,8.8333335C13.6489138125,8.8333335,13.4996748125,8.6840949,13.4996748125,8.5L13.4996748125,3.3333335C13.4996748125,2.7936006,13.0720788125,2.3537381,12.5371648125,2.3340232L12.4996748125,2.3333334L3.6663413125,2.3333334C3.1266084125,2.3333334,2.6867459125,2.7609291000000002,2.6670310125,3.2958436L2.6663412125,3.3333335L2.6663412125,8.5C2.6663412125,8.6840949,2.5171027125,8.8333335,2.3330078125,8.8333335L1.6663411525,8.8333335C1.4822462325,8.8333335,1.3330078125,8.6840949,1.3330078125,8.5L1.3330078125,3.3333335C1.3330078125,2.0620833999999997,2.3496332124999997,1.028278854,3.6142337125,1.0005703409L3.6663413125,1L12.4996748125,1ZM11.5361568125,5.7527266L11.0570888125,5.2891121C10.9247970125,5.1610885,10.7137709125,5.1645479,10.5857468125,5.2968388L8.0318413125,7.9356542L5.4782400125,5.2968388L5.4573593125,5.2770219C5.3282208125,5.1645479,5.1322267125,5.1678267,5.0068984125,5.2891121L4.5278301125,5.7527266L4.5080132125,5.7736068C4.3955393125,5.9027452,4.3988180125,6.0987391,4.5201034125,6.2240677L7.1041746125,8.8943205L5.6635642125,10.3830891C5.2782478125,10.1403923,4.8220243125,9.9999876,4.3330078125,9.9999876C2.9522960124999997,9.9999876,1.8330078125,11.119276,1.8330078125,12.499988C1.8330078125,13.880699,2.9522960124999997,14.999988,4.3330078125,14.999988C5.7137198125,14.999988,6.8330078125,13.880699,6.8330078125,12.499988C6.8330078125,12.093405,6.7359495125,11.709492,6.5637388125,11.370153L8.0320082125,9.8529873L9.4581261125,11.326845C9.2718825125,11.676682,9.1663413125,12.07601,9.1663413125,12.499988C9.1663413125,13.880699,10.2856293125,14.999988,11.6663418125,14.999988C13.0470538125,14.999988,14.1663418125,13.880699,14.1663418125,12.499988C14.1663418125,11.119276,13.0470538125,9.9999876,11.6663418125,9.9999876C11.1943130125,9.9999876,10.7528381125,10.1308069,10.3761968125,10.3581676L8.959674312499999,8.8943205L11.5438838125,6.2240677C11.6719078125,6.0917764,11.6684478125,5.8807497,11.5361568125,5.7527266ZM4.3336589125,13.666586Q4.3909738125,13.666586,4.4480123124999995,13.660968Q4.5050511125,13.65535,4.561264012500001,13.644167Q4.6174774124999995,13.632986,4.6723242124999995,13.616348Q4.7271709125,13.59971,4.7801225125,13.577777Q4.8330746125,13.555844,4.8836214125,13.528826Q4.934168812499999,13.501808,4.9818239124999995,13.469966Q5.0294795125,13.438124,5.0737843125,13.401764Q5.1180892125,13.365404,5.1586165125,13.324876Q5.1991444125,13.284349,5.2355044125,13.240045Q5.271864212500001,13.19574,5.3037062125,13.148083Q5.3355489125,13.100429,5.3625669125,13.049881Q5.3895845125,12.999334,5.4115181125,12.946382Q5.4334516125,12.893431,5.4500890125,12.838585Q5.4667268125,12.783737,5.4779081125,12.727524Q5.4890900125,12.67131,5.4947076125,12.614273Q5.5003257125,12.557234,5.5003257125,12.499919Q5.5003257125,12.442604,5.4947076125,12.385566Q5.4890900125,12.328526,5.4779081125,12.272312Q5.4667268125,12.216099,5.4500894125,12.161252Q5.4334516125,12.106405,5.4115181125,12.053453Q5.3895845125,12.000504,5.3625669125,11.949957Q5.3355489125,11.899409,5.3037064125,11.851753Q5.271864412499999,11.804098,5.2355044125,11.759793Q5.1991444125,11.715488,5.1586165125,11.67496Q5.1180892125,11.634434,5.0737843125,11.598073Q5.0294795125,11.561712,4.9818239124999995,11.52987Q4.934168812499999,11.498028,4.8836217125,11.47101Q4.8330746125,11.443993,4.7801225125,11.422058Q4.7271709125,11.400126,4.6723242124999995,11.383489Q4.6174774124999995,11.366852,4.561264012500001,11.355669Q4.5050511125,11.344488,4.4480126124999995,11.33887Q4.3909738125,11.333252,4.3336589125,11.333252Q4.2763443125,11.333252,4.219305712500001,11.338871Q4.1622670125,11.344488,4.1060533125,11.355669Q4.0498402124999995,11.366852,3.9949934125,11.383489Q3.9401467125,11.400126,3.8871946125,11.422058Q3.8342428125,11.443993,3.7836959125,11.47101Q3.7331490125,11.498029,3.6854935125,11.529871Q3.6378381125,11.561713,3.5935333125,11.598073Q3.5492287125,11.634434,3.5087008125,11.67496Q3.4681735125,11.715488,3.4318132125,11.759792Q3.3954532125,11.804098,3.3636107125,11.851752Q3.3317685125,11.899408,3.3047507124999997,11.949956Q3.2777326125,12.000504,3.2557992125,12.053453Q3.2338660125,12.106405,3.2172284125,12.161252Q3.2005908124999998,12.216099,3.1894092125,12.272312Q3.1782279124999997,12.328526,3.1726100125,12.385565Q3.1669922125000003,12.442604,3.1669922125000003,12.499919Q3.1669922125000003,12.557234,3.1726100125,12.614273Q3.1782278125000003,12.67131,3.1894091125,12.727524Q3.2005907125,12.783738,3.2172283125,12.838585Q3.2338657125,12.893432,3.2557990125,12.946383Q3.2777326125,12.999335,3.3047505125,13.049883Q3.3317685125,13.10043,3.3636107125,13.148085Q3.3954532125,13.195741,3.4318132125,13.240046Q3.4681735125,13.284349,3.5087008125,13.324877Q3.5492287125,13.365405,3.5935335125,13.401765Q3.6378381125,13.438125,3.6854935125,13.469966Q3.7331490125,13.501808,3.7836959125,13.528826Q3.8342428125,13.555844,3.8871946125,13.577777Q3.9401467125,13.59971,3.9949934125,13.616348Q4.0498402124999995,13.632986,4.1060533125,13.644168Q4.1622670125,13.65535,4.219305712500001,13.660969Q4.2763443125,13.666586,4.3336589125,13.666586ZM11.6666668125,13.666586Q11.7239818125,13.666586,11.7810208125,13.660968Q11.8380598125,13.65535,11.8942718125,13.644167Q11.9504858125,13.632986,12.0053328125,13.616348Q12.0601798125,13.59971,12.1131308125,13.577777Q12.1660828125,13.555844,12.2166298125,13.528826Q12.2671768125,13.501808,12.3148318125,13.469966Q12.3624878125,13.438124,12.4067938125,13.401764Q12.4510978125,13.365404,12.4916248125,13.324876Q12.5321528125,13.284349,12.5685128125,13.240045Q12.6048738125,13.19574,12.6367148125,13.148083Q12.6685578125,13.100429,12.6955758125,13.049881Q12.7225928125,12.999334,12.7445258125,12.946382Q12.7664608125,12.893431,12.7830978125,12.838585Q12.7997358125,12.783737,12.8109168125,12.727524Q12.8220998125,12.67131,12.8277168125,12.614273Q12.8333338125,12.557234,12.8333338125,12.499919Q12.8333338125,12.442604,12.8277168125,12.385566Q12.8220998125,12.328526,12.8109168125,12.272312Q12.7997358125,12.216099,12.7830978125,12.161252Q12.7664608125,12.106405,12.7445258125,12.053453Q12.7225928125,12.000504,12.6955758125,11.949957Q12.6685568125,11.899409,12.6367138125,11.851753Q12.6048728125,11.804098,12.5685118125,11.759793Q12.5321528125,11.715488,12.4916248125,11.67496Q12.4510978125,11.634434,12.4067928125,11.598073Q12.3624878125,11.561712,12.3148318125,11.52987Q12.2671768125,11.498028,12.2166298125,11.47101Q12.1660828125,11.443993,12.1131308125,11.422058Q12.0601798125,11.400126,12.0053328125,11.383489Q11.9504858125,11.366852,11.8942718125,11.355669Q11.8380598125,11.344488,11.7810208125,11.33887Q11.7239818125,11.333252,11.6666668125,11.333252Q11.6093518125,11.333252,11.5523138125,11.338871Q11.4952748125,11.344488,11.4390598125,11.355669Q11.3828478125,11.366852,11.3280010125,11.383489Q11.2731542125,11.400126,11.2202015125,11.422058Q11.1672506125,11.443993,11.1167040125,11.47101Q11.0661564125,11.498029,11.0185003125,11.529871Q10.9708462125,11.561713,10.9265413125,11.598073Q10.8822365125,11.634434,10.8417082125,11.67496Q10.8011808125,11.715488,10.7648201125,11.759792Q10.7284603125,11.804098,10.6966181125,11.851752Q10.6647758125,11.899408,10.6377582125,11.949956Q10.6107406125,12.000504,10.5888061125,12.053453Q10.5668735125,12.106405,10.5502357125,12.161252Q10.5335989125,12.216099,10.5224171125,12.272312Q10.5112362125,12.328526,10.5056181125,12.385565Q10.5000000125,12.442604,10.5000000125,12.499919Q10.5000000125,12.557234,10.5056190125,12.614273Q10.5112362125,12.67131,10.5224171125,12.727524Q10.5335989125,12.783738,10.5502357125,12.838585Q10.5668735125,12.893432,10.5888061125,12.946383Q10.6107406125,12.999335,10.6377582125,13.049883Q10.6647758125,13.10043,10.6966181125,13.148085Q10.7284603125,13.195741,10.7648210125,13.240046Q10.8011808125,13.284349,10.8417082125,13.324877Q10.8822365125,13.365405,10.9265413125,13.401765Q10.9708462125,13.438125,11.0185003125,13.469966Q11.0661564125,13.501808,11.1167040125,13.528826Q11.1672506125,13.555844,11.2202015125,13.577777Q11.2731542125,13.59971,11.3280010125,13.616348Q11.3828478125,13.632986,11.4390598125,13.644168Q11.4952748125,13.65535,11.5523138125,13.660969Q11.6093518125,13.666586,11.6666668125,13.666586Z" fill-rule="evenodd" fill="#FFFFFF" fill-opacity="1"/></g></g></g></svg>