<svg xmlns="http://www.w3.org/2000/svg" xmlns:xlink="http://www.w3.org/1999/xlink" fill="none" version="1.1" width="16" height="16" viewBox="0 0 16 16"><g><rect x="0" y="0" width="16" height="16" rx="4" fill="#3D7FFF" fill-opacity="1"/><path d="M14.045789238418578,3.485594761581421C14.32988823841858,3.7870255115814206,14.315838238418578,4.261691361581421,14.01440723841858,4.545790561581421C14.01440723841858,4.545790561581421,6.084564438418579,12.019684561581421,6.084564438418579,12.019684561581421C5.748291238418579,12.336621961581422,5.2204175384185785,12.32686016158142,4.896094838418579,11.99769756158142C4.896094838418579,11.99769756158142,2.215757678418579,9.277366361581421,2.215757678418579,9.277366361581421C1.9250413924185792,8.98231246158142,1.9285578874185791,8.507451761581422,2.223611968418579,8.216735561581421C2.518666088418579,7.926019461581421,2.9935268184185793,7.929535661581421,3.284243138418579,8.22459006158142C3.284243138418579,8.22459006158142,5.518387338418579,10.49207046158142,5.518387338418579,10.49207046158142C5.518387338418579,10.49207046158142,12.985593238418579,3.4542130415814207,12.985593238418579,3.4542130415814207C13.28702423841858,3.170113876581421,13.76168923841858,3.1841639425814208,14.045789238418578,3.485594761581421Z" fill="#FFFFFF" fill-opacity="1"/></g></svg>