<svg xmlns="http://www.w3.org/2000/svg" xmlns:xlink="http://www.w3.org/1999/xlink" fill="none" version="1.1" width="20" height="20" viewBox="0 0 20 20"><defs><clipPath id="master_svg0_4_56717"><rect x="0" y="0" width="20" height="20" rx="8"/></clipPath></defs><g clip-path="url(#master_svg0_4_56717)"><g><path d="M1.910734699981018,7.3826594C2.280025063981018,6.2405281,2.888375053981018,5.1921294,3.6910743539810182,4.303637C3.826813253981018,4.1533902000000005,4.039767853981019,4.099842300000001,4.230428853981018,4.1680150000000005C4.230428853981018,4.1680150000000005,6.148714153981018,4.8539171,6.148714153981018,4.8539171C6.668788553981018,5.0397694,7.241055153981018,4.7688289,7.426907653981018,4.2487545C7.445182453981018,4.1976151,7.459261553981018,4.1450721999999995,7.468988553981018,4.0917344C7.468988553981018,4.0917344,7.834448953981018,2.08572507,7.834448953981018,2.08572507C7.870785853981018,1.88627291,8.023964953981018,1.7285047,8.222257753981019,1.6862973C8.802447953981018,1.562801547,9.397326153981018,1.5,9.999999653981018,1.5C10.602306053981017,1.5,11.196827553981018,1.56272506,11.776683453981018,1.68607199C11.974921853981018,1.72824135,12.128093853981017,1.88591036,12.164511853981018,2.0852859C12.164511853981018,2.0852859,12.530994853981017,4.091647099999999,12.530994853981017,4.091647099999999C12.630078853981018,4.6349709,13.150854853981018,4.9950981,13.694177853981017,4.8960137C13.747603853981017,4.8862708,13.800145853981018,4.8721919,13.851200853981018,4.8539472C13.851200853981018,4.8539472,15.769570853981017,4.1680150000000005,15.769570853981017,4.1680150000000005C15.960232853981019,4.099842300000001,16.17318685398102,4.1533902000000005,16.30892485398102,4.303637C17.11162485398102,5.1921294,17.71997585398102,6.2405281,18.08926685398102,7.3826594C18.151567853981017,7.5753417,18.091493853981017,7.7865763,17.93712285398102,7.9176397C17.93712285398102,7.9176397,16.38228185398102,9.237729999999999,16.38228185398102,9.237729999999999C15.961291853981018,9.5952015,15.909798853981018,10.2262688,16.267270853981017,10.6472588C16.30242085398102,10.6886549,16.340884853981017,10.7271194,16.382258853981018,10.7622509C16.382258853981018,10.7622509,17.93712285398102,12.08236,17.93712285398102,12.08236C18.091493853981017,12.213424,18.151567853981017,12.424659,18.08926685398102,12.617341C17.71997585398102,13.759472,17.11162485398102,14.807871,16.30892485398102,15.696363C16.17318685398102,15.84661,15.960232853981019,15.900157,15.769570853981017,15.831985C15.769570853981017,15.831985,13.851285853981018,15.146083,13.851285853981018,15.146083C13.331210853981018,14.960231,12.758943853981018,15.231172,12.573091853981017,15.751245C12.554816853981018,15.802384,12.540738853981019,15.854928,12.530969853981018,15.908493C12.530969853981018,15.908493,12.164511853981018,17.914715,12.164511853981018,17.914715C12.128093853981017,18.11409,11.974921853981018,18.271759,11.776683453981018,18.313929C11.196827553981018,18.437275,10.602306053981017,18.5,9.999999653981018,18.5C9.397326153981018,18.5,8.802447953981018,18.437199,8.222257753981019,18.313704C8.023964953981018,18.271496,7.870785853981018,18.113726,7.834448953981018,17.914274C7.834448953981018,17.914274,7.469004253981018,15.908353,7.469004253981018,15.908353C7.369919853981018,15.365029,6.849145553981018,15.004902,6.305821553981018,15.103986C6.2523962539810185,15.113729,6.1998535539810185,15.127809,6.148798553981018,15.146053C6.148798553981018,15.146053,4.230428853981018,15.831985,4.230428853981018,15.831985C4.039767853981019,15.900157,3.826813253981018,15.84661,3.6910743539810182,15.696363C2.888375053981018,14.807871,2.280025063981018,13.759472,1.910734699981018,12.617341C1.8484338599810182,12.424659,1.9085065129810181,12.213424,2.062876983981018,12.08236C2.062876983981018,12.08236,3.617718453981018,10.76227,3.617718453981018,10.76227C4.038708553981018,10.4047985,4.090200353981018,9.7737312,3.732728953981018,9.3527412C3.697578553981018,9.3113451,3.659114553981018,9.2728806,3.617740853981018,9.2377491C3.617740853981018,9.2377491,2.062876983981018,7.9176397,2.062876983981018,7.9176397C1.9085065129810181,7.7865763,1.8484338599810182,7.5753417,1.910734699981018,7.3826594ZM2.9712839539810183,7.377089C2.9712839539810183,7.377089,4.2649775539810175,8.4754601,4.2649775539810175,8.4754601C4.347770053981018,8.545760600000001,4.424698253981019,8.6226892,4.494999053981018,8.705481500000001C5.2099419539810174,9.5474615,5.106957753981018,10.809597,4.264955153981019,11.524559C4.264955153981019,11.524559,2.9712839539810183,12.62291,2.9712839539810183,12.62291C3.2633343539810182,13.405142,3.684783553981018,14.132169,4.216219053981018,14.775064C4.216219053981018,14.775064,5.8121987539810185,14.204405,5.8121987539810185,14.204405C5.914477453981018,14.167855,6.0195633539810185,14.139698,6.126413953981018,14.120212C7.213061453981018,13.922043,8.254610653981018,14.642298,8.452795153981018,15.729033C8.452795153981018,15.729033,8.756763553981017,17.397514,8.756763553981017,17.397514C9.164634853981017,17.465525,9.579987653981018,17.5,9.999999653981018,17.5C10.419729853981018,17.5,10.834806053981017,17.465569000000002,11.242414153981018,17.39765C11.242414153981018,17.39765,11.547220853981019,15.728945,11.547220853981019,15.728945C11.566707253981019,15.622094,11.594864453981018,15.517009,11.631414053981018,15.41473C12.003118853981018,14.374581,13.147651853981017,13.832701,14.187885853981019,14.204435C14.187885853981019,14.204435,15.783780853981018,14.775064,15.783780853981018,14.775064C16.31521685398102,14.132169,16.736665853981016,13.405142,17.028716853981017,12.62291C17.028716853981017,12.62291,15.735021853981019,11.52454,15.735021853981019,11.52454C15.652229853981018,11.4542389,15.575301853981019,11.3773108,15.505000853981018,11.2945185C14.790057853981018,10.4525385,14.893040853981018,9.190403,15.735043853981018,8.475441C15.735043853981018,8.475441,17.028716853981017,7.377089,17.028716853981017,7.377089C16.736665853981016,6.5948582,16.31521685398102,5.8678312,15.783780853981018,5.2249365C15.783780853981018,5.2249365,14.187800853981019,5.7955947,14.187800853981019,5.7955947C14.085521853981017,5.8321447,13.980436853981018,5.8603024,13.873585853981018,5.8797884C12.786937853981017,6.0779572,11.745388653981019,5.3577023,11.547245653981019,4.2711945C11.547245653981019,4.2711945,11.242414153981018,2.6023493,11.242414153981018,2.6023493C10.834806053981017,2.5344297,10.419729853981018,2.5,9.999999653981018,2.5C9.579987653981018,2.5,9.164634853981017,2.5344759999999997,8.756763553981017,2.6024864C8.756763553981017,2.6024864,8.452778953981017,4.2710547000000005,8.452778953981017,4.2710547000000005C8.433292953981018,4.3779056,8.405135753981018,4.4829915,8.36858575398102,4.5852699C7.996881153981018,5.6254187,6.852347053981018,6.1672997,5.8121138539810175,5.7955647C5.8121138539810175,5.7955647,4.216219053981018,5.2249365,4.216219053981018,5.2249365C3.684783553981018,5.8678312,3.2633343539810182,6.5948582,2.9712839539810183,7.377089ZM7.500000153981018,10C7.500000153981018,8.619288000000001,8.619287653981019,7.5,9.999999653981018,7.5C11.380711153981018,7.5,12.499999853981018,8.619288000000001,12.499999853981018,10C12.499999853981018,11.3807116,11.380711153981018,12.5,9.999999653981018,12.5C8.619287653981019,12.5,7.500000153981018,11.3807116,7.500000153981018,10ZM8.500000153981018,10C8.500000153981018,10.8284273,9.171572353981018,11.5,9.999999653981018,11.5C10.828426953981019,11.5,11.499999653981018,10.8284273,11.499999653981018,10C11.499999653981018,9.171572699999999,10.828426953981019,8.5,9.999999653981018,8.5C9.171572353981018,8.5,8.500000153981018,9.171572699999999,8.500000153981018,10Z" fill="#FFFFFF" fill-opacity="1"/></g></g></svg>