<svg xmlns="http://www.w3.org/2000/svg" xmlns:xlink="http://www.w3.org/1999/xlink" fill="none" version="1.1" width="18" height="18" viewBox="0 0 18 18"><defs><clipPath id="master_svg0_4_56699"><rect x="0" y="0" width="18" height="18" rx="0"/></clipPath></defs><g clip-path="url(#master_svg0_4_56699)"><g><path d="M9,1.498046875C9.31066042,1.498046875,9.5625,1.749886635,9.5625,2.060546875L9.5625,8.998047875000001C9.5625,9.308707675,9.31066042,9.560547875,9,9.560547875C8.68933961,9.560547875,8.4375,9.308707675,8.4375,8.998047875000001L8.4375,2.060546875C8.4375,1.749886635,8.68933961,1.498046875,9,1.498046875Z" fill="#FFFFFF" fill-opacity="1"/></g><g><path d="M5.7172518,3.073418375C5.8898377,3.3315016650000002,5.8206873,3.680611495,5.5627518,3.853418425C2.4544673,5.930010125,1.88324067,10.267429325,4.3479030000000005,13.077966125C6.8125653,15.888500125,11.187439,15.888500125,13.652101,13.077966125C16.116763,10.267429325,15.545537,5.930009125,12.437252,3.853418425C12.168674,3.684819635,12.092478,3.327651975,12.268867,3.064124985C12.445257,2.800597991,12.804501,2.734889798,13.062752,2.918918345C15.094532,4.275129225,16.314034,6.5570845250000005,16.312502000000002,8.999918425C16.312502000000002,13.038668125,13.038753,16.312418125,9.0000014,16.312418125C4.9612514999999995,16.312418125,1.6875013732911,13.038668125,1.6875013732911,8.999918425C1.6859689521,6.557082925,2.90547,4.275127025,4.9372513,2.918918345C5.1953344,2.7463324,5.5444441,2.8154830933,5.7172518,3.073418375Z" fill="#FFFFFF" fill-opacity="1"/></g></g></svg>