<svg xmlns="http://www.w3.org/2000/svg" xmlns:xlink="http://www.w3.org/1999/xlink" fill="none" version="1.1" width="20" height="20" viewBox="0 0 20 20"><defs><clipPath id="master_svg0_4_56683"><rect x="0" y="0" width="20" height="20" rx="8"/></clipPath></defs><g clip-path="url(#master_svg0_4_56683)"><g><path d="M15.49315125,13.496970345703126C13.56534225,16.836035345703124,9.295696249999999,17.980084345703126,5.95663165,16.052274345703125C5.20012565,15.615506345703125,4.54450795,15.051817345703125,4.0104675499999995,14.388929345703126C6.84119515,13.301786345703125,8.568436649999999,11.968366645703124,9.60339495,9.992765445703125C10.651009049999999,7.993007145703125,10.93945695,5.832101145703125,10.36277155,3.083463645703125C11.26047705,3.201753845703125,12.13279055,3.495649145703125,12.93784925,3.960450045703125C16.27691425,5.888259845703125,17.420961249999998,10.157905545703125,15.49315125,13.496970345703126ZM5.45663165,16.918299345703126C9.273988750000001,19.122251345703123,14.15522625,17.814327345703127,16.359177250000002,13.996970345703126C18.56312925,10.179613145703126,17.255207249999998,5.298377045703125,13.43784925,3.094424645703125C12.33709435,2.458903555703125,11.12327005,2.102004162703125,9.880815949999999,2.035344933863125C9.48009635,2.013845814703125,9.17216875,2.385045025703125,9.26732155,2.774896745703125C9.95544955,5.594224945703125,9.70124725,7.651034345703125,8.717585549999999,9.528716045703124C7.78321555,11.312306445703125,6.17301085,12.559255345703125,3.1666097300000002,13.635288345703126C2.796668023,13.767695345703125,2.65251347,14.214618345703125,2.87536713,14.538231345703124C3.5419178000000002,15.506150345703125,4.4170637500000005,16.318104345703127,5.45663165,16.918299345703126Z" fill="#FFFFFF" fill-opacity="1"/></g></g></svg>