<svg xmlns="http://www.w3.org/2000/svg" xmlns:xlink="http://www.w3.org/1999/xlink" fill="none" version="1.1" width="20" height="20" viewBox="0 0 20 20"><defs><clipPath id="master_svg0_210_66014"><rect x="0" y="0" width="20" height="20" rx="0"/></clipPath></defs><g clip-path="url(#master_svg0_210_66014)"><path d="M10.9996103890625,4.50001317C10.9996103890625,4.29897574,10.8792047890625,4.11748973,10.6939792890625,4.03933892C10.5087537890625,3.961188141,10.294735389062499,4.0015732646,10.1507272890625,4.14185035C10.1507272890625,4.14185035,7.2240163890625,6.992732,7.2240163890625,6.992732C7.2240163890625,6.992732,5.4996330890625,6.992732,5.4996330890625,6.992732C4.6712055190625,6.992732,3.9996337890625,7.6643054,3.9996337890625,8.492732C3.9996337890625,8.492732,3.9996337890625,11.4817204,3.9996337890625,11.4817204C3.9996337890625,12.3101463,4.6712057590625005,12.9817219,5.4996337890625,12.9817219C5.4996337890625,12.9817219,7.2227761890625,12.9817219,7.2227761890625,12.9817219C7.2227761890625,12.9817219,10.1492070890625,15.856687,10.1492070890625,15.856687C10.292893389062499,15.997846,10.5072512890625,16.039003,10.6929993890625,15.961097C10.878746989062499,15.883191,10.9996103890625,15.701434,10.9996103890625,15.50001C10.9996103890625,15.50001,10.9996103890625,4.50001317,10.9996103890625,4.50001317ZM12.1108865890625,7.188742899999999C12.2827996890625,6.97264,12.5973491890625,6.9368172,12.8134517890625,7.1087302999999995C12.8134517890625,7.1087302999999995,12.8142938890625,7.109401699999999,12.8142938890625,7.109401699999999C12.8142938890625,7.109401699999999,12.8152293890625,7.1101503,12.8152293890625,7.1101503C12.8152293890625,7.1101503,12.8173770890625,7.1118808,12.8173770890625,7.1118808C12.8173770890625,7.1118808,12.8227614890625,7.1162755,12.8227614890625,7.1162755C12.8227614890625,7.1162755,12.8377217890625,7.1288166,12.8377217890625,7.1288166C12.8494939890625,7.138848100000001,12.8647985890625,7.1522448,12.8831176890625,7.169041200000001C12.9197349890625,7.2026138,12.9685439890625,7.249901299999999,13.0253600890625,7.311185399999999C13.1388635890625,7.4336157,13.2852992890625,7.6129603,13.4302720890625,7.851425900000001C13.7218036890625,8.3309636,14.0038847890625,9.0443854,14.0038847890625,9.998554200000001C14.0038847890625,10.9526787,13.7218322890625,11.666866299999999,13.4305286890625,12.1470995C13.2856540890625,12.3859358,13.1393298890625,12.5656767,13.0259351890625,12.688406C12.9691733890625,12.7498398,12.9204177890625,12.7972546,12.8838510890625,12.8309155C12.8641776890625,12.8490248,12.8440560890625,12.8665876,12.8236045890625,12.8838062C12.8236045890625,12.8838062,12.8151673890625,12.890686,12.8151673890625,12.890686C12.8151673890625,12.890686,12.8143300890625,12.8913574,12.8143300890625,12.8913574C12.8143300890625,12.8913574,12.3679761890625,13.1337357,12.1115865890625,12.8129234C11.9400586890625,12.5982952,11.9739555890625,12.2857513,12.1867694890625,12.1128006C12.1867694890625,12.1128006,12.1883210890625,12.1114845,12.1883210890625,12.1114845C12.1883210890625,12.1114845,12.1875657890625,12.1121578,12.1875657890625,12.1121578C12.1875657890625,12.1121578,12.1892280890625,12.110815,12.1892280890625,12.110815C12.1892280890625,12.110815,12.1883210890625,12.1114845,12.1883210890625,12.1114845C12.1912459890625,12.1089811,12.1974877890625,12.1035509,12.2065839890625,12.0951777C12.2247981890625,12.0784111,12.2543010890625,12.0499878,12.2914495890625,12.0097809C12.3658752890625,11.9292297,12.4699782890625,11.8024783,12.5755309890625,11.6284685C12.7850818890625,11.2830095,13.0038842890625,10.746090899999999,13.0038842890625,9.998554200000001C13.0038842890625,9.2510633,12.7851113890625,8.715217599999999,12.5757875890625,8.370903C12.4703340890625,8.1974421,12.3663415890625,8.0712142,12.2920255890625,7.9910536C12.2549314890625,7.9510422,12.2254809890625,7.9227796,12.2073173890625,7.906126C12.1982469890625,7.8978093000000005,12.1920299890625,7.8924239,12.1891278890625,7.8899512000000005C12.1891278890625,7.8899512000000005,12.1901483890625,7.8907099,12.1901483890625,7.8907099C11.9743895890625,7.7187293,11.9390759890625,7.404717,12.1108865890625,7.188742899999999ZM13.8126792890625,5.1088598C13.5966481890625,4.93685669,13.2820844890625,4.97254872,13.1100816890625,5.18858C12.9381627890625,5.4045057,12.9742765890625,5.7193229,13.1900252890625,5.8913813C13.1900252890625,5.8913813,13.2010831890625,5.9006031,13.2010831890625,5.9006031C13.2119063890625,5.9097456,13.2294501890625,5.9248435,13.2527598890625,5.9458237C13.2994107890625,5.9878117,13.3689574890625,6.0531771,13.4538392890625,6.1413279C13.6238832890625,6.3179207,13.8536939890625,6.5841098,14.0841267890625,6.935091C14.5445797890625,7.6364269,15.0029497890625,8.668472300000001,15.0029497890625,10.004047400000001C15.0029497890625,11.3395314,14.5446417890625,12.3693981,14.0844597890625,13.0684681C13.8541392890625,13.4183521,13.6244487890625,13.6834745,13.4545125890625,13.859271C13.3696851890625,13.9470243,13.3001918890625,14.01206,13.2535886890625,14.053817C13.2303037890625,14.074681,13.2127837890625,14.089687,13.2019824890625,14.098767C13.2019824890625,14.098767,13.1904487890625,14.108345,13.1904487890625,14.108345C13.1904487890625,14.108345,13.1895141890625,14.109089,13.1895141890625,14.109089C12.9741725890625,14.280777,12.9381761890625,14.594455,13.1093139890625,14.810492C13.2807826890625,15.026947,13.5960349890625,15.062799,13.8124894890625,14.89133C13.8124894890625,14.89133,13.8454589890625,14.864234,13.8454589890625,14.864234C13.8639793890625,14.848664,13.8894652890625,14.826761,13.9209146890625,14.798583C13.9837798890625,14.742253,14.0706697890625,14.66067,14.1735017890625,14.554292C14.3788867890625,14.341825,14.6496237890625,14.028631,14.9197297890625,13.6183071C15.4604037890625,12.7969608,16.002949789062498,11.5788417,16.002949789062498,10.004047400000001C16.002949789062498,8.4293442,15.4604657890625,7.2093758999999995,14.9200637890625,6.3862667C14.6500687890625,5.975026,14.3794527890625,5.6608851,14.1741757890625,5.4477034C14.0713977890625,5.3409671,13.9845599890625,5.2590842,13.9217433890625,5.2025459000000005C13.8903188890625,5.1742628,13.8648566890625,5.1522778,13.8463592890625,5.1366534C13.8463592890625,5.1366534,13.8239402890625,5.1179787,13.8239402890625,5.1179787C13.8239402890625,5.1179787,13.8168696890625,5.1122227,13.8168696890625,5.1122227C13.8168696890625,5.1122227,13.8144092890625,5.1102418,13.8144092890625,5.1102418C13.8144092890625,5.1102418,13.8126792890625,5.1088598,13.8126792890625,5.1088598Z" fill="#FFFFFF" fill-opacity="0.8999999761581421"/></g></svg>