<svg xmlns="http://www.w3.org/2000/svg" xmlns:xlink="http://www.w3.org/1999/xlink" fill="none" version="1.1" width="20" height="20" viewBox="0 0 20 20"><defs><clipPath id="master_svg0_210_66558"><rect x="0" y="0" width="20" height="20" rx="0"/></clipPath></defs><g clip-path="url(#master_svg0_210_66558)"><path d="M14.64644671875,15.646546897384644Q16.99999971875,13.292994297384643,16.99999971875,10.000099897384644Q16.99999971875,6.7072069973846435,14.64644671875,4.353653247384644C14.55276771875,4.2598331573846435,14.50009971875,4.132681667384643,14.50009971875,4.0000998973846436C14.50009971875,3.7240127373846437,14.72391271875,3.5001998841766437,14.99999971875,3.5001998841766437C15.13258171875,3.5001998841766437,15.25973271875,3.5528677773846438,15.35348271875,3.6466172673846438Q17.99999971875,6.292993797384644,17.99999971875,10.000099897384644Q17.99999971875,13.707207897384643,15.35355371875,16.353653897384646C15.25973271875,16.447331897384643,15.13258171875,16.499999897384644,14.99999971875,16.499999897384644C14.72391271875,16.499999897384644,14.50009971875,16.276186897384644,14.50009971875,16.000099897384644C14.50009971875,15.867517897384644,14.55276771875,15.740366897384643,14.64644671875,15.646546897384644ZM10.69385721875,4.039438847384644C10.87908271875,4.117589597384644,10.99948831875,4.299075607384643,10.99948831875,4.500112997384644L10.99948831875,15.500109897384643C10.99948831875,15.701533897384644,10.878624918749999,15.883290897384644,10.69287731875,15.961196897384644C10.50712921875,16.039102897384645,10.292771318749999,15.997945897384643,10.14908501875,15.856786897384644L7.22265411875,12.981821797384644L5.49951171875,12.981821797384644C4.6710836887500005,12.981821797384644,3.99951171875,12.310246197384643,3.99951171875,11.481820297384644L3.99951171875,8.492831897384644C3.99951171875,7.664405597384643,4.67108344875,6.992831897384644,5.49951101875,6.992831897384644L7.22389431875,6.992831897384644L10.15060521875,4.141950247384644C10.294613318749999,4.001673157384643,10.50863171875,3.9612880373846435,10.69385721875,4.039438847384644ZM13.10995961875,5.1886798973846435C13.28196241875,4.9726485973846435,13.59652611875,4.936956597384643,13.81255721875,5.108959697384644L13.81428721875,5.110341697384643L13.81674761875,5.112322597384644L13.82381821875,5.118078597384644L13.84623721875,5.136753297384644C13.86473461875,5.152377697384644,13.89019681875,5.174362697384644,13.92162131875,5.202645797384644C13.98443791875,5.259184097384644,14.07127571875,5.341066997384644,14.17405371875,5.4478032973846435C14.37933071875,5.660984997384643,14.64994671875,5.975125997384644,14.91994171875,6.386366597384644C15.46034371875,7.209475797384643,16.002827718749998,8.429444097384643,16.002827718749998,10.004147297384645C16.002827718749998,11.578942097384644,15.46028171875,12.797060697384644,14.91960771875,13.618406897384643C14.64950171875,14.028730897384644,14.37876471875,14.341924897384644,14.17337971875,14.554391897384644C14.07054771875,14.660769897384643,13.98365781875,14.742352897384643,13.92079261875,14.798682897384644C13.88934321875,14.826860897384643,13.86385731875,14.848763897384643,13.84533691875,14.864333897384643L13.81236741875,14.891429897384644C13.59591291875,15.062898897384644,13.28066061875,15.027046897384643,13.10919191875,14.810591897384644C12.93805411875,14.594554897384644,12.97405051875,14.280876897384644,13.18939211875,14.109188897384644L13.18939211875,14.109188897384644L13.20186041875,14.098866897384644C13.21266171875,14.089786897384643,13.23018171875,14.074780897384644,13.25346661875,14.053916897384644C13.30006981875,14.012159897384644,13.36956311875,13.947123897384644,13.45439051875,13.859370897384643C13.62432671875,13.683574897384643,13.85401721875,13.418451997384643,14.08433771875,13.068567997384644C14.54451971875,12.369497997384643,15.00282771875,11.339631297384644,15.00282771875,10.004147297384645C15.00282771875,8.668572197384645,14.54445771875,7.636526797384644,14.08400471875,6.9351908973846434C13.85357191875,6.584209697384644,13.62376121875,6.318020597384644,13.45371721875,6.141427797384644C13.36883541875,6.053276997384644,13.29928871875,5.987911497384644,13.25263781875,5.945923597384644C13.22932811875,5.924943397384643,13.21178431875,5.909845597384644,13.20096111875,5.900702997384643L13.18990321875,5.8914811973846435C12.97415451875,5.719422797384643,12.93804071875,5.404605597384643,13.10995961875,5.1886798973846435ZM12.81332971875,7.108830197384643C12.59722711875,6.936917097384644,12.28267761875,6.972739897384644,12.11076451875,7.188842797384643C11.93895391875,7.404816897384643,11.97426751875,7.718828897384643,12.19002631875,7.890809797384644L12.18900581875,7.890051097384643C12.19190791875,7.892523497384643,12.19812491875,7.897908897384643,12.20719531875,7.906225897384644C12.22535891875,7.922879497384644,12.25480941875,7.951142097384643,12.29190351875,7.991153497384643C12.36621951875,8.071314097384644,12.47021201875,8.197541997384644,12.57566551875,8.371002897384644C12.78498931875,8.715317497384643,13.00376221875,9.251163197384644,13.00376221875,9.998654097384645C13.00376221875,10.746190797384642,12.78495981875,11.283109397384644,12.57540891875,11.628568397384644C12.46985621875,11.802578697384643,12.36575321875,11.929329597384644,12.29132751875,12.009880797384644C12.25417901875,12.050087697384644,12.22467611875,12.078510997384644,12.20646191875,12.095277597384644C12.19736571875,12.103650797384644,12.19112391875,12.109080997384643,12.18819901875,12.111584397384643L12.18664741875,12.112900497384643C11.97383351875,12.285851197384643,11.93993661875,12.598395097384644,12.11146451875,12.813023297384644C12.36785411875,13.133835597384644,12.81420801875,12.891457297384644,12.81420801875,12.891457297384644L12.81420801875,12.891457297384644L12.82348251875,12.883906097384644C12.84393401875,12.866687497384644,12.86405561875,12.849124697384644,12.88372901875,12.831015397384643C12.92029571875,12.797354497384644,12.96905131875,12.749939697384644,13.02581311875,12.688505897384644C13.13920781875,12.565776597384643,13.28553201875,12.386035697384644,13.43040661875,12.147199397384643C13.72171021875,11.666966197384644,14.00376271875,10.952778597384643,14.00376271875,9.998654097384645C14.00376271875,9.044485297384643,13.72168161875,8.331063497384644,13.43015001875,7.851525997384644C13.28517721875,7.613060197384644,13.13874151875,7.433715597384643,13.02523801875,7.311285297384643C12.96842191875,7.250001197384643,12.91961291875,7.2027136973846435,12.88299561875,7.169141097384644C12.86467651875,7.152344697384644,12.84937191875,7.138947997384644,12.83759971875,7.128916497384644L12.82263941875,7.116375397384644L12.81725501875,7.111980697384643L12.81510731875,7.1102501973846435L12.81332971875,7.108830197384643L12.81332971875,7.108830197384643Z" fill-rule="evenodd" fill="#FFFFFF" fill-opacity="0.8999999761581421"/></g></svg>