<svg xmlns="http://www.w3.org/2000/svg" xmlns:xlink="http://www.w3.org/1999/xlink" fill="none" version="1.1" width="20" height="20" viewBox="0 0 20 20"><path d="M11.1306734,3.19526511L7.6511667,6.117857L5.7819426,6.1180239C5.3000519,6.1180239,5.0433182,6.167601299999999,4.77577776,6.3106837C4.52568054,6.444437000000001,4.32641321,6.6437044,4.19265977,6.8938015C4.055798557,7.1497097,4.0044878521,7.395731,4.0002847687,7.8383684L4,11.0027485C4,11.4846382,4.04957759,11.7413731,4.19265977,12.008913C4.32641321,12.2590103,4.52568054,12.4582777,4.77577776,12.5920315L4.81063241,12.6101675C5.0544577,12.7334595,5.2978268,12.7803936,5.7203449,12.7844057L7.651,12.784524L11.1306734,15.70745C11.2808051,15.83356,11.4705963,15.902695,11.666667,15.902695C12.1269045,15.902695,12.5,15.5296,12.5,15.069362L12.5,3.83335251C12.5,3.63728237,12.4308653,3.44749099,12.3047543,3.29735911C12.0087337,2.944953166,11.483079400000001,2.89924414,11.1306734,3.19526511Z" fill="#FFFFFF" fill-opacity="0.8600000143051147"/></svg>