<svg xmlns="http://www.w3.org/2000/svg" xmlns:xlink="http://www.w3.org/1999/xlink" fill="none" version="1.1" width="20" height="20" viewBox="0 0 20 20"><defs><clipPath id="master_svg0_210_66463"><rect x="0" y="0" width="20" height="20" rx="0"/></clipPath></defs><g clip-path="url(#master_svg0_210_66463)"><path d="M12.999488671875,4.50001317L12.999488671875,10.3750491L8.428544071874999,6.992732L9.223894071875,6.992732L12.150605171875,4.14185035C12.294612871875,4.0015732646,12.508631671875,3.961188141,12.693857671875,4.03933892C12.879082671875,4.11748973,12.999488671875,4.29897574,12.999488671875,4.50001317ZM17.192132671875,14.787253L3.524440051875,4.67370516C3.376587151875,4.56606263,3.169320051875,4.59766495,3.060339541875,4.74494362L2.663791015875,5.2808483C2.554287165875,5.4288342,2.585483078875,5.637571,2.733469041875,5.7470748L6.030711871875,8.1869063C6.010259171875,8.2856436,5.999511671875,8.3879328,5.999511671875,8.492732L5.999511671875,11.4817204C5.999511671875,12.3101463,6.671083471875,12.9817219,7.499511671875,12.9817219L9.222654371874999,12.9817219L12.149085071875,15.856687C12.292771371875,15.997846,12.507129671875,16.039003,12.692876671875,15.961097C12.878624671875,15.883191,12.999488671875,15.701434,12.999488671875,15.50001L12.999488671875,13.3435297L16.399035671874998,15.859062C16.547021671875,15.968566,16.755759671874998,15.93737,16.865262671875,15.789385L17.261810671875,15.25348C17.371314671875,15.105494,17.340118671875,14.896757,17.192132671875,14.787253Z" fill-rule="evenodd" fill="#FFFFFF" fill-opacity="0.8999999761581421"/></g></svg>