<svg xmlns="http://www.w3.org/2000/svg" xmlns:xlink="http://www.w3.org/1999/xlink" fill="none" version="1.1" width="23.5" height="23.5" viewBox="0 0 23.5 23.5"><defs><linearGradient x1="-2.4868995751603507e-14" y1="0" x2="1" y2="1" id="master_svg0_1_2087"><stop offset="0%" stop-color="#4CD2FF" stop-opacity="1"/><stop offset="100%" stop-color="#0078D4" stop-opacity="1"/></linearGradient></defs><g><path d="M11.261,23.5L1,23.5C0.447998,23.5,0,23.05,0,22.5L0,12.24L11.261,12.24L11.261,23.5ZM23.5,22.5C23.5,23.05,23.052,23.5,22.5,23.5L12.24,23.5L12.24,12.24L23.5,12.24L23.5,22.5ZM11.261,11.26L0,11.26L0,1C0,0.449951,0.447998,0,1,0L11.261,0L11.261,11.26ZM22.5,0C23.052,0,23.5,0.449951,23.5,1L23.5,11.26L12.24,11.26L12.24,0L22.5,0Z" fill="url(#master_svg0_1_2087)" fill-opacity="1" style="mix-blend-mode:passthrough"/></g></svg>