<svg xmlns="http://www.w3.org/2000/svg" xmlns:xlink="http://www.w3.org/1999/xlink" fill="none" version="1.1" width="16" height="16.0078125" viewBox="0 0 16 16.0078125"><path d="M0 4.5725274085998535C4.90527396329193e-16 2.047797010794844 2.046698377982345 0.0010986328125 4.5714287757873535 0.0010986328125L11.428571224212646 0.0010986328125C13.953301622017655 0.0010986328125 16 2.047797010794845 16 4.5725274085998535L16 11.429669857025146C16 13.954400254830155 13.953301622017655 16.0010986328125 11.428571224212646 16.0010986328125L4.5714287757873535 16.0010986328125C2.046698377982345 16.0010986328125 0 13.954400254830155 0 11.429669857025146Z" fill="#DE3933" fill-opacity="1"/><g><path d="M8.4319233921875,4.025818828390503C8.4291147921875,4.025263608390503,8.426304292187499,4.024712148390503,8.4234919921875,4.024164378390503C8.4234919921875,3.7560043883905028,8.150890392187499,3.487675428390503,7.8783876921875,3.487675428390503C7.6058854921875,3.487664684039503,7.3332831921874995,3.755961418390503,7.3332831921874995,4.024164378390503C6.0551319921874995,4.273106038390503,5.1533307921875,5.297018328390503,5.1533307921875,6.584595228390503L5.1533307921875,8.494906228390503C5.1533307921875,9.011976028390503,4.7561069721875,9.478469128390504,4.3007685521875,9.603858728390502C4.1738078421875,9.638820428390503,4.0633544921875,9.743561028390502,4.0633544921875,9.875247728390503L4.0633544921875,10.203101828390503C4.0633544921875,10.334788528390503,4.1701075321875,10.441541428390503,4.3017940921875,10.441541428390503L11.454981292187501,10.441541428390503C11.5866679921875,10.441541428390503,11.6934213921875,10.333652728390504,11.6934213921875,10.201966028390503L11.6934208921875,9.874016528390502C11.6934208921875,9.742329328390504,11.5829667921875,9.638820428390503,11.4560060921875,9.603858228390504C11.0006684921875,9.478469128390504,10.6034440921875,9.011976028390503,10.6034440921875,8.494906228390503L10.6034440921875,6.943806928390503L10.6009912921875,6.943808328390503Q10.4897107921875,6.943808328390503,10.3789648921875,6.932900928390502Q10.2682199921875,6.921993528390503,10.1590766921875,6.900283328390502Q10.049934392187499,6.8785736283905035,9.9434446921875,6.846270528390503Q9.8369559921875,6.813967428390503,9.734145192187501,6.771381828390503Q9.6313352921875,6.728796728390503,9.5331944921875,6.676339428390503Q9.4350537921875,6.623881628390503,9.3425263921875,6.562057228390502Q9.249999992187501,6.500232928390503,9.1639790921875,6.429636928390503Q9.077957192187501,6.3590409283905025,8.9992694921875,6.280353528390503Q8.9205822921875,6.201666128390503,8.8499860921875,6.115644728390503Q8.7793902921875,6.029623228390503,8.7175654921875,5.937096328390503Q8.655741192187499,5.844569728390503,8.6032838921875,5.746428728390503Q8.5508260921875,5.648287728390503,8.5082406921875,5.545477628390502Q8.465655292187499,5.442667528390503,8.433352492187499,5.336178328390503Q8.401049592187501,5.229689128390503,8.3793396921875,5.120546228390503Q8.357630292187501,5.0114035283905025,8.3467230921875,4.900658528390503Q8.335815392187499,4.789913428390503,8.335815392187499,4.678632528390503Q8.335815392187499,4.345151128390503,8.4319233921875,4.025818828390503ZM7.8783754921875,12.392074328390503C8.6958827921875,12.392074328390503,8.9683923921875,11.766361928390502,8.9683923921875,11.319091128390504L6.7884313921874995,11.319091128390504C6.7884313921874995,11.766361928390502,7.0608686921874995,12.392074328390503,7.8783754921875,12.392074328390503Z" fill-rule="evenodd" fill="#FFFFFF" fill-opacity="1" style="mix-blend-mode:passthrough"/></g><ellipse cx="10.553442478179932" cy="4.632482886314392" rx="1.3832764625549316" ry="1.383276343345642" fill="#FFFFFF" fill-opacity="1"/></svg>