<svg xmlns="http://www.w3.org/2000/svg" xmlns:xlink="http://www.w3.org/1999/xlink" fill="none" version="1.1" width="16" height="16" viewBox="0 0 16 16"><g><path d="M7.9902148401184085,0.8568224906921387C9.715349640118408,0.8568224906921387,11.298118840118407,1.4663664706921387,12.534898840118409,2.481832390692139L12.535824840118408,2.4825926906921385C12.602799840118408,2.537624590692139,12.592395840118408,2.6413780906921387,12.516779840118408,2.6837597906921387L12.511496840118408,2.6867203906921384L11.805080840118409,3.0826577906921386L11.804602840118408,3.082925790692139C11.761255840118409,3.1072222906921385,11.708840840118409,3.1035668906921385,11.669010840118409,3.0738527906921385Q11.666144840118408,3.0717148906921388,11.663558840118409,3.069794190692139C10.637515540118407,2.307695390692139,9.366518540118408,1.8568225906921387,7.9902148401184085,1.8568225906921387C4.584458540118408,1.8568225906921387,1.8235478401184082,4.6177336906921385,1.8235478401184082,8.023489990692138C1.8235478401184082,8.209700090692138,1.8318013401184081,8.393982390692138,1.8479621401184083,8.575991590692139L1.8480125401184082,8.576558590692139C1.8525817401184081,8.627898690692138,1.8275976401184082,8.67641209069214,1.782644990118408,8.701630090692138L1.7806298701184082,8.702760690692138L1.0733911401184082,9.099515390692138L1.0723467501184083,9.10010099069214C0.9968160401184082,9.142472790692139,0.9029186141184082,9.097008190692138,0.8910578711184082,9.01122049069214L0.8907257911184082,9.008811490692139C0.8464343061184082,8.686704590692138,0.8235478401184082,8.357769990692137,0.8235478401184082,8.023489990692138C0.8235478401184082,4.065448990692138,4.032174140118409,0.8568224906921387,7.9902148401184085,0.8568224906921387ZM13.740864840118409,5.856985590692139Q13.794086840118409,5.856985590692139,13.847050840118408,5.851768990692139Q13.900014840118407,5.846552390692139,13.952211840118409,5.836169290692139Q14.004409840118408,5.825787090692138,14.055338840118408,5.810337590692138Q14.106268840118409,5.794888490692139,14.155437840118408,5.774521390692139Q14.204609840118408,5.754154690692139,14.251545840118409,5.729066390692139Q14.298481840118408,5.7039780906921385,14.342731840118407,5.674410390692139Q14.386984840118409,5.6448425906921385,14.428124840118409,5.611080190692139Q14.469264840118408,5.577317190692138,14.506896840118408,5.539684290692139Q14.544530840118409,5.502051790692138,14.578292840118408,5.460911290692139Q14.612055840118408,5.419771190692138,14.641622840118409,5.3755192906921385Q14.671191840118409,5.331267790692139,14.696279840118407,5.284331290692139Q14.721367840118408,5.2373947906921385,14.741733840118409,5.188225290692139Q14.762101840118408,5.139055690692139,14.777550840118408,5.088126690692139Q14.793000840118408,5.037198090692138,14.803383840118409,4.984999690692138Q14.813766840118408,4.932801690692139,14.818983840118408,4.879837490692139Q14.824199840118409,4.826872790692139,14.824198840118408,4.7736520906921385Q14.824199840118409,4.720431290692138,14.818983840118408,4.667466590692139Q14.813765840118409,4.614502390692138,14.803382840118408,4.562303790692139Q14.792999840118409,4.510106090692139,14.777550840118408,4.459176790692139Q14.762101840118408,4.408247690692139,14.741733840118409,4.359077890692139Q14.721367840118408,4.309908390692138,14.696279840118407,4.262971890692139Q14.671191840118409,4.216035390692139,14.641622840118409,4.171783690692139Q14.612055840118408,4.127532490692138,14.578292840118408,4.086392390692138Q14.544531840118408,4.045252290692138,14.506897840118409,4.007619390692138Q14.469265840118409,3.9699868906921387,14.428125840118408,3.9362239906921386Q14.386984840118409,3.902461090692139,14.342731840118407,3.8728928906921385Q14.298481840118408,3.843325090692139,14.251545840118409,3.8182370906921386Q14.204609840118408,3.7931489906921385,14.155437840118408,3.7727820906921385Q14.106268840118409,3.7524156906921387,14.055338840118408,3.7369665906921385Q14.004409840118408,3.7215175906921387,13.952211840118409,3.7111343906921386Q13.900014840118407,3.7007517906921388,13.847049840118409,3.6955353906921387Q13.794086840118409,3.6903185906921387,13.740864840118409,3.6903185906921387Q13.687645840118408,3.6903185906921387,13.634679840118409,3.6955351906921385Q13.581714840118408,3.7007517906921388,13.529516840118408,3.7111343906921386Q13.477318840118409,3.7215175906921387,13.426388840118408,3.7369665906921385Q13.375459840118408,3.7524156906921387,13.326289840118408,3.7727820906921385Q13.277120840118409,3.7931489906921385,13.230182840118408,3.8182370906921386Q13.183246840118409,3.843325090692139,13.138994840118409,3.8728928906921385Q13.094743840118408,3.902461090692139,13.053604840118409,3.9362239906921386Q13.012464840118408,3.9699868906921387,12.974830840118408,4.007619390692138Q12.937198840118409,4.045252290692138,12.903435840118409,4.086392390692138Q12.869672840118408,4.127532490692138,12.840104840118409,4.171783690692139Q12.810537840118409,4.216035390692139,12.785448840118407,4.262971890692139Q12.760360840118409,4.309908390692138,12.739994840118408,4.359077890692139Q12.719627840118408,4.408247690692139,12.704178840118407,4.459176990692139Q12.688730840118408,4.510106090692139,12.678346840118408,4.562303990692138Q12.667965840118407,4.614502390692138,12.662748840118407,4.667466890692139Q12.657531840118407,4.720431290692138,12.657531840118407,4.7736520906921385Q12.657531840118407,4.826872790692139,12.662748840118407,4.879836990692139Q12.667965840118407,4.932801690692139,12.678346840118408,4.984999190692139Q12.688730840118408,5.037197590692139,12.704177840118408,5.088126690692139Q12.719627840118408,5.139055690692139,12.739993840118409,5.188225290692139Q12.760360840118409,5.2373947906921385,12.785449840118408,5.284331290692139Q12.810536840118408,5.331267790692139,12.840103840118408,5.3755192906921385Q12.869672840118408,5.419771190692138,12.903435840118409,5.460911790692139Q12.937198840118409,5.502051790692138,12.974830840118408,5.539684290692139Q13.012464840118408,5.577317190692138,13.053604840118409,5.611079690692138Q13.094743840118408,5.6448425906921385,13.138995840118408,5.674410390692139Q13.183247840118408,5.7039780906921385,13.230183840118409,5.729066390692139Q13.277120840118409,5.754154690692139,13.326290840118409,5.774521390692139Q13.375460840118409,5.794888490692139,13.426389840118409,5.810337990692139Q13.477319840118408,5.825787090692138,13.529516840118408,5.836169690692139Q13.581714840118408,5.846552890692139,13.634679840118409,5.851768990692139Q13.687645840118408,5.856985590692139,13.740864840118409,5.856985590692139ZM15.114351840118408,7.123950490692138L15.114393840118408,7.124276590692139C15.149366840118407,7.411313990692139,15.167369840118408,7.703590390692138,15.167369840118408,8.00007149069214C15.167369840118408,11.95811249069214,11.958743840118409,15.166738490692138,8.000702840118407,15.166738490692138C6.306461840118408,15.166738490692138,4.749533140118408,14.57883049069214,3.5227954401184083,13.595892490692139L3.5218432401184083,13.595128490692138C3.454465340118408,13.541099490692138,3.463270940118408,13.43495149069214,3.5397467401184084,13.392257490692138L3.5408096401184084,13.391664490692138L4.239660240118408,13.001523490692138L4.256415840118408,12.992169490692138C4.299521440118408,12.968105490692139,4.351383240118408,12.971759490692138,4.391386040118409,13.000689490692139L4.3918261401184076,13.001007490692139C5.4064240401184085,13.734462490692138,6.653081440118409,14.166738490692138,8.000702840118407,14.166738490692138C11.406458840118407,14.166738490692138,14.167369840118408,11.405828490692139,14.167369840118408,8.00007149069214C14.167369840118408,7.851245390692139,14.162097840118408,7.703650990692139,14.151729840118408,7.557464090692139L14.151688840118409,7.556893390692139C14.148004840118409,7.505088790692139,14.173707840118409,7.456466190692138,14.219052840118408,7.4311461906921386L14.219551840118408,7.430867690692138L14.918162840118407,7.040779090692139L14.932443840118408,7.032804990692139C15.008399840118408,6.990393590692139,15.102739840118408,7.037735490692139,15.114351840118408,7.123950490692138ZM2.240865540118408,12.35698549069214Q2.2940864401184085,12.35698549069214,2.3470509401184083,12.35176849069214Q2.400015340118408,12.346552490692138,2.4522132401184082,12.33616949069214Q2.504411440118408,12.32578749069214,2.555340540118408,12.310337490692138Q2.6062696401184082,12.294888490692138,2.655439140118408,12.27452149069214Q2.704608840118408,12.25415449069214,2.751545240118408,12.229066490692139Q2.7984818401184084,12.203978490692139,2.8427331401184084,12.174409490692138Q2.886984840118408,12.144841490692139,2.928125140118408,12.111078490692138Q2.969265440118408,12.077316490692139,3.0068979401184084,12.03968349069214Q3.044530840118408,12.00205149069214,3.078293540118408,11.96091049069214Q3.112056540118408,11.91977049069214,3.141624240118408,11.875518490692139Q3.171192140118408,11.831267490692138,3.196280240118408,11.78433149069214Q3.221368340118408,11.73739449069214,3.241734940118408,11.68822449069214Q3.262101840118408,11.63905449069214,3.277550940118408,11.58812549069214Q3.2930002401184084,11.53719649069214,3.303382840118408,11.484998490692139Q3.3137657401184084,11.432800490692138,3.318982340118408,11.379836490692139Q3.324198940118408,11.32687249069214,3.324198940118408,11.273651490692139Q3.324198940118408,11.220430490692138,3.318982340118408,11.167466490692139Q3.3137657401184084,11.114501490692138,3.303382840118408,11.06230349069214Q3.2930002401184084,11.010106490692138,3.277550740118408,10.959176490692139Q3.2621016401184084,10.908247490692139,3.241734740118408,10.85907649069214Q3.221368340118408,10.809907390692139,3.1962800401184084,10.762971390692138Q3.171192140118408,10.716035390692138,3.141623940118408,10.671782990692138Q3.112056240118408,10.627532490692138,3.078293540118408,10.586392890692139Q3.044530840118408,10.54525329069214,3.0068979401184084,10.507619390692138Q2.969265440118408,10.469986390692139,2.928125140118408,10.43622349069214Q2.886984840118408,10.402459590692139,2.8427331401184084,10.372891890692138Q2.7984818401184084,10.343324190692138,2.751545240118408,10.318236790692138Q2.704608840118408,10.293148490692138,2.655439140118408,10.272781890692139Q2.6062696401184082,10.252416090692138,2.555340540118408,10.23696659069214Q2.504411440118408,10.221517090692139,2.4522132401184082,10.21113439069214Q2.400015340118408,10.200751790692138,2.3470509401184083,10.195535190692139Q2.2940864401184085,10.190318590692138,2.240865540118408,10.190318590692138Q2.187644940118408,10.190318590692138,2.1346804401184083,10.195535190692139Q2.081715840118408,10.200751790692138,2.0295176401184083,10.21113439069214Q1.9773194401184082,10.221517090692139,1.9263904401184082,10.23696659069214Q1.8754613401184081,10.252416090692138,1.8262916401184082,10.272781890692139Q1.7771222001184082,10.293148490692138,1.7301856901184083,10.318236790692138Q1.683249120118408,10.343324190692138,1.6389976701184081,10.372891890692138Q1.5947463501184083,10.402459590692139,1.5536061501184082,10.43622349069214Q1.5124659501184081,10.469986390692139,1.4748331901184082,10.507619390692138Q1.4372004301184083,10.54525329069214,1.4034375501184082,10.586392890692139Q1.369674680118408,10.627532490692138,1.3401067301184082,10.671782990692138Q1.310538890118408,10.716035390692138,1.2854508201184083,10.762971390692138Q1.260362740118408,10.809907390692139,1.2399960201184081,10.85907649069214Q1.2196293501184083,10.908247490692139,1.2041801801184082,10.959176490692139Q1.188731010118408,11.010106490692138,1.1783481201184083,11.06230349069214Q1.167965290118408,11.114501490692138,1.1627487801184082,11.167466490692139Q1.1575322201184082,11.220430490692138,1.1575322201184082,11.273651490692139Q1.1575322201184082,11.32687249069214,1.1627487801184082,11.379836490692139Q1.167965290118408,11.432800490692138,1.1783481201184083,11.484998490692139Q1.1887309801184083,11.53719649069214,1.2041801501184082,11.58812549069214Q1.219629320118408,11.63905449069214,1.239995990118408,11.68822449069214Q1.2603627101184083,11.73739449069214,1.2854508201184083,11.78433149069214Q1.310538890118408,11.831267490692138,1.3401067301184082,11.875518490692139Q1.3696746201184082,11.91977049069214,1.4034375001184083,11.960911490692139Q1.4372004301184083,12.00205149069214,1.4748331301184083,12.03968349069214Q1.5124659501184081,12.077316490692139,1.5536060901184081,12.11107949069214Q1.5947462901184082,12.144841490692139,1.6389976701184081,12.174409490692138Q1.683249120118408,12.20397749069214,1.7301856301184082,12.229065490692138Q1.7771222001184082,12.254153490692138,1.8262916401184082,12.274520490692138Q1.8754613401184081,12.294888490692138,1.9263904401184082,12.310336490692139Q1.9773194401184082,12.325786490692138,2.0295176401184083,12.336168490692138Q2.081715840118408,12.34655149069214,2.1346804401184083,12.35176849069214Q2.187644940118408,12.35698549069214,2.240865540118408,12.35698549069214Z" fill-rule="evenodd" fill="#FFFFFF" fill-opacity="0.8600000143051147"/></g><g><path d="M6.8537316420166015,11.795481723266601L6.8537316420166015,4.422642383266601C6.8537316420166015,4.312135513266601,6.809833042016601,4.206154723266602,6.731693042016602,4.128014563266602C6.568974542016601,3.9652961082666014,6.305155742016602,3.9652961082666014,6.142437342016602,4.128014563266602L4.440026282016602,5.830425623266602C4.361886125016602,5.908565623266601,4.317987442016602,6.0145464232666015,4.317987442016602,6.125053423266602C4.317987442016602,6.355171923266601,4.504535462016602,6.5417199232666015,4.734654102016601,6.5417199232666015L5.812049942016602,6.541704923266602L5.812065042016601,11.795481723266601C5.812065042016601,11.888348123266603,5.821734442016601,11.922023723266602,5.839891442016602,11.955974623266602C5.858048442016601,11.989925423266602,5.884693042016601,12.016569123266601,5.918643642016601,12.034727123266602C5.952594242016602,12.052884123266601,5.986269942016602,12.062553423266602,6.079136342016602,12.062553423266602L6.586660342016602,12.062553423266602C6.679527042016602,12.062553423266602,6.713202742016602,12.052884123266601,6.747153242016601,12.034727123266602C6.781103842016602,12.016569123266601,6.8077485420166015,11.989925423266602,6.825905542016601,11.955974623266602C6.844062342016601,11.922023723266602,6.8537316420166015,11.888348123266603,6.8537316420166015,11.795481723266601ZM9.172962142016601,4.1481988132666014C9.154805142016603,4.182149443266602,9.1451358420166,4.215825093266601,9.1451358420166,4.3086916232666015L9.1451358420166,11.681531423266602C9.1451358420166,11.7920384232666,9.189034442016602,11.898018323266601,9.267174742016602,11.976158623266603C9.429893042016602,12.138877823266602,9.693711742016601,12.138877823266602,9.856430542016602,11.976158623266603L11.5588417420166,10.273747923266601C11.636981442016602,10.195607623266602,11.680880042016602,10.089627223266602,11.680880042016602,9.979120223266602C11.680880042016602,9.749001523266601,11.494332342016602,9.562453223266601,11.264213542016602,9.562453223266601L10.1867876420166,9.562438523266602L10.186631242016603,4.2882845432666015C10.1852645420166,4.210642593266601,10.175736442016602,4.179537843266601,10.1589760420166,4.1481988132666014C10.140819042016602,4.114248213266602,10.114174342016602,4.0876035692666015,10.080224042016601,4.069446578266602C10.046273242016602,4.051289588266601,10.012597542016602,4.0416202542666015,9.919731142016602,4.0416202542666015L9.3917999420166,4.041791361266601C9.314158442016602,4.043158065266602,9.283053442016602,4.052686281266602,9.2517142420166,4.069446578266602C9.217763942016601,4.0876035692666015,9.191119242016601,4.114248213266602,9.172962142016601,4.1481988132666014Z" fill-rule="evenodd" fill="#FFFFFF" fill-opacity="0.8600000143051147"/></g></svg>