<svg xmlns="http://www.w3.org/2000/svg" xmlns:xlink="http://www.w3.org/1999/xlink" fill="none" version="1.1" width="40" height="20" viewBox="0 0 40 20"><rect x="0" y="0" width="40" height="20" rx="10" fill="#D8D8D8" fill-opacity="1"/><rect x="0" y="0" width="40" height="20" rx="10" fill-opacity="0" stroke-opacity="1" stroke="#616161" fill="none" stroke-width="0"/><path d="M17,10Q17,10.1718402,16.991568,10.3434739Q16.983135,10.5151072,16.966292,10.686119999999999Q16.949449,10.8571329,16.924234,11.027113Q16.899019,11.197093,16.865496,11.3656311Q16.83197,11.5341702,16.790217,11.700861Q16.748464,11.8675518,16.698582000000002,12.0319929Q16.648699,12.196434,16.590806,12.3582287Q16.532915,12.5200233,16.467154999999998,12.6787834Q16.401394,12.8375435,16.327923,12.9928856Q16.254452,13.148228,16.173448,13.299777Q16.092443,13.451326,16.004099,13.598719Q15.915755,13.746111,15.820286,13.88899Q15.724816,14.03187,15.622452,14.169893Q15.520086,14.307918,15.411073,14.440753Q15.302058,14.573587,15.186657,14.700912Q15.071257,14.828238,14.949747,14.949747Q14.828238,15.071257,14.700912,15.186658Q14.573587,15.302058,14.440753,15.411073Q14.307918,15.520086,14.169893,15.622451Q14.03187,15.724816,13.88899,15.820286Q13.746111,15.915755,13.598719,16.004099Q13.451326,16.092443,13.299777,16.173448999999998Q13.148228,16.254454000000003,12.9928856,16.327925Q12.8375435,16.401396,12.6787834,16.467154999999998Q12.5200233,16.532916,12.3582287,16.590808000000003Q12.196434,16.648699,12.0319929,16.698583Q11.8675518,16.748465,11.700861,16.790218Q11.5341702,16.831971,11.3656311,16.865496Q11.197093,16.899019,11.027113,16.924234Q10.8571329,16.94945,10.686119999999999,16.966293Q10.5151072,16.983136000000002,10.3434734,16.991568Q10.1718402,17,10,17Q9.8281598,17,9.6565266,16.991568Q9.4848933,16.983135,9.3138804,16.966292Q9.1428671,16.949449,8.972886599999999,16.924234Q8.802906,16.899019,8.6343675,16.865496Q8.4658289,16.83197,8.2991385,16.790217Q8.132448199999999,16.748464,7.9680071,16.698582000000002Q7.803566,16.648699,7.6417708,16.590806Q7.4799757,16.532915,7.3212156,16.467154999999998Q7.1624556,16.401394,7.0071144,16.327923Q6.8517723,16.254452,6.700222999999999,16.173448Q6.5486732,16.092443,6.4012804,16.004099Q6.2538881,15.915755,6.111008200000001,15.820286Q5.968128200000001,15.724816,5.8301048,15.622452Q5.6920815000000005,15.520086,5.559247,15.411073Q5.4264126,15.302058,5.299087,15.186657Q5.171762,15.071257,5.0502524,14.949747Q4.9287429,14.828238,4.8133420000000005,14.700912Q4.6979410999999995,14.573587,4.5889268,14.440753Q4.4799124,14.307918,4.3775473,14.169893Q4.275182,14.03187,4.1797127,13.88899Q4.0842431999999995,13.746111,3.99589968,13.598719Q3.90755606,13.451326,3.8265510799999998,13.299777Q3.74554604,13.148228,3.67207485,12.9928856Q3.59860361,12.8375435,3.53284317,12.6787834Q3.46708274,12.5200233,3.40919149,12.3582287Q3.35130021,12.196434,3.30141759,12.0319929Q3.25153497,11.8675518,3.2097811800000002,11.700861Q3.1680273899999998,11.5341702,3.13450301,11.3656311Q3.10097862,11.197093,3.075764418,11.027113Q3.0505502,10.8571329,3.033706907,10.686119999999999Q3.016863609,10.5151072,3.0084318044,10.3434734Q3,10.1718402,3,10Q3,9.8281598,3.0084318044,9.6565266Q3.016863609,9.4848933,3.033706907,9.3138804Q3.0505502,9.1428671,3.07576441,8.972886599999999Q3.10097862,8.802906,3.13450301,8.6343675Q3.1680273899999998,8.4658289,3.20978117,8.2991385Q3.25153497,8.132448199999999,3.30141759,7.9680071Q3.35130021,7.803566,3.40919146,7.6417708Q3.46708274,7.4799757,3.53284317,7.3212156Q3.59860361,7.1624556,3.67207479,7.0071144Q3.74554598,6.8517723,3.82655102,6.700222999999999Q3.90755594,6.5486732,3.99589956,6.4012804Q4.0842431,6.2538881,4.1797125,6.111008200000001Q4.2751819,5.968128200000001,4.3775471,5.8301048Q4.4799123000000005,5.6920815000000005,4.5889268,5.559247Q4.6979410999999995,5.4264126,4.8133421,5.299087Q4.9287429,5.171762,5.0502524,5.0502524Q5.171762,4.9287429,5.299087,4.8133420000000005Q5.4264126,4.6979410999999995,5.559247,4.5889268Q5.6920815000000005,4.4799124,5.8301048,4.3775473Q5.968128200000001,4.275182,6.111008200000001,4.1797127Q6.2538881,4.0842431999999995,6.4012806,3.99589968Q6.5486729,3.90755606,6.700222699999999,3.8265510799999998Q6.8517723,3.74554604,7.0071139,3.67207485Q7.1624556,3.59860361,7.3212156,3.53284317Q7.4799757,3.46708274,7.6417708,3.40919149Q7.803566,3.35130021,7.9680071,3.30141759Q8.132448199999999,3.25153497,8.2991385,3.2097811800000002Q8.4658289,3.1680273899999998,8.6343675,3.13450301Q8.802906,3.10097862,8.972886599999999,3.075764418Q9.1428671,3.0505502,9.313880000000001,3.033706907Q9.4848928,3.016863609,9.6565266,3.0084318044Q9.8281598,3,10,3Q10.1718402,3,10.3434739,3.0084318044Q10.5151072,3.016863609,10.686119999999999,3.033706907Q10.8571329,3.0505502,11.027113,3.07576441Q11.197093,3.10097862,11.3656311,3.13450301Q11.5341702,3.1680273899999998,11.700861,3.20978117Q11.8675518,3.25153497,12.0319929,3.30141759Q12.196434,3.35130021,12.3582287,3.40919146Q12.5200233,3.46708274,12.6787834,3.53284317Q12.8375435,3.59860361,12.9928856,3.67207479Q13.148228,3.74554598,13.299777,3.82655102Q13.451326,3.90755594,13.598719,3.99589956Q13.746111,4.0842431,13.88899,4.1797125Q14.03187,4.2751819,14.169893,4.3775471Q14.307918,4.4799123000000005,14.440753,4.5889268Q14.573587,4.6979410999999995,14.700912,4.8133421Q14.828238,4.9287429,14.949747,5.0502524Q15.071257,5.171762,15.186658,5.299087Q15.302058,5.4264126,15.411073,5.559247Q15.520086,5.6920815000000005,15.622451,5.8301048Q15.724816,5.968128200000001,15.820286,6.111008200000001Q15.915755,6.2538881,16.004099,6.4012806Q16.092443,6.5486729,16.173448999999998,6.700222699999999Q16.254454000000003,6.8517723,16.327925,7.0071139Q16.401396,7.1624556,16.467154999999998,7.3212156Q16.532916,7.4799757,16.590808000000003,7.6417708Q16.648699,7.803566,16.698583,7.9680071Q16.748465,8.132448199999999,16.790218,8.2991385Q16.831971,8.4658289,16.865496,8.6343675Q16.899019,8.802906,16.924234,8.972886599999999Q16.94945,9.1428671,16.966293,9.313880000000001Q16.983136000000002,9.4848928,16.991568,9.6565266Q17,9.8281598,17,10Z" fill="#FFFFFF" fill-opacity="1"/><path d="M15.663714,15.649985Q15.94017,15.372858,16.188251,15.070063Q16.436331,14.767269,16.653666,14.441702Q16.871000000000002,14.116135,17.055512,13.770906Q17.240026,13.425676,17.389953,13.064083Q17.539879,12.7024899,17.653788,12.3279858Q17.767697,11.9534817,17.844501,11.5696468Q17.921305,11.185812,17.960268,10.7963123Q17.999233,10.4068131,17.999986,10.0153704L17.999988000000002,10.0138154L17.999997999999998,9.999999500000001L17.999988000000002,9.9861846L17.999987,9.9854932Q17.999276000000002,9.5933876,17.960224,9.203231800000001Q17.921173,8.813075099999999,17.844154,8.4286084Q17.767136,8.044140800000001,17.652887,7.6690478Q17.538639,7.2939548,17.388258,6.9318326Q17.237876999999997,6.569710300000001,17.052805,6.2240293Q16.867733,5.8783486,16.649743,5.5524232Q16.431752,5.2264976999999995,16.182934,4.923452Q15.934114,4.6204064,15.656854,4.3431455L15.653134,4.3394287Q15.375282,4.0619409,15.071589,3.8129985299999998Q14.767897,3.56405616,14.441282,3.3460528Q14.11467,3.12804951,13.768276,2.943081196Q13.421883,2.75811288,13.059038,2.6079579600000002Q12.6961956,2.45780301,12.3203907,2.34390509Q11.9445868,2.23000723,11.5594339,2.15346146Q11.1742811,2.0769155599999998,10.783484,2.03845775Q10.3926859,2,10,2Q9.803610800000001,2,9.607458099999999,2.00963634Q9.4113059,2.01927269,9.2158628,2.03852212Q9.0204191,2.05777168,8.826155700000001,2.08658791Q8.6318922,2.11540425,8.4392767,2.15371782Q8.2466612,2.19203138,8.056158100000001,2.2397500299999997Q7.8656549,2.28746867,7.6777225,2.34447736Q7.48979,2.40148604,7.3048811,2.46764749Q7.1199722,2.53380895,6.9385321,2.60896379Q6.757092500000001,2.68411857,6.5795591,2.76808567Q6.402025699999999,2.85205276,6.228826,2.944629878Q6.0556263999999995,3.037206993,5.8871779,3.13817109Q5.7187295,3.23913518,5.5554380000000005,3.34824306Q5.3921466,3.45735091,5.234405499999999,3.57433975Q5.0766644,3.69132853,4.9248537,3.81591636Q4.7730429,3.94050419,4.6275283,4.0723909Q4.4820136999999995,4.2042778,4.3431457,4.3431457Q4.2042778,4.4820136999999995,4.072391,4.6275284Q3.94050419,4.7730429,3.8159163,4.9248538Q3.69132847,5.0766644,3.57433969,5.234405499999999Q3.45735091,5.3921466,3.34824306,5.5554380000000005Q3.23913518,5.7187295,3.13817106,5.8871779Q3.037206978,6.0556263999999995,2.944629863,6.228826Q2.85205275,6.402025699999999,2.76808564,6.5795591Q2.68411857,6.757092500000001,2.60896376,6.9385321Q2.53380895,7.1199722,2.46764749,7.3048811Q2.40148604,7.48979,2.3444773,7.6777225Q2.28746867,7.8656549,2.2397500299999997,8.056158100000001Q2.19203138,8.2466612,2.15371782,8.4392767Q2.11540425,8.6318922,2.08658791,8.826155700000001Q2.05777168,9.0204191,2.03852218,9.215863200000001Q2.01927269,9.4113064,2.0096363999999998,9.607458099999999Q2,9.803610800000001,2,10Q2,10.3924193,2.0384057799999997,10.782954700000001Q2.07681161,11.1734905,2.15325439,11.5583925Q2.22969735,11.9432945,2.34344327,12.3188667Q2.45718926,12.6944389,2.6071462,13.057076Q2.75710313,13.419713,2.941831209,13.765934Q3.12655927,14.112154,3.34428486,14.438633Q3.56201041,14.765112,3.81064302,15.068714Q4.0592756,15.372316,4.336428,15.650128L4.3374282,15.651131Q4.3402849,15.653993,4.3431453,15.656853Q4.3465788,15.660286,4.3500146,15.663714Q4.6271428,15.94017,4.9299368,16.188251Q5.2327306,16.436331,5.5582975999999995,16.653666Q5.8838646,16.871000000000002,6.229094,17.055512Q6.5743237,17.240026,6.9359174,17.389953Q7.2975111,17.539879,7.6720142,17.653788Q8.046517399999999,17.767697,8.4303522,17.844501Q8.814187,17.921305,9.203687200000001,17.960268Q9.5931864,17.999233,9.9846296,17.999986L9.9861846,17.999988000000002L9.9999962,17.999997999999998L10.0138154,17.999988000000002L10.0145068,17.999987Q10.4066124,17.999276000000002,10.796769099999999,17.960224Q11.1869259,17.921173,11.571393,17.844154Q11.9558601,17.767136,12.3309526,17.652887Q12.7060452,17.538639,13.068168,17.388258Q13.43029,17.237876999999997,13.77597,17.052805Q14.121652,16.867733,14.447577,16.649743Q14.773502,16.431753,15.076549,16.182934Q15.379593,15.934116,15.656853,15.656855Q15.660286,15.653421,15.663714,15.649985ZM10,17Q9.8281598,17,9.6565266,16.991568Q9.4848933,16.983135,9.3138804,16.966292Q9.1428671,16.949449,8.972886599999999,16.924234Q8.802906,16.899019,8.6343675,16.865496Q8.4658289,16.83197,8.2991385,16.790217Q8.132448199999999,16.748464,7.9680071,16.698582000000002Q7.803566,16.648699,7.6417708,16.590806Q7.4799757,16.532915,7.3212156,16.467154999999998Q7.1624556,16.401394,7.0071144,16.327923Q6.8517723,16.254452,6.700222999999999,16.173448Q6.5486732,16.092443,6.4012804,16.004099Q6.2538881,15.915755,6.111008200000001,15.820286Q5.968128200000001,15.724816,5.8301048,15.622452Q5.6920815000000005,15.520086,5.559247,15.411073Q5.4264126,15.302058,5.299087,15.186657Q5.171762,15.071257,5.0502524,14.949747Q4.9287429,14.828238,4.8133420000000005,14.700912Q4.6979410999999995,14.573587,4.5889268,14.440753Q4.4799124,14.307918,4.3775473,14.169893Q4.275182,14.03187,4.1797127,13.88899Q4.0842431999999995,13.746111,3.99589968,13.598719Q3.90755606,13.451326,3.8265510799999998,13.299777Q3.74554604,13.148228,3.67207485,12.9928856Q3.59860361,12.8375435,3.53284317,12.6787834Q3.46708274,12.5200233,3.40919149,12.3582287Q3.35130021,12.196434,3.30141759,12.0319929Q3.25153497,11.8675518,3.2097811800000002,11.700861Q3.1680273899999998,11.5341702,3.13450301,11.3656311Q3.10097862,11.197093,3.075764418,11.027113Q3.0505502,10.8571329,3.033706907,10.686119999999999Q3.016863609,10.5151072,3.0084318044,10.3434734Q3,10.1718402,3,10Q3,9.8281598,3.0084318044,9.6565266Q3.016863609,9.4848933,3.033706907,9.3138804Q3.0505502,9.1428671,3.07576441,8.972886599999999Q3.10097862,8.802906,3.13450301,8.6343675Q3.1680273899999998,8.4658289,3.20978117,8.2991385Q3.25153497,8.132448199999999,3.30141759,7.9680071Q3.35130021,7.803566,3.40919146,7.6417708Q3.46708274,7.4799757,3.53284317,7.3212156Q3.59860361,7.1624556,3.67207479,7.0071144Q3.74554598,6.8517723,3.82655102,6.700222999999999Q3.90755594,6.5486732,3.99589956,6.4012804Q4.0842431,6.2538881,4.1797125,6.111008200000001Q4.2751819,5.968128200000001,4.3775471,5.8301048Q4.4799123000000005,5.6920815000000005,4.5889268,5.559247Q4.6979410999999995,5.4264126,4.8133421,5.299087Q4.9287429,5.171762,5.0502524,5.0502524Q5.171762,4.9287429,5.299087,4.8133420000000005Q5.4264126,4.6979410999999995,5.559247,4.5889268Q5.6920815000000005,4.4799124,5.8301048,4.3775473Q5.968128200000001,4.275182,6.111008200000001,4.1797127Q6.2538881,4.0842431999999995,6.4012806,3.99589968Q6.5486729,3.90755606,6.700222699999999,3.8265510799999998Q6.8517723,3.74554604,7.0071139,3.67207485Q7.1624556,3.59860361,7.3212156,3.53284317Q7.4799757,3.46708274,7.6417708,3.40919149Q7.803566,3.35130021,7.9680071,3.30141759Q8.132448199999999,3.25153497,8.2991385,3.2097811800000002Q8.4658289,3.1680273899999998,8.6343675,3.13450301Q8.802906,3.10097862,8.972886599999999,3.075764418Q9.1428671,3.0505502,9.313880000000001,3.033706907Q9.4848928,3.016863609,9.6565266,3.0084318044Q9.8281598,3,10,3Q10.1718402,3,10.3434739,3.0084318044Q10.5151072,3.016863609,10.686119999999999,3.033706907Q10.8571329,3.0505502,11.027113,3.07576441Q11.197093,3.10097862,11.3656311,3.13450301Q11.5341702,3.1680273899999998,11.700861,3.20978117Q11.8675518,3.25153497,12.0319929,3.30141759Q12.196434,3.35130021,12.3582287,3.40919146Q12.5200233,3.46708274,12.6787834,3.53284317Q12.8375435,3.59860361,12.9928856,3.67207479Q13.148228,3.74554598,13.299777,3.82655102Q13.451326,3.90755594,13.598719,3.99589956Q13.746111,4.0842431,13.88899,4.1797125Q14.03187,4.2751819,14.169893,4.3775471Q14.307918,4.4799123000000005,14.440753,4.5889268Q14.573587,4.6979410999999995,14.700912,4.8133421Q14.828238,4.9287429,14.949747,5.0502524Q15.071257,5.171762,15.186658,5.299087Q15.302058,5.4264126,15.411073,5.559247Q15.520086,5.6920815000000005,15.622451,5.8301048Q15.724816,5.968128200000001,15.820286,6.111008200000001Q15.915755,6.2538881,16.004099,6.4012806Q16.092443,6.5486729,16.173448999999998,6.700222699999999Q16.254454000000003,6.8517723,16.327925,7.0071139Q16.401396,7.1624556,16.467154999999998,7.3212156Q16.532916,7.4799757,16.590808000000003,7.6417708Q16.648699,7.803566,16.698583,7.9680071Q16.748465,8.132448199999999,16.790218,8.2991385Q16.831971,8.4658289,16.865496,8.6343675Q16.899019,8.802906,16.924234,8.972886599999999Q16.94945,9.1428671,16.966293,9.313880000000001Q16.983136000000002,9.4848928,16.991568,9.6565266Q17,9.8281598,17,10Q17,10.1718402,16.991568,10.3434739Q16.983135,10.5151072,16.966292,10.686119999999999Q16.949449,10.8571329,16.924234,11.027113Q16.899019,11.197093,16.865496,11.3656311Q16.83197,11.5341702,16.790217,11.700861Q16.748464,11.8675518,16.698582000000002,12.0319929Q16.648699,12.196434,16.590806,12.3582287Q16.532915,12.5200233,16.467154999999998,12.6787834Q16.401394,12.8375435,16.327923,12.9928856Q16.254452,13.148228,16.173448,13.299777Q16.092443,13.451326,16.004099,13.598719Q15.915755,13.746111,15.820286,13.88899Q15.724816,14.03187,15.622452,14.169893Q15.520086,14.307918,15.411073,14.440753Q15.302058,14.573587,15.186657,14.700912Q15.071257,14.828238,14.949747,14.949747Q14.828238,15.071257,14.700912,15.186658Q14.573587,15.302058,14.440753,15.411073Q14.307918,15.520086,14.169893,15.622451Q14.03187,15.724816,13.88899,15.820286Q13.746111,15.915755,13.598719,16.004099Q13.451326,16.092443,13.299777,16.173448999999998Q13.148228,16.254454000000003,12.9928856,16.327925Q12.8375435,16.401396,12.6787834,16.467154999999998Q12.5200233,16.532916,12.3582287,16.590808000000003Q12.196434,16.648699,12.0319929,16.698583Q11.8675518,16.748465,11.700861,16.790218Q11.5341702,16.831971,11.3656311,16.865496Q11.197093,16.899019,11.027113,16.924234Q10.8571329,16.94945,10.686119999999999,16.966293Q10.5151072,16.983136000000002,10.3434734,16.991568Q10.1718402,17,10,17Z" fill-rule="evenodd" fill="#000000" fill-opacity="0.05000000074505806"/><path d="M12,10Q12,10.0982537,11.990369600000001,10.1960342Q11.9807389,10.2938147,11.9615703,10.3901803Q11.9424019,10.4865463,11.9138803,10.5805693Q11.8853588,10.674592,11.8477585,10.7653666Q11.8101587,10.8561411,11.7638421,10.9427931Q11.7175257,11.0294452,11.6629386,11.1111398Q11.6083522,11.1928351,11.546020500000001,11.2687864Q11.4836893,11.3447375,11.414213199999999,11.414213199999999Q11.3447375,11.4836893,11.2687864,11.546020500000001Q11.1928351,11.6083522,11.1111398,11.6629386Q11.0294452,11.7175257,10.9427934,11.7638423Q10.8561411,11.8101587,10.7653666,11.8477588Q10.674592,11.885359,10.5805693,11.9138806Q10.4865463,11.942402099999999,10.3901803,11.9615703Q10.2938147,11.9807389,10.1960344,11.990369600000001Q10.0982537,12,10,12Q9.9017464,12,9.8039658,11.990369600000001Q9.706185099999999,11.9807389,9.6098193,11.9615703Q9.5134535,11.9424019,9.4194306,11.9138803Q9.3254076,11.8853588,9.234633,11.8477585Q9.1438584,11.8101587,9.0572064,11.7638421Q8.97055447,11.7175257,8.88885945,11.6629386Q8.80716455,11.6083522,8.73121345,11.546020500000001Q8.65526235,11.4836893,8.5857864,11.414213199999999Q8.51631057,11.3447375,8.4539791,11.2687864Q8.39164761,11.1928351,8.33706075,11.1111398Q8.28247392,11.0294452,8.23615746,10.9427934Q8.18984097,10.8561411,8.15224092,10.7653666Q8.11464086,10.674592,8.086119324,10.5805693Q8.057597782,10.4865463,8.038429435,10.3901803Q8.019261092,10.2938147,8.009630546,10.1960344Q8,10.0982537,8,10Q8,9.9017464,8.009630546,9.8039658Q8.019261092,9.706185099999999,8.038429435,9.6098193Q8.057597782,9.5134535,8.086119324,9.4194306Q8.11464086,9.3254076,8.15224092,9.234633Q8.18984097,9.1438584,8.23615745,9.0572064Q8.28247392,8.97055447,8.33706075,8.88885945Q8.39164761,8.80716455,8.45397907,8.73121345Q8.51631057,8.65526235,8.5857864,8.5857864Q8.65526235,8.51631057,8.73121345,8.4539791Q8.80716461,8.39164761,8.88885951,8.33706075Q8.97055447,8.28247392,9.0572064,8.23615746Q9.1438584,8.18984097,9.234633,8.15224092Q9.3254076,8.11464086,9.4194306,8.086119324Q9.5134535,8.057597782,9.6098193,8.038429435Q9.706185099999999,8.019261092,9.8039658,8.009630546Q9.9017464,8,10,8Q10.0982537,8,10.1960342,8.009630546Q10.2938147,8.019261092,10.3901803,8.038429435Q10.4865463,8.057597782,10.5805693,8.086119324Q10.674592,8.11464086,10.7653666,8.15224092Q10.8561411,8.18984097,10.9427931,8.23615745Q11.0294452,8.28247392,11.1111398,8.33706075Q11.1928351,8.39164761,11.2687864,8.45397907Q11.3447375,8.51631057,11.414213199999999,8.5857864Q11.4836893,8.65526235,11.546020500000001,8.73121345Q11.6083522,8.80716461,11.6629386,8.88885951Q11.7175257,8.97055447,11.7638423,9.0572064Q11.8101587,9.1438584,11.8477588,9.234633Q11.885359,9.3254076,11.9138806,9.4194306Q11.942402099999999,9.5134535,11.9615703,9.6098193Q11.9807389,9.706185099999999,11.990369600000001,9.8039658Q12,9.9017464,12,10Z" fill="#000000" fill-opacity="0.20000000298023224" style="opacity:0.6000000238418579;"/></svg>