<svg xmlns="http://www.w3.org/2000/svg" xmlns:xlink="http://www.w3.org/1999/xlink" fill="none" version="1.1" width="40" height="20" viewBox="0 0 40 20"><rect x="0" y="0" width="40" height="20" rx="10" fill="#3D7FFF" fill-opacity="1"/><path d="M37,10Q37,10.1718402,36.991568,10.3434739Q36.983135000000004,10.5151072,36.966291999999996,10.686119999999999Q36.949449,10.8571329,36.924234,11.027113Q36.899018999999996,11.197093,36.865496,11.3656311Q36.83197,11.5341702,36.790217,11.700861Q36.748464,11.8675518,36.698582,12.0319929Q36.648699,12.196434,36.590806,12.3582287Q36.532915,12.5200233,36.467155,12.6787834Q36.401393999999996,12.8375435,36.327923,12.9928856Q36.254452,13.148228,36.173448,13.299777Q36.092443,13.451326,36.004099,13.598719Q35.915755000000004,13.746111,35.820285999999996,13.88899Q35.724816000000004,14.03187,35.622451999999996,14.169893Q35.520086,14.307918,35.411073,14.440753Q35.302058,14.573587,35.186657,14.700912Q35.071257,14.828238,34.949747,14.949747Q34.828238,15.071257,34.700912,15.186658Q34.573587,15.302058,34.440753,15.411073Q34.307918,15.520086,34.169893,15.622451Q34.03187,15.724816,33.88899,15.820286Q33.746111,15.915755,33.598719,16.004099Q33.451326,16.092443,33.299777,16.173448999999998Q33.148228,16.254454000000003,32.9928856,16.327925Q32.8375435,16.401396,32.6787834,16.467154999999998Q32.5200233,16.532916,32.3582287,16.590808000000003Q32.196433999999996,16.648699,32.0319929,16.698583Q31.8675518,16.748465,31.700861,16.790218Q31.5341702,16.831971,31.3656311,16.865496Q31.197093000000002,16.899019,31.027113,16.924234Q30.8571329,16.94945,30.68612,16.966293Q30.5151072,16.983136000000002,30.3434734,16.991568Q30.1718402,17,30,17Q29.8281598,17,29.6565266,16.991568Q29.4848933,16.983135,29.313880400000002,16.966292Q29.1428671,16.949449,28.9728866,16.924234Q28.802906,16.899019,28.6343675,16.865496Q28.465828899999998,16.83197,28.299138499999998,16.790217Q28.1324482,16.748464,27.9680071,16.698582000000002Q27.803566,16.648699,27.6417708,16.590806Q27.4799757,16.532915,27.321215600000002,16.467154999999998Q27.1624556,16.401394,27.0071144,16.327923Q26.8517723,16.254452,26.700223,16.173448Q26.5486732,16.092443,26.4012804,16.004099Q26.2538881,15.915755,26.1110082,15.820286Q25.9681282,15.724816,25.8301048,15.622452Q25.6920815,15.520086,25.559247,15.411073Q25.4264126,15.302058,25.299087,15.186657Q25.171762,15.071257,25.0502524,14.949747Q24.9287429,14.828238,24.813342,14.700912Q24.6979411,14.573587,24.5889268,14.440753Q24.4799124,14.307918,24.3775473,14.169893Q24.275182,14.03187,24.1797127,13.88899Q24.0842432,13.746111,23.99589968,13.598719Q23.90755606,13.451326,23.82655108,13.299777Q23.74554604,13.148228,23.67207485,12.9928856Q23.59860361,12.8375435,23.53284317,12.6787834Q23.46708274,12.5200233,23.40919149,12.3582287Q23.35130021,12.196434,23.30141759,12.0319929Q23.25153497,11.8675518,23.20978118,11.700861Q23.16802739,11.5341702,23.13450301,11.3656311Q23.10097862,11.197093,23.075764418,11.027113Q23.0505502,10.8571329,23.033706907,10.686119999999999Q23.016863609,10.5151072,23.0084318044,10.3434734Q23,10.1718402,23,10Q23,9.8281598,23.0084318044,9.6565266Q23.016863609,9.4848933,23.033706907,9.3138804Q23.0505502,9.1428671,23.07576441,8.972886599999999Q23.10097862,8.802906,23.13450301,8.6343675Q23.16802739,8.4658289,23.20978117,8.2991385Q23.25153497,8.132448199999999,23.30141759,7.9680071Q23.35130021,7.803566,23.40919146,7.6417708Q23.46708274,7.4799757,23.53284317,7.3212156Q23.59860361,7.1624556,23.67207479,7.0071144Q23.74554598,6.8517723,23.82655102,6.700222999999999Q23.90755594,6.5486732,23.99589956,6.4012804Q24.0842431,6.2538881,24.1797125,6.111008200000001Q24.2751819,5.968128200000001,24.3775471,5.8301048Q24.4799123,5.6920815000000005,24.5889268,5.559247Q24.6979411,5.4264126,24.8133421,5.299087Q24.9287429,5.171762,25.0502524,5.0502524Q25.171762,4.9287429,25.299087,4.8133420000000005Q25.4264126,4.6979410999999995,25.559247,4.5889268Q25.6920815,4.4799124,25.8301048,4.3775473Q25.9681282,4.275182,26.1110082,4.1797127Q26.2538881,4.0842431999999995,26.4012806,3.99589968Q26.5486729,3.90755606,26.7002227,3.8265510799999998Q26.8517723,3.74554604,27.0071139,3.67207485Q27.1624556,3.59860361,27.321215600000002,3.53284317Q27.4799757,3.46708274,27.6417708,3.40919149Q27.803566,3.35130021,27.9680071,3.30141759Q28.1324482,3.25153497,28.299138499999998,3.2097811800000002Q28.465828899999998,3.1680273899999998,28.6343675,3.13450301Q28.802906,3.10097862,28.9728866,3.075764418Q29.1428671,3.0505502,29.31388,3.033706907Q29.4848928,3.016863609,29.6565266,3.0084318044Q29.8281598,3,30,3Q30.1718402,3,30.3434739,3.0084318044Q30.5151072,3.016863609,30.68612,3.033706907Q30.8571329,3.0505502,31.027113,3.07576441Q31.197093000000002,3.10097862,31.3656311,3.13450301Q31.5341702,3.1680273899999998,31.700861,3.20978117Q31.8675518,3.25153497,32.0319929,3.30141759Q32.196433999999996,3.35130021,32.3582287,3.40919146Q32.5200233,3.46708274,32.6787834,3.53284317Q32.8375435,3.59860361,32.9928856,3.67207479Q33.148228,3.74554598,33.299777,3.82655102Q33.451326,3.90755594,33.598719,3.99589956Q33.746111,4.0842431,33.88899,4.1797125Q34.03187,4.2751819,34.169893,4.3775471Q34.307918,4.4799123000000005,34.440753,4.5889268Q34.573587,4.6979410999999995,34.700912,4.8133421Q34.828238,4.9287429,34.949747,5.0502524Q35.071257,5.171762,35.186658,5.299087Q35.302058,5.4264126,35.411073,5.559247Q35.520086,5.6920815000000005,35.622451,5.8301048Q35.724816000000004,5.968128200000001,35.820285999999996,6.111008200000001Q35.915755000000004,6.2538881,36.004099,6.4012806Q36.092443,6.5486729,36.173449,6.700222699999999Q36.254454,6.8517723,36.327925,7.0071139Q36.401396,7.1624556,36.467155,7.3212156Q36.532916,7.4799757,36.590808,7.6417708Q36.648699,7.803566,36.698583,7.9680071Q36.748464999999996,8.132448199999999,36.790217999999996,8.2991385Q36.831970999999996,8.4658289,36.865496,8.6343675Q36.899018999999996,8.802906,36.924234,8.972886599999999Q36.94945,9.1428671,36.966293,9.313880000000001Q36.983136,9.4848928,36.991568,9.6565266Q37,9.8281598,37,10Z" fill="#FFFFFF" fill-opacity="0.8600000143051147"/><path d="M35.663714,15.649985Q35.94017,15.372858,36.188251,15.070063Q36.436330999999996,14.767269,36.653666,14.441702Q36.871,14.116135,37.055512,13.770906Q37.240026,13.425676,37.389953,13.064083Q37.539879,12.7024899,37.653788,12.3279858Q37.767697,11.9534817,37.844501,11.5696468Q37.921305000000004,11.185812,37.960268,10.7963123Q37.999233000000004,10.4068131,37.999986,10.0153704L37.999988,10.0138154L37.999998,9.999999500000001L37.999988,9.9861846L37.999987000000004,9.9854932Q37.999276,9.5933876,37.960224,9.203231800000001Q37.921172999999996,8.813075099999999,37.844154,8.4286084Q37.767136,8.044140800000001,37.652887,7.6690478Q37.538639,7.2939548,37.388258,6.9318326Q37.237877,6.569710300000001,37.052805,6.2240293Q36.867733,5.8783486,36.649743,5.5524232Q36.431752,5.2264976999999995,36.182934,4.923452Q35.934114,4.6204064,35.656853999999996,4.3431455L35.653134,4.3394287Q35.375282,4.0619409,35.071589,3.8129985299999998Q34.767897,3.56405616,34.441282,3.3460528Q34.114670000000004,3.12804951,33.768276,2.943081196Q33.421883,2.75811288,33.059038,2.6079579600000002Q32.696195599999996,2.45780301,32.320390700000004,2.34390509Q31.9445868,2.23000723,31.559433900000002,2.15346146Q31.1742811,2.0769155599999998,30.783484,2.03845775Q30.3926859,2,30,2Q29.8036108,2,29.6074581,2.00963634Q29.411305900000002,2.01927269,29.2158628,2.03852212Q29.020419099999998,2.05777168,28.8261557,2.08658791Q28.6318922,2.11540425,28.4392767,2.15371782Q28.2466612,2.19203138,28.0561581,2.2397500299999997Q27.8656549,2.28746867,27.6777225,2.34447736Q27.48979,2.40148604,27.3048811,2.46764749Q27.1199722,2.53380895,26.9385321,2.60896379Q26.7570925,2.68411857,26.5795591,2.76808567Q26.4020257,2.85205276,26.228826,2.944629878Q26.0556264,3.037206993,25.8871779,3.13817109Q25.7187295,3.23913518,25.555438,3.34824306Q25.3921466,3.45735091,25.2344055,3.57433975Q25.0766644,3.69132853,24.9248537,3.81591636Q24.7730429,3.94050419,24.6275283,4.0723909Q24.4820137,4.2042778,24.3431457,4.3431457Q24.2042778,4.4820136999999995,24.072391,4.6275284Q23.94050419,4.7730429,23.8159163,4.9248538Q23.69132847,5.0766644,23.57433969,5.234405499999999Q23.45735091,5.3921466,23.34824306,5.5554380000000005Q23.23913518,5.7187295,23.13817106,5.8871779Q23.037206978,6.0556263999999995,22.944629863,6.228826Q22.85205275,6.402025699999999,22.76808564,6.5795591Q22.68411857,6.757092500000001,22.60896376,6.9385321Q22.53380895,7.1199722,22.46764749,7.3048811Q22.40148604,7.48979,22.3444773,7.6777225Q22.28746867,7.8656549,22.23975003,8.056158100000001Q22.19203138,8.2466612,22.15371782,8.4392767Q22.11540425,8.6318922,22.08658791,8.826155700000001Q22.05777168,9.0204191,22.03852218,9.215863200000001Q22.01927269,9.4113064,22.0096364,9.607458099999999Q22,9.803610800000001,22,10Q22,10.3924193,22.03840578,10.782954700000001Q22.07681161,11.1734905,22.15325439,11.5583925Q22.22969735,11.9432945,22.34344327,12.3188667Q22.45718926,12.6944389,22.6071462,13.057076Q22.75710313,13.419713,22.941831209,13.765934Q23.12655927,14.112154,23.34428486,14.438633Q23.56201041,14.765112,23.81064302,15.068714Q24.0592756,15.372316,24.336428,15.650128L24.3374282,15.651131Q24.3402849,15.653993,24.3431453,15.656853Q24.3465788,15.660286,24.3500146,15.663714Q24.6271428,15.94017,24.9299368,16.188251Q25.2327306,16.436331,25.5582976,16.653666Q25.8838646,16.871000000000002,26.229094,17.055512Q26.5743237,17.240026,26.9359174,17.389953Q27.2975111,17.539879,27.6720142,17.653788Q28.0465174,17.767697,28.4303522,17.844501Q28.814187,17.921305,29.2036872,17.960268Q29.5931864,17.999233,29.984629599999998,17.999986L29.9861846,17.999988000000002L29.9999962,17.999997999999998L30.0138154,17.999988000000002L30.0145068,17.999987Q30.4066124,17.999276000000002,30.7967691,17.960224Q31.1869259,17.921173,31.571393,17.844154Q31.955860100000002,17.767136,32.3309526,17.652887Q32.7060452,17.538639,33.068168,17.388258Q33.43029,17.237876999999997,33.77597,17.052805Q34.121652,16.867733,34.447577,16.649743Q34.773502,16.431753,35.076549,16.182934Q35.379593,15.934116,35.656853,15.656855Q35.660286,15.653421,35.663714,15.649985ZM30,17Q29.8281598,17,29.6565266,16.991568Q29.4848933,16.983135,29.313880400000002,16.966292Q29.1428671,16.949449,28.9728866,16.924234Q28.802906,16.899019,28.6343675,16.865496Q28.465828899999998,16.83197,28.299138499999998,16.790217Q28.1324482,16.748464,27.9680071,16.698582000000002Q27.803566,16.648699,27.6417708,16.590806Q27.4799757,16.532915,27.321215600000002,16.467154999999998Q27.1624556,16.401394,27.0071144,16.327923Q26.8517723,16.254452,26.700223,16.173448Q26.5486732,16.092443,26.4012804,16.004099Q26.2538881,15.915755,26.1110082,15.820286Q25.9681282,15.724816,25.8301048,15.622452Q25.6920815,15.520086,25.559247,15.411073Q25.4264126,15.302058,25.299087,15.186657Q25.171762,15.071257,25.0502524,14.949747Q24.9287429,14.828238,24.813342,14.700912Q24.6979411,14.573587,24.5889268,14.440753Q24.4799124,14.307918,24.3775473,14.169893Q24.275182,14.03187,24.1797127,13.88899Q24.0842432,13.746111,23.99589968,13.598719Q23.90755606,13.451326,23.82655108,13.299777Q23.74554604,13.148228,23.67207485,12.9928856Q23.59860361,12.8375435,23.53284317,12.6787834Q23.46708274,12.5200233,23.40919149,12.3582287Q23.35130021,12.196434,23.30141759,12.0319929Q23.25153497,11.8675518,23.20978118,11.700861Q23.16802739,11.5341702,23.13450301,11.3656311Q23.10097862,11.197093,23.075764418,11.027113Q23.0505502,10.8571329,23.033706907,10.686119999999999Q23.016863609,10.5151072,23.0084318044,10.3434734Q23,10.1718402,23,10Q23,9.8281598,23.0084318044,9.6565266Q23.016863609,9.4848933,23.033706907,9.3138804Q23.0505502,9.1428671,23.07576441,8.972886599999999Q23.10097862,8.802906,23.13450301,8.6343675Q23.16802739,8.4658289,23.20978117,8.2991385Q23.25153497,8.132448199999999,23.30141759,7.9680071Q23.35130021,7.803566,23.40919146,7.6417708Q23.46708274,7.4799757,23.53284317,7.3212156Q23.59860361,7.1624556,23.67207479,7.0071144Q23.74554598,6.8517723,23.82655102,6.700222999999999Q23.90755594,6.5486732,23.99589956,6.4012804Q24.0842431,6.2538881,24.1797125,6.111008200000001Q24.2751819,5.968128200000001,24.3775471,5.8301048Q24.4799123,5.6920815000000005,24.5889268,5.559247Q24.6979411,5.4264126,24.8133421,5.299087Q24.9287429,5.171762,25.0502524,5.0502524Q25.171762,4.9287429,25.299087,4.8133420000000005Q25.4264126,4.6979410999999995,25.559247,4.5889268Q25.6920815,4.4799124,25.8301048,4.3775473Q25.9681282,4.275182,26.1110082,4.1797127Q26.2538881,4.0842431999999995,26.4012806,3.99589968Q26.5486729,3.90755606,26.7002227,3.8265510799999998Q26.8517723,3.74554604,27.0071139,3.67207485Q27.1624556,3.59860361,27.321215600000002,3.53284317Q27.4799757,3.46708274,27.6417708,3.40919149Q27.803566,3.35130021,27.9680071,3.30141759Q28.1324482,3.25153497,28.299138499999998,3.2097811800000002Q28.465828899999998,3.1680273899999998,28.6343675,3.13450301Q28.802906,3.10097862,28.9728866,3.075764418Q29.1428671,3.0505502,29.31388,3.033706907Q29.4848928,3.016863609,29.6565266,3.0084318044Q29.8281598,3,30,3Q30.1718402,3,30.3434739,3.0084318044Q30.5151072,3.016863609,30.68612,3.033706907Q30.8571329,3.0505502,31.027113,3.07576441Q31.197093000000002,3.10097862,31.3656311,3.13450301Q31.5341702,3.1680273899999998,31.700861,3.20978117Q31.8675518,3.25153497,32.0319929,3.30141759Q32.196433999999996,3.35130021,32.3582287,3.40919146Q32.5200233,3.46708274,32.6787834,3.53284317Q32.8375435,3.59860361,32.9928856,3.67207479Q33.148228,3.74554598,33.299777,3.82655102Q33.451326,3.90755594,33.598719,3.99589956Q33.746111,4.0842431,33.88899,4.1797125Q34.03187,4.2751819,34.169893,4.3775471Q34.307918,4.4799123000000005,34.440753,4.5889268Q34.573587,4.6979410999999995,34.700912,4.8133421Q34.828238,4.9287429,34.949747,5.0502524Q35.071257,5.171762,35.186658,5.299087Q35.302058,5.4264126,35.411073,5.559247Q35.520086,5.6920815000000005,35.622451,5.8301048Q35.724816000000004,5.968128200000001,35.820285999999996,6.111008200000001Q35.915755000000004,6.2538881,36.004099,6.4012806Q36.092443,6.5486729,36.173449,6.700222699999999Q36.254454,6.8517723,36.327925,7.0071139Q36.401396,7.1624556,36.467155,7.3212156Q36.532916,7.4799757,36.590808,7.6417708Q36.648699,7.803566,36.698583,7.9680071Q36.748464999999996,8.132448199999999,36.790217999999996,8.2991385Q36.831970999999996,8.4658289,36.865496,8.6343675Q36.899018999999996,8.802906,36.924234,8.972886599999999Q36.94945,9.1428671,36.966293,9.313880000000001Q36.983136,9.4848928,36.991568,9.6565266Q37,9.8281598,37,10Q37,10.1718402,36.991568,10.3434739Q36.983135000000004,10.5151072,36.966291999999996,10.686119999999999Q36.949449,10.8571329,36.924234,11.027113Q36.899018999999996,11.197093,36.865496,11.3656311Q36.83197,11.5341702,36.790217,11.700861Q36.748464,11.8675518,36.698582,12.0319929Q36.648699,12.196434,36.590806,12.3582287Q36.532915,12.5200233,36.467155,12.6787834Q36.401393999999996,12.8375435,36.327923,12.9928856Q36.254452,13.148228,36.173448,13.299777Q36.092443,13.451326,36.004099,13.598719Q35.915755000000004,13.746111,35.820285999999996,13.88899Q35.724816000000004,14.03187,35.622451999999996,14.169893Q35.520086,14.307918,35.411073,14.440753Q35.302058,14.573587,35.186657,14.700912Q35.071257,14.828238,34.949747,14.949747Q34.828238,15.071257,34.700912,15.186658Q34.573587,15.302058,34.440753,15.411073Q34.307918,15.520086,34.169893,15.622451Q34.03187,15.724816,33.88899,15.820286Q33.746111,15.915755,33.598719,16.004099Q33.451326,16.092443,33.299777,16.173448999999998Q33.148228,16.254454000000003,32.9928856,16.327925Q32.8375435,16.401396,32.6787834,16.467154999999998Q32.5200233,16.532916,32.3582287,16.590808000000003Q32.196433999999996,16.648699,32.0319929,16.698583Q31.8675518,16.748465,31.700861,16.790218Q31.5341702,16.831971,31.3656311,16.865496Q31.197093000000002,16.899019,31.027113,16.924234Q30.8571329,16.94945,30.68612,16.966293Q30.5151072,16.983136000000002,30.3434734,16.991568Q30.1718402,17,30,17Z" fill-rule="evenodd" fill="#000000" fill-opacity="0.05000000074505806"/><path d="M29,12C29,12.552284700000001,29.44771522,13,30,13C30.5522847,13,31,12.552284700000001,31,12L31,8C31,7.44771522,30.5522847,7,30,7C29.44771522,7,29,7.44771522,29,8L29,12Z" fill="#3D7FFF" fill-opacity="1" style="opacity:0.20000000298023224;"/></svg>