<svg xmlns="http://www.w3.org/2000/svg" xmlns:xlink="http://www.w3.org/1999/xlink" fill="none" version="1.1" width="56" height="36" viewBox="0 0 56 36"><rect x="8" y="8" width="40" height="20" rx="10" fill="#256FFF" fill-opacity="1"/><path d="M45,18Q45,18.1718402,44.991568,18.3434739Q44.983135000000004,18.5151072,44.966291999999996,18.68612Q44.949449,18.8571329,44.924234,19.027113Q44.899018999999996,19.197093000000002,44.865496,19.3656311Q44.83197,19.5341702,44.790217,19.700861Q44.748464,19.8675518,44.698582,20.0319929Q44.648699,20.196434,44.590806,20.358228699999998Q44.532915,20.5200233,44.467155,20.6787834Q44.401393999999996,20.837543500000002,44.327923,20.9928856Q44.254452,21.148228,44.173448,21.299777Q44.092443,21.451326,44.004099,21.598719Q43.915755000000004,21.746111,43.820285999999996,21.88899Q43.724816000000004,22.031869999999998,43.622451999999996,22.169893000000002Q43.520086,22.307918,43.411073,22.440753Q43.302058,22.573587,43.186657,22.700912000000002Q43.071257,22.828238,42.949747,22.949747000000002Q42.828238,23.071257,42.700912,23.186658Q42.573587,23.302058000000002,42.440753,23.411073000000002Q42.307918,23.520086,42.169893,23.622450999999998Q42.03187,23.724816,41.88899,23.820286Q41.746111,23.915755,41.598719,24.004099Q41.451326,24.092443,41.299777,24.173448999999998Q41.148228,24.254454000000003,40.9928856,24.327925Q40.8375435,24.401396,40.6787834,24.467154999999998Q40.5200233,24.532916,40.3582287,24.590808000000003Q40.196433999999996,24.648699,40.0319929,24.698583Q39.8675518,24.748465,39.700861,24.790218Q39.5341702,24.831971,39.3656311,24.865496Q39.197093,24.899019,39.027113,24.924234Q38.857132899999996,24.94945,38.68612,24.966293Q38.5151072,24.983136000000002,38.3434734,24.991568Q38.1718402,25,38,25Q37.8281598,25,37.6565266,24.991568Q37.4848933,24.983135,37.3138804,24.966292Q37.142867100000004,24.949449,36.9728866,24.924234Q36.802906,24.899019,36.634367499999996,24.865496Q36.4658289,24.83197,36.2991385,24.790217Q36.1324482,24.748464,35.9680071,24.698582000000002Q35.803566000000004,24.648699,35.6417708,24.590806Q35.4799757,24.532915,35.3212156,24.467154999999998Q35.1624556,24.401394,35.0071144,24.327923Q34.8517723,24.254452,34.700223,24.173448Q34.5486732,24.092443,34.4012804,24.004099Q34.2538881,23.915755,34.1110082,23.820286Q33.9681282,23.724816,33.8301048,23.622452Q33.6920815,23.520086,33.559247,23.411073000000002Q33.4264126,23.302058000000002,33.299087,23.186657Q33.171762,23.071257,33.0502524,22.949747000000002Q32.9287429,22.828238,32.813342,22.700912000000002Q32.6979411,22.573587,32.5889268,22.440753Q32.4799124,22.307918,32.3775473,22.169893000000002Q32.275182,22.031869999999998,32.1797127,21.88899Q32.0842432,21.746111,31.99589968,21.598719Q31.90755606,21.451326,31.82655108,21.299777Q31.74554604,21.148228,31.67207485,20.9928856Q31.59860361,20.837543500000002,31.53284317,20.6787834Q31.46708274,20.5200233,31.40919149,20.358228699999998Q31.35130021,20.196434,31.30141759,20.0319929Q31.25153497,19.8675518,31.20978118,19.700861Q31.16802739,19.5341702,31.13450301,19.3656311Q31.10097862,19.197093000000002,31.075764418,19.027113Q31.0505502,18.8571329,31.033706907,18.68612Q31.016863609,18.5151072,31.0084318044,18.3434734Q31,18.1718402,31,18Q31,17.8281598,31.0084318044,17.6565266Q31.016863609,17.4848933,31.033706907,17.313880400000002Q31.0505502,17.1428671,31.07576441,16.9728866Q31.10097862,16.802906,31.13450301,16.6343675Q31.16802739,16.465828899999998,31.20978117,16.299138499999998Q31.25153497,16.1324482,31.30141759,15.968007100000001Q31.35130021,15.803566,31.40919146,15.6417708Q31.46708274,15.4799757,31.53284317,15.3212156Q31.59860361,15.162455600000001,31.67207479,15.007114399999999Q31.74554598,14.8517723,31.82655102,14.700223Q31.90755594,14.5486732,31.99589956,14.401280400000001Q32.0842431,14.253888100000001,32.1797125,14.1110082Q32.2751819,13.9681282,32.3775471,13.8301048Q32.4799123,13.6920815,32.5889268,13.559247Q32.6979411,13.426412599999999,32.8133421,13.299087Q32.9287429,13.171762000000001,33.0502524,13.0502524Q33.171762,12.9287429,33.299087,12.813342Q33.4264126,12.6979411,33.559247,12.5889268Q33.6920815,12.4799124,33.8301048,12.3775473Q33.9681282,12.275182000000001,34.1110082,12.1797127Q34.2538881,12.0842432,34.4012806,11.99589968Q34.5486729,11.90755606,34.7002227,11.82655108Q34.8517723,11.74554604,35.0071139,11.67207485Q35.1624556,11.59860361,35.3212156,11.53284317Q35.4799757,11.46708274,35.6417708,11.40919149Q35.803566000000004,11.35130021,35.9680071,11.30141759Q36.1324482,11.25153497,36.2991385,11.20978118Q36.4658289,11.16802739,36.634367499999996,11.13450301Q36.802906,11.10097862,36.9728866,11.075764418Q37.142867100000004,11.0505502,37.31388,11.033706907Q37.4848928,11.016863609,37.6565266,11.0084318044Q37.8281598,11,38,11Q38.1718402,11,38.3434739,11.0084318044Q38.5151072,11.016863609,38.68612,11.033706907Q38.857132899999996,11.0505502,39.027113,11.07576441Q39.197093,11.10097862,39.3656311,11.13450301Q39.5341702,11.16802739,39.700861,11.20978117Q39.8675518,11.25153497,40.0319929,11.30141759Q40.196433999999996,11.35130021,40.3582287,11.40919146Q40.5200233,11.46708274,40.6787834,11.53284317Q40.8375435,11.59860361,40.9928856,11.67207479Q41.148228,11.74554598,41.299777,11.82655102Q41.451326,11.90755594,41.598719,11.99589956Q41.746111,12.0842431,41.88899,12.1797125Q42.03187,12.2751819,42.169893,12.3775471Q42.307918,12.4799123,42.440753,12.5889268Q42.573587,12.6979411,42.700912,12.8133421Q42.828238,12.9287429,42.949747,13.0502524Q43.071257,13.171762000000001,43.186658,13.299087Q43.302058,13.426412599999999,43.411073,13.559247Q43.520086,13.6920815,43.622451,13.8301048Q43.724816000000004,13.9681282,43.820285999999996,14.1110082Q43.915755000000004,14.253888100000001,44.004099,14.4012806Q44.092443,14.5486729,44.173449,14.7002227Q44.254454,14.8517723,44.327925,15.0071139Q44.401396,15.162455600000001,44.467155,15.3212156Q44.532916,15.4799757,44.590808,15.6417708Q44.648699,15.803566,44.698583,15.968007100000001Q44.748464999999996,16.1324482,44.790217999999996,16.299138499999998Q44.831970999999996,16.465828899999998,44.865496,16.6343675Q44.899018999999996,16.802906,44.924234,16.9728866Q44.94945,17.1428671,44.966293,17.31388Q44.983136,17.4848928,44.991568,17.6565266Q45,17.8281598,45,18Z" fill="#FFFFFF" fill-opacity="1"/><path d="M43.663714,23.649985Q43.94017,23.372858,44.188251,23.070062999999998Q44.436330999999996,22.767269,44.653666,22.441702Q44.871,22.116135,45.055512,21.770906Q45.240026,21.425676,45.389953,21.064083Q45.539879,20.7024899,45.653788,20.3279858Q45.767697,19.953481699999998,45.844501,19.5696468Q45.921305000000004,19.185812,45.960268,18.7963123Q45.999233000000004,18.4068131,45.999986,18.015370400000002L45.999988,18.0138154L45.999998,17.9999995L45.999988,17.9861846L45.999987000000004,17.9854932Q45.999276,17.5933876,45.960224,17.2032318Q45.921172999999996,16.8130751,45.844154,16.4286084Q45.767136,16.0441408,45.652887,15.669047800000001Q45.538639,15.2939548,45.388258,14.9318326Q45.237877,14.5697103,45.052805,14.2240293Q44.867733,13.878348599999999,44.649743,13.5524232Q44.431752,13.2264977,44.182934,12.923452Q43.934114,12.6204064,43.656853999999996,12.3431455L43.653134,12.3394287Q43.375282,12.0619409,43.071589,11.81299853Q42.767897,11.56405616,42.441282,11.3460528Q42.114670000000004,11.12804951,41.768276,10.943081196Q41.421883,10.75811288,41.059038,10.60795796Q40.696195599999996,10.45780301,40.320390700000004,10.34390509Q39.944586799999996,10.23000723,39.5594339,10.15346146Q39.1742811,10.07691556,38.783484,10.03845775Q38.392685900000004,10,38,10Q37.8036108,10,37.6074581,10.00963634Q37.4113059,10.01927269,37.2158628,10.03852212Q37.0204191,10.05777168,36.8261557,10.08658791Q36.6318922,10.11540425,36.4392767,10.15371782Q36.2466612,10.19203138,36.0561581,10.23975003Q35.8656549,10.287468669999999,35.6777225,10.344477359999999Q35.48979,10.40148604,35.3048811,10.467647490000001Q35.1199722,10.53380895,34.9385321,10.60896379Q34.7570925,10.68411857,34.5795591,10.76808567Q34.4020257,10.85205276,34.228826,10.944629878Q34.0556264,11.037206993,33.8871779,11.13817109Q33.7187295,11.23913518,33.555438,11.34824306Q33.3921466,11.45735091,33.2344055,11.57433975Q33.0766644,11.69132853,32.9248537,11.81591636Q32.7730429,11.94050419,32.6275283,12.0723909Q32.4820137,12.2042778,32.3431457,12.3431457Q32.2042778,12.4820137,32.072391,12.6275284Q31.94050419,12.7730429,31.8159163,12.9248538Q31.69132847,13.0766644,31.57433969,13.2344055Q31.45735091,13.3921466,31.34824306,13.555438Q31.23913518,13.7187295,31.13817106,13.887177900000001Q31.037206978,14.0556264,30.944629863,14.228826Q30.85205275,14.4020257,30.76808564,14.5795591Q30.68411857,14.7570925,30.60896376,14.9385321Q30.53380895,15.1199722,30.46764749,15.3048811Q30.40148604,15.48979,30.3444773,15.6777225Q30.28746867,15.8656549,30.23975003,16.0561581Q30.19203138,16.2466612,30.15371782,16.4392767Q30.11540425,16.6318922,30.08658791,16.8261557Q30.05777168,17.020419099999998,30.03852218,17.2158632Q30.01927269,17.4113064,30.0096364,17.6074581Q30,17.8036108,30,18Q30,18.3924193,30.03840578,18.7829547Q30.07681161,19.1734905,30.15325439,19.5583925Q30.22969735,19.9432945,30.34344327,20.3188667Q30.45718926,20.6944389,30.6071462,21.057076000000002Q30.75710313,21.419713,30.941831209,21.765934Q31.12655927,22.112154,31.34428486,22.438633Q31.56201041,22.765112000000002,31.81064302,23.068714Q32.0592756,23.372315999999998,32.336428,23.650128000000002L32.3374282,23.651131Q32.3402849,23.653993,32.3431453,23.656852999999998Q32.3465788,23.660286,32.3500146,23.663714Q32.6271428,23.940170000000002,32.9299368,24.188251Q33.2327306,24.436331,33.5582976,24.653666Q33.8838646,24.871000000000002,34.229094,25.055512Q34.5743237,25.240026,34.9359174,25.389953Q35.2975111,25.539879,35.6720142,25.653788Q36.0465174,25.767697,36.4303522,25.844501Q36.814187000000004,25.921305,37.2036872,25.960268Q37.5931864,25.999233,37.9846296,25.999986L37.9861846,25.999988000000002L37.9999962,25.999997999999998L38.0138154,25.999988000000002L38.0145068,25.999987Q38.4066124,25.999276000000002,38.7967691,25.960224Q39.1869259,25.921173,39.571393,25.844154Q39.9558601,25.767136,40.3309526,25.652887Q40.7060452,25.538639,41.068168,25.388258Q41.43029,25.237876999999997,41.77597,25.052805Q42.121652,24.867733,42.447577,24.649743Q42.773502,24.431753,43.076549,24.182934Q43.379593,23.934116,43.656853,23.656855Q43.660286,23.653421,43.663714,23.649985ZM38,25Q37.8281598,25,37.6565266,24.991568Q37.4848933,24.983135,37.3138804,24.966292Q37.142867100000004,24.949449,36.9728866,24.924234Q36.802906,24.899019,36.634367499999996,24.865496Q36.4658289,24.83197,36.2991385,24.790217Q36.1324482,24.748464,35.9680071,24.698582000000002Q35.803566000000004,24.648699,35.6417708,24.590806Q35.4799757,24.532915,35.3212156,24.467154999999998Q35.1624556,24.401394,35.0071144,24.327923Q34.8517723,24.254452,34.700223,24.173448Q34.5486732,24.092443,34.4012804,24.004099Q34.2538881,23.915755,34.1110082,23.820286Q33.9681282,23.724816,33.8301048,23.622452Q33.6920815,23.520086,33.559247,23.411073000000002Q33.4264126,23.302058000000002,33.299087,23.186657Q33.171762,23.071257,33.0502524,22.949747000000002Q32.9287429,22.828238,32.813342,22.700912000000002Q32.6979411,22.573587,32.5889268,22.440753Q32.4799124,22.307918,32.3775473,22.169893000000002Q32.275182,22.031869999999998,32.1797127,21.88899Q32.0842432,21.746111,31.99589968,21.598719Q31.90755606,21.451326,31.82655108,21.299777Q31.74554604,21.148228,31.67207485,20.9928856Q31.59860361,20.837543500000002,31.53284317,20.6787834Q31.46708274,20.5200233,31.40919149,20.358228699999998Q31.35130021,20.196434,31.30141759,20.0319929Q31.25153497,19.8675518,31.20978118,19.700861Q31.16802739,19.5341702,31.13450301,19.3656311Q31.10097862,19.197093000000002,31.075764418,19.027113Q31.0505502,18.8571329,31.033706907,18.68612Q31.016863609,18.5151072,31.0084318044,18.3434734Q31,18.1718402,31,18Q31,17.8281598,31.0084318044,17.6565266Q31.016863609,17.4848933,31.033706907,17.313880400000002Q31.0505502,17.1428671,31.07576441,16.9728866Q31.10097862,16.802906,31.13450301,16.6343675Q31.16802739,16.465828899999998,31.20978117,16.299138499999998Q31.25153497,16.1324482,31.30141759,15.968007100000001Q31.35130021,15.803566,31.40919146,15.6417708Q31.46708274,15.4799757,31.53284317,15.3212156Q31.59860361,15.162455600000001,31.67207479,15.007114399999999Q31.74554598,14.8517723,31.82655102,14.700223Q31.90755594,14.5486732,31.99589956,14.401280400000001Q32.0842431,14.253888100000001,32.1797125,14.1110082Q32.2751819,13.9681282,32.3775471,13.8301048Q32.4799123,13.6920815,32.5889268,13.559247Q32.6979411,13.426412599999999,32.8133421,13.299087Q32.9287429,13.171762000000001,33.0502524,13.0502524Q33.171762,12.9287429,33.299087,12.813342Q33.4264126,12.6979411,33.559247,12.5889268Q33.6920815,12.4799124,33.8301048,12.3775473Q33.9681282,12.275182000000001,34.1110082,12.1797127Q34.2538881,12.0842432,34.4012806,11.99589968Q34.5486729,11.90755606,34.7002227,11.82655108Q34.8517723,11.74554604,35.0071139,11.67207485Q35.1624556,11.59860361,35.3212156,11.53284317Q35.4799757,11.46708274,35.6417708,11.40919149Q35.803566000000004,11.35130021,35.9680071,11.30141759Q36.1324482,11.25153497,36.2991385,11.20978118Q36.4658289,11.16802739,36.634367499999996,11.13450301Q36.802906,11.10097862,36.9728866,11.075764418Q37.142867100000004,11.0505502,37.31388,11.033706907Q37.4848928,11.016863609,37.6565266,11.0084318044Q37.8281598,11,38,11Q38.1718402,11,38.3434739,11.0084318044Q38.5151072,11.016863609,38.68612,11.033706907Q38.857132899999996,11.0505502,39.027113,11.07576441Q39.197093,11.10097862,39.3656311,11.13450301Q39.5341702,11.16802739,39.700861,11.20978117Q39.8675518,11.25153497,40.0319929,11.30141759Q40.196433999999996,11.35130021,40.3582287,11.40919146Q40.5200233,11.46708274,40.6787834,11.53284317Q40.8375435,11.59860361,40.9928856,11.67207479Q41.148228,11.74554598,41.299777,11.82655102Q41.451326,11.90755594,41.598719,11.99589956Q41.746111,12.0842431,41.88899,12.1797125Q42.03187,12.2751819,42.169893,12.3775471Q42.307918,12.4799123,42.440753,12.5889268Q42.573587,12.6979411,42.700912,12.8133421Q42.828238,12.9287429,42.949747,13.0502524Q43.071257,13.171762000000001,43.186658,13.299087Q43.302058,13.426412599999999,43.411073,13.559247Q43.520086,13.6920815,43.622451,13.8301048Q43.724816000000004,13.9681282,43.820285999999996,14.1110082Q43.915755000000004,14.253888100000001,44.004099,14.4012806Q44.092443,14.5486729,44.173449,14.7002227Q44.254454,14.8517723,44.327925,15.0071139Q44.401396,15.162455600000001,44.467155,15.3212156Q44.532916,15.4799757,44.590808,15.6417708Q44.648699,15.803566,44.698583,15.968007100000001Q44.748464999999996,16.1324482,44.790217999999996,16.299138499999998Q44.831970999999996,16.465828899999998,44.865496,16.6343675Q44.899018999999996,16.802906,44.924234,16.9728866Q44.94945,17.1428671,44.966293,17.31388Q44.983136,17.4848928,44.991568,17.6565266Q45,17.8281598,45,18Q45,18.1718402,44.991568,18.3434739Q44.983135000000004,18.5151072,44.966291999999996,18.68612Q44.949449,18.8571329,44.924234,19.027113Q44.899018999999996,19.197093000000002,44.865496,19.3656311Q44.83197,19.5341702,44.790217,19.700861Q44.748464,19.8675518,44.698582,20.0319929Q44.648699,20.196434,44.590806,20.358228699999998Q44.532915,20.5200233,44.467155,20.6787834Q44.401393999999996,20.837543500000002,44.327923,20.9928856Q44.254452,21.148228,44.173448,21.299777Q44.092443,21.451326,44.004099,21.598719Q43.915755000000004,21.746111,43.820285999999996,21.88899Q43.724816000000004,22.031869999999998,43.622451999999996,22.169893000000002Q43.520086,22.307918,43.411073,22.440753Q43.302058,22.573587,43.186657,22.700912000000002Q43.071257,22.828238,42.949747,22.949747000000002Q42.828238,23.071257,42.700912,23.186658Q42.573587,23.302058000000002,42.440753,23.411073000000002Q42.307918,23.520086,42.169893,23.622450999999998Q42.03187,23.724816,41.88899,23.820286Q41.746111,23.915755,41.598719,24.004099Q41.451326,24.092443,41.299777,24.173448999999998Q41.148228,24.254454000000003,40.9928856,24.327925Q40.8375435,24.401396,40.6787834,24.467154999999998Q40.5200233,24.532916,40.3582287,24.590808000000003Q40.196433999999996,24.648699,40.0319929,24.698583Q39.8675518,24.748465,39.700861,24.790218Q39.5341702,24.831971,39.3656311,24.865496Q39.197093,24.899019,39.027113,24.924234Q38.857132899999996,24.94945,38.68612,24.966293Q38.5151072,24.983136000000002,38.3434734,24.991568Q38.1718402,25,38,25Z" fill-rule="evenodd" fill="#000000" fill-opacity="0.05000000074505806"/><path d="M37,20C37,20.5522847,37.44771522,21,38,21C38.5522847,21,39,20.5522847,39,20L39,16C39,15.44771522,38.5522847,15,38,15C37.44771522,15,37,15.44771522,37,16L37,20Z" fill="#256FFF" fill-opacity="1" style="opacity:0.20000000298023224;"/></svg>