<svg xmlns="http://www.w3.org/2000/svg" xmlns:xlink="http://www.w3.org/1999/xlink" fill="none" version="1.1" width="56" height="36" viewBox="0 0 56 36"><rect x="8" y="8" width="40" height="20" rx="10" fill="#616161" fill-opacity="1"/><rect x="8" y="8" width="40" height="20" rx="10" fill-opacity="0" stroke-opacity="1" stroke="#616161" fill="none" stroke-width="0"/><path d="M25,18Q25,18.1718402,24.991568,18.3434739Q24.983135,18.5151072,24.966292,18.68612Q24.949449,18.8571329,24.924234,19.027113Q24.899019,19.197093000000002,24.865496,19.3656311Q24.83197,19.5341702,24.790217,19.700861Q24.748464,19.8675518,24.698582000000002,20.0319929Q24.648699,20.196434,24.590806,20.358228699999998Q24.532915,20.5200233,24.467154999999998,20.6787834Q24.401394,20.837543500000002,24.327923,20.9928856Q24.254452,21.148228,24.173448,21.299777Q24.092443,21.451326,24.004099,21.598719Q23.915755,21.746111,23.820286,21.88899Q23.724816,22.031869999999998,23.622452,22.169893000000002Q23.520086,22.307918,23.411073000000002,22.440753Q23.302058000000002,22.573587,23.186657,22.700912000000002Q23.071257,22.828238,22.949747000000002,22.949747000000002Q22.828238,23.071257,22.700912000000002,23.186658Q22.573587,23.302058000000002,22.440753,23.411073000000002Q22.307918,23.520086,22.169893000000002,23.622450999999998Q22.031869999999998,23.724816,21.88899,23.820286Q21.746111,23.915755,21.598719,24.004099Q21.451326,24.092443,21.299777,24.173448999999998Q21.148228,24.254454000000003,20.9928856,24.327925Q20.837543500000002,24.401396,20.6787834,24.467154999999998Q20.5200233,24.532916,20.358228699999998,24.590808000000003Q20.196434,24.648699,20.0319929,24.698583Q19.8675518,24.748465,19.700861,24.790218Q19.5341702,24.831971,19.3656311,24.865496Q19.197093000000002,24.899019,19.027113,24.924234Q18.8571329,24.94945,18.68612,24.966293Q18.5151072,24.983136000000002,18.3434734,24.991568Q18.1718402,25,18,25Q17.8281598,25,17.6565266,24.991568Q17.4848933,24.983135,17.313880400000002,24.966292Q17.1428671,24.949449,16.9728866,24.924234Q16.802906,24.899019,16.6343675,24.865496Q16.465828899999998,24.83197,16.299138499999998,24.790217Q16.1324482,24.748464,15.968007100000001,24.698582000000002Q15.803566,24.648699,15.6417708,24.590806Q15.4799757,24.532915,15.3212156,24.467154999999998Q15.162455600000001,24.401394,15.007114399999999,24.327923Q14.8517723,24.254452,14.700223,24.173448Q14.5486732,24.092443,14.401280400000001,24.004099Q14.253888100000001,23.915755,14.1110082,23.820286Q13.9681282,23.724816,13.8301048,23.622452Q13.6920815,23.520086,13.559247,23.411073000000002Q13.426412599999999,23.302058000000002,13.299087,23.186657Q13.171762000000001,23.071257,13.0502524,22.949747000000002Q12.9287429,22.828238,12.813342,22.700912000000002Q12.6979411,22.573587,12.5889268,22.440753Q12.4799124,22.307918,12.3775473,22.169893000000002Q12.275182000000001,22.031869999999998,12.1797127,21.88899Q12.0842432,21.746111,11.99589968,21.598719Q11.90755606,21.451326,11.82655108,21.299777Q11.74554604,21.148228,11.67207485,20.9928856Q11.59860361,20.837543500000002,11.53284317,20.6787834Q11.46708274,20.5200233,11.40919149,20.358228699999998Q11.35130021,20.196434,11.30141759,20.0319929Q11.25153497,19.8675518,11.20978118,19.700861Q11.16802739,19.5341702,11.13450301,19.3656311Q11.10097862,19.197093000000002,11.075764418,19.027113Q11.0505502,18.8571329,11.033706907,18.68612Q11.016863609,18.5151072,11.0084318044,18.3434734Q11,18.1718402,11,18Q11,17.8281598,11.0084318044,17.6565266Q11.016863609,17.4848933,11.033706907,17.313880400000002Q11.0505502,17.1428671,11.07576441,16.9728866Q11.10097862,16.802906,11.13450301,16.6343675Q11.16802739,16.465828899999998,11.20978117,16.299138499999998Q11.25153497,16.1324482,11.30141759,15.968007100000001Q11.35130021,15.803566,11.40919146,15.6417708Q11.46708274,15.4799757,11.53284317,15.3212156Q11.59860361,15.162455600000001,11.67207479,15.007114399999999Q11.74554598,14.8517723,11.82655102,14.700223Q11.90755594,14.5486732,11.99589956,14.401280400000001Q12.0842431,14.253888100000001,12.1797125,14.1110082Q12.2751819,13.9681282,12.3775471,13.8301048Q12.4799123,13.6920815,12.5889268,13.559247Q12.6979411,13.426412599999999,12.8133421,13.299087Q12.9287429,13.171762000000001,13.0502524,13.0502524Q13.171762000000001,12.9287429,13.299087,12.813342Q13.426412599999999,12.6979411,13.559247,12.5889268Q13.6920815,12.4799124,13.8301048,12.3775473Q13.9681282,12.275182000000001,14.1110082,12.1797127Q14.253888100000001,12.0842432,14.4012806,11.99589968Q14.5486729,11.90755606,14.7002227,11.82655108Q14.8517723,11.74554604,15.0071139,11.67207485Q15.162455600000001,11.59860361,15.3212156,11.53284317Q15.4799757,11.46708274,15.6417708,11.40919149Q15.803566,11.35130021,15.968007100000001,11.30141759Q16.1324482,11.25153497,16.299138499999998,11.20978118Q16.465828899999998,11.16802739,16.6343675,11.13450301Q16.802906,11.10097862,16.9728866,11.075764418Q17.1428671,11.0505502,17.31388,11.033706907Q17.4848928,11.016863609,17.6565266,11.0084318044Q17.8281598,11,18,11Q18.1718402,11,18.3434739,11.0084318044Q18.5151072,11.016863609,18.68612,11.033706907Q18.8571329,11.0505502,19.027113,11.07576441Q19.197093000000002,11.10097862,19.3656311,11.13450301Q19.5341702,11.16802739,19.700861,11.20978117Q19.8675518,11.25153497,20.0319929,11.30141759Q20.196434,11.35130021,20.358228699999998,11.40919146Q20.5200233,11.46708274,20.6787834,11.53284317Q20.837543500000002,11.59860361,20.9928856,11.67207479Q21.148228,11.74554598,21.299777,11.82655102Q21.451326,11.90755594,21.598719,11.99589956Q21.746111,12.0842431,21.88899,12.1797125Q22.031869999999998,12.2751819,22.169893000000002,12.3775471Q22.307918,12.4799123,22.440753,12.5889268Q22.573587,12.6979411,22.700912000000002,12.8133421Q22.828238,12.9287429,22.949747000000002,13.0502524Q23.071257,13.171762000000001,23.186658,13.299087Q23.302058000000002,13.426412599999999,23.411073000000002,13.559247Q23.520086,13.6920815,23.622450999999998,13.8301048Q23.724816,13.9681282,23.820286,14.1110082Q23.915755,14.253888100000001,24.004099,14.4012806Q24.092443,14.5486729,24.173448999999998,14.7002227Q24.254454000000003,14.8517723,24.327925,15.0071139Q24.401396,15.162455600000001,24.467154999999998,15.3212156Q24.532916,15.4799757,24.590808000000003,15.6417708Q24.648699,15.803566,24.698583,15.968007100000001Q24.748465,16.1324482,24.790218,16.299138499999998Q24.831971,16.465828899999998,24.865496,16.6343675Q24.899019,16.802906,24.924234,16.9728866Q24.94945,17.1428671,24.966293,17.31388Q24.983136000000002,17.4848928,24.991568,17.6565266Q25,17.8281598,25,18Z" fill="#FFFFFF" fill-opacity="1"/><path d="M23.663714,23.649985Q23.940170000000002,23.372858,24.188251,23.070062999999998Q24.436331,22.767269,24.653666,22.441702Q24.871000000000002,22.116135,25.055512,21.770906Q25.240026,21.425676,25.389953,21.064083Q25.539879,20.7024899,25.653788,20.3279858Q25.767697,19.953481699999998,25.844501,19.5696468Q25.921305,19.185812,25.960268,18.7963123Q25.999233,18.4068131,25.999986,18.015370400000002L25.999988000000002,18.0138154L25.999997999999998,17.9999995L25.999988000000002,17.9861846L25.999987,17.9854932Q25.999276000000002,17.5933876,25.960224,17.2032318Q25.921173,16.8130751,25.844154,16.4286084Q25.767136,16.0441408,25.652887,15.669047800000001Q25.538639,15.2939548,25.388258,14.9318326Q25.237876999999997,14.5697103,25.052805,14.2240293Q24.867733,13.878348599999999,24.649743,13.5524232Q24.431752,13.2264977,24.182934,12.923452Q23.934114,12.6204064,23.656854,12.3431455L23.653134,12.3394287Q23.375282,12.0619409,23.071589,11.81299853Q22.767896999999998,11.56405616,22.441282,11.3460528Q22.11467,11.12804951,21.768276,10.943081196Q21.421883,10.75811288,21.059038,10.60795796Q20.6961956,10.45780301,20.3203907,10.34390509Q19.9445868,10.23000723,19.559433900000002,10.15346146Q19.1742811,10.07691556,18.783484,10.03845775Q18.3926859,10,18,10Q17.8036108,10,17.6074581,10.00963634Q17.411305900000002,10.01927269,17.2158628,10.03852212Q17.020419099999998,10.05777168,16.8261557,10.08658791Q16.6318922,10.11540425,16.4392767,10.15371782Q16.2466612,10.19203138,16.0561581,10.23975003Q15.8656549,10.287468669999999,15.6777225,10.344477359999999Q15.48979,10.40148604,15.3048811,10.467647490000001Q15.1199722,10.53380895,14.9385321,10.60896379Q14.7570925,10.68411857,14.5795591,10.76808567Q14.4020257,10.85205276,14.228826,10.944629878Q14.0556264,11.037206993,13.887177900000001,11.13817109Q13.7187295,11.23913518,13.555438,11.34824306Q13.3921466,11.45735091,13.2344055,11.57433975Q13.0766644,11.69132853,12.9248537,11.81591636Q12.7730429,11.94050419,12.6275283,12.0723909Q12.4820137,12.2042778,12.3431457,12.3431457Q12.2042778,12.4820137,12.072391,12.6275284Q11.94050419,12.7730429,11.8159163,12.9248538Q11.69132847,13.0766644,11.57433969,13.2344055Q11.45735091,13.3921466,11.34824306,13.555438Q11.23913518,13.7187295,11.13817106,13.887177900000001Q11.037206978,14.0556264,10.944629863,14.228826Q10.85205275,14.4020257,10.76808564,14.5795591Q10.68411857,14.7570925,10.60896376,14.9385321Q10.53380895,15.1199722,10.467647490000001,15.3048811Q10.40148604,15.48979,10.3444773,15.6777225Q10.287468669999999,15.8656549,10.23975003,16.0561581Q10.19203138,16.2466612,10.15371782,16.4392767Q10.11540425,16.6318922,10.08658791,16.8261557Q10.05777168,17.020419099999998,10.03852218,17.2158632Q10.01927269,17.4113064,10.0096364,17.6074581Q10,17.8036108,10,18Q10,18.3924193,10.03840578,18.7829547Q10.07681161,19.1734905,10.15325439,19.5583925Q10.22969735,19.9432945,10.34344327,20.3188667Q10.45718926,20.6944389,10.6071462,21.057076000000002Q10.75710313,21.419713,10.941831209,21.765934Q11.12655927,22.112154,11.34428486,22.438633Q11.56201041,22.765112000000002,11.81064302,23.068714Q12.0592756,23.372315999999998,12.336428,23.650128000000002L12.3374282,23.651131Q12.3402849,23.653993,12.3431453,23.656852999999998Q12.3465788,23.660286,12.3500146,23.663714Q12.6271428,23.940170000000002,12.9299368,24.188251Q13.2327306,24.436331,13.5582976,24.653666Q13.883864599999999,24.871000000000002,14.229094,25.055512Q14.5743237,25.240026,14.935917400000001,25.389953Q15.297511100000001,25.539879,15.6720142,25.653788Q16.0465174,25.767697,16.4303522,25.844501Q16.814187,25.921305,17.2036872,25.960268Q17.5931864,25.999233,17.984629599999998,25.999986L17.9861846,25.999988000000002L17.9999962,25.999997999999998L18.0138154,25.999988000000002L18.0145068,25.999987Q18.4066124,25.999276000000002,18.7967691,25.960224Q19.1869259,25.921173,19.571393,25.844154Q19.955860100000002,25.767136,20.3309526,25.652887Q20.7060452,25.538639,21.068168,25.388258Q21.43029,25.237876999999997,21.77597,25.052805Q22.121651999999997,24.867733,22.447577000000003,24.649743Q22.773502,24.431753,23.076549,24.182934Q23.379593,23.934116,23.656852999999998,23.656855Q23.660286,23.653421,23.663714,23.649985ZM18,25Q17.8281598,25,17.6565266,24.991568Q17.4848933,24.983135,17.313880400000002,24.966292Q17.1428671,24.949449,16.9728866,24.924234Q16.802906,24.899019,16.6343675,24.865496Q16.465828899999998,24.83197,16.299138499999998,24.790217Q16.1324482,24.748464,15.968007100000001,24.698582000000002Q15.803566,24.648699,15.6417708,24.590806Q15.4799757,24.532915,15.3212156,24.467154999999998Q15.162455600000001,24.401394,15.007114399999999,24.327923Q14.8517723,24.254452,14.700223,24.173448Q14.5486732,24.092443,14.401280400000001,24.004099Q14.253888100000001,23.915755,14.1110082,23.820286Q13.9681282,23.724816,13.8301048,23.622452Q13.6920815,23.520086,13.559247,23.411073000000002Q13.426412599999999,23.302058000000002,13.299087,23.186657Q13.171762000000001,23.071257,13.0502524,22.949747000000002Q12.9287429,22.828238,12.813342,22.700912000000002Q12.6979411,22.573587,12.5889268,22.440753Q12.4799124,22.307918,12.3775473,22.169893000000002Q12.275182000000001,22.031869999999998,12.1797127,21.88899Q12.0842432,21.746111,11.99589968,21.598719Q11.90755606,21.451326,11.82655108,21.299777Q11.74554604,21.148228,11.67207485,20.9928856Q11.59860361,20.837543500000002,11.53284317,20.6787834Q11.46708274,20.5200233,11.40919149,20.358228699999998Q11.35130021,20.196434,11.30141759,20.0319929Q11.25153497,19.8675518,11.20978118,19.700861Q11.16802739,19.5341702,11.13450301,19.3656311Q11.10097862,19.197093000000002,11.075764418,19.027113Q11.0505502,18.8571329,11.033706907,18.68612Q11.016863609,18.5151072,11.0084318044,18.3434734Q11,18.1718402,11,18Q11,17.8281598,11.0084318044,17.6565266Q11.016863609,17.4848933,11.033706907,17.313880400000002Q11.0505502,17.1428671,11.07576441,16.9728866Q11.10097862,16.802906,11.13450301,16.6343675Q11.16802739,16.465828899999998,11.20978117,16.299138499999998Q11.25153497,16.1324482,11.30141759,15.968007100000001Q11.35130021,15.803566,11.40919146,15.6417708Q11.46708274,15.4799757,11.53284317,15.3212156Q11.59860361,15.162455600000001,11.67207479,15.007114399999999Q11.74554598,14.8517723,11.82655102,14.700223Q11.90755594,14.5486732,11.99589956,14.401280400000001Q12.0842431,14.253888100000001,12.1797125,14.1110082Q12.2751819,13.9681282,12.3775471,13.8301048Q12.4799123,13.6920815,12.5889268,13.559247Q12.6979411,13.426412599999999,12.8133421,13.299087Q12.9287429,13.171762000000001,13.0502524,13.0502524Q13.171762000000001,12.9287429,13.299087,12.813342Q13.426412599999999,12.6979411,13.559247,12.5889268Q13.6920815,12.4799124,13.8301048,12.3775473Q13.9681282,12.275182000000001,14.1110082,12.1797127Q14.253888100000001,12.0842432,14.4012806,11.99589968Q14.5486729,11.90755606,14.7002227,11.82655108Q14.8517723,11.74554604,15.0071139,11.67207485Q15.162455600000001,11.59860361,15.3212156,11.53284317Q15.4799757,11.46708274,15.6417708,11.40919149Q15.803566,11.35130021,15.968007100000001,11.30141759Q16.1324482,11.25153497,16.299138499999998,11.20978118Q16.465828899999998,11.16802739,16.6343675,11.13450301Q16.802906,11.10097862,16.9728866,11.075764418Q17.1428671,11.0505502,17.31388,11.033706907Q17.4848928,11.016863609,17.6565266,11.0084318044Q17.8281598,11,18,11Q18.1718402,11,18.3434739,11.0084318044Q18.5151072,11.016863609,18.68612,11.033706907Q18.8571329,11.0505502,19.027113,11.07576441Q19.197093000000002,11.10097862,19.3656311,11.13450301Q19.5341702,11.16802739,19.700861,11.20978117Q19.8675518,11.25153497,20.0319929,11.30141759Q20.196434,11.35130021,20.358228699999998,11.40919146Q20.5200233,11.46708274,20.6787834,11.53284317Q20.837543500000002,11.59860361,20.9928856,11.67207479Q21.148228,11.74554598,21.299777,11.82655102Q21.451326,11.90755594,21.598719,11.99589956Q21.746111,12.0842431,21.88899,12.1797125Q22.031869999999998,12.2751819,22.169893000000002,12.3775471Q22.307918,12.4799123,22.440753,12.5889268Q22.573587,12.6979411,22.700912000000002,12.8133421Q22.828238,12.9287429,22.949747000000002,13.0502524Q23.071257,13.171762000000001,23.186658,13.299087Q23.302058000000002,13.426412599999999,23.411073000000002,13.559247Q23.520086,13.6920815,23.622450999999998,13.8301048Q23.724816,13.9681282,23.820286,14.1110082Q23.915755,14.253888100000001,24.004099,14.4012806Q24.092443,14.5486729,24.173448999999998,14.7002227Q24.254454000000003,14.8517723,24.327925,15.0071139Q24.401396,15.162455600000001,24.467154999999998,15.3212156Q24.532916,15.4799757,24.590808000000003,15.6417708Q24.648699,15.803566,24.698583,15.968007100000001Q24.748465,16.1324482,24.790218,16.299138499999998Q24.831971,16.465828899999998,24.865496,16.6343675Q24.899019,16.802906,24.924234,16.9728866Q24.94945,17.1428671,24.966293,17.31388Q24.983136000000002,17.4848928,24.991568,17.6565266Q25,17.8281598,25,18Q25,18.1718402,24.991568,18.3434739Q24.983135,18.5151072,24.966292,18.68612Q24.949449,18.8571329,24.924234,19.027113Q24.899019,19.197093000000002,24.865496,19.3656311Q24.83197,19.5341702,24.790217,19.700861Q24.748464,19.8675518,24.698582000000002,20.0319929Q24.648699,20.196434,24.590806,20.358228699999998Q24.532915,20.5200233,24.467154999999998,20.6787834Q24.401394,20.837543500000002,24.327923,20.9928856Q24.254452,21.148228,24.173448,21.299777Q24.092443,21.451326,24.004099,21.598719Q23.915755,21.746111,23.820286,21.88899Q23.724816,22.031869999999998,23.622452,22.169893000000002Q23.520086,22.307918,23.411073000000002,22.440753Q23.302058000000002,22.573587,23.186657,22.700912000000002Q23.071257,22.828238,22.949747000000002,22.949747000000002Q22.828238,23.071257,22.700912000000002,23.186658Q22.573587,23.302058000000002,22.440753,23.411073000000002Q22.307918,23.520086,22.169893000000002,23.622450999999998Q22.031869999999998,23.724816,21.88899,23.820286Q21.746111,23.915755,21.598719,24.004099Q21.451326,24.092443,21.299777,24.173448999999998Q21.148228,24.254454000000003,20.9928856,24.327925Q20.837543500000002,24.401396,20.6787834,24.467154999999998Q20.5200233,24.532916,20.358228699999998,24.590808000000003Q20.196434,24.648699,20.0319929,24.698583Q19.8675518,24.748465,19.700861,24.790218Q19.5341702,24.831971,19.3656311,24.865496Q19.197093000000002,24.899019,19.027113,24.924234Q18.8571329,24.94945,18.68612,24.966293Q18.5151072,24.983136000000002,18.3434734,24.991568Q18.1718402,25,18,25Z" fill-rule="evenodd" fill="#000000" fill-opacity="0.05000000074505806"/><path d="M20,18Q20,18.0982537,19.9903696,18.1960342Q19.9807389,18.2938147,19.961570299999998,18.3901803Q19.9424019,18.4865463,19.9138803,18.5805693Q19.8853588,18.674592,19.8477585,18.7653666Q19.8101587,18.8561411,19.7638421,18.9427931Q19.7175257,19.0294452,19.6629386,19.1111398Q19.6083522,19.1928351,19.5460205,19.2687864Q19.4836893,19.3447375,19.4142132,19.4142132Q19.3447375,19.4836893,19.2687864,19.5460205Q19.1928351,19.6083522,19.1111398,19.6629386Q19.0294452,19.7175257,18.9427934,19.7638423Q18.8561411,19.8101587,18.7653666,19.8477588Q18.674592,19.885359,18.5805693,19.9138806Q18.4865463,19.9424021,18.3901803,19.961570299999998Q18.2938147,19.9807389,18.1960344,19.9903696Q18.0982537,20,18,20Q17.9017464,20,17.8039658,19.9903696Q17.7061851,19.9807389,17.6098193,19.961570299999998Q17.5134535,19.9424019,17.4194306,19.9138803Q17.3254076,19.8853588,17.234633,19.8477585Q17.1438584,19.8101587,17.0572064,19.7638421Q16.97055447,19.7175257,16.888859449999998,19.6629386Q16.80716455,19.6083522,16.73121345,19.5460205Q16.65526235,19.4836893,16.5857864,19.4142132Q16.51631057,19.3447375,16.4539791,19.2687864Q16.39164761,19.1928351,16.33706075,19.1111398Q16.28247392,19.0294452,16.23615746,18.9427934Q16.18984097,18.8561411,16.15224092,18.7653666Q16.11464086,18.674592,16.086119324,18.5805693Q16.057597782,18.4865463,16.038429435,18.3901803Q16.019261092,18.2938147,16.009630546,18.1960344Q16,18.0982537,16,18Q16,17.9017464,16.009630546,17.8039658Q16.019261092,17.7061851,16.038429435,17.6098193Q16.057597782,17.5134535,16.086119324,17.4194306Q16.11464086,17.3254076,16.15224092,17.234633Q16.18984097,17.1438584,16.23615745,17.0572064Q16.28247392,16.97055447,16.33706075,16.888859449999998Q16.39164761,16.80716455,16.45397907,16.73121345Q16.51631057,16.65526235,16.5857864,16.5857864Q16.65526235,16.51631057,16.73121345,16.4539791Q16.80716461,16.39164761,16.88885951,16.33706075Q16.97055447,16.28247392,17.0572064,16.23615746Q17.1438584,16.18984097,17.234633,16.15224092Q17.3254076,16.11464086,17.4194306,16.086119324Q17.5134535,16.057597782,17.6098193,16.038429435Q17.7061851,16.019261092,17.8039658,16.009630546Q17.9017464,16,18,16Q18.0982537,16,18.1960342,16.009630546Q18.2938147,16.019261092,18.3901803,16.038429435Q18.4865463,16.057597782,18.5805693,16.086119324Q18.674592,16.11464086,18.7653666,16.15224092Q18.8561411,16.18984097,18.9427931,16.23615745Q19.0294452,16.28247392,19.1111398,16.33706075Q19.1928351,16.39164761,19.2687864,16.45397907Q19.3447375,16.51631057,19.4142132,16.5857864Q19.4836893,16.65526235,19.5460205,16.73121345Q19.6083522,16.80716461,19.6629386,16.88885951Q19.7175257,16.97055447,19.7638423,17.0572064Q19.8101587,17.1438584,19.8477588,17.234633Q19.885359,17.3254076,19.9138806,17.4194306Q19.9424021,17.5134535,19.961570299999998,17.6098193Q19.9807389,17.7061851,19.9903696,17.8039658Q20,17.9017464,20,18Z" fill="#000000" fill-opacity="0.20000000298023224" style="opacity:0.6000000238418579;"/></svg>