<svg xmlns="http://www.w3.org/2000/svg" xmlns:xlink="http://www.w3.org/1999/xlink" fill="none" version="1.1" width="16" height="16" viewBox="0 0 16 16"><path d="M0 4.5714287757873535C4.90527396329193e-16 2.046698377982344 2.046698377982345 0 4.5714287757873535 0L11.428571224212646 0C13.953301622017655 0 16 2.046698377982345 16 4.5714287757873535L16 11.428571224212646C16 13.953301622017655 13.953301622017655 16 11.428571224212646 16L4.5714287757873535 16C2.046698377982345 16 0 13.953301622017655 0 11.428571224212646Z" fill="#F56218" fill-opacity="1"/><g><path d="M3.8857421875,10.468871600140382L3.8857421875,5.531630600140381C3.8857421875,4.955641300140381,3.8872376233,4.660715400140381,4.0016698575,4.441913780140381C4.1003560275,4.25321963014038,4.2561116775,4.098669890140381,4.4456800175,4.000851790140381C4.6651083275000005,3.887625828340381,4.9554152875,3.886014944890381,5.5211709875,3.8859929044303807C6.7914530875,3.885943417320381,8.0617355875,3.8859999085203807,9.332017387499999,3.8860563997003807C9.7143067875,3.886073400640381,10.0965957875,3.8860904015603808,10.478885187500001,3.886104513860381C11.0446552875,3.886125399380381,11.3349527875,3.8877062201403807,11.5543994875,4.000941190140381C11.7439694875,4.098759670140381,11.8997172875,4.253315960140381,11.9983968875,4.442022260140381C12.1128272875,4.6608483201403805,12.1143149875,4.955798600140381,12.1143149875,5.531853300140381L12.1143149875,10.468425300140382C12.1143149875,11.044480300140382,12.1128263875,11.339430300140382,11.9983968875,11.558256600140382C11.8997172875,11.746963000140381,11.7439694875,11.90151930014038,11.5543994875,11.999338600140382C11.3349532875,12.112574100140382,11.0446552875,12.11415530014038,10.478886087500001,12.114185800140381C8.8263148875,12.11427160014038,7.1737427875,12.114454700140382,5.5211708875,12.11453960014038C4.9554017875,12.11456920014038,4.6651077875,12.11300130014038,4.4456578475,11.99977250014038C4.2560880475000005,11.901960800140381,4.1003398475,11.747407000140381,4.0016603275,11.558702000140382C3.8872297704,11.339876200140381,3.8857421875,11.044926600140382,3.8857421875,10.468871600140382ZM7.5426432875,6.399817500140381Q7.542643587500001,6.455963600140381,7.5371398875,6.511839400140381Q7.5316366875,6.5677152001403805,7.5206825875,6.622782200140381Q7.5097291875,6.677849800140381,7.4934301875,6.73157810014038Q7.477131587500001,6.7853067001403815,7.4556445875,6.837178700140381Q7.4341582875,6.889051200140381,7.4076904875,6.938567600140381Q7.3812229875,6.988084300140381,7.3500289875,7.0347679001403804Q7.3188352875,7.081452100140381,7.2832159875,7.124853600140381Q7.2475964875,7.16825530014038,7.2078942875,7.207956300140381Q7.1681923874999995,7.247657800140381,7.1247896875,7.283276600140381Q7.0813872875,7.318895300140381,7.0347022875,7.350088100140381Q6.9880177875000005,7.381281400140381,6.9385003874999995,7.407748700140381Q6.8889829875,7.434215500140381,6.8371095875000005,7.455701600140381Q6.7852363874999995,7.477188100140381,6.7315067875,7.49348640014038Q6.6777772875,7.509784900140381,6.622708787500001,7.520738400140381Q6.5676407875,7.531692000140381,6.5117637875,7.537195400140381Q6.4558870875,7.5426986001403815,6.3997397875,7.5426986001403815Q6.3435926875,7.5426986001403815,6.2877156875,7.537195200140381Q6.2318386875,7.531692000140381,6.1767701875,7.520738400140381Q6.1217019875,7.509784900140381,6.067972387499999,7.493486600140381Q6.0142426874999995,7.477188100140381,5.9623691875,7.455701600140381Q5.9104959875,7.434215500140381,5.8609785875,7.407748700140381Q5.8114610875,7.381281400140381,5.7647761875,7.350088100140381Q5.7180915875,7.318895300140381,5.6746891875,7.283276600140381Q5.6312867875,7.247657800140381,5.5915845875,7.207956300140381Q5.5518824875,7.16825530014038,5.5162629875,7.124853600140381Q5.4806434875,7.081452100140381,5.4494496875,7.0347679001403804Q5.4182560875,6.988084300140381,5.3917885875,6.938567900140381Q5.3653208875,6.889051200140381,5.3438341875,6.837178700140381Q5.3223476875,6.7853067001403815,5.3060488875,6.731578300140381Q5.2897503875,6.677849800140381,5.2787963875,6.622782200140381Q5.2678427875,6.5677152001403805,5.2623393875,6.511839400140381Q5.2568359875,6.455963600140381,5.2568359875,6.399817500140381Q5.2568359875,6.343671300140381,5.2623393875,6.287795500140381Q5.2678427875,6.231919800140381,5.2787963875,6.176852200140381Q5.2897503875,6.121785200140381,5.3060489875000005,6.06805660014038Q5.3223476875,6.014328000140381,5.3438341875,5.9624557001403815Q5.3653208875,5.9105835001403815,5.3917884874999995,5.861067200140381Q5.4182561875,5.8115506001403805,5.4494497875,5.764866800140381Q5.4806435874999995,5.718183000140381,5.5162630875000005,5.674781600140381Q5.5518824875,5.6313798001403805,5.5915845875,5.591678500140381Q5.6312867875,5.551977300140381,5.6746891875,5.516358500140381Q5.7180915875,5.48073980014038,5.7647761875,5.449546600140381Q5.8114610875,5.418353600140381,5.8609785875,5.391886500140381Q5.9104959875,5.3654194001403805,5.9623691875,5.343933100140381Q6.0142426874999995,5.322447100140381,6.067972387499999,5.30614860014038Q6.1217019875,5.289850400140381,6.1767701875,5.278896700140381Q6.2318386875,5.267943100140381,6.2877156875,5.262440000140381Q6.3435926875,5.2569366001403806,6.3997397875,5.2569366001403806Q6.4558870875,5.2569366001403806,6.5117637875,5.262440000140381Q6.5676407875,5.267943100140381,6.622708787500001,5.278896700140381Q6.6777772875,5.289850400140381,6.7315067875,5.30614860014038Q6.7852363874999995,5.322447100140381,6.8371095875000005,5.343933100140381Q6.8889829875,5.3654194001403805,6.9385003874999995,5.391886400140381Q6.9880179875,5.418353600140381,7.0347025875,5.449546600140381Q7.0813874875,5.48073980014038,7.1247896875,5.51635860014038Q7.1681923874999995,5.551977300140381,7.2078942875,5.591678500140381Q7.2475964875,5.6313798001403805,7.2832157875,5.674781600140381Q7.3188352875,5.718183000140381,7.3500289875,5.764866800140381Q7.3812229875,5.8115506001403805,7.4076904875,5.861067200140381Q7.4341582875,5.9105835001403815,7.4556445875,5.9624557001403815Q7.477131587500001,6.014328000140381,7.4934301875,6.06805660014038Q7.5097291875,6.121785200140381,7.5206825875,6.176852200140381Q7.5316366875,6.231919800140381,7.5371398875,6.287795500140381Q7.542643587500001,6.343671300140381,7.5426432875,6.399817500140381ZM8.5412764875,8.134733200140381L5.2568359875,11.199191100140382L10.7831377875,11.199053300140381C11.0130333875,11.199053300140381,11.1994227875,11.023781300140381,11.1995033875,10.80752230014038L11.1999349875,10.043503800140382L9.2771238875,8.15048840014038C9.0785507875,7.954992300140381,8.7491006875,7.947938400140381,8.5412764875,8.134733200140381Z" fill-rule="evenodd" fill="#FFFFFF" fill-opacity="1"/></g></svg>