<svg xmlns="http://www.w3.org/2000/svg" xmlns:xlink="http://www.w3.org/1999/xlink" fill="none" version="1.1" width="32" height="32" viewBox="0 0 32 32"><defs><clipPath id="bgblur_master_svg0_66_01908_clip_path" transform="translate(-1.23046875 -1.23046875)"><rect x="1.23046875" y="1.23046875" width="29.538347244262695" height="29.538347244262695"/></clipPath><mask id="master_svg1_66_01909/55_3965" style="mask-type:luminance" maskUnits="userSpaceOnUse" x="1.2308270931243896" y="1.2308270931243896" width="29.538347244262695" height="29.538347244262695"><path d="M1.2308270931243896 9.377615690231323C1.2308270931243905 4.878268587953759 4.878268587953761 1.2308270931243896 9.377615690231323 1.2308270931243896L22.62238574028015 1.2308270931243896C27.121732842557712 1.2308270931243896 30.769174337387085 4.878268587953761 30.769174337387085 9.377615690231323L30.769174337387085 22.62238574028015C30.769174337387085 27.121732842557712 27.121732842557712 30.769174337387085 22.62238574028015 30.769174337387085L9.377615690231323 30.769174337387085C4.878268587953761 30.769174337387085 1.2308270931243896 27.121732842557712 1.2308270931243896 22.62238574028015Z" fill="#FFFFFF" fill-opacity="1"/></mask><filter id="master_svg2_66_01913" filterUnits="objectBoundingBox" color-interpolation-filters="sRGB" x="0" y="0" width="1" height="1"><feFlood flood-opacity="0" result="BackgroundImageFix"/><feBlend mode="normal" in="SourceGraphic" in2="BackgroundImageFix" result="shape"/><feColorMatrix in="SourceAlpha" type="matrix" result="hardAlpha" values="0 0 0 0 0 0 0 0 0 0 0 0 0 0 0 0 0 0 127 0"/><feOffset dy="-0.0561823770403862" dx="0"/><feGaussianBlur stdDeviation="0.2809118926525116"/><feComposite in2="hardAlpha" operator="arithmetic" k2="-1" k3="1"/><feColorMatrix type="matrix" values="0 0 0 0 1 0 0 0 0 1 0 0 0 0 1 0 0 0 0.4000000059604645 0"/><feBlend mode="normal" in2="shape" result="effect1_innerShadow"/></filter><clipPath id="bgblur_master_svg3_66_01913_clip_path" transform="translate(-4.9910193383693695 -10.408935546875)"><rect x="4.9910193383693695" y="10.408935546875" width="12.901583671569824" height="13.036697387695312"/></clipPath><linearGradient x1="-0.09569791704416275" y1="0.5" x2="0.834991455078125" y2="0.5" id="master_svg4_66_7667"><stop offset="0%" stop-color="#0F6CF4" stop-opacity="0.7229447960853577"/><stop offset="39.413291215896606%" stop-color="#2780E7" stop-opacity="1"/><stop offset="100%" stop-color="#0039A4" stop-opacity="1"/></linearGradient><linearGradient x1="-0.09569791704416275" y1="0.5" x2="0.834991455078125" y2="0.5" id="master_svg5_66_7668"><stop offset="0%" stop-color="#0F6CF4" stop-opacity="0.7229447960853577"/><stop offset="39.413291215896606%" stop-color="#2780E7" stop-opacity="1"/><stop offset="100%" stop-color="#0039A4" stop-opacity="1"/></linearGradient><linearGradient x1="0" y1="0.5" x2="1" y2="0.5" id="master_svg6_66_7649"><stop offset="0%" stop-color="#34C1F9" stop-opacity="0.21760612726211548"/><stop offset="37.368202209472656%" stop-color="#39C8FA" stop-opacity="1"/><stop offset="100%" stop-color="#007FEE" stop-opacity="1"/></linearGradient><mask id="master_svg7_66_01930/55_3941" style="mask-type:luminance" maskUnits="userSpaceOnUse" x="1.23095703125" y="1.2308349609375" width="29.538347244262695" height="29.538347244262695"><path d="M1.23095703125 9.377623558044434C1.2309570312500009 4.878276455766869 4.878398526079371 1.2308349609375 9.377745628356934 1.2308349609375L22.62251567840576 1.2308349609375C27.121862780683323 1.2308349609375 30.769304275512695 4.878276455766871 30.769304275512695 9.377623558044434L30.769304275512695 22.62239360809326C30.769304275512695 27.121740710370823 27.121862780683323 30.769182205200195 22.62251567840576 30.769182205200195L9.377745628356934 30.769182205200195C4.878398526079371 30.769182205200195 1.23095703125 27.121740710370823 1.23095703125 22.62239360809326Z" fill="#FFFFFF" fill-opacity="1"/></mask><filter id="master_svg8_66_01930/55_3920" filterUnits="objectBoundingBox" color-interpolation-filters="sRGB" x="-0.030612245062683542" y="-0.030612245062683542" width="1.0612244901253671" height="1.0612244901253671"><feFlood flood-opacity="0" result="BackgroundImageFix"/><feBlend mode="normal" in="SourceGraphic" in2="BackgroundImageFix" result="shape"/><feGaussianBlur stdDeviation="0.22605878114700317" result="effect1_foregroundBlur"/></filter></defs><foreignObject x="1.23046875" y="1.23046875" width="29.538347244262695" height="29.538347244262695"><div xmlns="http://www.w3.org/1999/xhtml" style="backdrop-filter:blur(5px);-webkit-backdrop-filter:blur(5px);clip-path:url(#bgblur_master_svg0_66_01908_clip_path);height:100%;width:100%"></div></foreignObject><path d="M1.23046875 9.380468368530273C1.2304687500000009 4.879347868089218 4.87934786808922 1.23046875 9.380468368530273 1.23046875L22.618816375732422 1.23046875C27.119936876173476 1.23046875 30.768815994262695 4.87934786808922 30.768815994262695 9.380468368530273L30.768815994262695 22.618816375732422C30.768815994262695 27.119936876173476 27.119936876173476 30.768815994262695 22.618816375732422 30.768815994262695L9.380468368530273 30.768815994262695C4.87934786808922 30.768815994262695 1.23046875 27.119936876173476 1.23046875 22.618816375732422Z" fill="#000000" fill-opacity="0.05000000074505806"/><g mask="url(#master_svg1_66_01909/55_3965)"><path d="M1.2308270931243896 9.377615690231323C1.2308270931243905 4.878268587953759 4.878268587953761 1.2308270931243896 9.377615690231323 1.2308270931243896L22.62238574028015 1.2308270931243896C27.121732842557712 1.2308270931243896 30.769174337387085 4.878268587953761 30.769174337387085 9.377615690231323L30.769174337387085 22.62238574028015C30.769174337387085 27.121732842557712 27.121732842557712 30.769174337387085 22.62238574028015 30.769174337387085L9.377615690231323 30.769174337387085C4.878268587953761 30.769174337387085 1.2308270931243896 27.121732842557712 1.2308270931243896 22.62238574028015Z" fill="#808080" fill-opacity="0.3499999940395355" style="opacity:0.5;"/></g><g filter="url(#master_svg2_66_01913)"><foreignObject x="4.9910193383693695" y="10.408935546875" width="12.901583671569824" height="13.036697387695312"><div xmlns="http://www.w3.org/1999/xhtml" style="backdrop-filter:blur(1.5281606912612915px);-webkit-backdrop-filter:blur(1.5281606912612915px);clip-path:url(#bgblur_master_svg3_66_01913_clip_path);height:100%;width:100%"></div></foreignObject><path d="M11.494584138369369,22.640030546875L5.34660586836937,11.749770246875C5.097833958369369,11.309106586875,4.970671862369369,11.080937506875,4.99389755726937,10.900779876875C5.01339966036937,10.749505606875,5.094544258369369,10.610513986875,5.2166888983693696,10.519163386875C5.362155048369369,10.410370916175,5.62336238836937,10.408935546875,6.129397738369369,10.408935546875L9.411639338369369,10.408935546875C10.36703353836937,10.408935546875,10.85031423836937,10.409728989005,11.27673393836937,10.550637606875C11.650316338369368,10.674086336875,11.99414503836937,10.874816866875,12.28530273836937,11.139449716875C12.617640538369368,11.441510646875,12.85591703836937,11.861969246875,13.325597838369369,12.693941846875L16.00036133836937,17.431900946875L16.00001833836937,17.432509446875L15.99994133836937,17.432373046875L14.10527713836937,20.788263546875C14.11066923836937,20.778712546875,14.11613183836937,20.769206546874997,14.12166223836937,20.759747546874998L13.060168338369369,22.640030546875C12.80405153836937,23.093705546875,12.67050563836937,23.327247546875,12.501088738369369,23.399932546875C12.35906183836937,23.460866546875,12.19569123836937,23.460866546875,12.05366433836937,23.399932546875C11.88525203836937,23.327678546875,11.75228553836937,23.096468546875002,11.49912653836937,22.648076546875L11.494584138369369,22.640030546875ZM14.12166223836937,20.759747546874998C14.315879938369369,20.427569546875,14.594837238369369,20.152655646875,14.93025403836937,19.963286446875C15.95529233836937,19.384571046875,17.249778338369367,19.727193846875,17.85752233836937,20.725047546875L17.89277733836937,20.785337546875L16.00001833836937,17.432509446875L14.12166223836937,20.759747546874998Z" fill-rule="evenodd" fill="url(#master_svg4_66_7667)" fill-opacity="1"/><path d="M11.494584138369369,22.640030546875L5.34660586836937,11.749770246875C5.097833958369369,11.309106586875,4.970671862369369,11.080937506875,4.99389755726937,10.900779876875C5.01339966036937,10.749505606875,5.094544258369369,10.610513986875,5.2166888983693696,10.519163386875C5.362155048369369,10.410370916175,5.62336238836937,10.408935546875,6.129397738369369,10.408935546875L9.411639338369369,10.408935546875C10.36703353836937,10.408935546875,10.85031423836937,10.409728989005,11.27673393836937,10.550637606875C11.650316338369368,10.674086336875,11.99414503836937,10.874816866875,12.28530273836937,11.139449716875C12.617640538369368,11.441510646875,12.85591703836937,11.861969246875,13.325597838369369,12.693941846875L16.00036133836937,17.431900946875L16.00001833836937,17.432509446875L15.99994133836937,17.432373046875L14.10527713836937,20.788263546875C14.11066923836937,20.778712546875,14.11613183836937,20.769206546874997,14.12166223836937,20.759747546874998L13.060168338369369,22.640030546875C12.80405153836937,23.093705546875,12.67050563836937,23.327247546875,12.501088738369369,23.399932546875C12.35906183836937,23.460866546875,12.19569123836937,23.460866546875,12.05366433836937,23.399932546875C11.88525203836937,23.327678546875,11.75228553836937,23.096468546875002,11.49912653836937,22.648076546875L11.494584138369369,22.640030546875ZM14.12166223836937,20.759747546874998C14.315879938369369,20.427569546875,14.594837238369369,20.152655646875,14.93025403836937,19.963286446875C15.95529233836937,19.384571046875,17.249778338369367,19.727193846875,17.85752233836937,20.725047546875L17.89277733836937,20.785337546875L16.00001833836937,17.432509446875L14.12166223836937,20.759747546874998Z" fill-rule="evenodd" fill="url(#master_svg5_66_7668)" fill-opacity="1"/></g><g><path d="M22.589607444683075,10.408935546875L25.871320444683075,10.408935546875C26.377355444683076,10.408935546875,26.638563444683076,10.410370945975,26.784029444683075,10.519163386875C26.906173444683077,10.610513986875,26.987318444683076,10.749505606875,27.006820444683076,10.900779876875C27.030047444683074,11.080937386875,26.902883444683077,11.309106466875,26.654112444683076,11.749770246875L20.506134244683075,22.640030546875C20.250017344683073,23.093705546875,20.116471444683075,23.327247546875,19.947054544683077,23.399932546875C19.805027644683076,23.460866546875,19.641657044683075,23.460866546875,19.499630144683074,23.399932546875C19.330213744683075,23.327247546875,19.196666944683074,23.093705546875,18.940550044683075,22.640030546875L16.000621044683076,17.432368746875L18.675648844683074,12.693941846875C19.145329644683073,11.861969246875,19.383606144683075,11.441510646875,19.715943944683076,11.139449716875C20.007101744683077,10.874816866875,20.350930344683075,10.674086336875,20.724512744683075,10.550637606875C21.150932444683075,10.409728989005,21.634213144683073,10.408935546875,22.589607444683075,10.408935546875ZM16.000355444683073,17.430922546875L14.316238030853075,14.448164946875C14.867264444683075,15.424093246875,15.154583394683074,15.926482646875,15.519064144683075,16.082845646875C15.824620444683076,16.213930146875,16.176090444683076,16.213930146875,16.481646744683076,16.082845646875C16.846127644683076,15.926482646875,17.133446444683074,15.424093246875,17.684472744683074,14.448164946875L16.000355444683073,17.430922546875Z" fill-rule="evenodd" fill="url(#master_svg6_66_7649)" fill-opacity="1"/></g><g mask="url(#master_svg7_66_01930/55_3941)"><path d="M1.3816628903150558 9.519656702876091C1.3816628903150567 5.025099408409273 5.025221478721774 1.3815408200025558 9.519778773188591 1.3815408200025558L22.480482533574104 1.3815408200025558C26.97503982804092 1.3815408200025558 30.61859841644764 5.025099408409274 30.61859841644764 9.519656702876091L30.61859841644764 22.480360463261604C30.61859841644764 26.97491775772842 26.97503982804092 30.61847634613514 22.480482533574104 30.61847634613514L9.519778773188591 30.61847634613514C5.025221478721774 30.61847634613514 1.3816628903150558 26.97491775772842 1.3816628903150558 22.480360463261604Z" fill-opacity="0" fill="none" stroke-width="0.3014117181301117"/></g></svg>