<svg xmlns="http://www.w3.org/2000/svg" xmlns:xlink="http://www.w3.org/1999/xlink" fill="none" version="1.1" width="16" height="16" viewBox="0 0 16 16"><g><g><g><path d="M3.3333334,1.5L10.333334,1.5C11.3458557,1.5,12.166667,2.32081127,12.166667,3.3333334L12.166667,12.666667C12.166667,13.67919,11.3458557,14.5,10.333334,14.5L3.3333334,14.5C2.32081127,14.5,1.5,13.67919,1.5,12.666667L1.5,3.3333334C1.5,2.32081127,2.32081127,1.5,3.3333334,1.5ZM10.333334,2.5L3.3333334,2.5C2.8730960000000003,2.5,2.5,2.8730960000000003,2.5,3.3333334L2.5,12.666667C2.5,13.126904,2.8730960000000003,13.5,3.3333334,13.5L10.333334,13.5C10.7935715,13.5,11.166667,13.126904,11.166667,12.666667L11.166667,3.3333334C11.166667,2.8730960000000003,10.7935715,2.5,10.333334,2.5ZM14.50858,4.1895978C14.485445,3.3906045000000002,13.830472,2.75,13.025879,2.75L13.025879,3.5833335L13.059328,3.5841792C13.402768,3.6015882,13.675879,3.8855667,13.675879,4.2333333L13.675879,11.766666L13.675034,11.800116C13.657624,12.143557,13.373646,12.416667,13.025879,12.416667L13.025879,13.25L13.069614,13.249368C13.868608,13.226233,14.509212,12.57126,14.509212,11.766666L14.509212,4.2333333L14.50858,4.1895978ZM7.1666665,5.3333335Q7.2323275,5.3333333,7.2967262,5.3205233Q7.3611255,5.3077135,7.4217882,5.2825861Q7.4824514,5.2574587,7.5370464,5.2209797Q7.5916414,5.1845005,7.6380711,5.1380713Q7.6845007,5.0916419,7.7209797,5.037046699999999Q7.7574587,4.9824514,7.7825861,4.9217887000000005Q7.8077135,4.8611259,7.8205233,4.7967267Q7.833333,4.7323275,7.8333335,4.6666667Q7.833333,4.601005600000001,7.8205233,4.5366063Q7.8077135,4.4722071,7.7825856,4.4115443Q7.7574587,4.3508816,7.7209797,4.2962863Q7.6845007,4.2416914000000006,7.6380711,4.1952622Q7.5916414,4.1488328,7.5370464,4.1123533000000005Q7.4824514,4.075874300000001,7.4217882,4.0507469Q7.3611255,4.0256194999999995,7.2967262,4.012809799999999Q7.2323275,4,7.1666665,4Q7.1010056,4,7.0366058,4.012809799999999Q6.9722066,4.0256194999999995,6.9115438,4.0507469Q6.8508816,4.075874300000001,6.7962866,4.1123536000000005Q6.7416916,4.1488328,6.695262,4.1952622Q6.6488328,4.2416914000000006,6.6123533,4.2962863Q6.5758743,4.3508816,6.5507469,4.4115443Q6.5256195,4.4722071,6.5128098,4.5366063Q6.5,4.601005600000001,6.5,4.6666667Q6.5,4.7323275,6.5128098,4.7967267Q6.5256195,4.8611259,6.5507469,4.9217887000000005Q6.5758743,4.9824514,6.6123533,5.0370463999999995Q6.6488328,5.0916417,6.695262,5.1380710999999994Q6.7416916,5.1845002000000004,6.7962866,5.2209797Q6.8508816,5.2574587,6.9115438,5.2825861Q6.9722066,5.3077135,7.0366058,5.3205233Q7.1010056,5.3333333,7.1666665,5.3333335ZM7.291656,6.5C7.4757509,6.5,7.6249895,6.6492386,7.6249895,6.8333335C7.6249895,6.8463492,7.624227,6.859354,7.6227064,6.8722806L7.137991,10.992363C7.0650039,11.501621,7.2282867,11.692116,7.6278381,11.563848L7.6865244,11.543355L7.7484255,11.518526L7.8135405,11.4893589L7.8818703,11.4558563L7.9534144,11.4180164C7.9656062,11.4113483,7.977932,11.4044991,7.9903917,11.3974695C7.9300337,11.781699,7.5630245,11.983929,7.2896461,12.083763L7.2284031,12.105021L7.1715775,12.122859L7.097013,12.143684L7.0232573,12.161518L6.9998374,12.166667L6.9895878,12.168541L6.961288,12.171853L6.922586,12.174582L6.8734818,12.176726L6.7803221,12.17885C6.3201294,12.185251,5.9418807,11.817381,5.9354801,11.3571873C5.9349761,11.3209515,5.9368362,11.2847195,5.9411621,11.2487392L6.4606705,6.8333335L5.8331704,6.8333335C5.7411232,6.8333335,5.6665039,6.7587142,5.6665039,6.6666665C5.6665039,6.5746193,5.7411232,6.5,5.8331704,6.5L7.291656,6.5Z" fill-rule="evenodd" fill="#FFFFFF" fill-opacity="1"/></g></g></g></svg>