<svg xmlns="http://www.w3.org/2000/svg" xmlns:xlink="http://www.w3.org/1999/xlink" fill="none" version="1.1" width="16" height="16" viewBox="0 0 16 16"><g><path d="M7.9996747875,0.66650390625C9.454901187499999,0.66650390625,10.6378755875,1.83215410625,10.6658353875,3.28069210625L10.6663412875,3.33317060625L10.6663412875,8.33317090625C10.6663412875,9.80593010625,9.4724340875,10.99983790625,7.9996747875,10.99983790625C6.5444478875000005,10.99983790625,5.3614737875,9.83418750625,5.3335139875,8.385648706249999L5.3330077875,8.33317090625L5.3330077875,3.33317060625C5.3330077875,1.86041130625,6.5269150875,0.66650390625,7.9996747875,0.66650390625ZM7.9996747875,1.66650390625C7.0948011875,1.66650390625,6.3583523875,2.38761570625,6.3336481875,3.28652000625L6.3330077875,3.33317090625L6.3330077875,8.333171406249999C6.3330077875,9.25364590625,7.0791997875,9.99983790625,7.9996747875,9.99983790625C8.9045476875,9.99983790625,9.6409964875,9.27872660625,9.6657008875,8.37982180625L9.6663412875,8.333171406249999L9.6663412875,3.33317090625C9.6663412875,2.4126961062500003,8.9201488875,1.66650390625,7.9996747875,1.66650390625ZM4.1669921875,7.91650390625C4.1669921875,7.77843280625,4.0550634275,7.66650390625,3.9169921875,7.66650390625L3.4169921875,7.66650390625C3.2789209975,7.66650390625,3.1669921875,7.77843280625,3.1669921875,7.91650390625L3.1670003911777,8.33418320625L3.16763971606,8.41309830625C3.2075950055,10.87742390625,5.0918585875,12.89341690625,7.5003060875,13.14095390625L7.5003256875,15.08317090625C7.5003256875,15.22124190625,7.6122545875,15.33317090625,7.7503256875,15.33317090625L8.2503256875,15.33317090625C8.3883967875,15.33317090625,8.5003256875,15.22124190625,8.5003256875,15.08317090625L8.500391987499999,13.14094890625C10.9348048875,12.89071990625,12.8336591875,10.83369590625,12.8336591875,8.33317040625L12.8336591875,7.91650390625C12.8336591875,7.77843280625,12.7217301875,7.66650390625,12.5836591875,7.66650390625L12.0836591875,7.66650390625C11.9455880875,7.66650390625,11.8336591875,7.77843280625,11.8336591875,7.91650390625L11.8336591875,8.332158106249999L11.8331451875,8.39656160625C11.7992944875,10.48441500625,10.0962462875,12.16650390625,8.0003256875,12.16650390625C5.883233987500001,12.16650390625,4.1669921875,10.45026210625,4.1669921875,8.33317040625L4.1669921875,7.91650390625Z" fill-rule="evenodd" fill="#FFFFFF" fill-opacity="0.8600000143051147"/></g></svg>