<svg xmlns="http://www.w3.org/2000/svg" xmlns:xlink="http://www.w3.org/1999/xlink" fill="none" version="1.1" width="16" height="16" viewBox="0 0 16 16"><defs><clipPath id="master_svg0_31_54432"><rect x="0" y="0" width="16" height="16" rx="0"/></clipPath></defs><g clip-path="url(#master_svg0_31_54432)"><g><path d="M8.6939837890625,2.0393389C8.879203789062501,2.11749,8.9996137890625,2.298976,8.9996137890625,2.500013C8.9996137890625,2.500013,8.9996137890625,13.5,8.9996137890625,13.5C8.9996137890625,13.7014,8.8787437890625,13.8832,8.6930037890625,13.9611C8.5072537890625,14.039,8.2928937890625,13.9978,8.1492037890625,13.8567C8.1492037890625,13.8567,5.2227737890625,10.98172,5.2227737890625,10.98172C5.2227737890625,10.98172,3.4996337890625,10.98172,3.4996337890625,10.98172C2.6712057890625,10.98172,1.9996337890625,10.31015,1.9996337890625,9.48172C1.9996337890625,9.48172,1.9996337890625,6.49273,1.9996337890625,6.49273C1.9996337890625,5.66431,2.6712057890625,4.99273,3.4996337890625,4.99273C3.4996337890625,4.99273,5.2240137890625,4.99273,5.2240137890625,4.99273C5.2240137890625,4.99273,8.1507237890625,2.14185,8.1507237890625,2.14185C8.2947337890625,2.00157326,8.5087537890625,1.9611881,8.6939837890625,2.0393389ZM7.9996137890625,3.68507C7.9996137890625,3.68507,5.7761737890625,5.85089,5.7761737890625,5.85089C5.6828137890625,5.94184,5.5576237890625,5.99273,5.4272937890624995,5.99273C5.4272937890624995,5.99273,3.4996337890625,5.99273,3.4996337890625,5.99273C3.2234937890625,5.99273,2.9996337890625,6.21659,2.9996337890625,6.49273C2.9996337890625,6.49273,2.9996337890625,9.48172,2.9996337890625,9.48172C2.9996337890625,9.75786,3.2234937890625,9.98172,3.4996337890625,9.98172C3.4996337890625,9.98172,5.4272937890624995,9.98172,5.4272937890624995,9.98172C5.558363789062501,9.98172,5.684193789062499,10.03319,5.7776937890625,10.12505C5.7776937890625,10.12505,7.9996137890625,12.3079,7.9996137890625,12.3079C7.9996137890625,12.3079,7.9996137890625,3.68507,7.9996137890625,3.68507ZM10.1108837890625,5.18874C10.2828037890625,4.97264,10.5973537890625,4.93682,10.8134537890625,5.1087299999999995C10.8134537890625,5.1087299999999995,10.8142937890625,5.1094,10.8142937890625,5.1094C10.8142937890625,5.1094,10.8152337890625,5.11015,10.8152337890625,5.11015C10.8152337890625,5.11015,10.8173737890625,5.11188,10.8173737890625,5.11188C10.8173737890625,5.11188,10.8227637890625,5.11628,10.8227637890625,5.11628C10.8227637890625,5.11628,10.8377237890625,5.12882,10.8377237890625,5.12882C10.8494937890625,5.13885,10.8647937890625,5.15224,10.8831137890625,5.16904C10.9197337890625,5.20261,10.9685437890625,5.2499,11.0253637890625,5.31119C11.1388637890625,5.4336199999999995,11.2853037890625,5.61296,11.4302737890625,5.851430000000001C11.7218037890625,6.33096,12.0039337890625,7.04439,12.0039337890625,7.99855C12.0039337890625,8.95268,11.7218337890625,9.66687,11.4305237890625,10.1471C11.2856537890625,10.38594,11.1393337890625,10.56568,11.0259337890625,10.68841C10.9691737890625,10.74984,10.9204137890625,10.79725,10.8838537890625,10.83092C10.8641737890625,10.84902,10.8440537890625,10.86659,10.8236037890625,10.88381C10.8236037890625,10.88381,10.8151637890625,10.89069,10.8151637890625,10.89069C10.8151637890625,10.89069,10.8143337890625,10.89136,10.8143337890625,10.89136C10.8143337890625,10.89136,10.3679737890625,11.13374,10.1115837890625,10.81292C9.9400537890625,10.5983,9.973953789062499,10.28575,10.1867737890625,10.1128C10.1867737890625,10.1128,10.1883237890625,10.11148,10.1883237890625,10.11148C10.1883237890625,10.11148,10.1875637890625,10.11216,10.1875637890625,10.11216C10.1875637890625,10.11216,10.1892237890625,10.11082,10.1892237890625,10.11082C10.1892237890625,10.11082,10.1883237890625,10.11148,10.1883237890625,10.11148C10.1912437890625,10.10898,10.1974837890625,10.10355,10.2065837890625,10.09518C10.2247937890625,10.07841,10.2543037890625,10.04999,10.2914537890625,10.00978C10.3658737890625,9.92923,10.4699737890625,9.80248,10.5755337890625,9.62847C10.7850837890625,9.28301,11.0038837890625,8.746089999999999,11.0038837890625,7.99855C11.0038837890625,7.25106,10.7851137890625,6.71522,10.5757837890625,6.3709C10.4703337890625,6.19744,10.3663437890625,6.07121,10.2920237890625,5.9910499999999995C10.2549337890625,5.95104,10.2254837890625,5.9227799999999995,10.2073137890625,5.90613C10.1982437890625,5.89781,10.1920337890625,5.8924199999999995,10.1891237890625,5.88995C10.1891237890625,5.88995,10.1901437890625,5.89071,10.1901437890625,5.89071C9.9743937890625,5.71873,9.939073789062501,5.40472,10.1108837890625,5.18874ZM11.8126837890625,3.10886C11.5966437890625,2.936857,11.2820837890625,2.972549,11.1100837890625,3.18858C10.9381637890625,3.40451,10.9742737890625,3.7193199999999997,11.1900237890625,3.89138C11.1900237890625,3.89138,11.2010837890625,3.9006,11.2010837890625,3.9006C11.2119037890625,3.90975,11.2294537890625,3.92484,11.2527637890625,3.9458200000000003C11.2994137890625,3.98781,11.3689537890625,4.053179999999999,11.4538437890625,4.14133C11.6238837890625,4.31792,11.8536937890625,4.58411,12.0841337890625,4.935090000000001C12.5445337890625,5.63643,13.0029337890625,6.66847,13.0029337890625,8.00405C13.0029337890625,9.33953,12.5446337890625,10.3694,12.0844337890625,11.06847C11.8541437890625,11.41835,11.6244437890625,11.68347,11.4545137890625,11.85927C11.3696837890625,11.94702,11.3001937890625,12.0121,11.2535837890625,12.0538C11.2303037890625,12.0747,11.2127837890625,12.0897,11.2019837890625,12.0988C11.2019837890625,12.0988,11.1904437890625,12.1083,11.1904437890625,12.1083C11.1904437890625,12.1083,11.1895137890625,12.1091,11.1895137890625,12.1091C10.9741737890625,12.2808,10.9381737890625,12.5945,11.1093137890625,12.8105C11.2807837890625,13.0269,11.5960337890625,13.0628,11.8124937890625,12.8913C11.8124937890625,12.8913,11.8454637890625,12.8642,11.8454637890625,12.8642C11.8639837890625,12.8487,11.8894637890625,12.8268,11.9209137890625,12.7986C11.9837837890625,12.7423,12.0706337890625,12.6607,12.1735337890625,12.5543C12.3789337890625,12.3418,12.6496337890625,12.0286,12.9197337890625,11.61831C13.4604337890625,10.79696,14.0029337890625,9.57884,14.0029337890625,8.00405C14.0029337890625,6.42934,13.4604337890625,5.2093799999999995,12.9200337890625,4.38627C12.6500337890625,3.9750300000000003,12.3794337890625,3.66089,12.1741337890625,3.4477C12.0714337890625,3.34097,11.9845637890625,3.25908,11.9217437890625,3.20255C11.8903237890625,3.1742600000000003,11.8648537890625,3.15228,11.8463637890625,3.13665C11.8463637890625,3.13665,11.8239437890625,3.11798,11.8239437890625,3.11798C11.8239437890625,3.11798,11.8168737890625,3.1122199999999998,11.8168737890625,3.1122199999999998C11.8168737890625,3.1122199999999998,11.8144137890625,3.11024,11.8144137890625,3.11024C11.8144137890625,3.11024,11.8126837890625,3.10886,11.8126837890625,3.10886Z" fill="#242424" fill-opacity="1"/></g></g></svg>