<svg xmlns="http://www.w3.org/2000/svg" xmlns:xlink="http://www.w3.org/1999/xlink" fill="none" version="1.1" width="32" height="32" viewBox="0 0 32 32"><defs><linearGradient x1="0.5127550959587097" y1="0" x2="0.5229591727256775" y2="1" id="master_svg0_2_4178"><stop offset="0%" stop-color="#5286FF" stop-opacity="1"/><stop offset="100%" stop-color="#4068E5" stop-opacity="1"/></linearGradient><filter id="master_svg1_29_01046" filterUnits="objectBoundingBox" color-interpolation-filters="sRGB" x="-0.08053768543913503" y="-0.3208008301941503" width="1.241613056317405" height="1.4812012452912255"><feFlood flood-opacity="0" result="BackgroundImageFix"/><feColorMatrix in="SourceAlpha" type="matrix" values="0 0 0 0 0 0 0 0 0 0 0 0 0 0 0 0 0 0 127 0"/><feOffset dy="-0.5871559381484985" dx="0.5871559381484985"/><feGaussianBlur stdDeviation="0.4403669536113739"/><feColorMatrix type="matrix" values="0 0 0 0 0.026127265766263008 0 0 0 0 0.12328802794218063 0 0 0 0 0.369047611951828 0 0 0 0.07999999821186066 0"/><feBlend mode="normal" in2="BackgroundImageFix" result="effect1_dropShadow"/><feBlend mode="normal" in="SourceGraphic" in2="effect1_dropShadow" result="shape"/><feColorMatrix in="SourceAlpha" type="matrix" result="hardAlpha" values="0 0 0 0 0 0 0 0 0 0 0 0 0 0 0 0 0 0 127 0"/><feOffset dy="0" dx="0"/><feGaussianBlur stdDeviation="0.4403669536113739"/><feComposite in2="hardAlpha" operator="arithmetic" k2="-1" k3="1"/><feColorMatrix type="matrix" values="0 0 0 0 1 0 0 0 0 1 0 0 0 0 1 0 0 0 1 0"/><feBlend mode="normal" in2="shape" result="effect2_innerShadow"/></filter><linearGradient x1="0.5" y1="-0.2686546742916107" x2="0.5" y2="1" id="master_svg2_2_4181"><stop offset="0%" stop-color="#CCDAFF" stop-opacity="1"/><stop offset="100%" stop-color="#FFFFFF" stop-opacity="1"/></linearGradient><linearGradient x1="0.9231799244880676" y1="0.9326109290122986" x2="-0.1490316191852538" y2="0.6246334323907529" id="master_svg3_2_3823"><stop offset="0%" stop-color="#FFFFFF" stop-opacity="1"/><stop offset="100%" stop-color="#FFFFFF" stop-opacity="0"/></linearGradient><filter id="master_svg4_29_01051" filterUnits="objectBoundingBox" color-interpolation-filters="sRGB" x="-0.07948777196857452" y="-0.1282171555249191" width="1.2384633159057237" height="1.3846514665747574"><feFlood flood-opacity="0" result="BackgroundImageFix"/><feColorMatrix in="SourceAlpha" type="matrix" values="0 0 0 0 0 0 0 0 0 0 0 0 0 0 0 0 0 0 127 0"/><feOffset dy="0.5871559381484985" dx="0.5871559381484985"/><feGaussianBlur stdDeviation="0.4403669536113739"/><feColorMatrix type="matrix" values="0 0 0 0 0.026127265766263008 0 0 0 0 0.12328802794218063 0 0 0 0 0.369047611951828 0 0 0 0.07999999821186066 0"/><feBlend mode="normal" in2="BackgroundImageFix" result="effect1_dropShadow"/><feBlend mode="normal" in="SourceGraphic" in2="effect1_dropShadow" result="shape"/><feColorMatrix in="SourceAlpha" type="matrix" result="hardAlpha" values="0 0 0 0 0 0 0 0 0 0 0 0 0 0 0 0 0 0 127 0"/><feOffset dy="0" dx="0"/><feGaussianBlur stdDeviation="0.4403669536113739"/><feComposite in2="hardAlpha" operator="arithmetic" k2="-1" k3="1"/><feColorMatrix type="matrix" values="0 0 0 0 1 0 0 0 0 1 0 0 0 0 1 0 0 0 1 0"/><feBlend mode="normal" in2="shape" result="effect2_innerShadow"/></filter><linearGradient x1="0.5" y1="0" x2="0.5" y2="1" id="master_svg5_2_4188"><stop offset="0%" stop-color="#FFFFFF" stop-opacity="1"/><stop offset="100%" stop-color="#CCDAFF" stop-opacity="1"/></linearGradient><linearGradient x1="0.9231799244880676" y1="0.9326109290122986" x2="-0.17669709816329232" y2="0.4509918372408103" id="master_svg6_2_3823"><stop offset="0%" stop-color="#FFFFFF" stop-opacity="1"/><stop offset="100%" stop-color="#FFFFFF" stop-opacity="0"/></linearGradient></defs><path d="M1.6142578125 9.541229248046875C1.6142578125000009 5.163486064566025 5.163119853628527 1.6146240234375 9.540863037109375 1.6146240234375L22.458293914794922 1.6146240234375C26.83603709827577 1.6146240234375 30.384899139404297 5.163486064566027 30.384899139404297 9.541229248046875L30.384899139404297 22.458660125732422C30.384899139404297 26.83640330921327 26.83603709827577 30.385265350341797 22.458293914794922 30.385265350341797L9.540863037109375 30.385265350341797C5.163119853628527 30.385265350341797 1.6142578125 26.83640330921327 1.6142578125 22.458660125732422Z" fill="url(#master_svg0_2_4178)" fill-opacity="1"/><g transform="matrix(1,0,0,-1,0,23.449462890625)" filter="url(#master_svg1_29_01046)"><path d="M16.000250362304687,11.7247314453125C19.687276362304686,11.7247314453125,22.73772336230469,14.4502582453125,23.24673036230469,17.996454745312498C23.309004362304687,18.4303088453125,23.31378936230469,18.6498928453125,23.204187362304687,18.8060474453125C23.17017536230469,18.8545055453125,23.128238362304685,18.8973040453125,23.080232362304688,18.932831745312498C22.926880362304686,19.0463223453125,22.70483336230469,19.0458588453125,22.264496362304687,19.0458588453125L21.87192736230469,19.0458588453125C21.431591362304687,19.0458588453125,21.208542362304687,19.0433177453125,21.054186362304687,18.9311957453125C21.004690362304686,18.8952417453125,20.960273362304687,18.8520002453125,20.922178362304688,18.8031706453125C20.804826362304688,18.6527533453125,20.795442362304687,18.4259753453125,20.701252362304686,18.0005006453125C20.223842362304687,15.8439798453125,18.300404562304685,14.2310633453125,16.000250362304687,14.2310633453125C13.700095662304687,14.2310633453125,11.776658262304688,15.843980345312499,11.299250362304686,18.0005006453125C11.205059562304687,18.4259753453125,11.195676562304687,18.6527538453125,11.078324062304688,18.8031706453125C11.040228162304688,18.8520002453125,10.995811662304687,18.8952417453125,10.946315262304687,18.9311957453125C10.791960762304686,19.0433182453125,10.568910262304687,19.0458588453125,10.128574162304687,19.0458588453125L9.736003662304688,19.0458588453125C9.295667532304687,19.0458588453125,9.073619482304688,19.0463223453125,8.920267792304687,18.932831745312498C8.872261662304687,18.8973040453125,8.830324442304688,18.8545055453125,8.796312742304687,18.8060474453125C8.686711102304688,18.6498928453125,8.691495642304687,18.4303088453125,8.753769494304688,17.9964542453125C9.262777092304688,14.4502582453125,12.313223162304688,11.7247314453125,16.000250362304687,11.7247314453125Z" fill="url(#master_svg2_2_4181)" fill-opacity="1"/><path d="M23.246731362304686,17.996454745312498C22.73772436230469,14.4502584453125,19.687276362304686,11.7247314453125,16.000250362304687,11.7247314453125C12.313223162304688,11.7247314453125,9.262777092304688,14.4502584453125,8.753769494304688,17.9964542453125C8.691495558304688,18.4303093453125,8.686711766304688,18.6498923453125,8.796312742304687,18.8060479453125C8.830324452304687,18.8545069453125,8.872261662304687,18.8973045453125,8.920267792304687,18.9328322453125C9.072997982304688,19.0458617453125,9.293867942304688,19.0458607453125,9.730657662304687,19.0458588453125L10.128574162304687,19.0458588453125C10.568910262304687,19.0458588453125,10.791959962304688,19.043317345312502,10.946315562304687,18.9311962453125C10.995811662304687,18.8952422453125,11.040228162304688,18.8520011453125,11.078324062304688,18.8031706453125C11.195676362304688,18.6527538453125,11.205059262304687,18.4259758453125,11.299250562304687,18.0005006453125C11.776658062304687,15.843980345312499,13.700096162304687,14.2310633453125,16.000250362304687,14.2310633453125C18.30040546230469,14.2310633453125,20.223843362304688,15.843980345312499,20.701252362304686,18.0005016453125C20.795441362304686,18.4259758453125,20.804825362304687,18.6527538453125,20.92217936230469,18.8031706453125C20.960273362304687,18.8520011453125,21.004690362304686,18.8952422453125,21.054186362304687,18.9311962453125C21.208542362304687,19.043317345312502,21.431591362304687,19.0458588453125,21.87192736230469,19.0458588453125L22.269864362304688,19.0458588453125C22.70664036230469,19.0458607453125,22.927506362304687,19.0458622453125,23.080232362304688,18.9328327453125C23.12823936230469,18.8973045453125,23.170176362304687,18.8545069453125,23.20418936230469,18.8060479453125C23.313790362304687,18.6498923453125,23.30900536230469,18.4303093453125,23.246731362304686,17.996454745312498ZM11.233544862304687,13.5860376453125Q13.279726062304688,11.7981253493125,16.000250362304687,11.7981254983125Q18.720775362304686,11.7981259373125,20.76695636230469,13.5860378453125Q22.79372636230469,15.3569881453125,23.174081362304687,18.0068826453125Q23.25920336230469,18.599911245312498,23.144114362304688,18.7638835453125Q23.09976436230469,18.8270702453125,23.03657236230469,18.8738365453125Q22.903302362304686,18.9724674453125,22.269864362304688,18.9724659453125L22.264498362304685,18.9724659453125L21.87192736230469,18.972464545312498Q21.235884362304688,18.972464545312498,21.097321362304687,18.8718133453125Q21.031544362304686,18.8240351453125,20.980046362304687,18.7580251453125Q20.906065362304687,18.6631994453125,20.836134362304687,18.2968626453125Q20.799204362304685,18.1034092453125,20.77291136230469,17.9846382453125Q20.405944362304687,16.326997245312498,19.08056236230469,15.2501246453125Q17.736001062304688,14.157669045312499,16.000250362304687,14.1576693453125Q14.264498662304687,14.1576688453125,12.919938062304688,15.250124445312501Q11.594557562304688,16.3269958453125,11.227591262304689,17.9846367453125Q11.201296362304687,18.1034140453125,11.164366762304688,18.2968711453125Q11.094436662304688,18.6632008453125,11.020457262304689,18.758024245312498Q10.968958362304686,18.8240346453125,10.903181062304688,18.8718142453125Q10.764617462304688,18.972464545312498,10.128574162304687,18.972464545312498L9.730657462304688,18.972464545312498Q9.097202452304687,18.9724674453125,8.963928342304687,18.8738365453125Q8.900735272304688,18.8270697453125,8.856387082304687,18.7638835453125Q8.741298441304687,18.5999097453125,8.826419402304687,18.0068821453125Q9.206775132304687,15.3569884453125,11.233544862304687,13.5860376453125Z" fill-rule="evenodd" fill="url(#master_svg3_2_3823)" fill-opacity="1"/></g><g filter="url(#master_svg4_29_01051)"><path d="M9.25079149,22.0668116015625L10.38748185,24.1581736015625L10.40205755,24.1581736015625L11.54607125,22.0668116015625L12.121206749999999,22.0668116015625L12.121206749999999,25.4113989015625L11.56605055,25.4113989015625L11.56605055,23.0697613015625L11.55332355,23.0697613015625L10.552222650000001,24.956352201562503L10.23006435,24.956352201562503L9.22803926,23.0697613015625L9.21531218,23.0697613015625L9.21531218,25.4113989015625L8.66015625,25.4113989015625L8.66015625,22.0668116015625L9.25079149,22.0668116015625ZM13.74394275,22.9996557015625Q14.158034350000001,22.9996557015625,14.42466255,23.2362795015625Q14.69769045,23.4774537015625,14.69769045,23.8697176015625L14.69769045,25.4113989015625L14.175312550000001,25.4113989015625L14.175312550000001,25.096492801562498L14.16528705,25.096492801562498Q14.05792425,25.2566833015625,13.87860825,25.3503942015625Q13.68023685,25.4523525015625,13.42903705,25.4523525015625Q13.078651950000001,25.4523525015625,12.84750275,25.258531601562503Q12.60447975,25.0555382015625,12.60447975,24.7215776015625Q12.60447975,24.3538437015625,12.893931349999999,24.1381941015625Q13.16966055,23.9315753015625,13.60010575,23.9315753015625Q13.89680955,23.9315753015625,14.15348435,24.0362358015625L14.15348435,23.8869948015625Q14.15348435,23.6958756015625,14.03424785,23.573937901562502Q13.91046145,23.4492269015625,13.714791250000001,23.4474492015625Q13.340729249999999,23.4401259015625,13.060449649999999,23.7204766015625L12.76559445,23.4073482015625Q12.90758275,23.2480822015625,13.14235785,23.1352453015625Q13.42633485,22.9996557015625,13.74394275,22.9996557015625ZM13.16148425,24.6523962015625Q13.16326145,24.8253136015625,13.267068850000001,24.918100401562498Q13.368032450000001,25.0082569015625,13.56100035,25.010034601562502Q13.81767415,25.0073318015625,13.98419285,24.880844101562502Q14.15071105,24.751582101562498,14.15348435,24.5868416015625L14.15348435,24.398494701562498Q13.94594045,24.2919860015625,13.63835815,24.2919860015625Q13.425410750000001,24.2919860015625,13.29437165,24.3884697015625Q13.16148425,24.4840298015625,13.16148425,24.6523962015625ZM15.28014945,25.4113989015625L15.28014945,23.0451603015625L15.788876049999999,23.0451603015625L15.779775149999999,23.4983573015625L15.78980065,23.4983573015625Q15.889910650000001,23.2581072015625,16.06560135,23.1289172015625Q16.24669555,22.9996557015625,16.486021049999998,22.9996557015625Q16.61706015,22.9996557015625,16.74084665,23.0478621015625L16.65801425,23.5265846015625Q16.557050750000002,23.4820042015625,16.42686515,23.4820042015625Q16.152913050000002,23.4820042015625,15.99186995,23.694026901562502Q15.82805295,23.9088230015625,15.82805295,24.2565060015625L15.82805295,25.4113989015625L15.28014945,25.4113989015625ZM17.060302749999998,25.4113989015625L17.060302749999998,21.9302979015625L17.60820675,21.9302979015625L17.60820675,23.8933945015625L18.52554985,23.0451603015625L19.21906825,23.0451603015625L18.258921649999998,23.944302601562498L19.315481249999998,25.4113989015625L18.65203855,25.4113989015625L17.89488505,24.2819605015625L17.60820675,24.551362001562502L17.60820675,25.4113989015625L17.060302749999998,25.4113989015625ZM21.490599250000002,25.0027819015625Q21.34775825,25.1993752015625,21.082907249999998,25.3230915015625Q20.80895625,25.4523525015625,20.51594925,25.4523525015625Q20.008999250000002,25.4523525015625,19.68406725,25.1137705015625Q19.351885250000002,24.7679348015625,19.351885250000002,24.2210269015625Q19.351885250000002,23.688623401562502,19.67951725,23.343641801562498Q20.00629825,22.9996557015625,20.49860125,22.9996557015625Q20.99829625,22.9996557015625,21.29862825,23.3354650015625Q21.596185249999998,23.6685734015625,21.596185249999998,24.2146282015625Q21.596185249999998,24.316586501562497,21.58893325,24.4093733015625L19.91706525,24.4093733015625Q19.93889425,24.6760731015625,20.09090825,24.8289394015625Q20.25927425,24.9991550015625,20.56778225,24.9991550015625Q20.76075025,24.9991550015625,20.922718250000003,24.9135494015625Q21.06655525,24.8361921015625,21.18664325,24.693350801562502L21.490599250000002,25.0027819015625ZM19.91528825,24.0034585015625L21.02830225,24.0034585015625Q21.015575249999998,23.7468548015625,20.86263625,23.5957656015625Q20.71794625,23.4528527015625,20.50137325,23.451075101562502Q20.25202225,23.451075101562502,20.09816025,23.5984678015625Q19.94891925,23.7413802015625,19.91528825,24.0034585015625ZM23.400940249999998,23.0451603015625L23.400940249999998,23.5111556015625L22.77752725,23.5111556015625L22.77752725,24.5477362015625Q22.77752725,24.7679348015625,22.82665725,24.856243101562498Q22.88759125,24.970004101562502,23.05510625,24.970004101562502Q23.21159725,24.970004101562502,23.36268725,24.920873601562498L23.43364725,25.3640451015625Q23.22980025,25.4523525015625,22.94312125,25.4523525015625Q22.586408249999998,25.4523525015625,22.40801525,25.2448807015625Q22.22962425,25.0401096015625,22.22962425,24.6423712015625L22.22962425,23.5111556015625L21.80188125,23.5111556015625L21.80188125,23.0451603015625L22.22962425,23.0451603015625L22.22962425,22.3125362015625L22.77752725,22.3125362015625L22.77752725,23.0451603015625L23.400940249999998,23.0451603015625ZM11.59667965,19.6381662015625L12.90998455,16.2935791015625L13.50879665,16.2935791015625L14.822030550000001,19.6381662015625L14.23047065,19.6381662015625L13.90923695,18.7781296015625L12.48856945,18.7781296015625L12.17003755,19.6381662015625L11.59667965,19.6381662015625ZM12.67151215,18.279427501562502L13.725369950000001,18.279427501562502L13.20121385,16.8769620615625L13.19211295,16.8769620615625L12.67151215,18.279427501562502ZM15.17696615,20.6119642015625L15.17696615,17.2719275315625L15.68576435,17.2719275315625L15.68576435,17.6204643015625L15.69849155,17.6204643015625Q15.810404349999999,17.4594208015625,16.01339725,17.3492854015625Q16.23999645,17.2264230215625,16.48117015,17.2264230215625Q16.94254495,17.2264230215625,17.23924825,17.5540560015625Q17.54412935,17.8898656015625,17.54412935,18.4459460015625Q17.54412935,19.0202279015625,17.21471885,19.3632898015625Q16.91254045,19.6791201015625,16.45934245,19.6791201015625Q16.223571749999998,19.6791201015625,16.02704855,19.5854089015625Q15.857757549999999,19.5080514015625,15.74036975,19.3723907015625L15.72486975,19.3723907015625L15.72486975,20.6119642015625L15.17696615,20.6119642015625ZM15.708516549999999,18.4386935015625Q15.708516549999999,18.7808313015625,15.88776205,18.9901521015625Q16.06430575,19.1967716015625,16.35283325,19.1967716015625Q16.63041115,19.1967716015625,16.80147935,18.9920008015625Q16.97439765,18.7881546015625,16.97439765,18.4550469015625Q16.97439765,18.1146870015625,16.797853449999998,17.9080676015625Q16.62678485,17.7087718015625,16.35013155,17.7087718015625Q16.09160855,17.7087718015625,15.90688805,17.9017395015625Q15.708516549999999,18.1082878015625,15.708516549999999,18.4386935015625ZM18.03465465,20.6119642015625L18.03465465,17.2719275315625L18.54345325,17.2719275315625L18.54345325,17.6204643015625L18.55617905,17.6204643015625Q18.66809225,17.4594208015625,18.871086249999998,17.3492854015625Q19.097685249999998,17.2264230215625,19.33885825,17.2264230215625Q19.800233249999998,17.2264230215625,20.09693625,17.5540560015625Q20.40181725,17.8898656015625,20.40181725,18.4459460015625Q20.40181725,19.0202279015625,20.072407249999998,19.3632898015625Q19.770228250000002,19.6791201015625,19.31703125,19.6791201015625Q19.081259250000002,19.6791201015625,18.88473725,19.5854089015625Q18.71544625,19.5080514015625,18.59805875,19.3723907015625L18.58255865,19.3723907015625L18.58255865,20.6119642015625L18.03465465,20.6119642015625ZM18.56620505,18.4386935015625Q18.56620505,18.7808313015625,18.745451250000002,18.9901521015625Q18.92199325,19.1967716015625,19.21052125,19.1967716015625Q19.488100250000002,19.1967716015625,19.65916825,18.9920008015625Q19.83208525,18.7881546015625,19.83208525,18.4550469015625Q19.83208525,18.1146870015625,19.65554225,17.9080676015625Q19.48447325,17.7087718015625,19.207820249999997,17.7087718015625Q18.94929725,17.7087718015625,18.764576249999998,17.9017395015625Q18.56620505,18.1082878015625,18.56620505,18.4386935015625Z" fill="url(#master_svg5_2_4188)" fill-opacity="1"/><path d="M13.90923695,18.7781296015625L14.23047065,19.6381662015625L14.822030550000001,19.6381662015625L14.79321285,19.5647717015625L13.50879665,16.2935791015625L12.90998455,16.2935791015625L11.62549925,19.5647717015625L11.59667965,19.6381662015625L12.17003775,19.6381662015625L12.48856945,18.7781296015625L13.90923695,18.7781296015625ZM12.11895415,19.5647717015625L12.43748595,18.7047350015625L13.960170250000001,18.7047350015625L14.28140445,19.5647717015625L14.71436355,19.5647717015625L13.458765549999999,16.3669736015625L12.96001525,16.3669736015625L11.70434925,19.5647717015625L12.11895415,19.5647717015625ZM13.14106945,16.8035675915625L12.56597995,18.3528221015625L13.831153350000001,18.3528221015625L13.25213625,16.8035675915625L13.14106945,16.8035675915625ZM12.74980025,18.2794276015625L12.67151215,18.2794276015625L12.69875665,18.2060331015625L13.15760465,16.9699251015625L13.19064715,16.8809112915625L13.19211295,16.8769621215625L13.20121385,16.8769621215625L13.20267965,16.8808845315625L13.23592515,16.9698380215625L13.69793935,18.2060331015625L13.725369950000001,18.2794276015625L12.74980025,18.2794276015625ZM15.68576435,17.5166464015625L15.68576435,17.2719275915625L15.17696615,17.2719275915625L15.17696615,20.6119642015625L15.72487025,20.6119642015625L15.72487025,19.372391001562498L15.74036975,19.372391001562498Q15.76789045,19.4041958015625,15.798264549999999,19.4327960015625Q15.897447549999999,19.5261877015625,16.02704905,19.5854089015625Q16.223571749999998,19.6791203015625,16.45934295,19.6791203015625Q16.91254045,19.6791203015625,17.21471975,19.3632898015625Q17.54413035,19.0202279015625,17.54413035,18.4459460015625Q17.54413035,17.8898658015625,17.23924825,17.5540560015625Q16.94254495,17.2264230815625,16.48117015,17.2264230815625Q16.23999645,17.2264230815625,16.01339725,17.3492854015625Q15.86041215,17.4322888015625,15.759159050000001,17.5442076015625Q15.72606185,17.5807914015625,15.69849155,17.6204644015625L15.68576435,17.6204644015625L15.68576435,17.5166464015625ZM15.65147595,20.5385699015625L15.65147595,19.2989964015625L15.773918649999999,19.2989964015625L15.795870350000001,19.3243659015625Q15.90279965,19.4479387015625,16.05863955,19.5191610015625Q16.24017475,19.6057258015625,16.45934295,19.6057258015625Q16.881185549999998,19.6057258015625,17.16177845,19.3124561015625Q17.47073555,18.9906960015625,17.47073555,18.4459460015625Q17.47073555,17.9182129015625,17.18484595,17.6033224015625Q16.90999315,17.2998176015625,16.48117015,17.2998176015625Q16.258613150000002,17.2998176015625,16.04839845,17.4137964015625Q15.860727350000001,17.5156187015625,15.75876235,17.6623478015625L15.73686455,17.6938589015625L15.612370049999999,17.6938589015625L15.612370049999999,17.345322101562502L15.250360950000001,17.345322101562502L15.250360950000001,20.5385699015625L15.65147595,20.5385699015625ZM18.54345325,17.516644701562498L18.54345325,17.2719275915625L18.03465465,17.2719275915625L18.03465465,20.6119642015625L18.58255865,20.6119642015625L18.58255865,19.372391001562498L18.59805875,19.372391001562498Q18.62557985,19.4041955015625,18.65595345,19.4327958015625Q18.755135250000002,19.5261874015625,18.884738249999998,19.5854089015625Q19.08126025,19.6791203015625,19.31703225,19.6791203015625Q19.77022925,19.6791203015625,20.072407249999998,19.3632898015625Q20.40181725,19.0202279015625,20.40181725,18.4459460015625Q20.40181725,17.8898658015625,20.09693725,17.5540560015625Q19.800234250000003,17.2264230815625,19.33885925,17.2264230815625Q19.097685249999998,17.2264230815625,18.871087250000002,17.3492854015625Q18.71810125,17.4322884015625,18.61684795,17.5442063015625Q18.58375075,17.5807904015625,18.556180050000002,17.6204644015625L18.54345325,17.6204644015625L18.54345325,17.516644701562498ZM18.50916385,20.5385699015625L18.50916385,19.2989964015625L18.63160805,19.2989964015625L18.65355965,19.3243659015625Q18.76048725,19.4479387015625,18.91632825,19.5191610015625Q19.09786325,19.6057258015625,19.31703225,19.6057258015625Q19.738873249999997,19.6057258015625,20.01946625,19.3124561015625Q20.32842325,18.9906960015625,20.32842325,18.4459460015625Q20.32842325,17.9182128015625,20.04253525,17.6033224015625Q19.767681250000003,17.2998176015625,19.33885925,17.2998176015625Q19.11630125,17.2998176015625,18.90608825,17.4137965015625Q18.71841625,17.5156189015625,18.61645035,17.6623479015625L18.59455205,17.6938589015625L18.47005935,17.6938589015625L18.47005935,17.345322101562502L18.10804935,17.345322101562502L18.10804935,20.5385699015625L18.50916385,20.5385699015625ZM15.853870350000001,17.8509872015625Q15.63512185,18.0787508015625,15.63512185,18.4386935015625Q15.63512185,18.8079619015625,15.83201405,19.0378902015625Q16.03047995,19.2701662015625,16.35283325,19.2701662015625Q16.66473295,19.2701662015625,16.85780525,19.0390561015625Q17.04779245,18.8150909015625,17.04779245,18.4550471015625Q17.04779245,18.0876015015625,16.85365395,17.8603903015625Q16.66051105,17.6353773015625,16.35013155,17.6353773015625Q16.060265049999998,17.6353773015625,15.853870350000001,17.8509872015625ZM18.71155825,17.8509871015625Q18.492810249999998,18.0787511015625,18.492810249999998,18.4386935015625Q18.492810249999998,18.8079619015625,18.68970425,19.0378902015625Q18.888166249999998,19.2701662015625,19.21052125,19.2701662015625Q19.522422249999998,19.2701662015625,19.71549425,19.0390561015625Q19.90548025,18.8150916015625,19.90548025,18.4550471015625Q19.90548025,18.0876015015625,19.71134325,17.8603903015625Q19.51820025,17.6353773015625,19.207820249999997,17.6353773015625Q18.91795325,17.6353773015625,18.71155825,17.8509871015625ZM15.88776205,18.9901521015625Q15.708516549999999,18.7808313015625,15.708516549999999,18.4386935015625Q15.708516549999999,18.1082878015625,15.90688845,17.9017396015625Q16.09160905,17.7087718015625,16.35013155,17.7087718015625Q16.62678525,17.7087718015625,16.797854450000003,17.9080677015625Q16.97439765,18.1146870015625,16.97439765,18.4550471015625Q16.97439765,18.7881546015625,16.80147935,18.9920011015625Q16.63041165,19.1967716015625,16.35283325,19.1967716015625Q16.06430625,19.1967716015625,15.88776205,18.9901521015625ZM18.745451250000002,18.9901521015625Q18.56620505,18.7808313015625,18.56620505,18.4386935015625Q18.56620505,18.1082878015625,18.764576249999998,17.9017396015625Q18.94929825,17.7087718015625,19.207820249999997,17.7087718015625Q19.484474249999998,17.7087718015625,19.65554225,17.9080677015625Q19.83208625,18.1146870015625,19.83208625,18.4550471015625Q19.83208625,18.7881546015625,19.659169249999998,18.9920011015625Q19.488100250000002,19.1967716015625,19.21052125,19.1967716015625Q18.92199325,19.1967716015625,18.745451250000002,18.9901521015625ZM17.60820675,23.7934332015625L17.60820675,21.9302979015625L17.060302749999998,21.9302979015625L17.060302749999998,25.4113989015625L17.60820675,25.4113989015625L17.60820675,24.551362001562502L17.840675349999998,24.3329029015625L17.89488505,24.2819605015625L17.93630795,24.343751001562502L18.65203855,25.4113989015625L19.315481249999998,25.4113989015625L19.262624250000002,25.3380051015625L18.25892255,23.9443030015625L19.14069425,23.1185551015625L19.21906925,23.0451608015625L18.52554985,23.0451608015625L17.68160155,23.8255296015625L17.60820675,23.893394901562502L17.60820675,23.7934332015625ZM18.554281250000003,23.1185551015625L17.534811949999998,24.0612226015625L17.534811949999998,22.0036926015625L17.13369755,22.0036926015625L17.13369755,25.3380051015625L17.534811949999998,25.3380051015625L17.534811949999998,24.519617101562503L17.90767285,24.1692281015625L18.691197250000002,25.3380051015625L19.17217825,25.3380051015625L18.161658250000002,23.934835401562502L19.033319249999998,23.1185551015625L18.554281250000003,23.1185551015625ZM10.35305165,24.0948272015625L9.25079149,22.0668120015625L8.66015625,22.0668120015625L8.66015625,25.4113989015625L9.21531224,25.4113989015625L9.21531224,23.0697613015625L9.22803926,23.0697613015625L9.28870672,23.1839848015625L10.23006455,24.956352201562503L10.552222650000001,24.956352201562503L11.49265595,23.1840901015625L11.55332355,23.0697613015625L11.56605055,23.0697613015625L11.56605055,25.4113989015625L12.12120695,25.4113989015625L12.12120695,22.0668120015625L11.54607125,22.0668120015625L10.43664775,24.0949402015625L10.40822485,24.1469002015625L10.40205765,24.1581740015625L10.38748185,24.1581740015625L10.38131465,24.1468267015625L10.35305165,24.0948272015625ZM11.58958105,22.1402063015625L10.44556735,24.2315683015625L10.34383825,24.2315683015625L9.2071479,22.1402063015625L8.73355075,22.1402063015625L8.73355075,25.3380051015625L9.14191771,25.3380051015625L9.14191771,22.9963670015625L9.27216172,22.9963670015625L10.27418695,24.882958401562497L10.50808095,24.882958401562497L11.50918195,22.9963670015625L11.639445049999999,22.9963670015625L11.639445049999999,25.3380051015625L12.04781245,25.3380051015625L12.04781245,22.1402063015625L11.58958105,22.1402063015625ZM22.85092225,23.5111556015625L23.400941250000002,23.5111556015625L23.400941250000002,23.0451608015625L22.77752825,23.0451608015625L22.77752825,22.3125362015625L22.22962425,22.3125362015625L22.22962425,23.0451608015625L21.80188125,23.0451608015625L21.80188125,23.5111556015625L22.22962425,23.5111556015625L22.22962425,24.6423712015625Q22.22962425,25.0401096015625,22.40801525,25.2448816015625Q22.586409250000003,25.4523525015625,22.94312125,25.4523525015625Q23.22980025,25.4523525015625,23.433648249999997,25.3640461015625L23.37442425,24.9941730015625L23.36268725,24.920873601562498Q23.32729325,24.9323826015625,23.291611250000003,24.9411945015625Q23.17494425,24.970004101562502,23.05510625,24.970004101562502Q22.88759125,24.970004101562502,22.82665725,24.856244101562503Q22.77752825,24.7679348015625,22.77752825,24.5477362015625L22.77752825,23.5111556015625L22.85092225,23.5111556015625ZM23.303253249999997,25.0139036015625Q23.18085125,25.043398901562497,23.05510625,25.043398901562497Q22.84364325,25.043398901562497,22.76252125,24.8919258015625Q22.704133249999998,24.7869768015625,22.704133249999998,24.5477362015625L22.704133249999998,23.4377613015625L23.327546249999997,23.4377613015625L23.327546249999997,23.1185551015625L22.704133249999998,23.1185551015625L22.704133249999998,22.3859310015625L22.30301825,22.3859310015625L22.30301825,23.1185551015625L21.87527525,23.1185551015625L21.87527525,23.4377613015625L22.30301825,23.4377613015625L22.30301825,24.6423712015625Q22.30301825,25.012623801562498,22.46366625,25.1970301015625Q22.62009725,25.3789587015625,22.94312125,25.3789587015625Q23.178023250000003,25.3789587015625,23.35184425,25.3173647015625L23.303253249999997,25.0139036015625ZM14.175312550000001,25.2055645015625L14.175312550000001,25.4113989015625L14.69769045,25.4113989015625L14.69769045,23.8697176015625Q14.69769045,23.4774537015625,14.42466255,23.2362795015625Q14.15803485,22.9996557015625,13.74394275,22.9996557015625Q13.42633485,22.9996557015625,13.14235785,23.1352453015625Q12.90758275,23.2480826015625,12.76559445,23.4073482015625L13.010112750000001,23.667020301562502L13.060449649999999,23.7204766015625Q13.08494375,23.6959763015625,13.11014745,23.6736789015625Q13.37341455,23.4407663015625,13.714791250000001,23.4474492015625Q13.91046195,23.4492269015625,14.03424835,23.573937901562502Q14.15348435,23.6958761015625,14.15348435,23.8869948015625L14.15348435,24.0362358015625Q14.11719225,24.0214372015625,14.080090049999999,24.0087285015625Q13.85485125,23.931575801562502,13.60010625,23.931575801562502Q13.16966055,23.931575801562502,12.893931349999999,24.1381946015625Q12.60448005,24.3538437015625,12.60448005,24.7215776015625Q12.60448005,25.0555382015625,12.84750315,25.2585325015625Q13.078651950000001,25.4523525015625,13.42903755,25.4523525015625Q13.680237250000001,25.4523525015625,13.87860875,25.3503952015625Q14.00940465,25.2820406015625,14.10191825,25.178315201562498Q14.13623715,25.1398373015625,14.16528705,25.096492801562498L14.175312550000001,25.096492801562498L14.175312550000001,25.2055645015625ZM12.86693715,23.4079113015625Q12.98952915,23.2901292015625,13.17415145,23.2013965015625Q13.44295835,23.0730500015625,13.74394275,23.0730500015625Q14.13016365,23.0730500015625,14.37594555,23.2911739015625Q14.62429615,23.5105500015625,14.62429615,23.8697176015625L14.62429615,25.3380051015625L14.248707249999999,25.3380051015625L14.248707249999999,25.023098001562502L14.12612345,25.023098001562502L14.10431905,25.0556307015625Q14.00736375,25.2002935015625,13.84461455,25.2853470015625Q13.66247895,25.3789587015625,13.42903755,25.3789587015625Q13.10535095,25.3789587015625,12.89466045,25.202292401562502Q12.67787455,25.0212145015625,12.67787455,24.7215776015625Q12.67787455,24.3906879015625,12.93778035,24.197050601562502Q13.19410895,24.0049701015625,13.60010625,24.0049701015625Q13.882420549999999,24.0049701015625,14.12577245,24.1041980015625L14.22687865,24.145423901562502L14.22687865,23.8869948015625Q14.22687865,23.6659555015625,14.08672425,23.5226250015625Q13.94129755,23.3761091015625,13.715457950000001,23.3740578015625Q13.347223249999999,23.3668456015625,13.06363775,23.6168022015625L12.86693715,23.4079113015625ZM15.85585115,23.3655844015625Q15.94203285,23.2197809015625,16.06560185,23.1289172015625Q16.24669595,22.9996557015625,16.48602155,22.9996557015625Q16.61706015,22.9996557015625,16.74084665,23.0478625015625L16.67085745,23.4523602015625L16.65801425,23.5265851015625Q16.624515549999998,23.5117941015625,16.58779905,23.5019097015625Q16.51385495,23.4820042015625,16.42686555,23.4820042015625Q16.15291355,23.4820042015625,15.99187045,23.6940274015625Q15.828053449999999,23.9088235015625,15.828053449999999,24.2565064015625L15.828053449999999,25.4113989015625L15.28014995,25.4113989015625L15.28014995,23.0451608015625L15.788876049999999,23.0451608015625L15.78740215,23.1185551015625L15.78285165,23.3451843015625L15.78124955,23.4249630015625L15.77985855,23.4942145015625L15.779775650000001,23.4983573015625L15.789801149999999,23.4983573015625Q15.81949945,23.4270854015625,15.85585115,23.3655844015625ZM15.71399305,23.1185551015625L15.70489265,23.5717516015625L15.83872985,23.5717516015625L15.85754915,23.5265875015625Q15.949815749999999,23.305159101562502,16.10908125,23.1880469015625Q16.27020215,23.0730500015625,16.48602155,23.0730500015625Q16.57368805,23.0730500015625,16.65782495,23.0972013015625L16.600359949999998,23.4293156015625Q16.51983165,23.4086099015625,16.42686555,23.4086099015625Q16.11649515,23.4086099015625,15.93342395,23.6496344015625Q15.75465915,23.8840294015625,15.75465915,24.2565064015625L15.75465915,25.3380051015625L15.353544249999999,25.3380051015625L15.353544249999999,23.1185551015625L15.71399305,23.1185551015625ZM19.99072425,24.4093733015625L21.58893325,24.4093733015625Q21.596185249999998,24.316586501562497,21.596185249999998,24.2146287015625Q21.596185249999998,23.6685734015625,21.298629249999998,23.3354654015625Q20.99829725,22.9996557015625,20.49860125,22.9996557015625Q20.006299249999998,22.9996557015625,19.67951825,23.3436422015625Q19.35188625,23.688623401562502,19.35188625,24.2210269015625Q19.35188625,24.7679348015625,19.68406825,25.1137705015625Q20.008999250000002,25.4523525015625,20.51594925,25.4523525015625Q20.80895625,25.4523525015625,21.08290825,25.3230925015625Q21.34775825,25.1993752015625,21.49060025,25.0027828015625L21.238296249999998,24.7459335015625L21.18664325,24.693350801562502Q21.16254625,24.7220135015625,21.13748825,24.748045001562502Q21.03768925,24.8517170015625,20.922718250000003,24.9135494015625Q20.76075025,24.9991550015625,20.56778225,24.9991550015625Q20.25927425,24.9991550015625,20.09090925,24.8289394015625Q19.96046425,24.6977644015625,19.92588125,24.4827681015625Q19.92016225,24.447216001562502,19.91706525,24.4093733015625L19.99072425,24.4093733015625ZM21.188937250000002,24.800419801562498Q21.081701250000002,24.911381701562497,20.95701425,24.978437401562502Q20.77895225,25.072549801562502,20.56778225,25.072549801562502Q20.22863825,25.072549801562502,20.03886725,24.8806925015625Q19.86793325,24.708801301562502,19.84391625,24.415360401562502L19.83741825,24.3359795015625L21.51999425,24.3359795015625Q21.522791249999997,24.277117301562498,21.522791249999997,24.2146287015625Q21.522791249999997,23.6965809015625,21.24392125,23.3843927015625Q20.965473250000002,23.0730500015625,20.49860125,23.0730500015625Q20.037808249999998,23.0730500015625,19.73273725,23.3941846015625Q19.425279250000003,23.7179217015625,19.425279250000003,24.2210269015625Q19.425279250000003,24.7383957015625,19.737022250000003,25.0629520015625Q20.04028925,25.3789587015625,20.51594925,25.3789587015625Q20.79251225,25.3789587015625,21.05184625,25.2565947015625Q21.26557425,25.1567574015625,21.39294125,25.0080986015625L21.188937250000002,24.800419801562498ZM19.83187325,24.0768533015625L21.105427249999998,24.0768533015625L21.10160725,23.999823101562498Q21.08746625,23.714706401562502,20.914218249999998,23.543553401562498Q20.74833225,23.3797050015625,20.50197625,23.3776832015625Q20.22254025,23.377680801562498,20.047388249999997,23.5454683015625Q19.87942425,23.7063107015625,19.842491250000002,23.9941173015625L19.83187325,24.0768533015625ZM19.98932925,24.0034590015625L19.91528825,24.0034590015625Q19.920157250000003,23.9655161015625,19.92745125,23.9300642015625Q19.97052825,23.7206879015625,20.09816025,23.598468301562498Q20.25202225,23.4510756015625,20.50137325,23.4510756015625Q20.71794625,23.4528532015625,20.86263725,23.5957656015625Q20.99302025,23.7245717015625,21.02149825,23.9300642015625Q21.026425250000003,23.965614801562502,21.02830325,24.0034590015625L19.98932925,24.0034590015625ZM13.25085495,24.329367601562502Q13.08808995,24.446407301562502,13.08808995,24.6523962015625L13.08809325,24.6531506015625Q13.09020375,24.858451801562502,13.21815725,24.9728222015625Q13.33974405,25.0813942015625,13.56032465,25.0834265015625Q13.842730549999999,25.0804682015625,14.02858825,24.9392891015625Q14.223503149999999,24.787988701562497,14.22686865,24.588077501562502L14.22687865,24.3536644015625L14.18699455,24.3331966015625Q13.96367455,24.2185917015625,13.63835855,24.2185917015625Q13.401305149999999,24.2185917015625,13.25085495,24.329367601562502ZM13.267068850000001,24.918100401562498Q13.16326145,24.8253136015625,13.16148425,24.6523962015625Q13.16148425,24.4840298015625,13.29437165,24.3884706015625Q13.42541125,24.2919860015625,13.63835855,24.2919860015625Q13.94594045,24.2919860015625,14.15348435,24.398494701562498L14.15348435,24.5868416015625Q14.15071105,24.751583101562503,13.98419285,24.880844101562502Q13.81767415,25.007332801562498,13.56100085,25.0100355015625Q13.368032450000001,25.0082579015625,13.267068850000001,24.918100401562498Z" fill-rule="evenodd" fill="url(#master_svg6_2_3823)" fill-opacity="1"/></g></svg>