<svg xmlns="http://www.w3.org/2000/svg" xmlns:xlink="http://www.w3.org/1999/xlink" fill="none" version="1.1" width="20" height="20" viewBox="0 0 20 20"><defs><clipPath id="master_svg0_36_013319"><rect x="0" y="0" width="20" height="20" rx="0"/></clipPath></defs><g clip-path="url(#master_svg0_36_013319)"><path d="M16.728940767547606,7.563206703417968C17.132524767547608,7.966791103417968,17.51312476754761,8.427314503417968,17.844464767547606,8.907396303417968C18.079746767547608,9.24829960341797,17.994123767547606,9.715390703417969,17.65322076754761,9.95067310341797C17.312317767547608,10.185955503417969,16.845226767547608,10.100332303417968,16.60994476754761,9.759429003417969C16.329020767547608,9.352395103417969,16.00620976754761,8.96179630341797,15.668279767547608,8.623867003417969C12.556661767547608,5.512249233417969,7.511733567547608,5.512249233417969,4.400115967547608,8.623867003417969C4.079130567547607,8.944852303417969,3.7595782675476075,9.335590803417968,3.4677425675476075,9.756262803417968C3.2316393675476074,10.096598103417968,2.7643436175476075,10.181094203417969,2.4240082775476073,9.94499110341797C2.0836729105476075,9.70888810341797,1.9991760875476074,9.241592903417969,2.2352792475476075,8.90125750341797C2.5755379175476074,8.41078520341797,2.9510878275476076,7.951574603417969,3.3394557675476073,7.563206703417968C7.036859967547607,3.865802523417969,13.031535767547608,3.865802523417969,16.728940767547606,7.563206703417968ZM14.589910767547607,9.45134070341797C15.062508767547607,9.923938703417969,15.470796767547608,10.496004603417969,15.781866767547607,11.104184103417968C15.970485767547608,11.472959503417968,15.824441767547608,11.924817603417969,15.455665767547607,12.11343760341797C15.086890767547608,12.302057703417969,14.635032767547607,12.156013503417968,14.446412767547608,11.78723810341797C14.204670767547608,11.31460280341797,13.887613767547608,10.870364203417969,13.529250767547607,10.512001003417968C11.598986167547608,8.581737003417969,8.469409967547607,8.581737003417969,6.539145967547608,10.512001003417968C6.164062967547608,10.88708350341797,5.859581967547607,11.308522203417969,5.625088167547608,11.77212050341797C5.438129467547608,12.141740803417969,4.986932967547608,12.289818303417968,4.617312467547608,12.10285950341797C4.247691867547608,11.915900703417968,4.0996150675476075,11.46470360341797,4.286573867547608,11.095083203417968C4.592513767547608,10.490235303417968,4.9906229675476075,9.939203303417969,5.478485567547608,9.45134070341797C7.994535967547607,6.935290103417969,12.073860667547608,6.935290103417969,14.589910767547607,9.45134070341797ZM12.954810767547608,11.84055420341797C13.318285767547607,12.20402910341797,13.616534767547607,12.649276703417968,13.824168767547608,13.123107903417969C13.990416767547607,13.502494803417969,13.817633767547607,13.944819403417968,13.438246767547607,14.111067803417969C13.058860767547607,14.277316103417968,12.616535767547607,14.104533203417969,12.450287767547607,13.725146303417969C12.315858767547608,13.418372203417968,12.122197767547608,13.129262003417969,11.894150267547607,12.90121460341797C10.866926667547608,11.873991003417968,9.201468967547608,11.873991003417968,8.174245867547608,12.90121460341797C7.9475989675476075,13.12786100341797,7.762874567547607,13.40496640341797,7.627239667547608,13.714946703417969C7.461195967547607,14.094423303417969,7.018964767547607,14.26744460341797,6.639488267547607,14.101401303417969C6.260011667547608,13.935358003417969,6.086990167547608,13.493126903417968,6.253033667547608,13.113650303417968C6.461537867547608,12.637134103417969,6.750544067547607,12.203596103417969,7.113585967547608,11.84055420341797C8.726595367547606,10.227544803417969,11.341801167547608,10.227544803417969,12.954810767547608,11.84055420341797ZM10.921279467547608,13.881700503417969C11.406425967547607,14.366847003417968,11.406425967547607,15.153424503417968,10.921279467547608,15.638570503417968C10.436132867547608,16.12371750341797,9.649555167547607,16.12371750341797,9.164408667547608,15.638570503417968C8.679262167547607,15.153424503417968,8.679262167547607,14.366847003417968,9.164408667547608,13.881700503417969C9.649555167547607,13.396554003417968,10.436132867547608,13.396554003417968,10.921279467547608,13.881700503417969Z" fill="#FFFFFF" fill-opacity="0.8999999761581421"/></g></svg>