<svg xmlns="http://www.w3.org/2000/svg" xmlns:xlink="http://www.w3.org/1999/xlink" fill="none" version="1.1" width="20" height="20" viewBox="0 0 20 20"><defs><clipPath id="master_svg0_87_28435"><rect x="0" y="0" width="20" height="20" rx="0"/></clipPath></defs><g clip-path="url(#master_svg0_87_28435)"><path d="M16.729059499999998,7.5630922625C17.1326435,7.966676662499999,17.5132435,8.4271998625,17.8445835,8.9072818625C18.0798655,9.2481851625,17.9942425,9.7152762625,17.6533395,9.9505586625C17.3124365,10.1858410625,16.8453455,10.1002178625,16.610063500000003,9.7593145625C16.3291395,9.3522801625,16.006328500000002,8.9616818625,15.6683985,8.6237525625C12.5567805,5.5121345525,7.5118523,5.5121345525,4.4002347,8.6237525625C4.0792493,8.9447378625,3.759697,9.3354759625,3.4678613,9.7561483625C3.2317581,10.096483662499999,2.76446235,10.1809797625,2.42412701,9.9448766625C2.083791643,9.7087736625,1.9992948,9.2414784625,2.23539798,8.901143062500001C2.57565665,8.4106707625,2.95120651,7.9514601625,3.3395745,7.5630922625C7.0369787,3.8656878425,13.0316545,3.8656878425,16.729059499999998,7.5630922625ZM5.478604300000001,9.4512262625C7.8468556,7.0829746625,11.6001148,6.9438576625,14.1310835,9.0338754625C13.6148665,9.129039262500001,13.1311785,9.4247174625,12.8170875,9.9208845625C10.8929567,8.6073138625,8.2468362,8.804314662500001,6.5392647,10.511886562499999C6.1641817,10.8869690625,5.859700699999999,11.3084077625,5.6252069,11.772006062500001C5.4382482,12.1416263625,4.9870517,12.2897038625,4.6174312,12.1027450625C4.2478106,11.9157862625,4.0997338,11.464589162500001,4.2866926,11.094968762499999C4.592632500000001,10.4901208625,4.9907417,9.9390888625,5.478604300000001,9.4512262625ZM9.7816305,15.9746690625C9.7816305,15.9746690625,10.8569899,13.8215188625,10.8569899,13.8215188625C10.3689604,13.3973417625,9.6287494,13.4173641625,9.1645274,13.8815860625C8.6793809,14.3667325625,8.6793809,15.1533100625,9.1645274,15.6384560625C9.340235700000001,15.8141650625,9.555483800000001,15.9262360625,9.7816305,15.9746690625ZM11.4841795,12.5657238625C11.4841795,12.5657238625,12.1577055,11.2171482625,12.1577055,11.2171482625C10.5706959,10.2646326625,8.4817476,10.4723963625,7.1137047,11.8404397625C6.7506628,12.2034816625,6.4616566,12.6370196625,6.2531524,13.1135358625C6.0871089000000005,13.4930124625,6.2601304,13.9352435625,6.639607,14.1012868625C7.0190835,14.2673301625,7.4613147,14.0943088625,7.6273584,13.7148322625C7.7629933,13.4048519625,7.9477177,13.1277465625,8.1743646,12.9011001625C9.0739312,12.0015330625,10.4629583,11.8897409625,11.4841795,12.5657238625ZM13.6029375,10.5535611625C13.6029375,10.5535611625,10.1067801,17.5520170625,10.1067801,17.5520170625C9.774376400000001,18.2174090625,10.2583017,19.0000000625,11.0021582,19.0000000625C11.0021582,19.0000000625,17.997840500000002,19.0000000625,17.997840500000002,19.0000000625C18.7418675,19.0000000625,19.2257805,18.2170870625,18.8930475,17.5516720625C18.8930475,17.5516720625,15.3935185,10.553216962499999,15.3935185,10.553216962499999C15.0245955,9.8154358625,13.9715745,9.8156380625,13.6029375,10.5535611625ZM14.9983475,12.495089562499999C14.9983475,12.495089562499999,14.9983475,15.4974070625,14.9983475,15.4974070625C14.9983475,15.7737620625,14.7742955,15.9977930625,14.4979135,15.9977930625C14.2215315,15.9977930625,13.9974805,15.7737620625,13.9974805,15.4974070625C13.9974805,15.4974070625,13.9974805,12.495089562499999,13.9974805,12.495089562499999C13.9974805,12.218733762500001,14.2215315,11.9947032625,14.4979135,11.9947032625C14.7742955,11.9947032625,14.9983475,12.218733762500001,14.9983475,12.495089562499999ZM14.4979135,17.9993380625C14.2215315,17.9993380625,13.9974805,17.775307062499998,13.9974805,17.498951062499998C13.9974805,17.222595062499998,14.2215315,16.9985660625,14.4979135,16.9985660625C14.7742955,16.9985660625,14.9983475,17.222595062499998,14.9983475,17.498951062499998C14.9983475,17.775307062499998,14.7742955,17.9993380625,14.4979135,17.9993380625Z" fill="#FFFFFF" fill-opacity="0.8999999761581421"/></g></svg>