<svg xmlns="http://www.w3.org/2000/svg" xmlns:xlink="http://www.w3.org/1999/xlink" fill="none" version="1.1" width="20" height="20" viewBox="0 0 20 20"><defs><clipPath id="master_svg0_31_54230"><rect x="0" y="0" width="20" height="20" rx="0"/></clipPath></defs><g clip-path="url(#master_svg0_31_54230)"><g><path d="M16.832196980667113,7.383305234374999C17.241596980667115,7.792695234375,17.628496980667116,8.260795234375,17.965196980667116,8.748745234375C18.122096980667113,8.976015234375,18.064996980667114,9.287405234375,17.837696980667115,9.444265234374999C17.610496980667115,9.601115234375001,17.299096980667116,9.544035234375,17.142196980667116,9.316765234375C16.839096980667115,8.877515234375,16.490696980667114,8.456035234375,16.125096980667116,8.090415234375C12.761996980667114,4.727349234375,7.3094369806671144,4.727349234375,3.9463769806671145,8.090415234375C3.598136980667114,8.438655234375,3.2535469806671142,8.860005234375,2.939362980667114,9.312895234375C2.7819609806671144,9.539785234375,2.4704299806671144,9.596115234374999,2.2435399806671144,9.438715234375C2.016649780667114,9.281305234375,1.9603184806671143,8.969775234375,2.117720580667114,8.742885234374999C2.464187980667114,8.243465234375,2.8461069806671144,7.776465234374999,3.2392669806671144,7.383305234374999C6.992856980667114,3.629718234375,13.078596980667115,3.629718234375,16.832196980667113,7.383305234374999ZM14.596496980667114,9.356745234375001C15.068896980667114,9.829075234375,15.478296980667114,10.402795234374999,15.790396980667115,11.012805234375C15.916096980667115,11.258655234375,15.818696980667115,11.559895234375,15.572896980667114,11.685635234374999C15.326996980667115,11.811385234374999,15.025796980667113,11.714025234375,14.899996980667114,11.468165234375C14.634296980667115,10.948525234375001,14.285596980667114,10.460025234375,13.889396980667115,10.063855234375C11.761096980667114,7.935515234375,8.310386980667115,7.935515234375,6.182046980667114,10.063855234375C5.768676980667115,10.477225234375,5.432716980667115,10.942235234375,5.174106980667114,11.453505234375001C5.049466980667114,11.699925234375,4.748666980667114,11.798635234375,4.502256980667115,11.674005234374999C4.255846980667114,11.549365234375,4.157126980667114,11.248565234375,4.281766980667115,11.002155234375C4.588006980667114,10.396705234375,4.986376980667114,9.845305234375001,5.474936980667114,9.356745234375001C7.993806980667114,6.837885234374999,12.077696980667115,6.837885234374999,14.596496980667114,9.356745234375001ZM12.887596980667114,11.853905234375C13.241796980667115,12.208175234375,13.533796980667114,12.643985234375,13.736896980667114,13.107605234375C13.847796980667114,13.360535234375,13.732596980667115,13.655415234375,13.479696980667114,13.766245234375C13.226696980667114,13.877075234375,12.931796980667114,13.761895234375,12.820996980667115,13.508965234375C12.666696980667114,13.156715234375,12.444396980667115,12.824995234375,12.180496980667114,12.561015234374999C10.995966980667115,11.376515234374999,9.075516980667114,11.376515234374999,7.891016980667114,12.561015234374999C7.6283169806671145,12.823715234375,7.415516980667114,13.142945234375,7.2599569806671145,13.498445234375C7.1492669806671145,13.751435234375,6.854446980667114,13.866775234375,6.601456980667114,13.756085234375C6.348476980667114,13.645385234375,6.233126980667114,13.350565234375,6.343826980667115,13.097585234375C6.547956980667114,12.631055234375,6.830286980667114,12.207535234375001,7.183916980667115,11.853905234375C8.758936980667114,10.278885234375,11.312546980667115,10.278885234375,12.887596980667114,11.853905234375ZM10.962906980667114,13.786535234375C11.469966980667115,14.293595234375,11.469966980667115,15.115715234375,10.962906980667114,15.622815234375C10.455836980667113,16.129815234375002,9.633726980667113,16.129815234375002,9.126656980667114,15.622815234375C8.619596980667115,15.115715234375,8.619596980667115,14.293595234375,9.126656980667114,13.786535234375C9.633726980667113,13.279465234375,10.455836980667113,13.279465234375,10.962906980667114,13.786535234375Z" fill="#242424" fill-opacity="1"/></g></g></svg>