<svg xmlns="http://www.w3.org/2000/svg" xmlns:xlink="http://www.w3.org/1999/xlink" fill="none" version="1.1" width="20" height="20" viewBox="0 0 20 20"><defs><clipPath id="master_svg0_36_013311"><rect x="0" y="0" width="20" height="20" rx="0"/></clipPath></defs><g clip-path="url(#master_svg0_36_013311)"><path d="M12.95481065145874,11.840554286169434C13.31828545145874,12.204029086169434,13.61653475145874,12.649276686169433,13.824168651458741,13.123107886169434C13.99041705145874,13.502494786169434,13.81763415145874,13.944819486169433,13.43824725145874,14.111067786169434C13.05886035145874,14.277316086169433,12.61653565145874,14.104533186169434,12.45028735145874,13.725146286169434C12.31585835145874,13.418372186169433,12.122197651458741,13.129261986169434,11.89415025145874,12.901214586169434C10.86692665145874,11.873990986169433,9.20146895145874,11.873990986169433,8.17424585145874,12.901214586169434C7.94759895145874,13.127860986169434,7.76287465145874,13.404966386169434,7.62723975145874,13.714946786169433C7.46119595145874,14.094423286169434,7.01896477145874,14.267444586169434,6.63948822145874,14.101401286169434C6.26001167345874,13.935358086169433,6.08699012145874,13.493126886169433,6.25303363845874,13.113650286169435C6.46153784145874,12.637134086169434,6.75054407145874,12.203596086169433,7.11358595145874,11.840554286169434C8.72659545145874,10.227544786169434,11.34180115145874,10.227544786169434,12.95481065145874,11.840554286169434ZM10.92127945145874,13.881700486169434C11.40642595145874,14.366847086169434,11.40642595145874,15.153424286169432,10.92127945145874,15.638570786169433C10.43613295145874,16.123717286169434,9.64955525145874,16.123717286169434,9.16440865145874,15.638570786169433C8.67926215145874,15.153424286169432,8.67926215145874,14.366847086169434,9.16440865145874,13.881700486169434C9.64955525145874,13.396553986169433,10.43613295145874,13.396553986169433,10.92127945145874,13.881700486169434Z" fill="#FFFFFF" fill-opacity="0.8999999761581421"/><path d="M2.23539798,8.901143062500001C1.99929482,9.2414784625,2.083791643,9.7087736625,2.42412701,9.9448766625C2.76446235,10.1809797625,3.2317581,10.096483662499999,3.4678613,9.7561483625C3.759697,9.3354763625,4.0792493,8.9447378625,4.4002347,8.6237525625C7.5118523,5.5121347925,12.5567805,5.5121347925,15.6683985,8.6237525625C16.006328500000002,8.9616818625,16.3291395,9.3522806625,16.610063500000003,9.7593145625C16.8453455,10.1002178625,17.3124365,10.1858410625,17.6533395,9.9505586625C17.9942425,9.7152762625,18.0798655,9.2481851625,17.8445835,8.9072818625C17.5132435,8.427200062499999,17.1326435,7.966676662499999,16.729059499999998,7.5630922625C13.0316545,3.8656880825,7.0369787,3.8656880825,3.3395745,7.5630922625C2.95120656,7.9514601625,2.57565665,8.4106707625,2.23539798,8.901143062500001ZM4.2866926,11.094968762499999C4.0997338,11.464589162500001,4.2478106,11.9157862625,4.6174312,12.1027450625C4.9870517,12.2897038625,5.4382482,12.1416263625,5.6252069,11.772006062500001C5.859700699999999,11.3084077625,6.1641817,10.8869690625,6.5392647,10.511886562499999C8.4695287,8.5816225625,11.5991049,8.5816225625,13.5293695,10.511886562499999C13.8877325,10.8702497625,14.2047895,11.3144883625,14.4465315,11.7871236625C14.6351515,12.1558990625,15.0870095,12.3019432625,15.4557845,12.1133231625C15.8245605,11.9247031625,15.9706045,11.4728450625,15.7819855,11.104069662499999C15.4709155,10.4958901625,15.0626275,9.9238242625,14.5900295,9.4512262625C12.0739794,6.9351756625,7.9946547,6.9351756625,5.478604300000001,9.4512262625C4.9907417,9.9390888625,4.592632500000001,10.4901208625,4.2866926,11.094968762499999Z" fill="#FFFFFF" fill-opacity="0.30000001192092896"/></g></svg>