<svg xmlns="http://www.w3.org/2000/svg" xmlns:xlink="http://www.w3.org/1999/xlink" fill="none" version="1.1" width="20" height="20" viewBox="0 0 20 20"><defs><clipPath id="master_svg0_36_013318"><rect x="0" y="0" width="20" height="20" rx="0"/></clipPath></defs><g clip-path="url(#master_svg0_36_013318)"><path d="M17.191888499999997,14.78725328125L3.5241959,4.67370517525C3.3763430000000003,4.56606263625,3.169076,4.59766497425,3.06009543,4.74494365125L2.66354686,5.28084820125C2.55404302,5.42883420125,2.58523893,5.63757098125,2.73322487,5.7470748812500005L4.1788127,6.8167535812499995C3.8881451,7.04607298125,3.6078143000000003,7.29485248125,3.3395745,7.56309228125C2.95120656,7.95146008125,2.57565665,8.41067078125,2.23539798,8.90114308125C1.99929482,9.241478481249999,2.083791643,9.70877358125,2.42412701,9.944876681250001C2.76446235,10.180979681250001,3.2317581,10.09648368125,3.4678613,9.75614838125C3.759697,9.33547638125,4.0792493,8.94473788125,4.4002347,8.623752581249999C4.726259499999999,8.29772778125,5.073508,8.00586318125,5.4375333999999995,7.748157981249999L6.5606437,8.57921598125C6.177125,8.82518288125,5.8139775,9.11585328125,5.478604300000001,9.451226281250001C4.9907417,9.93908878125,4.592632500000001,10.49012088125,4.2866926,11.09496878125C4.0997338,11.46458908125,4.2478106,11.91578628125,4.6174312,12.10274508125C4.9870517,12.28970388125,5.4382482,12.14162638125,5.6252069,11.77200608125C5.859700699999999,11.30840778125,6.1641817,10.886969081250001,6.5392647,10.51188658125C6.9416761,10.10947518125,7.3962116,9.79095648125,7.8811383,9.55633068125L9.3990679,10.67953918125C8.5625267,10.80904438125,7.7581329,11.19601158125,7.1137047,11.84043978125C6.7506628,12.20348168125,6.4616566,12.63702008125,6.2531524,13.11353588125C6.0871089000000005,13.49301238125,6.2601304,13.93524358125,6.639607,14.10128688125C7.0190835,14.26733018125,7.4613147,14.09430888125,7.6273584,13.71483228125C7.7629933,13.40485188125,7.9477177,13.12774658125,8.1743646,12.90110018125C9.201587700000001,11.87387658125,10.8670454,11.87387658125,11.894269,12.90110018125C12.1223165,13.12914748125,12.3159775,13.41825768125,12.4504065,13.72503188125C12.6166545,14.10441878125,13.0589795,14.27720168125,13.4383655,14.11095328125C13.5571065,14.05892088125,13.6556085,13.97984598125,13.7298115,13.88412098125L16.3987915,15.85906228125C16.546777499999997,15.96856628125,16.7555155,15.93737028125,16.865018499999998,15.78938528125L17.2615665,15.25348028125C17.371070500000002,15.10549328125,17.3398745,14.89675728125,17.191888499999997,14.78725328125ZM6.1535378,5.61913278125L7.5809665,6.67537308125C10.336462,5.78628878125,13.4803945,6.4357485812499995,15.6683985,8.623752581249999C16.006328500000002,8.96168188125,16.3291395,9.35228058125,16.610063500000003,9.759314581249999C16.8453455,10.100217781249999,17.3124365,10.18584108125,17.6533395,9.950558681250001C17.9942425,9.71527628125,18.0798655,9.248185181250001,17.8445835,8.90728188125C17.5132435,8.42720008125,17.1326435,7.96667668125,16.729059499999998,7.56309228125C13.8695005,4.70353334425,9.6358461,4.05554688125,6.1535378,5.61913278125ZM8.914017699999999,7.66177798125L10.9157257,9.14296198125C11.873106,9.31557848125,12.7893685,9.771886381249999,13.5293695,10.51188658125C13.8747865,10.85730318125,14.1818265,11.282503081249999,14.4200385,11.736013881249999L15.0356665,12.19155408125C15.1755495,12.206423781249999,15.3211995,12.18216038125,15.4557845,12.11332318125C15.8245605,11.92470308125,15.9706045,11.47284508125,15.7819855,11.10406968125C15.4709155,10.495890181250001,15.0626275,9.923824281249999,14.5900295,9.451226281250001C13.0459155,7.90711208125,10.9130192,7.31062938125,8.914017699999999,7.66177798125ZM10.9213982,13.88158608125C11.4065447,14.36673258125,11.4065447,15.15331028125,10.9213982,15.63845628125C10.4362516,16.12360328125,9.6496739,16.12360328125,9.1645274,15.63845628125C8.6793809,15.15331028125,8.6793809,14.36673258125,9.1645274,13.88158608125C9.6496739,13.39643958125,10.4362516,13.39643958125,10.9213982,13.88158608125Z" fill-rule="evenodd" fill="#FFFFFF" fill-opacity="0.8999999761581421"/></g></svg>