<svg xmlns="http://www.w3.org/2000/svg" xmlns:xlink="http://www.w3.org/1999/xlink" fill="none" version="1.1" width="20" height="20" viewBox="0 0 20 20"><defs><clipPath id="master_svg0_36_013308"><rect x="0" y="0" width="20" height="20" rx="0"/></clipPath></defs><g clip-path="url(#master_svg0_36_013308)"><path d="M14.589910403076171,9.451340444458008C15.062509403076172,9.923938544458007,15.470796403076172,10.496004344458008,15.781866403076172,11.104183944458008C15.970485403076172,11.472959244458007,15.824442403076171,11.924817044458008,15.455665403076171,12.113437644458008C15.086891403076171,12.302057244458009,14.635032403076172,12.156013444458008,14.446413403076171,11.787238144458009C14.204669903076171,11.314602644458008,13.887613303076172,10.870363944458008,13.529251103076172,10.512000844458008C11.598986103076172,8.581736844458007,8.469409903076173,8.581736844458007,6.539145903076172,10.512000844458008C6.164063003076172,10.887083244458008,5.8595819030761715,11.308521944458008,5.625088203076172,11.772120444458007C5.4381294030761715,12.141740844458008,4.986932993076172,12.289817844458007,4.617312433076172,12.102859544458008C4.247691870076172,11.915900244458008,4.099615093076172,11.464703344458009,4.286573887076172,11.095083044458008C4.592513803076172,10.490235044458007,4.990622993076172,9.939203044458008,5.478485603076172,9.451340444458008C7.994535903076172,6.935289864458007,12.073860603076172,6.935289864458007,14.589910403076171,9.451340444458008ZM12.954811103076171,11.840554244458009C13.318285003076172,12.204029044458007,13.616535203076172,12.649276744458007,13.824169203076172,13.123107944458008C13.990417503076172,13.502494844458008,13.817634603076172,13.944819444458009,13.438247703076172,14.111067744458008C13.058860803076172,14.277316044458008,12.616535203076172,14.104533244458008,12.450286903076172,13.725146244458008C12.315858803076171,13.418372144458008,12.122197603076172,13.129261944458008,11.894150303076172,12.901214644458008C10.866926703076171,11.873991044458009,9.201468903076172,11.873991044458009,8.174245803076172,12.901214644458008C7.947598903076171,13.127861044458008,7.762874603076172,13.404966344458007,7.627239703076172,13.714946744458008C7.461195903076172,14.094423244458007,7.018964803076171,14.267444644458008,6.639488203076172,14.101401344458008C6.260011703076172,13.935358044458008,6.086990103076172,13.493126844458008,6.253033603076172,13.113650344458009C6.4615378030761725,12.637133644458007,6.750544103076171,12.203596144458007,7.113585903076172,11.840554244458009C8.726595403076171,10.227544544458008,11.341801203076173,10.227544544458008,12.954811103076171,11.840554244458009ZM10.921279403076172,13.881700544458008C11.406425903076173,14.366847044458009,11.406425903076173,15.153424244458009,10.921279403076172,15.638570744458008C10.436132903076171,16.123717344458008,9.649555203076172,16.123717344458008,9.164408703076173,15.638570744458008C8.67926220307617,15.153424244458009,8.67926220307617,14.366847044458009,9.164408703076173,13.881700544458008C9.649555203076172,13.396553944458008,10.436132903076171,13.396553944458008,10.921279403076172,13.881700544458008Z" fill="#FFFFFF" fill-opacity="0.8999999761581421"/><path d="M2.23539798,8.901143062500001C1.99929482,9.2414784625,2.083791643,9.7087736625,2.42412701,9.9448766625C2.76446235,10.1809797625,3.2317581,10.096483662499999,3.4678613,9.7561483625C3.759697,9.3354763625,4.0792493,8.9447378625,4.4002347,8.6237525625C7.5118523,5.5121347925,12.5567805,5.5121347925,15.6683985,8.6237525625C16.006328500000002,8.9616818625,16.3291395,9.3522806625,16.610063500000003,9.7593145625C16.8453455,10.1002178625,17.3124365,10.1858410625,17.6533395,9.9505586625C17.9942425,9.7152762625,18.0798655,9.2481851625,17.8445835,8.9072818625C17.5132435,8.427200062499999,17.1326435,7.966676662499999,16.729059499999998,7.5630922625C13.0316545,3.8656880825,7.0369787,3.8656880825,3.3395745,7.5630922625C2.95120656,7.9514601625,2.57565665,8.4106707625,2.23539798,8.901143062500001Z" fill="#FFFFFF" fill-opacity="0.30000001192092896"/></g></svg>