<svg xmlns="http://www.w3.org/2000/svg" xmlns:xlink="http://www.w3.org/1999/xlink" fill="none" version="1.1" width="20" height="20" viewBox="0 0 20 20"><defs><clipPath id="master_svg0_210_66022"><rect x="0" y="0" width="20" height="20" rx="0"/></clipPath></defs><g clip-path="url(#master_svg0_210_66022)"><g><path d="M16.077633,5.894999076562501C14.722456,3.8921658765625002,12.464499,2.6666259765625,10.000061,2.6666259765625C7.5335865,2.6666259765625,5.274003,3.8942030765625,3.9192679,5.8997616765625L3.7326839,6.1759814765625C3.6296364,6.3285338765625,3.6697679,6.535737976562499,3.8223200999999998,6.638785876562499L4.3747602,7.0119538765625C4.5273123,7.1150011765625,4.7345169,7.0748696765625,4.8375645,6.9223174765625L5.0241485,6.6460971765625C6.1335087,5.0037932765625,7.9812512,3.9999593765625,10.000061,3.9999593765625C12.017205,3.9999593765625,13.863613,5.0021245765625,14.973338,6.642199276562501L15.160137,6.9182729765625C15.263305,7.0707444765625,15.470541,7.1107139765625,15.623012,7.0075473765625L16.175159,6.633947176562501C16.327632,6.5307802765625,16.367601,6.3235444765625,16.264434,6.1710729765625L16.077633,5.894999076562501ZM9.3745275,8.6123885765625C8.9955053,8.218788576562499,8.501682299999999,8.0146999765625,7.8930607,8.0001220765625Q6.9801269,8.0219888765625,6.4115934,8.6123885765625Q5.843060299999999,9.197321876562501,5.8266602,10.071989076562499Q5.843060299999999,10.9466552765625,6.4115934,11.5370559765625Q6.9801269,12.1219892765625,7.8930607,12.1438560765625C8.501682299999999,12.1292781765625,8.9955053,11.9270114765625,9.3745275,11.5370559765625Q9.9375944,10.9521217765625,9.9539938,10.071989076562499Q9.9375944,9.197321876562501,9.3745275,8.6123885765625ZM17.077164,8.6123885765625C16.698142,8.218788576562499,16.204318999999998,8.0146999765625,15.595697,8.0001220765625Q14.682764,8.0219888765625,14.11423,8.6123885765625Q13.545696,9.197321876562501,13.529297,10.071989076562499Q13.545696,10.9466552765625,14.11423,11.5370559765625Q14.682764,12.1219892765625,15.595697,12.1438560765625C16.204318999999998,12.1292781765625,16.698142,11.9270114765625,17.077164,11.5370559765625C17.452541,11.1471004765625,17.645698,10.658744376562499,17.656631,10.071989076562499C17.645698,9.4888777765625,17.452541,9.002344176562499,17.077164,8.6123885765625ZM3.1534667,8.0601806765625L3.9297333,9.645513976562501L4.7169333,8.0601806765625L5.8594666,8.0601806765625L4.4162666999999995,10.492847476562499L4.4162666999999995,12.0781802765625L3.4268,12.0781802765625L3.4268,10.492847476562499L2,8.0601806765625L3.1534667,8.0601806765625ZM10.8561039,8.0601806765625L11.63237,9.645513976562501L12.41957,8.0601806765625L13.562103,8.0601806765625L12.118903,10.492847476562499L12.118903,12.0781802765625L11.1294365,12.0781802765625L11.1294365,10.492847476562499L9.7026367,8.0601806765625L10.8561039,8.0601806765625ZM7.1495008,9.2301258765625Q7.4337678,8.907592776562499,7.8929677,8.907592776562499Q8.3521676,8.907592776562499,8.636434600000001,9.2301258765625Q8.9152346,9.5471930765625,8.9152346,10.0719928765625Q8.9152346,10.6022596765625,8.636434600000001,10.9193267765625C8.4505682,11.1307038765625,8.202745400000001,11.2363929765625,7.8929677,11.2363929765625Q7.4283013,11.2363929765625,7.1440344,10.9138593765625C6.9581676,10.7024812765625,6.8652344,10.4218597765625,6.8652344,10.0719928765625Q6.8652344,9.5526599765625,7.1495008,9.2301258765625ZM14.852138,9.2301258765625C15.041649,9.015103776562501,15.289471,8.907592776562499,15.595605,8.907592776562499C15.901738,8.907592776562499,16.14956,9.015103776562501,16.339071,9.2301258765625Q16.61787,9.5471930765625,16.617871,10.0719928765625Q16.61787,10.6022596765625,16.339071,10.9193267765625C16.153205,11.1307038765625,15.905382,11.2363929765625,15.595605,11.2363929765625C15.285827,11.2363929765625,15.036182,11.1288814765625,14.846671,10.9138593765625C14.660805,10.7024812765625,14.567871,10.4218597765625,14.567871,10.0719928765625Q14.567871,9.5526599765625,14.852138,9.2301258765625ZM4.8420904,13.0854529765625L5.029090399999999,13.3613919765625C6.1391492,14.9994019765625,7.9843211,16.000022976562498,9.9999237,16.000022976562498C12.014457,16.000022976562498,13.85877,15.0004729765625,14.969061,13.3638939765625L15.156199,13.0880499765625C15.259552,12.9357049765625,15.466838,12.8959899765625,15.619182,12.9993439765625L16.170870999999998,13.3736219765625C16.323214999999998,13.4769749765625,16.36293,13.6842599765625,16.259577,13.8366049765625L16.072437,14.1124499765625C14.716574,16.111008976562502,12.461166,17.3333569765625,9.9999237,17.3333569765625C7.5373726,17.3333569765625,5.280921,16.1097009765625,3.9253362000000003,14.1093919765625L3.7383360999999997,13.8334539765625C3.6350588,13.6810569765625,3.6748779000000003,13.4737919765625,3.8272746,13.3705149765625L4.3791518,12.9965149765625C4.5315483,12.8932369765625,4.7388129,12.9330569765625,4.8420904,13.0854529765625Z" fill-rule="evenodd" fill="#FFFFFF" fill-opacity="0.8999999761581421"/></g></g></svg>